  0
SECTION
  2
HEADER
  9
$ACADVER
  1
AC1014
  9
$HANDSEED
  5
FFFF
  9
$MEASUREMENT
 70
     1
  0
ENDSEC
  0
SECTION
  2
TABLES
  0
TABLE
  2
VPORT
  5
8
330
0
100
AcDbSymbolTable
 70
     4
  0
VPORT
  5
2E
330
8
100
AcDbSymbolTableRecord
100
AcDbViewportTableRecord
  2
*ACTIVE
 70
     0
 10
0.0
 20
0.0
 11
1.0
 21
1.0
 12
210.0
 22
148.5
 13
0.0
 23
0.0
 14
10.0
 24
10.0
 15
10.0
 25
10.0
 16
0.0
 26
0.0
 36
1.0
 17
0.0
 27
0.0
 37
0.0
 40
341.0
 41
1.24
 42
50.0
 43
0.0
 44
0.0
 50
0.0
 51
0.0
 71
     0
 72
   100
 73
     1
 74
     3
 75
     0
 76
     0
 77
     0
 78
     0
  0
ENDTAB
  0
TABLE
  2
LTYPE
  5
5
330
0
100
AcDbSymbolTable
 70
     1
  0
LTYPE
  5
14
330
5
100
AcDbSymbolTableRecord
100
AcDbLinetypeTableRecord
  2
BYBLOCK
 70
     0
  3

 72
    65
 73
     0
 40
0.0
  0
LTYPE
  5
15
330
5
100
AcDbSymbolTableRecord
100
AcDbLinetypeTableRecord
  2
BYLAYER
 70
     0
  3

 72
    65
 73
     0
 40
0.0
  0
LTYPE
  5
16
330
5
100
AcDbSymbolTableRecord
100
AcDbLinetypeTableRecord
  2
CONTINUOUS
 70
     0
  3
Solid line
 72
    65
 73
     0
 40
0.0
  0
ENDTAB
  0
TABLE
  2
LAYER
  5
2
100
AcDbSymbolTable
 70
2
  0
LAYER
  5
50
100
AcDbSymbolTableRecord
100
AcDbLayerTableRecord
  2
0
 70
0
  6
CONTINUOUS
  0
LAYER
  5
51
100
AcDbSymbolTableRecord
100
AcDbLayerTableRecord
  2
Image
 70
0
  6
CONTINUOUS
  0
ENDTAB
  0
TABLE
  2
STYLE
  5
3
330
0
100
AcDbSymbolTable
 70
     1
  0
STYLE
  5
11
330
3
100
AcDbSymbolTableRecord
100
AcDbTextStyleTableRecord
  2
STANDARD
 70
     0
 40
0.0
 41
1.0
 50
0.0
 71
     0
 42
2.5
  3
txt
  4

  0
ENDTAB
  0
TABLE
  2
VIEW
  5
6
330
0
100
AcDbSymbolTable
 70
     0
  0
ENDTAB
  0
TABLE
  2
UCS
  5
7
330
0
100
AcDbSymbolTable
 70
     0
  0
ENDTAB
  0
TABLE
  2
APPID
  5
9
330
0
100
AcDbSymbolTable
 70
     2
  0
APPID
  5
12
330
9
100
AcDbSymbolTableRecord
100
AcDbRegAppTableRecord
  2
ACAD
 70
     0
  0
ENDTAB
  0
TABLE
  2
DIMSTYLE
  5
A
330
0
100
AcDbSymbolTable
 70
     1
  0
DIMSTYLE
105
27
330
A
100
AcDbSymbolTableRecord
100
AcDbDimStyleTableRecord
  2
ISO-25
 70
     0
  3

  4

  5

  6

  7

 40
1.0
 41
2.5
 42
0.625
 43
3.75
 44
1.25
 45
0.0
 46
0.0
 47
0.0
 48
0.0
140
2.5
141
2.5
142
0.0
143
0.03937007874016
144
1.0
145
0.0
146
1.0
147
0.625
 71
     0
 72
     0
 73
     0
 74
     0
 75
     0
 76
     0
 77
     1
 78
     8
170
     0
171
     3
172
     1
173
     0
174
     0
175
     0
176
     0
177
     0
178
     0
270
     2
271
     2
272
     2
273
     2
274
     3
340
11
275
     0
280
     0
281
     0
282
     0
283
     0
284
     8
285
     0
286
     0
287
     3
288
     0
  0
ENDTAB
  0
TABLE
  2
BLOCK_RECORD
  5
1
330
0
100
AcDbSymbolTable
 70
     1
  0
BLOCK_RECORD
  5
1F
330
1
100
AcDbSymbolTableRecord
100
AcDbBlockTableRecord
  2
*MODEL_SPACE
  0
BLOCK_RECORD
  5
1B
330
1
100
AcDbSymbolTableRecord
100
AcDbBlockTableRecord
  2
*PAPER_SPACE
  0
ENDTAB
  0
ENDSEC
  0
SECTION
  2
BLOCKS
  0
BLOCK
  5
20
330
1F
100
AcDbEntity
  8
0
100
AcDbBlockBegin
  2
*MODEL_SPACE
 70
     0
 10
0.0
 20
0.0
 30
0.0
  3
*MODEL_SPACE
  1

  0
ENDBLK
  5
21
330
1F
100
AcDbEntity
  8
0
100
AcDbBlockEnd
  0
BLOCK
  5
1C
330
1B
100
AcDbEntity
 67
     1
  8
0
100
AcDbBlockBegin
  2
*PAPER_SPACE
  1

  0
ENDBLK
  5
1D
330
1B
100
AcDbEntity
 67
     1
  8
0
100
AcDbBlockEnd
  0
ENDSEC
  0
SECTION
  2
ENTITIES
  0
SPLINE
  5
100
100
AcDbEntity
  8
Image
 62
1
100
AcDbSpline
 70
8
 71
3
 72
8
 73
4
 74
0
 40
0
 40
0
 40
0
 40
0
 40
1
 40
1
 40
1
 40
1
 10
134.794133
 20
56.805854
 30
0.0
 10
134.794133
 20
56.835749
 30
0.0
 10
134.757443
 20
56.860210
 30
0.0
 10
134.712599
 20
56.860210
 30
0.0
  0
SPLINE
  5
101
100
AcDbEntity
  8
Image
 62
1
100
AcDbSpline
 70
8
 71
3
 72
8
 73
4
 74
0
 40
0
 40
0
 40
0
 40
0
 40
1
 40
1
 40
1
 40
1
 10
134.712599
 20
56.860210
 30
0.0
 10
134.650993
 20
56.860210
 30
0.0
 10
134.631062
 20
56.926647
 30
0.0
 10
134.631062
 20
57.131995
 30
0.0
  0
SPLINE
  5
102
100
AcDbEntity
  8
Image
 62
1
100
AcDbSpline
 70
8
 71
3
 72
8
 73
4
 74
0
 40
0
 40
0
 40
0
 40
0
 40
1
 40
1
 40
1
 40
1
 10
134.631062
 20
57.131995
 30
0.0
 10
134.631062
 20
57.281477
 30
0.0
 10
134.606615
 20
57.403780
 30
0.0
 10
134.576706
 20
57.403780
 30
0.0
  0
SPLINE
  5
103
100
AcDbEntity
  8
Image
 62
1
100
AcDbSpline
 70
8
 71
3
 72
8
 73
4
 74
0
 40
0
 40
0
 40
0
 40
0
 40
1
 40
1
 40
1
 40
1
 10
134.576706
 20
57.403780
 30
0.0
 10
134.546811
 20
57.403780
 30
0.0
 10
134.522350
 20
57.513852
 30
0.0
 10
134.522350
 20
57.648385
 30
0.0
  0
SPLINE
  5
104
100
AcDbEntity
  8
Image
 62
1
100
AcDbSpline
 70
8
 71
3
 72
8
 73
4
 74
0
 40
0
 40
0
 40
0
 40
0
 40
1
 40
1
 40
1
 40
1
 10
134.522350
 20
57.648385
 30
0.0
 10
134.522350
 20
57.782918
 30
0.0
 10
134.497903
 20
57.892990
 30
0.0
 10
134.467992
 20
57.892990
 30
0.0
  0
SPLINE
  5
105
100
AcDbEntity
  8
Image
 62
1
100
AcDbSpline
 70
8
 71
3
 72
8
 73
4
 74
0
 40
0
 40
0
 40
0
 40
0
 40
1
 40
1
 40
1
 40
1
 10
134.467992
 20
57.892990
 30
0.0
 10
134.438096
 20
57.892990
 30
0.0
 10
134.413636
 20
58.028292
 30
0.0
 10
134.413636
 20
58.193660
 30
0.0
  0
SPLINE
  5
106
100
AcDbEntity
  8
Image
 62
1
100
AcDbSpline
 70
8
 71
3
 72
8
 73
4
 74
0
 40
0
 40
0
 40
0
 40
0
 40
1
 40
1
 40
1
 40
1
 10
134.413636
 20
58.193660
 30
0.0
 10
134.413636
 20
58.410777
 30
0.0
 10
134.390987
 20
58.503024
 30
0.0
 10
134.332102
 20
58.525616
 30
0.0
  0
SPLINE
  5
107
100
AcDbEntity
  8
Image
 62
1
100
AcDbSpline
 70
8
 71
3
 72
8
 73
4
 74
0
 40
0
 40
0
 40
0
 40
0
 40
1
 40
1
 40
1
 40
1
 10
134.332102
 20
58.525616
 30
0.0
 10
134.273570
 20
58.548080
 30
0.0
 10
134.250565
 20
58.639620
 30
0.0
 10
134.250565
 20
58.850051
 30
0.0
  0
SPLINE
  5
108
100
AcDbEntity
  8
Image
 62
1
100
AcDbSpline
 70
8
 71
3
 72
8
 73
4
 74
0
 40
0
 40
0
 40
0
 40
0
 40
1
 40
1
 40
1
 40
1
 10
134.250565
 20
58.850051
 30
0.0
 10
134.250565
 20
59.011283
 30
0.0
 10
134.226117
 20
59.143199
 30
0.0
 10
134.196209
 20
59.143199
 30
0.0
  0
SPLINE
  5
109
100
AcDbEntity
  8
Image
 62
1
100
AcDbSpline
 70
8
 71
3
 72
8
 73
4
 74
0
 40
0
 40
0
 40
0
 40
0
 40
1
 40
1
 40
1
 40
1
 10
134.196209
 20
59.143199
 30
0.0
 10
134.166311
 20
59.143199
 30
0.0
 10
134.141853
 20
59.265500
 30
0.0
 10
134.141853
 20
59.414981
 30
0.0
  0
SPLINE
  5
10a
100
AcDbEntity
  8
Image
 62
1
100
AcDbSpline
 70
8
 71
3
 72
8
 73
4
 74
0
 40
0
 40
0
 40
0
 40
0
 40
1
 40
1
 40
1
 40
1
 10
134.141853
 20
59.414981
 30
0.0
 10
134.141853
 20
59.564463
 30
0.0
 10
134.117379
 20
59.686767
 30
0.0
 10
134.087494
 20
59.686767
 30
0.0
  0
SPLINE
  5
10b
100
AcDbEntity
  8
Image
 62
1
100
AcDbSpline
 70
8
 71
3
 72
8
 73
4
 74
0
 40
0
 40
0
 40
0
 40
0
 40
1
 40
1
 40
1
 40
1
 10
134.087494
 20
59.686767
 30
0.0
 10
134.057599
 20
59.686767
 30
0.0
 10
134.033138
 20
59.821299
 30
0.0
 10
134.033138
 20
59.985730
 30
0.0
  0
SPLINE
  5
10c
100
AcDbEntity
  8
Image
 62
1
100
AcDbSpline
 70
8
 71
3
 72
8
 73
4
 74
0
 40
0
 40
0
 40
0
 40
0
 40
1
 40
1
 40
1
 40
1
 10
134.033138
 20
59.985730
 30
0.0
 10
134.033138
 20
60.215235
 30
0.0
 10
134.014194
 20
60.284691
 30
0.0
 10
133.951602
 20
60.284691
 30
0.0
  0
SPLINE
  5
10d
100
AcDbEntity
  8
Image
 62
1
100
AcDbSpline
 70
8
 71
3
 72
8
 73
4
 74
0
 40
0
 40
0
 40
0
 40
0
 40
1
 40
1
 40
1
 40
1
 10
133.951602
 20
60.284691
 30
0.0
 10
133.889999
 20
60.284691
 30
0.0
 10
133.870068
 20
60.351128
 30
0.0
 10
133.870068
 20
60.556476
 30
0.0
  0
SPLINE
  5
10e
100
AcDbEntity
  8
Image
 62
1
100
AcDbSpline
 70
8
 71
3
 72
8
 73
4
 74
0
 40
0
 40
0
 40
0
 40
0
 40
1
 40
1
 40
1
 40
1
 10
133.870068
 20
60.556476
 30
0.0
 10
133.870068
 20
60.705958
 30
0.0
 10
133.845594
 20
60.828261
 30
0.0
 10
133.815712
 20
60.828261
 30
0.0
  0
SPLINE
  5
10f
100
AcDbEntity
  8
Image
 62
1
100
AcDbSpline
 70
8
 71
3
 72
8
 73
4
 74
0
 40
0
 40
0
 40
0
 40
0
 40
1
 40
1
 40
1
 40
1
 10
133.815712
 20
60.828261
 30
0.0
 10
133.785814
 20
60.828261
 30
0.0
 10
133.761353
 20
60.962794
 30
0.0
 10
133.761353
 20
61.127222
 30
0.0
  0
SPLINE
  5
110
100
AcDbEntity
  8
Image
 62
1
100
AcDbSpline
 70
8
 71
3
 72
8
 73
4
 74
0
 40
0
 40
0
 40
0
 40
0
 40
1
 40
1
 40
1
 40
1
 10
133.761353
 20
61.127222
 30
0.0
 10
133.761353
 20
61.291653
 30
0.0
 10
133.736906
 20
61.426185
 30
0.0
 10
133.706997
 20
61.426185
 30
0.0
  0
SPLINE
  5
111
100
AcDbEntity
  8
Image
 62
1
100
AcDbSpline
 70
8
 71
3
 72
8
 73
4
 74
0
 40
0
 40
0
 40
0
 40
0
 40
1
 40
1
 40
1
 40
1
 10
133.706997
 20
61.426185
 30
0.0
 10
133.676797
 20
61.426185
 30
0.0
 10
133.652641
 20
61.571137
 30
0.0
 10
133.652641
 20
61.752327
 30
0.0
  0
SPLINE
  5
112
100
AcDbEntity
  8
Image
 62
1
100
AcDbSpline
 70
8
 71
3
 72
8
 73
4
 74
0
 40
0
 40
0
 40
0
 40
0
 40
1
 40
1
 40
1
 40
1
 10
133.652641
 20
61.752327
 30
0.0
 10
133.652641
 20
62.005993
 30
0.0
 10
133.634517
 20
62.078468
 30
0.0
 10
133.571104
 20
62.078468
 30
0.0
  0
SPLINE
  5
113
100
AcDbEntity
  8
Image
 62
1
100
AcDbSpline
 70
8
 71
3
 72
8
 73
4
 74
0
 40
0
 40
0
 40
0
 40
0
 40
1
 40
1
 40
1
 40
1
 10
133.571104
 20
62.078468
 30
0.0
 10
133.510708
 20
62.078468
 30
0.0
 10
133.489570
 20
62.141883
 30
0.0
 10
133.489570
 20
62.323072
 30
0.0
  0
SPLINE
  5
114
100
AcDbEntity
  8
Image
 62
1
100
AcDbSpline
 70
8
 71
3
 72
8
 73
4
 74
0
 40
0
 40
0
 40
0
 40
0
 40
1
 40
1
 40
1
 40
1
 10
133.489570
 20
62.323072
 30
0.0
 10
133.489570
 20
62.457608
 30
0.0
 10
133.465123
 20
62.567680
 30
0.0
 10
133.435212
 20
62.567680
 30
0.0
  0
SPLINE
  5
115
100
AcDbEntity
  8
Image
 62
1
100
AcDbSpline
 70
8
 71
3
 72
8
 73
4
 74
0
 40
0
 40
0
 40
0
 40
0
 40
1
 40
1
 40
1
 40
1
 10
133.435212
 20
62.567680
 30
0.0
 10
133.405316
 20
62.567680
 30
0.0
 10
133.380856
 20
62.689983
 30
0.0
 10
133.380856
 20
62.839462
 30
0.0
  0
SPLINE
  5
116
100
AcDbEntity
  8
Image
 62
1
100
AcDbSpline
 70
8
 71
3
 72
8
 73
4
 74
0
 40
0
 40
0
 40
0
 40
0
 40
1
 40
1
 40
1
 40
1
 10
133.380856
 20
62.839462
 30
0.0
 10
133.380856
 20
62.988944
 30
0.0
 10
133.356408
 20
63.111248
 30
0.0
 10
133.326500
 20
63.111248
 30
0.0
  0
SPLINE
  5
117
100
AcDbEntity
  8
Image
 62
1
100
AcDbSpline
 70
8
 71
3
 72
8
 73
4
 74
0
 40
0
 40
0
 40
0
 40
0
 40
1
 40
1
 40
1
 40
1
 10
133.326500
 20
63.111248
 30
0.0
 10
133.296602
 20
63.111248
 30
0.0
 10
133.272141
 20
63.245780
 30
0.0
 10
133.272141
 20
63.410211
 30
0.0
  0
SPLINE
  5
118
100
AcDbEntity
  8
Image
 62
1
100
AcDbSpline
 70
8
 71
3
 72
8
 73
4
 74
0
 40
0
 40
0
 40
0
 40
0
 40
1
 40
1
 40
1
 40
1
 10
133.272141
 20
63.410211
 30
0.0
 10
133.272141
 20
63.639716
 30
0.0
 10
133.253197
 20
63.709174
 30
0.0
 10
133.190607
 20
63.709174
 30
0.0
  0
SPLINE
  5
119
100
AcDbEntity
  8
Image
 62
1
100
AcDbSpline
 70
8
 71
3
 72
8
 73
4
 74
0
 40
0
 40
0
 40
0
 40
0
 40
1
 40
1
 40
1
 40
1
 10
133.190607
 20
63.709174
 30
0.0
 10
133.128015
 20
63.709174
 30
0.0
 10
133.109070
 20
63.778630
 30
0.0
 10
133.109070
 20
64.008135
 30
0.0
  0
SPLINE
  5
11a
100
AcDbEntity
  8
Image
 62
1
100
AcDbSpline
 70
8
 71
3
 72
8
 73
4
 74
0
 40
0
 40
0
 40
0
 40
0
 40
1
 40
1
 40
1
 40
1
 10
133.109070
 20
64.008135
 30
0.0
 10
133.109070
 20
64.172566
 30
0.0
 10
133.084623
 20
64.307098
 30
0.0
 10
133.054714
 20
64.307098
 30
0.0
  0
SPLINE
  5
11b
100
AcDbEntity
  8
Image
 62
1
100
AcDbSpline
 70
8
 71
3
 72
8
 73
4
 74
0
 40
0
 40
0
 40
0
 40
0
 40
1
 40
1
 40
1
 40
1
 10
133.054714
 20
64.307098
 30
0.0
 10
133.024819
 20
64.307098
 30
0.0
 10
133.000358
 20
64.429402
 30
0.0
 10
133.000358
 20
64.578884
 30
0.0
  0
SPLINE
  5
11c
100
AcDbEntity
  8
Image
 62
1
100
AcDbSpline
 70
8
 71
3
 72
8
 73
4
 74
0
 40
0
 40
0
 40
0
 40
0
 40
1
 40
1
 40
1
 40
1
 10
133.000358
 20
64.578884
 30
0.0
 10
133.000358
 20
64.728365
 30
0.0
 10
132.975911
 20
64.850666
 30
0.0
 10
132.946002
 20
64.850666
 30
0.0
  0
SPLINE
  5
11d
100
AcDbEntity
  8
Image
 62
1
100
AcDbSpline
 70
8
 71
3
 72
8
 73
4
 74
0
 40
0
 40
0
 40
0
 40
0
 40
1
 40
1
 40
1
 40
1
 10
132.946002
 20
64.850666
 30
0.0
 10
132.916104
 20
64.850666
 30
0.0
 10
132.891644
 20
64.985969
 30
0.0
 10
132.891644
 20
65.151336
 30
0.0
  0
SPLINE
  5
11e
100
AcDbEntity
  8
Image
 62
1
100
AcDbSpline
 70
8
 71
3
 72
8
 73
4
 74
0
 40
0
 40
0
 40
0
 40
0
 40
1
 40
1
 40
1
 40
1
 10
132.891644
 20
65.151336
 30
0.0
 10
132.891644
 20
65.368453
 30
0.0
 10
132.868995
 20
65.460697
 30
0.0
 10
132.810110
 20
65.483293
 30
0.0
  0
SPLINE
  5
11f
100
AcDbEntity
  8
Image
 62
1
100
AcDbSpline
 70
8
 71
3
 72
8
 73
4
 74
0
 40
0
 40
0
 40
0
 40
0
 40
1
 40
1
 40
1
 40
1
 10
132.810110
 20
65.483293
 30
0.0
 10
132.754989
 20
65.504433
 30
0.0
 10
132.728573
 20
65.590899
 30
0.0
 10
132.728573
 20
65.750162
 30
0.0
  0
SPLINE
  5
120
100
AcDbEntity
  8
Image
 62
1
100
AcDbSpline
 70
8
 71
3
 72
8
 73
4
 74
0
 40
0
 40
0
 40
0
 40
0
 40
1
 40
1
 40
1
 40
1
 10
132.728573
 20
65.750162
 30
0.0
 10
132.728573
 20
65.879734
 30
0.0
 10
132.704126
 20
66.000863
 30
0.0
 10
132.674217
 20
66.019339
 30
0.0
  0
SPLINE
  5
121
100
AcDbEntity
  8
Image
 62
1
100
AcDbSpline
 70
8
 71
3
 72
8
 73
4
 74
0
 40
0
 40
0
 40
0
 40
0
 40
1
 40
1
 40
1
 40
1
 10
132.674217
 20
66.019339
 30
0.0
 10
132.644322
 20
66.037807
 30
0.0
 10
132.619861
 20
66.186024
 30
0.0
 10
132.619861
 20
66.348689
 30
0.0
  0
SPLINE
  5
122
100
AcDbEntity
  8
Image
 62
1
100
AcDbSpline
 70
8
 71
3
 72
8
 73
4
 74
0
 40
0
 40
0
 40
0
 40
0
 40
1
 40
1
 40
1
 40
1
 10
132.619861
 20
66.348689
 30
0.0
 10
132.619861
 20
66.511353
 30
0.0
 10
132.595414
 20
66.644443
 30
0.0
 10
132.565502
 20
66.644443
 30
0.0
  0
SPLINE
  5
123
100
AcDbEntity
  8
Image
 62
1
100
AcDbSpline
 70
8
 71
3
 72
8
 73
4
 74
0
 40
0
 40
0
 40
0
 40
0
 40
1
 40
1
 40
1
 40
1
 10
132.565502
 20
66.644443
 30
0.0
 10
132.535607
 20
66.644443
 30
0.0
 10
132.511146
 20
66.764998
 30
0.0
 10
132.511146
 20
66.912344
 30
0.0
  0
SPLINE
  5
124
100
AcDbEntity
  8
Image
 62
1
100
AcDbSpline
 70
8
 71
3
 72
8
 73
4
 74
0
 40
0
 40
0
 40
0
 40
0
 40
1
 40
1
 40
1
 40
1
 10
132.511146
 20
66.912344
 30
0.0
 10
132.511146
 20
67.078003
 30
0.0
 10
132.480029
 20
67.211363
 30
0.0
 10
132.429612
 20
67.261780
 30
0.0
  0
SPLINE
  5
125
100
AcDbEntity
  8
Image
 62
1
100
AcDbSpline
 70
8
 71
3
 72
8
 73
4
 74
0
 40
0
 40
0
 40
0
 40
0
 40
1
 40
1
 40
1
 40
1
 10
132.429612
 20
67.261780
 30
0.0
 10
132.384395
 20
67.306997
 30
0.0
 10
132.348076
 20
67.439879
 30
0.0
 10
132.348076
 20
67.560097
 30
0.0
  0
SPLINE
  5
126
100
AcDbEntity
  8
Image
 62
1
100
AcDbSpline
 70
8
 71
3
 72
8
 73
4
 74
0
 40
0
 40
0
 40
0
 40
0
 40
1
 40
1
 40
1
 40
1
 10
132.348076
 20
67.560097
 30
0.0
 10
132.348076
 20
67.679327
 30
0.0
 10
132.322782
 20
67.785311
 30
0.0
 10
132.291847
 20
67.795619
 30
0.0
  0
SPLINE
  5
127
100
AcDbEntity
  8
Image
 62
1
100
AcDbSpline
 70
8
 71
3
 72
8
 73
4
 74
0
 40
0
 40
0
 40
0
 40
0
 40
1
 40
1
 40
1
 40
1
 10
132.291847
 20
67.795619
 30
0.0
 10
132.215279
 20
67.821151
 30
0.0
 10
132.213146
 20
68.674086
 30
0.0
 10
132.289465
 20
68.699565
 30
0.0
  0
SPLINE
  5
128
100
AcDbEntity
  8
Image
 62
1
100
AcDbSpline
 70
8
 71
3
 72
8
 73
4
 74
0
 40
0
 40
0
 40
0
 40
0
 40
1
 40
1
 40
1
 40
1
 10
132.289465
 20
68.699565
 30
0.0
 10
132.321633
 20
68.710281
 30
0.0
 10
132.347954
 20
68.766714
 30
0.0
 10
132.347954
 20
68.824951
 30
0.0
  0
SPLINE
  5
129
100
AcDbEntity
  8
Image
 62
1
100
AcDbSpline
 70
8
 71
3
 72
8
 73
4
 74
0
 40
0
 40
0
 40
0
 40
0
 40
1
 40
1
 40
1
 40
1
 10
132.347954
 20
68.824951
 30
0.0
 10
132.347954
 20
68.883191
 30
0.0
 10
132.384644
 20
68.944921
 30
0.0
 10
132.429491
 20
68.962130
 30
0.0
  0
SPLINE
  5
12a
100
AcDbEntity
  8
Image
 62
1
100
AcDbSpline
 70
8
 71
3
 72
8
 73
4
 74
0
 40
0
 40
0
 40
0
 40
0
 40
1
 40
1
 40
1
 40
1
 10
132.429491
 20
68.962130
 30
0.0
 10
132.475425
 20
68.979751
 30
0.0
 10
132.511025
 20
69.060679
 30
0.0
 10
132.511025
 20
69.147465
 30
0.0
  0
SPLINE
  5
12b
100
AcDbEntity
  8
Image
 62
1
100
AcDbSpline
 70
8
 71
3
 72
8
 73
4
 74
0
 40
0
 40
0
 40
0
 40
0
 40
1
 40
1
 40
1
 40
1
 10
132.511025
 20
69.147465
 30
0.0
 10
132.511025
 20
69.232190
 30
0.0
 10
132.535499
 20
69.316629
 30
0.0
 10
132.565381
 20
69.335108
 30
0.0
  0
SPLINE
  5
12c
100
AcDbEntity
  8
Image
 62
1
100
AcDbSpline
 70
8
 71
3
 72
8
 73
4
 74
0
 40
0
 40
0
 40
0
 40
0
 40
1
 40
1
 40
1
 40
1
 10
132.565381
 20
69.335108
 30
0.0
 10
132.595279
 20
69.353576
 30
0.0
 10
132.619739
 20
69.416179
 30
0.0
 10
132.619739
 20
69.474207
 30
0.0
  0
SPLINE
  5
12d
100
AcDbEntity
  8
Image
 62
1
100
AcDbSpline
 70
8
 71
3
 72
8
 73
4
 74
0
 40
0
 40
0
 40
0
 40
0
 40
1
 40
1
 40
1
 40
1
 10
132.619739
 20
69.474207
 30
0.0
 10
132.619739
 20
69.532235
 30
0.0
 10
132.644213
 20
69.579712
 30
0.0
 10
132.674095
 20
69.579712
 30
0.0
  0
SPLINE
  5
12e
100
AcDbEntity
  8
Image
 62
1
100
AcDbSpline
 70
8
 71
3
 72
8
 73
4
 74
0
 40
0
 40
0
 40
0
 40
0
 40
1
 40
1
 40
1
 40
1
 10
132.674095
 20
69.579712
 30
0.0
 10
132.703991
 20
69.579712
 30
0.0
 10
132.728451
 20
69.638246
 30
0.0
 10
132.728451
 20
69.709789
 30
0.0
  0
SPLINE
  5
12f
100
AcDbEntity
  8
Image
 62
1
100
AcDbSpline
 70
8
 71
3
 72
8
 73
4
 74
0
 40
0
 40
0
 40
0
 40
0
 40
1
 40
1
 40
1
 40
1
 10
132.728451
 20
69.709789
 30
0.0
 10
132.728451
 20
69.781330
 30
0.0
 10
132.765144
 20
69.853945
 30
0.0
 10
132.809988
 20
69.871153
 30
0.0
  0
SPLINE
  5
130
100
AcDbEntity
  8
Image
 62
1
100
AcDbSpline
 70
8
 71
3
 72
8
 73
4
 74
0
 40
0
 40
0
 40
0
 40
0
 40
1
 40
1
 40
1
 40
1
 10
132.809988
 20
69.871153
 30
0.0
 10
132.857650
 20
69.889436
 30
0.0
 10
132.891522
 20
69.970893
 30
0.0
 10
132.891522
 20
70.067218
 30
0.0
  0
SPLINE
  5
131
100
AcDbEntity
  8
Image
 62
1
100
AcDbSpline
 70
8
 71
3
 72
8
 73
4
 74
0
 40
0
 40
0
 40
0
 40
0
 40
1
 40
1
 40
1
 40
1
 10
132.891522
 20
70.067218
 30
0.0
 10
132.891522
 20
70.157845
 30
0.0
 10
132.915970
 20
70.231995
 30
0.0
 10
132.945881
 20
70.231995
 30
0.0
  0
SPLINE
  5
132
100
AcDbEntity
  8
Image
 62
1
100
AcDbSpline
 70
8
 71
3
 72
8
 73
4
 74
0
 40
0
 40
0
 40
0
 40
0
 40
1
 40
1
 40
1
 40
1
 10
132.945881
 20
70.231995
 30
0.0
 10
132.975776
 20
70.231995
 30
0.0
 10
133.000237
 20
70.279472
 30
0.0
 10
133.000237
 20
70.337500
 30
0.0
  0
SPLINE
  5
133
100
AcDbEntity
  8
Image
 62
1
100
AcDbSpline
 70
8
 71
3
 72
8
 73
4
 74
0
 40
0
 40
0
 40
0
 40
0
 40
1
 40
1
 40
1
 40
1
 10
133.000237
 20
70.337500
 30
0.0
 10
133.000237
 20
70.395529
 30
0.0
 10
133.024684
 20
70.458124
 30
0.0
 10
133.054593
 20
70.476599
 30
0.0
  0
SPLINE
  5
134
100
AcDbEntity
  8
Image
 62
1
100
AcDbSpline
 70
8
 71
3
 72
8
 73
4
 74
0
 40
0
 40
0
 40
0
 40
0
 40
1
 40
1
 40
1
 40
1
 10
133.054593
 20
70.476599
 30
0.0
 10
133.084491
 20
70.495067
 30
0.0
 10
133.108949
 20
70.555054
 30
0.0
 10
133.108949
 20
70.609883
 30
0.0
  0
SPLINE
  5
135
100
AcDbEntity
  8
Image
 62
1
100
AcDbSpline
 70
8
 71
3
 72
8
 73
4
 74
0
 40
0
 40
0
 40
0
 40
0
 40
1
 40
1
 40
1
 40
1
 10
133.108949
 20
70.609883
 30
0.0
 10
133.108949
 20
70.664713
 30
0.0
 10
133.145641
 20
70.723654
 30
0.0
 10
133.190485
 20
70.740863
 30
0.0
  0
SPLINE
  5
136
100
AcDbEntity
  8
Image
 62
1
100
AcDbSpline
 70
8
 71
3
 72
8
 73
4
 74
0
 40
0
 40
0
 40
0
 40
0
 40
1
 40
1
 40
1
 40
1
 10
133.190485
 20
70.740863
 30
0.0
 10
133.238150
 20
70.759145
 30
0.0
 10
133.272019
 20
70.840603
 30
0.0
 10
133.272019
 20
70.936927
 30
0.0
  0
SPLINE
  5
137
100
AcDbEntity
  8
Image
 62
1
100
AcDbSpline
 70
8
 71
3
 72
8
 73
4
 74
0
 40
0
 40
0
 40
0
 40
0
 40
1
 40
1
 40
1
 40
1
 10
133.272019
 20
70.936927
 30
0.0
 10
133.272019
 20
71.027555
 30
0.0
 10
133.296467
 20
71.101704
 30
0.0
 10
133.326378
 20
71.101704
 30
0.0
  0
SPLINE
  5
138
100
AcDbEntity
  8
Image
 62
1
100
AcDbSpline
 70
8
 71
3
 72
8
 73
4
 74
0
 40
0
 40
0
 40
0
 40
0
 40
1
 40
1
 40
1
 40
1
 10
133.326378
 20
71.101704
 30
0.0
 10
133.356273
 20
71.101704
 30
0.0
 10
133.380734
 20
71.162855
 30
0.0
 10
133.380734
 20
71.237597
 30
0.0
  0
SPLINE
  5
139
100
AcDbEntity
  8
Image
 62
1
100
AcDbSpline
 70
8
 71
3
 72
8
 73
4
 74
0
 40
0
 40
0
 40
0
 40
0
 40
1
 40
1
 40
1
 40
1
 10
133.380734
 20
71.237597
 30
0.0
 10
133.380734
 20
71.312336
 30
0.0
 10
133.405181
 20
71.373487
 30
0.0
 10
133.435090
 20
71.373487
 30
0.0
  0
SPLINE
  5
13a
100
AcDbEntity
  8
Image
 62
1
100
AcDbSpline
 70
8
 71
3
 72
8
 73
4
 74
0
 40
0
 40
0
 40
0
 40
0
 40
1
 40
1
 40
1
 40
1
 10
133.435090
 20
71.373487
 30
0.0
 10
133.464988
 20
71.373487
 30
0.0
 10
133.489449
 20
71.423178
 30
0.0
 10
133.489449
 20
71.483908
 30
0.0
  0
SPLINE
  5
13b
100
AcDbEntity
  8
Image
 62
1
100
AcDbSpline
 70
8
 71
3
 72
8
 73
4
 74
0
 40
0
 40
0
 40
0
 40
0
 40
1
 40
1
 40
1
 40
1
 10
133.489449
 20
71.483908
 30
0.0
 10
133.489449
 20
71.544638
 30
0.0
 10
133.526138
 20
71.608408
 30
0.0
 10
133.570983
 20
71.625616
 30
0.0
  0
SPLINE
  5
13c
100
AcDbEntity
  8
Image
 62
1
100
AcDbSpline
 70
8
 71
3
 72
8
 73
4
 74
0
 40
0
 40
0
 40
0
 40
0
 40
1
 40
1
 40
1
 40
1
 10
133.570983
 20
71.625616
 30
0.0
 10
133.621291
 20
71.644931
 30
0.0
 10
133.652519
 20
71.727539
 30
0.0
 10
133.652519
 20
71.841336
 30
0.0
  0
SPLINE
  5
13d
100
AcDbEntity
  8
Image
 62
1
100
AcDbSpline
 70
8
 71
3
 72
8
 73
4
 74
0
 40
0
 40
0
 40
0
 40
0
 40
1
 40
1
 40
1
 40
1
 10
133.652519
 20
71.841336
 30
0.0
 10
133.652519
 20
71.942775
 30
0.0
 10
133.676967
 20
72.025769
 30
0.0
 10
133.706875
 20
72.025769
 30
0.0
  0
SPLINE
  5
13e
100
AcDbEntity
  8
Image
 62
1
100
AcDbSpline
 70
8
 71
3
 72
8
 73
4
 74
0
 40
0
 40
0
 40
0
 40
0
 40
1
 40
1
 40
1
 40
1
 10
133.706875
 20
72.025769
 30
0.0
 10
133.736771
 20
72.025769
 30
0.0
 10
133.761231
 20
72.074691
 30
0.0
 10
133.761231
 20
72.134484
 30
0.0
  0
SPLINE
  5
13f
100
AcDbEntity
  8
Image
 62
1
100
AcDbSpline
 70
8
 71
3
 72
8
 73
4
 74
0
 40
0
 40
0
 40
0
 40
0
 40
1
 40
1
 40
1
 40
1
 10
133.761231
 20
72.134484
 30
0.0
 10
133.761231
 20
72.194277
 30
0.0
 10
133.785705
 20
72.243199
 30
0.0
 10
133.815590
 20
72.243199
 30
0.0
  0
SPLINE
  5
140
100
AcDbEntity
  8
Image
 62
1
100
AcDbSpline
 70
8
 71
3
 72
8
 73
4
 74
0
 40
0
 40
0
 40
0
 40
0
 40
1
 40
1
 40
1
 40
1
 10
133.815590
 20
72.243199
 30
0.0
 10
133.845485
 20
72.243199
 30
0.0
 10
133.869946
 20
72.304349
 30
0.0
 10
133.869946
 20
72.379089
 30
0.0
  0
SPLINE
  5
141
100
AcDbEntity
  8
Image
 62
1
100
AcDbSpline
 70
8
 71
3
 72
8
 73
4
 74
0
 40
0
 40
0
 40
0
 40
0
 40
1
 40
1
 40
1
 40
1
 10
133.869946
 20
72.379089
 30
0.0
 10
133.869946
 20
72.463644
 30
0.0
 10
133.900749
 20
72.514981
 30
0.0
 10
133.951480
 20
72.514981
 30
0.0
  0
SPLINE
  5
142
100
AcDbEntity
  8
Image
 62
1
100
AcDbSpline
 70
8
 71
3
 72
8
 73
4
 74
0
 40
0
 40
0
 40
0
 40
0
 40
1
 40
1
 40
1
 40
1
 10
133.951480
 20
72.514981
 30
0.0
 10
134.008426
 20
72.514981
 30
0.0
 10
134.033017
 20
72.572359
 30
0.0
 10
134.033017
 20
72.705230
 30
0.0
  0
SPLINE
  5
143
100
AcDbEntity
  8
Image
 62
1
100
AcDbSpline
 70
8
 71
3
 72
8
 73
4
 74
0
 40
0
 40
0
 40
0
 40
0
 40
1
 40
1
 40
1
 40
1
 10
134.033017
 20
72.705230
 30
0.0
 10
134.033017
 20
72.809867
 30
0.0
 10
134.057491
 20
72.895479
 30
0.0
 10
134.087373
 20
72.895479
 30
0.0
  0
SPLINE
  5
144
100
AcDbEntity
  8
Image
 62
1
100
AcDbSpline
 70
8
 71
3
 72
8
 73
4
 74
0
 40
0
 40
0
 40
0
 40
0
 40
1
 40
1
 40
1
 40
1
 10
134.087373
 20
72.895479
 30
0.0
 10
134.117271
 20
72.895479
 30
0.0
 10
134.141731
 20
72.956632
 30
0.0
 10
134.141731
 20
73.031371
 30
0.0
  0
SPLINE
  5
145
100
AcDbEntity
  8
Image
 62
1
100
AcDbSpline
 70
8
 71
3
 72
8
 73
4
 74
0
 40
0
 40
0
 40
0
 40
0
 40
1
 40
1
 40
1
 40
1
 10
134.141731
 20
73.031371
 30
0.0
 10
134.141731
 20
73.106113
 30
0.0
 10
134.166179
 20
73.167264
 30
0.0
 10
134.196087
 20
73.167264
 30
0.0
  0
SPLINE
  5
146
100
AcDbEntity
  8
Image
 62
1
100
AcDbSpline
 70
8
 71
3
 72
8
 73
4
 74
0
 40
0
 40
0
 40
0
 40
0
 40
1
 40
1
 40
1
 40
1
 10
134.196087
 20
73.167264
 30
0.0
 10
134.225983
 20
73.167264
 30
0.0
 10
134.250443
 20
73.252875
 30
0.0
 10
134.250443
 20
73.357512
 30
0.0
  0
SPLINE
  5
147
100
AcDbEntity
  8
Image
 62
1
100
AcDbSpline
 70
8
 71
3
 72
8
 73
4
 74
0
 40
0
 40
0
 40
0
 40
0
 40
1
 40
1
 40
1
 40
1
 10
134.250443
 20
73.357512
 30
0.0
 10
134.250443
 20
73.490386
 30
0.0
 10
134.275023
 20
73.547761
 30
0.0
 10
134.331980
 20
73.547761
 30
0.0
  0
SPLINE
  5
148
100
AcDbEntity
  8
Image
 62
1
100
AcDbSpline
 70
8
 71
3
 72
8
 73
4
 74
0
 40
0
 40
0
 40
0
 40
0
 40
1
 40
1
 40
1
 40
1
 10
134.331980
 20
73.547761
 30
0.0
 10
134.377277
 20
73.547761
 30
0.0
 10
134.413514
 20
73.596079
 30
0.0
 10
134.413514
 20
73.656476
 30
0.0
  0
SPLINE
  5
149
100
AcDbEntity
  8
Image
 62
1
100
AcDbSpline
 70
8
 71
3
 72
8
 73
4
 74
0
 40
0
 40
0
 40
0
 40
0
 40
1
 40
1
 40
1
 40
1
 10
134.413514
 20
73.656476
 30
0.0
 10
134.413514
 20
73.716269
 30
0.0
 10
134.437961
 20
73.765190
 30
0.0
 10
134.467870
 20
73.765190
 30
0.0
  0
SPLINE
  5
14a
100
AcDbEntity
  8
Image
 62
1
100
AcDbSpline
 70
8
 71
3
 72
8
 73
4
 74
0
 40
0
 40
0
 40
0
 40
0
 40
1
 40
1
 40
1
 40
1
 10
134.467870
 20
73.765190
 30
0.0
 10
134.497768
 20
73.765190
 30
0.0
 10
134.522229
 20
73.826341
 30
0.0
 10
134.522229
 20
73.901080
 30
0.0
  0
SPLINE
  5
14b
100
AcDbEntity
  8
Image
 62
1
100
AcDbSpline
 70
8
 71
3
 72
8
 73
4
 74
0
 40
0
 40
0
 40
0
 40
0
 40
1
 40
1
 40
1
 40
1
 10
134.522229
 20
73.901080
 30
0.0
 10
134.522229
 20
73.975823
 30
0.0
 10
134.546676
 20
74.036973
 30
0.0
 10
134.576585
 20
74.036973
 30
0.0
  0
SPLINE
  5
14c
100
AcDbEntity
  8
Image
 62
1
100
AcDbSpline
 70
8
 71
3
 72
8
 73
4
 74
0
 40
0
 40
0
 40
0
 40
0
 40
1
 40
1
 40
1
 40
1
 10
134.576585
 20
74.036973
 30
0.0
 10
134.606480
 20
74.036973
 30
0.0
 10
134.630941
 20
74.122584
 30
0.0
 10
134.630941
 20
74.227222
 30
0.0
  0
LINE
  5
14d
100
AcDbEntity
  8
Image
 62
1
100
AcDbLine
 10
134.630941
 20
74.227222
 30
0.0
 11
134.630941
 21
74.417470
 31
0.0
  0
LINE
  5
14e
100
AcDbEntity
  8
Image
 62
1
100
AcDbLine
 10
134.630941
 20
74.417470
 30
0.0
 11
137.011728
 21
74.417470
 31
0.0
  0
LINE
  5
14f
100
AcDbEntity
  8
Image
 62
1
100
AcDbLine
 10
137.011728
 20
74.417470
 30
0.0
 11
139.392514
 21
74.417470
 31
0.0
  0
LINE
  5
150
100
AcDbEntity
  8
Image
 62
1
100
AcDbLine
 10
139.392514
 20
74.417470
 30
0.0
 11
139.370316
 21
74.227222
 31
0.0
  0
SPLINE
  5
151
100
AcDbEntity
  8
Image
 62
1
100
AcDbSpline
 70
8
 71
3
 72
8
 73
4
 74
0
 40
0
 40
0
 40
0
 40
0
 40
1
 40
1
 40
1
 40
1
 10
139.370316
 20
74.227222
 30
0.0
 10
139.356716
 20
74.110773
 30
0.0
 10
139.371374
 20
74.036973
 30
0.0
 10
139.408411
 20
74.036973
 30
0.0
  0
SPLINE
  5
152
100
AcDbEntity
  8
Image
 62
1
100
AcDbSpline
 70
8
 71
3
 72
8
 73
4
 74
0
 40
0
 40
0
 40
0
 40
0
 40
1
 40
1
 40
1
 40
1
 10
139.408411
 20
74.036973
 30
0.0
 10
139.441576
 20
74.036973
 30
0.0
 10
139.468714
 20
73.987284
 30
0.0
 10
139.468714
 20
73.926554
 30
0.0
  0
SPLINE
  5
153
100
AcDbEntity
  8
Image
 62
1
100
AcDbSpline
 70
8
 71
3
 72
8
 73
4
 74
0
 40
0
 40
0
 40
0
 40
0
 40
1
 40
1
 40
1
 40
1
 10
139.468714
 20
73.926554
 30
0.0
 10
139.468714
 20
73.865822
 30
0.0
 10
139.505404
 20
73.802055
 30
0.0
 10
139.550248
 20
73.784846
 30
0.0
  0
SPLINE
  5
154
100
AcDbEntity
  8
Image
 62
1
100
AcDbSpline
 70
8
 71
3
 72
8
 73
4
 74
0
 40
0
 40
0
 40
0
 40
0
 40
1
 40
1
 40
1
 40
1
 10
139.550248
 20
73.784846
 30
0.0
 10
139.600556
 20
73.765532
 30
0.0
 10
139.631785
 20
73.682921
 30
0.0
 10
139.631785
 20
73.569124
 30
0.0
  0
SPLINE
  5
155
100
AcDbEntity
  8
Image
 62
1
100
AcDbSpline
 70
8
 71
3
 72
8
 73
4
 74
0
 40
0
 40
0
 40
0
 40
0
 40
1
 40
1
 40
1
 40
1
 10
139.631785
 20
73.569124
 30
0.0
 10
139.631785
 20
73.467685
 30
0.0
 10
139.656259
 20
73.384690
 30
0.0
 10
139.686141
 20
73.384690
 30
0.0
  0
SPLINE
  5
156
100
AcDbEntity
  8
Image
 62
1
100
AcDbSpline
 70
8
 71
3
 72
8
 73
4
 74
0
 40
0
 40
0
 40
0
 40
0
 40
1
 40
1
 40
1
 40
1
 10
139.686141
 20
73.384690
 30
0.0
 10
139.716036
 20
73.384690
 30
0.0
 10
139.740497
 20
73.335769
 30
0.0
 10
139.740497
 20
73.275978
 30
0.0
  0
SPLINE
  5
157
100
AcDbEntity
  8
Image
 62
1
100
AcDbSpline
 70
8
 71
3
 72
8
 73
4
 74
0
 40
0
 40
0
 40
0
 40
0
 40
1
 40
1
 40
1
 40
1
 10
139.740497
 20
73.275978
 30
0.0
 10
139.740497
 20
73.216185
 30
0.0
 10
139.764945
 20
73.167264
 30
0.0
 10
139.794856
 20
73.167264
 30
0.0
  0
SPLINE
  5
158
100
AcDbEntity
  8
Image
 62
1
100
AcDbSpline
 70
8
 71
3
 72
8
 73
4
 74
0
 40
0
 40
0
 40
0
 40
0
 40
1
 40
1
 40
1
 40
1
 10
139.794856
 20
73.167264
 30
0.0
 10
139.824751
 20
73.167264
 30
0.0
 10
139.849212
 20
73.117575
 30
0.0
 10
139.849212
 20
73.056845
 30
0.0
  0
SPLINE
  5
159
100
AcDbEntity
  8
Image
 62
1
100
AcDbSpline
 70
8
 71
3
 72
8
 73
4
 74
0
 40
0
 40
0
 40
0
 40
0
 40
1
 40
1
 40
1
 40
1
 10
139.849212
 20
73.056845
 30
0.0
 10
139.849212
 20
72.996113
 30
0.0
 10
139.885902
 20
72.932346
 30
0.0
 10
139.930746
 20
72.915137
 30
0.0
  0
SPLINE
  5
15a
100
AcDbEntity
  8
Image
 62
1
100
AcDbSpline
 70
8
 71
3
 72
8
 73
4
 74
0
 40
0
 40
0
 40
0
 40
0
 40
1
 40
1
 40
1
 40
1
 10
139.930746
 20
72.915137
 30
0.0
 10
139.981054
 20
72.895822
 30
0.0
 10
140.012282
 20
72.813212
 30
0.0
 10
140.012282
 20
72.699414
 30
0.0
  0
SPLINE
  5
15b
100
AcDbEntity
  8
Image
 62
1
100
AcDbSpline
 70
8
 71
3
 72
8
 73
4
 74
0
 40
0
 40
0
 40
0
 40
0
 40
1
 40
1
 40
1
 40
1
 10
140.012282
 20
72.699414
 30
0.0
 10
140.012282
 20
72.597976
 30
0.0
 10
140.036730
 20
72.514981
 30
0.0
 10
140.066638
 20
72.514981
 30
0.0
  0
SPLINE
  5
15c
100
AcDbEntity
  8
Image
 62
1
100
AcDbSpline
 70
8
 71
3
 72
8
 73
4
 74
0
 40
0
 40
0
 40
0
 40
0
 40
1
 40
1
 40
1
 40
1
 10
140.066638
 20
72.514981
 30
0.0
 10
140.096536
 20
72.514981
 30
0.0
 10
140.120997
 20
72.429370
 30
0.0
 10
140.120997
 20
72.324733
 30
0.0
  0
SPLINE
  5
15d
100
AcDbEntity
  8
Image
 62
1
100
AcDbSpline
 70
8
 71
3
 72
8
 73
4
 74
0
 40
0
 40
0
 40
0
 40
0
 40
1
 40
1
 40
1
 40
1
 10
140.120997
 20
72.324733
 30
0.0
 10
140.120997
 20
72.220095
 30
0.0
 10
140.145445
 20
72.134484
 30
0.0
 10
140.175353
 20
72.134484
 30
0.0
  0
SPLINE
  5
15e
100
AcDbEntity
  8
Image
 62
1
100
AcDbSpline
 70
8
 71
3
 72
8
 73
4
 74
0
 40
0
 40
0
 40
0
 40
0
 40
1
 40
1
 40
1
 40
1
 10
140.175353
 20
72.134484
 30
0.0
 10
140.205248
 20
72.134484
 30
0.0
 10
140.229709
 20
72.084795
 30
0.0
 10
140.229709
 20
72.024065
 30
0.0
  0
SPLINE
  5
15f
100
AcDbEntity
  8
Image
 62
1
100
AcDbSpline
 70
8
 71
3
 72
8
 73
4
 74
0
 40
0
 40
0
 40
0
 40
0
 40
1
 40
1
 40
1
 40
1
 10
140.229709
 20
72.024065
 30
0.0
 10
140.229709
 20
71.963333
 30
0.0
 10
140.266401
 20
71.899566
 30
0.0
 10
140.311246
 20
71.882357
 30
0.0
  0
SPLINE
  5
160
100
AcDbEntity
  8
Image
 62
1
100
AcDbSpline
 70
8
 71
3
 72
8
 73
4
 74
0
 40
0
 40
0
 40
0
 40
0
 40
1
 40
1
 40
1
 40
1
 10
140.311246
 20
71.882357
 30
0.0
 10
140.361554
 20
71.863043
 30
0.0
 10
140.392780
 20
71.780432
 30
0.0
 10
140.392780
 20
71.666634
 30
0.0
  0
SPLINE
  5
161
100
AcDbEntity
  8
Image
 62
1
100
AcDbSpline
 70
8
 71
3
 72
8
 73
4
 74
0
 40
0
 40
0
 40
0
 40
0
 40
1
 40
1
 40
1
 40
1
 10
140.392780
 20
71.666634
 30
0.0
 10
140.392780
 20
71.565196
 30
0.0
 10
140.417227
 20
71.482201
 30
0.0
 10
140.447138
 20
71.482201
 30
0.0
  0
SPLINE
  5
162
100
AcDbEntity
  8
Image
 62
1
100
AcDbSpline
 70
8
 71
3
 72
8
 73
4
 74
0
 40
0
 40
0
 40
0
 40
0
 40
1
 40
1
 40
1
 40
1
 10
140.447138
 20
71.482201
 30
0.0
 10
140.477034
 20
71.482201
 30
0.0
 10
140.501494
 20
71.433280
 30
0.0
 10
140.501494
 20
71.373487
 30
0.0
  0
SPLINE
  5
163
100
AcDbEntity
  8
Image
 62
1
100
AcDbSpline
 70
8
 71
3
 72
8
 73
4
 74
0
 40
0
 40
0
 40
0
 40
0
 40
1
 40
1
 40
1
 40
1
 10
140.501494
 20
71.373487
 30
0.0
 10
140.501494
 20
71.313696
 30
0.0
 10
140.525942
 20
71.264775
 30
0.0
 10
140.555850
 20
71.264775
 30
0.0
  0
SPLINE
  5
164
100
AcDbEntity
  8
Image
 62
1
100
AcDbSpline
 70
8
 71
3
 72
8
 73
4
 74
0
 40
0
 40
0
 40
0
 40
0
 40
1
 40
1
 40
1
 40
1
 10
140.555850
 20
71.264775
 30
0.0
 10
140.585748
 20
71.264775
 30
0.0
 10
140.610206
 20
71.215086
 30
0.0
 10
140.610206
 20
71.154354
 30
0.0
  0
SPLINE
  5
165
100
AcDbEntity
  8
Image
 62
1
100
AcDbSpline
 70
8
 71
3
 72
8
 73
4
 74
0
 40
0
 40
0
 40
0
 40
0
 40
1
 40
1
 40
1
 40
1
 10
140.610206
 20
71.154354
 30
0.0
 10
140.610206
 20
71.093624
 30
0.0
 10
140.646899
 20
71.029856
 30
0.0
 10
140.691743
 20
71.012648
 30
0.0
  0
SPLINE
  5
166
100
AcDbEntity
  8
Image
 62
1
100
AcDbSpline
 70
8
 71
3
 72
8
 73
4
 74
0
 40
0
 40
0
 40
0
 40
0
 40
1
 40
1
 40
1
 40
1
 10
140.691743
 20
71.012648
 30
0.0
 10
140.742051
 20
70.993333
 30
0.0
 10
140.773277
 20
70.910723
 30
0.0
 10
140.773277
 20
70.796925
 30
0.0
  0
SPLINE
  5
167
100
AcDbEntity
  8
Image
 62
1
100
AcDbSpline
 70
8
 71
3
 72
8
 73
4
 74
0
 40
0
 40
0
 40
0
 40
0
 40
1
 40
1
 40
1
 40
1
 10
140.773277
 20
70.796925
 30
0.0
 10
140.773277
 20
70.695487
 30
0.0
 10
140.797751
 20
70.612492
 30
0.0
 10
140.827636
 20
70.612492
 30
0.0
  0
SPLINE
  5
168
100
AcDbEntity
  8
Image
 62
1
100
AcDbSpline
 70
8
 71
3
 72
8
 73
4
 74
0
 40
0
 40
0
 40
0
 40
0
 40
1
 40
1
 40
1
 40
1
 10
140.827636
 20
70.612492
 30
0.0
 10
140.857531
 20
70.612492
 30
0.0
 10
140.881992
 20
70.551342
 30
0.0
 10
140.881992
 20
70.476599
 30
0.0
  0
SPLINE
  5
169
100
AcDbEntity
  8
Image
 62
1
100
AcDbSpline
 70
8
 71
3
 72
8
 73
4
 74
0
 40
0
 40
0
 40
0
 40
0
 40
1
 40
1
 40
1
 40
1
 10
140.881992
 20
70.476599
 30
0.0
 10
140.881992
 20
70.401860
 30
0.0
 10
140.906466
 20
70.340707
 30
0.0
 10
140.936348
 20
70.340707
 30
0.0
  0
SPLINE
  5
16a
100
AcDbEntity
  8
Image
 62
1
100
AcDbSpline
 70
8
 71
3
 72
8
 73
4
 74
0
 40
0
 40
0
 40
0
 40
0
 40
1
 40
1
 40
1
 40
1
 10
140.936348
 20
70.340707
 30
0.0
 10
140.966547
 20
70.340707
 30
0.0
 10
140.990706
 20
70.195758
 30
0.0
 10
140.990706
 20
70.014568
 30
0.0
  0
SPLINE
  5
16b
100
AcDbEntity
  8
Image
 62
1
100
AcDbSpline
 70
8
 71
3
 72
8
 73
4
 74
0
 40
0
 40
0
 40
0
 40
0
 40
1
 40
1
 40
1
 40
1
 10
140.990706
 20
70.014568
 30
0.0
 10
140.990706
 20
69.833376
 30
0.0
 10
140.966550
 20
69.688427
 30
0.0
 10
140.936348
 20
69.688427
 30
0.0
  0
SPLINE
  5
16c
100
AcDbEntity
  8
Image
 62
1
100
AcDbSpline
 70
8
 71
3
 72
8
 73
4
 74
0
 40
0
 40
0
 40
0
 40
0
 40
1
 40
1
 40
1
 40
1
 10
140.936348
 20
69.688427
 30
0.0
 10
140.906452
 20
69.688427
 30
0.0
 10
140.881992
 20
69.578352
 30
0.0
 10
140.881992
 20
69.443820
 30
0.0
  0
SPLINE
  5
16d
100
AcDbEntity
  8
Image
 62
1
100
AcDbSpline
 70
8
 71
3
 72
8
 73
4
 74
0
 40
0
 40
0
 40
0
 40
0
 40
1
 40
1
 40
1
 40
1
 10
140.881992
 20
69.443820
 30
0.0
 10
140.881992
 20
69.309287
 30
0.0
 10
140.857544
 20
69.199215
 30
0.0
 10
140.827636
 20
69.199215
 30
0.0
  0
SPLINE
  5
16e
100
AcDbEntity
  8
Image
 62
1
100
AcDbSpline
 70
8
 71
3
 72
8
 73
4
 74
0
 40
0
 40
0
 40
0
 40
0
 40
1
 40
1
 40
1
 40
1
 10
140.827636
 20
69.199215
 30
0.0
 10
140.797738
 20
69.199215
 30
0.0
 10
140.773277
 20
69.116220
 30
0.0
 10
140.773277
 20
69.014782
 30
0.0
  0
SPLINE
  5
16f
100
AcDbEntity
  8
Image
 62
1
100
AcDbSpline
 70
8
 71
3
 72
8
 73
4
 74
0
 40
0
 40
0
 40
0
 40
0
 40
1
 40
1
 40
1
 40
1
 10
140.773277
 20
69.014782
 30
0.0
 10
140.773277
 20
68.900985
 30
0.0
 10
140.742051
 20
68.818366
 30
0.0
 10
140.691743
 20
68.799059
 30
0.0
  0
SPLINE
  5
170
100
AcDbEntity
  8
Image
 62
1
100
AcDbSpline
 70
8
 71
3
 72
8
 73
4
 74
0
 40
0
 40
0
 40
0
 40
0
 40
1
 40
1
 40
1
 40
1
 10
140.691743
 20
68.799059
 30
0.0
 10
140.646899
 20
68.781861
 30
0.0
 10
140.610206
 20
68.718083
 30
0.0
 10
140.610206
 20
68.657351
 30
0.0
  0
SPLINE
  5
171
100
AcDbEntity
  8
Image
 62
1
100
AcDbSpline
 70
8
 71
3
 72
8
 73
4
 74
0
 40
0
 40
0
 40
0
 40
0
 40
1
 40
1
 40
1
 40
1
 10
140.610206
 20
68.657351
 30
0.0
 10
140.610206
 20
68.596621
 30
0.0
 10
140.585759
 20
68.546932
 30
0.0
 10
140.555850
 20
68.546932
 30
0.0
  0
SPLINE
  5
172
100
AcDbEntity
  8
Image
 62
1
100
AcDbSpline
 70
8
 71
3
 72
8
 73
4
 74
0
 40
0
 40
0
 40
0
 40
0
 40
1
 40
1
 40
1
 40
1
 10
140.555850
 20
68.546932
 30
0.0
 10
140.525955
 20
68.546932
 30
0.0
 10
140.501494
 20
68.498011
 30
0.0
 10
140.501494
 20
68.438218
 30
0.0
  0
SPLINE
  5
173
100
AcDbEntity
  8
Image
 62
1
100
AcDbSpline
 70
8
 71
3
 72
8
 73
4
 74
0
 40
0
 40
0
 40
0
 40
0
 40
1
 40
1
 40
1
 40
1
 10
140.501494
 20
68.438218
 30
0.0
 10
140.501494
 20
68.378427
 30
0.0
 10
140.525942
 20
68.329506
 30
0.0
 10
140.555850
 20
68.329506
 30
0.0
  0
SPLINE
  5
174
100
AcDbEntity
  8
Image
 62
1
100
AcDbSpline
 70
8
 71
3
 72
8
 73
4
 74
0
 40
0
 40
0
 40
0
 40
0
 40
1
 40
1
 40
1
 40
1
 10
140.555850
 20
68.329506
 30
0.0
 10
140.585748
 20
68.329506
 30
0.0
 10
140.610206
 20
68.255356
 30
0.0
 10
140.610206
 20
68.164729
 30
0.0
  0
SPLINE
  5
175
100
AcDbEntity
  8
Image
 62
1
100
AcDbSpline
 70
8
 71
3
 72
8
 73
4
 74
0
 40
0
 40
0
 40
0
 40
0
 40
1
 40
1
 40
1
 40
1
 10
140.610206
 20
68.164729
 30
0.0
 10
140.610206
 20
68.068404
 30
0.0
 10
140.644078
 20
67.986955
 30
0.0
 10
140.691743
 20
67.968664
 30
0.0
  0
SPLINE
  5
176
100
AcDbEntity
  8
Image
 62
1
100
AcDbSpline
 70
8
 71
3
 72
8
 73
4
 74
0
 40
0
 40
0
 40
0
 40
0
 40
1
 40
1
 40
1
 40
1
 10
140.691743
 20
67.968664
 30
0.0
 10
140.736587
 20
67.951466
 30
0.0
 10
140.773277
 20
67.878841
 30
0.0
 10
140.773277
 20
67.807300
 30
0.0
  0
SPLINE
  5
177
100
AcDbEntity
  8
Image
 62
1
100
AcDbSpline
 70
8
 71
3
 72
8
 73
4
 74
0
 40
0
 40
0
 40
0
 40
0
 40
1
 40
1
 40
1
 40
1
 10
140.773277
 20
67.807300
 30
0.0
 10
140.773277
 20
67.735757
 30
0.0
 10
140.797751
 20
67.677223
 30
0.0
 10
140.827636
 20
67.677223
 30
0.0
  0
SPLINE
  5
178
100
AcDbEntity
  8
Image
 62
1
100
AcDbSpline
 70
8
 71
3
 72
8
 73
4
 74
0
 40
0
 40
0
 40
0
 40
0
 40
1
 40
1
 40
1
 40
1
 10
140.827636
 20
67.677223
 30
0.0
 10
140.857531
 20
67.677223
 30
0.0
 10
140.881992
 20
67.591612
 30
0.0
 10
140.881992
 20
67.486975
 30
0.0
  0
SPLINE
  5
179
100
AcDbEntity
  8
Image
 62
1
100
AcDbSpline
 70
8
 71
3
 72
8
 73
4
 74
0
 40
0
 40
0
 40
0
 40
0
 40
1
 40
1
 40
1
 40
1
 10
140.881992
 20
67.486975
 30
0.0
 10
140.881992
 20
67.382337
 30
0.0
 10
140.906466
 20
67.296726
 30
0.0
 10
140.936348
 20
67.296726
 30
0.0
  0
SPLINE
  5
17a
100
AcDbEntity
  8
Image
 62
1
100
AcDbSpline
 70
8
 71
3
 72
8
 73
4
 74
0
 40
0
 40
0
 40
0
 40
0
 40
1
 40
1
 40
1
 40
1
 10
140.936348
 20
67.296726
 30
0.0
 10
140.966246
 20
67.296726
 30
0.0
 10
140.990706
 20
67.263029
 30
0.0
 10
140.990706
 20
67.221846
 30
0.0
  0
SPLINE
  5
17b
100
AcDbEntity
  8
Image
 62
1
100
AcDbSpline
 70
8
 71
3
 72
8
 73
4
 74
0
 40
0
 40
0
 40
0
 40
0
 40
1
 40
1
 40
1
 40
1
 10
140.990706
 20
67.221846
 30
0.0
 10
140.990706
 20
67.180661
 30
0.0
 10
141.027396
 20
67.116516
 30
0.0
 10
141.072240
 20
67.079297
 30
0.0
  0
SPLINE
  5
17c
100
AcDbEntity
  8
Image
 62
1
100
AcDbSpline
 70
8
 71
3
 72
8
 73
4
 74
0
 40
0
 40
0
 40
0
 40
0
 40
1
 40
1
 40
1
 40
1
 10
141.072240
 20
67.079297
 30
0.0
 10
141.117085
 20
67.042080
 30
0.0
 10
141.153777
 20
66.942687
 30
0.0
 10
141.153777
 20
66.858422
 30
0.0
  0
SPLINE
  5
17d
100
AcDbEntity
  8
Image
 62
1
100
AcDbSpline
 70
8
 71
3
 72
8
 73
4
 74
0
 40
0
 40
0
 40
0
 40
0
 40
1
 40
1
 40
1
 40
1
 10
141.153777
 20
66.858422
 30
0.0
 10
141.153777
 20
66.774158
 30
0.0
 10
141.178224
 20
66.690097
 30
0.0
 10
141.208133
 20
66.671621
 30
0.0
  0
SPLINE
  5
17e
100
AcDbEntity
  8
Image
 62
1
100
AcDbSpline
 70
8
 71
3
 72
8
 73
4
 74
0
 40
0
 40
0
 40
0
 40
0
 40
1
 40
1
 40
1
 40
1
 10
141.208133
 20
66.671621
 30
0.0
 10
141.238028
 20
66.653153
 30
0.0
 10
141.262489
 20
66.506381
 30
0.0
 10
141.262489
 20
66.345480
 30
0.0
  0
SPLINE
  5
17f
100
AcDbEntity
  8
Image
 62
1
100
AcDbSpline
 70
8
 71
3
 72
8
 73
4
 74
0
 40
0
 40
0
 40
0
 40
0
 40
1
 40
1
 40
1
 40
1
 10
141.262489
 20
66.345480
 30
0.0
 10
141.262489
 20
66.184579
 30
0.0
 10
141.238041
 20
66.037817
 30
0.0
 10
141.208133
 20
66.019339
 30
0.0
  0
SPLINE
  5
180
100
AcDbEntity
  8
Image
 62
1
100
AcDbSpline
 70
8
 71
3
 72
8
 73
4
 74
0
 40
0
 40
0
 40
0
 40
0
 40
1
 40
1
 40
1
 40
1
 10
141.208133
 20
66.019339
 30
0.0
 10
141.178238
 20
66.000871
 30
0.0
 10
141.153777
 20
65.855273
 30
0.0
 10
141.153777
 20
65.695806
 30
0.0
  0
SPLINE
  5
181
100
AcDbEntity
  8
Image
 62
1
100
AcDbSpline
 70
8
 71
3
 72
8
 73
4
 74
0
 40
0
 40
0
 40
0
 40
0
 40
1
 40
1
 40
1
 40
1
 10
141.153777
 20
65.695806
 30
0.0
 10
141.153777
 20
65.497554
 30
0.0
 10
141.129726
 20
65.396639
 30
0.0
 10
141.077744
 20
65.376690
 30
0.0
  0
SPLINE
  5
182
100
AcDbEntity
  8
Image
 62
1
100
AcDbSpline
 70
8
 71
3
 72
8
 73
4
 74
0
 40
0
 40
0
 40
0
 40
0
 40
1
 40
1
 40
1
 40
1
 10
141.077744
 20
65.376690
 30
0.0
 10
141.033331
 20
65.359650
 30
0.0
 10
140.988121
 20
65.232910
 30
0.0
 10
140.969032
 20
65.071913
 30
0.0
  0
SPLINE
  5
183
100
AcDbEntity
  8
Image
 62
1
100
AcDbSpline
 70
8
 71
3
 72
8
 73
4
 74
0
 40
0
 40
0
 40
0
 40
0
 40
1
 40
1
 40
1
 40
1
 10
140.969032
 20
65.071913
 30
0.0
 10
140.951066
 20
64.920331
 30
0.0
 10
140.921759
 20
64.674007
 30
0.0
 10
140.903923
 20
64.524525
 30
0.0
  0
SPLINE
  5
184
100
AcDbEntity
  8
Image
 62
1
100
AcDbSpline
 70
8
 71
3
 72
8
 73
4
 74
0
 40
0
 40
0
 40
0
 40
0
 40
1
 40
1
 40
1
 40
1
 10
140.903923
 20
64.524525
 30
0.0
 10
140.886090
 20
64.375043
 30
0.0
 10
140.849400
 20
64.252742
 30
0.0
 10
140.822389
 20
64.252742
 30
0.0
  0
SPLINE
  5
185
100
AcDbEntity
  8
Image
 62
1
100
AcDbSpline
 70
8
 71
3
 72
8
 73
4
 74
0
 40
0
 40
0
 40
0
 40
0
 40
1
 40
1
 40
1
 40
1
 10
140.822389
 20
64.252742
 30
0.0
 10
140.795378
 20
64.252742
 30
0.0
 10
140.773277
 20
64.108595
 30
0.0
 10
140.773277
 20
63.932416
 30
0.0
  0
SPLINE
  5
186
100
AcDbEntity
  8
Image
 62
1
100
AcDbSpline
 70
8
 71
3
 72
8
 73
4
 74
0
 40
0
 40
0
 40
0
 40
0
 40
1
 40
1
 40
1
 40
1
 10
140.773277
 20
63.932416
 30
0.0
 10
140.773277
 20
63.697826
 30
0.0
 10
140.751449
 20
63.603717
 30
0.0
 10
140.691743
 20
63.580801
 30
0.0
  0
SPLINE
  5
187
100
AcDbEntity
  8
Image
 62
1
100
AcDbSpline
 70
8
 71
3
 72
8
 73
4
 74
0
 40
0
 40
0
 40
0
 40
0
 40
1
 40
1
 40
1
 40
1
 10
140.691743
 20
63.580801
 30
0.0
 10
140.632865
 20
63.558206
 30
0.0
 10
140.610206
 20
63.465964
 30
0.0
 10
140.610206
 20
63.248847
 30
0.0
  0
SPLINE
  5
188
100
AcDbEntity
  8
Image
 62
1
100
AcDbSpline
 70
8
 71
3
 72
8
 73
4
 74
0
 40
0
 40
0
 40
0
 40
0
 40
1
 40
1
 40
1
 40
1
 10
140.610206
 20
63.248847
 30
0.0
 10
140.610206
 20
63.083477
 30
0.0
 10
140.585759
 20
62.948177
 30
0.0
 10
140.555850
 20
62.948177
 30
0.0
  0
SPLINE
  5
189
100
AcDbEntity
  8
Image
 62
1
100
AcDbSpline
 70
8
 71
3
 72
8
 73
4
 74
0
 40
0
 40
0
 40
0
 40
0
 40
1
 40
1
 40
1
 40
1
 10
140.555850
 20
62.948177
 30
0.0
 10
140.525955
 20
62.948177
 30
0.0
 10
140.501494
 20
62.813644
 30
0.0
 10
140.501494
 20
62.649214
 30
0.0
  0
SPLINE
  5
18a
100
AcDbEntity
  8
Image
 62
1
100
AcDbSpline
 70
8
 71
3
 72
8
 73
4
 74
0
 40
0
 40
0
 40
0
 40
0
 40
1
 40
1
 40
1
 40
1
 10
140.501494
 20
62.649214
 30
0.0
 10
140.501494
 20
62.484786
 30
0.0
 10
140.477047
 20
62.350253
 30
0.0
 10
140.447138
 20
62.350253
 30
0.0
  0
SPLINE
  5
18b
100
AcDbEntity
  8
Image
 62
1
100
AcDbSpline
 70
8
 71
3
 72
8
 73
4
 74
0
 40
0
 40
0
 40
0
 40
0
 40
1
 40
1
 40
1
 40
1
 10
140.447138
 20
62.350253
 30
0.0
 10
140.417240
 20
62.350253
 30
0.0
 10
140.392780
 20
62.230566
 30
0.0
 10
140.392780
 20
62.084283
 30
0.0
  0
SPLINE
  5
18c
100
AcDbEntity
  8
Image
 62
1
100
AcDbSpline
 70
8
 71
3
 72
8
 73
4
 74
0
 40
0
 40
0
 40
0
 40
0
 40
1
 40
1
 40
1
 40
1
 10
140.392780
 20
62.084283
 30
0.0
 10
140.392780
 20
61.898011
 30
0.0
 10
140.368359
 20
61.808939
 30
0.0
 10
140.311246
 20
61.787027
 30
0.0
  0
SPLINE
  5
18d
100
AcDbEntity
  8
Image
 62
1
100
AcDbSpline
 70
8
 71
3
 72
8
 73
4
 74
0
 40
0
 40
0
 40
0
 40
0
 40
1
 40
1
 40
1
 40
1
 10
140.311246
 20
61.787027
 30
0.0
 10
140.253895
 20
61.765013
 30
0.0
 10
140.229709
 20
61.675563
 30
0.0
 10
140.229709
 20
61.485457
 30
0.0
  0
SPLINE
  5
18e
100
AcDbEntity
  8
Image
 62
1
100
AcDbSpline
 70
8
 71
3
 72
8
 73
4
 74
0
 40
0
 40
0
 40
0
 40
0
 40
1
 40
1
 40
1
 40
1
 10
140.229709
 20
61.485457
 30
0.0
 10
140.229709
 20
61.336801
 30
0.0
 10
140.205262
 20
61.200056
 30
0.0
 10
140.175353
 20
61.181581
 30
0.0
  0
SPLINE
  5
18f
100
AcDbEntity
  8
Image
 62
1
100
AcDbSpline
 70
8
 71
3
 72
8
 73
4
 74
0
 40
0
 40
0
 40
0
 40
0
 40
1
 40
1
 40
1
 40
1
 10
140.175353
 20
61.181581
 30
0.0
 10
140.145458
 20
61.163113
 30
0.0
 10
140.120997
 20
61.014896
 30
0.0
 10
140.120997
 20
60.852230
 30
0.0
  0
SPLINE
  5
190
100
AcDbEntity
  8
Image
 62
1
100
AcDbSpline
 70
8
 71
3
 72
8
 73
4
 74
0
 40
0
 40
0
 40
0
 40
0
 40
1
 40
1
 40
1
 40
1
 10
140.120997
 20
60.852230
 30
0.0
 10
140.120997
 20
60.689567
 30
0.0
 10
140.096550
 20
60.556476
 30
0.0
 10
140.066638
 20
60.556476
 30
0.0
  0
SPLINE
  5
191
100
AcDbEntity
  8
Image
 62
1
100
AcDbSpline
 70
8
 71
3
 72
8
 73
4
 74
0
 40
0
 40
0
 40
0
 40
0
 40
1
 40
1
 40
1
 40
1
 10
140.066638
 20
60.556476
 30
0.0
 10
140.036550
 20
60.556476
 30
0.0
 10
140.012282
 20
60.413463
 30
0.0
 10
140.012282
 20
60.236150
 30
0.0
  0
SPLINE
  5
192
100
AcDbEntity
  8
Image
 62
1
100
AcDbSpline
 70
8
 71
3
 72
8
 73
4
 74
0
 40
0
 40
0
 40
0
 40
0
 40
1
 40
1
 40
1
 40
1
 10
140.012282
 20
60.236150
 30
0.0
 10
140.012282
 20
60.001560
 30
0.0
 10
139.990454
 20
59.907450
 30
0.0
 10
139.930746
 20
59.884538
 30
0.0
  0
SPLINE
  5
193
100
AcDbEntity
  8
Image
 62
1
100
AcDbSpline
 70
8
 71
3
 72
8
 73
4
 74
0
 40
0
 40
0
 40
0
 40
0
 40
1
 40
1
 40
1
 40
1
 10
139.930746
 20
59.884538
 30
0.0
 10
139.876930
 20
59.863874
 30
0.0
 10
139.849212
 20
59.778757
 30
0.0
 10
139.849212
 20
59.634115
 30
0.0
  0
SPLINE
  5
194
100
AcDbEntity
  8
Image
 62
1
100
AcDbSpline
 70
8
 71
3
 72
8
 73
4
 74
0
 40
0
 40
0
 40
0
 40
0
 40
1
 40
1
 40
1
 40
1
 10
139.849212
 20
59.634115
 30
0.0
 10
139.849212
 20
59.513592
 30
0.0
 10
139.824764
 20
59.414981
 30
0.0
 10
139.794856
 20
59.414981
 30
0.0
  0
SPLINE
  5
195
100
AcDbEntity
  8
Image
 62
1
100
AcDbSpline
 70
8
 71
3
 72
8
 73
4
 74
0
 40
0
 40
0
 40
0
 40
0
 40
1
 40
1
 40
1
 40
1
 10
139.794856
 20
59.414981
 30
0.0
 10
139.764656
 20
59.414981
 30
0.0
 10
139.740497
 20
59.270030
 30
0.0
 10
139.740497
 20
59.088840
 30
0.0
  0
SPLINE
  5
196
100
AcDbEntity
  8
Image
 62
1
100
AcDbSpline
 70
8
 71
3
 72
8
 73
4
 74
0
 40
0
 40
0
 40
0
 40
0
 40
1
 40
1
 40
1
 40
1
 10
139.740497
 20
59.088840
 30
0.0
 10
139.740497
 20
58.907651
 30
0.0
 10
139.716341
 20
58.762702
 30
0.0
 10
139.686141
 20
58.762702
 30
0.0
  0
SPLINE
  5
197
100
AcDbEntity
  8
Image
 62
1
100
AcDbSpline
 70
8
 71
3
 72
8
 73
4
 74
0
 40
0
 40
0
 40
0
 40
0
 40
1
 40
1
 40
1
 40
1
 10
139.686141
 20
58.762702
 30
0.0
 10
139.656246
 20
58.762702
 30
0.0
 10
139.631785
 20
58.630783
 30
0.0
 10
139.631785
 20
58.469554
 30
0.0
  0
SPLINE
  5
198
100
AcDbEntity
  8
Image
 62
1
100
AcDbSpline
 70
8
 71
3
 72
8
 73
4
 74
0
 40
0
 40
0
 40
0
 40
0
 40
1
 40
1
 40
1
 40
1
 10
139.631785
 20
58.469554
 30
0.0
 10
139.631785
 20
58.259123
 30
0.0
 10
139.608766
 20
58.167577
 30
0.0
 10
139.550248
 20
58.145119
 30
0.0
  0
SPLINE
  5
199
100
AcDbEntity
  8
Image
 62
1
100
AcDbSpline
 70
8
 71
3
 72
8
 73
4
 74
0
 40
0
 40
0
 40
0
 40
0
 40
1
 40
1
 40
1
 40
1
 10
139.550248
 20
58.145119
 30
0.0
 10
139.491371
 20
58.122524
 30
0.0
 10
139.468714
 20
58.030279
 30
0.0
 10
139.468714
 20
57.813162
 30
0.0
  0
SPLINE
  5
19a
100
AcDbEntity
  8
Image
 62
1
100
AcDbSpline
 70
8
 71
3
 72
8
 73
4
 74
0
 40
0
 40
0
 40
0
 40
0
 40
1
 40
1
 40
1
 40
1
 10
139.468714
 20
57.813162
 30
0.0
 10
139.468714
 20
57.647792
 30
0.0
 10
139.444267
 20
57.512492
 30
0.0
 10
139.414356
 20
57.512492
 30
0.0
  0
SPLINE
  5
19b
100
AcDbEntity
  8
Image
 62
1
100
AcDbSpline
 70
8
 71
3
 72
8
 73
4
 74
0
 40
0
 40
0
 40
0
 40
0
 40
1
 40
1
 40
1
 40
1
 10
139.414356
 20
57.512492
 30
0.0
 10
139.384461
 20
57.512492
 30
0.0
 10
139.360000
 20
57.403865
 30
0.0
 10
139.360000
 20
57.271095
 30
0.0
  0
SPLINE
  5
19c
100
AcDbEntity
  8
Image
 62
1
100
AcDbSpline
 70
8
 71
3
 72
8
 73
4
 74
0
 40
0
 40
0
 40
0
 40
0
 40
1
 40
1
 40
1
 40
1
 10
139.360000
 20
57.271095
 30
0.0
 10
139.360000
 20
57.138327
 30
0.0
 10
139.335552
 20
57.014581
 30
0.0
 10
139.305644
 20
56.996102
 30
0.0
  0
SPLINE
  5
19d
100
AcDbEntity
  8
Image
 62
1
100
AcDbSpline
 70
8
 71
3
 72
8
 73
4
 74
0
 40
0
 40
0
 40
0
 40
0
 40
1
 40
1
 40
1
 40
1
 10
139.305644
 20
56.996102
 30
0.0
 10
139.275746
 20
56.977635
 30
0.0
 10
139.251288
 20
56.915031
 30
0.0
 10
139.251288
 20
56.857003
 30
0.0
  0
SPLINE
  5
19e
100
AcDbEntity
  8
Image
 62
1
100
AcDbSpline
 70
8
 71
3
 72
8
 73
4
 74
0
 40
0
 40
0
 40
0
 40
0
 40
1
 40
1
 40
1
 40
1
 10
139.251288
 20
56.857003
 30
0.0
 10
139.251288
 20
56.754281
 30
0.0
 10
139.192460
 20
56.751498
 30
0.0
 10
137.022655
 20
56.751498
 30
0.0
  0
SPLINE
  5
19f
100
AcDbEntity
  8
Image
 62
1
100
AcDbSpline
 70
8
 71
3
 72
8
 73
4
 74
0
 40
0
 40
0
 40
0
 40
0
 40
1
 40
1
 40
1
 40
1
 10
137.022655
 20
56.751498
 30
0.0
 10
135.573140
 20
56.751498
 30
0.0
 10
134.794024
 20
56.770495
 30
0.0
 10
134.794024
 20
56.805854
 30
0.0
  0
LINE
  5
1a0
100
AcDbEntity
  8
Image
 62
1
100
AcDbLine
 10
134.794024
 20
56.805854
 30
0.0
 11
134.794133
 21
56.805854
 31
0.0
  0
SPLINE
  5
1a1
100
AcDbEntity
  8
Image
 62
1
100
AcDbSpline
 70
8
 71
3
 72
8
 73
4
 74
0
 40
0
 40
0
 40
0
 40
0
 40
1
 40
1
 40
1
 40
1
 10
140.121106
 20
66.916226
 30
0.0
 10
140.121106
 20
67.004234
 30
0.0
 10
140.084866
 20
67.024941
 30
0.0
 10
139.930854
 20
67.024941
 30
0.0
  0
SPLINE
  5
1a2
100
AcDbEntity
  8
Image
 62
1
100
AcDbSpline
 70
8
 71
3
 72
8
 73
4
 74
0
 40
0
 40
0
 40
0
 40
0
 40
1
 40
1
 40
1
 40
1
 10
139.930854
 20
67.024941
 30
0.0
 10
139.776846
 20
67.024941
 30
0.0
 10
139.740606
 20
67.004224
 30
0.0
 10
139.740606
 20
66.916226
 30
0.0
  0
SPLINE
  5
1a3
100
AcDbEntity
  8
Image
 62
1
100
AcDbSpline
 70
8
 71
3
 72
8
 73
4
 74
0
 40
0
 40
0
 40
0
 40
0
 40
1
 40
1
 40
1
 40
1
 10
139.740606
 20
66.916226
 30
0.0
 10
139.740606
 20
66.828220
 30
0.0
 10
139.776846
 20
66.807514
 30
0.0
 10
139.930854
 20
66.807514
 30
0.0
  0
SPLINE
  5
1a4
100
AcDbEntity
  8
Image
 62
1
100
AcDbSpline
 70
8
 71
3
 72
8
 73
4
 74
0
 40
0
 40
0
 40
0
 40
0
 40
1
 40
1
 40
1
 40
1
 10
139.930854
 20
66.807514
 30
0.0
 10
140.084866
 20
66.807514
 30
0.0
 10
140.121106
 20
66.828231
 30
0.0
 10
140.121106
 20
66.916226
 30
0.0
  0
LINE
  5
1a5
100
AcDbEntity
  8
Image
 62
1
100
AcDbLine
 10
140.121106
 20
66.916226
 30
0.0
 11
140.121106
 21
66.916226
 31
0.0
  0
SPLINE
  5
1a6
100
AcDbEntity
  8
Image
 62
1
100
AcDbSpline
 70
8
 71
3
 72
8
 73
4
 74
0
 40
0
 40
0
 40
0
 40
0
 40
1
 40
1
 40
1
 40
1
 10
139.459015
 20
67.038530
 30
0.0
 10
139.444304
 20
67.142082
 30
0.0
 10
139.408313
 20
67.160833
 30
0.0
 10
139.224216
 20
67.160833
 30
0.0
  0
SPLINE
  5
1a7
100
AcDbEntity
  8
Image
 62
1
100
AcDbSpline
 70
8
 71
3
 72
8
 73
4
 74
0
 40
0
 40
0
 40
0
 40
0
 40
1
 40
1
 40
1
 40
1
 10
139.224216
 20
67.160833
 30
0.0
 10
139.040121
 20
67.160833
 30
0.0
 10
139.004127
 20
67.142074
 30
0.0
 10
138.989419
 20
67.038530
 30
0.0
  0
SPLINE
  5
1a8
100
AcDbEntity
  8
Image
 62
1
100
AcDbSpline
 70
8
 71
3
 72
8
 73
4
 74
0
 40
0
 40
0
 40
0
 40
0
 40
1
 40
1
 40
1
 40
1
 10
138.989419
 20
67.038530
 30
0.0
 10
138.973544
 20
66.926778
 30
0.0
 10
138.993811
 20
66.916226
 30
0.0
 10
139.224216
 20
66.916226
 30
0.0
  0
SPLINE
  5
1a9
100
AcDbEntity
  8
Image
 62
1
100
AcDbSpline
 70
8
 71
3
 72
8
 73
4
 74
0
 40
0
 40
0
 40
0
 40
0
 40
1
 40
1
 40
1
 40
1
 10
139.224216
 20
66.916226
 30
0.0
 10
139.454631
 20
66.916226
 30
0.0
 10
139.474885
 20
66.926783
 30
0.0
 10
139.459015
 20
67.038530
 30
0.0
  0
LINE
  5
1aa
100
AcDbEntity
  8
Image
 62
1
100
AcDbLine
 10
139.459015
 20
67.038530
 30
0.0
 11
139.459015
 21
67.038530
 31
0.0
  0
SPLINE
  5
1ab
100
AcDbEntity
  8
Image
 62
1
100
AcDbSpline
 70
8
 71
3
 72
8
 73
4
 74
0
 40
0
 40
0
 40
0
 40
0
 40
1
 40
1
 40
1
 40
1
 10
138.840924
 20
67.118794
 30
0.0
 10
138.890253
 20
67.247341
 30
0.0
 10
138.823144
 20
67.296726
 30
0.0
 10
138.599114
 20
67.296726
 30
0.0
  0
SPLINE
  5
1ac
100
AcDbEntity
  8
Image
 62
1
100
AcDbSpline
 70
8
 71
3
 72
8
 73
4
 74
0
 40
0
 40
0
 40
0
 40
0
 40
1
 40
1
 40
1
 40
1
 10
138.599114
 20
67.296726
 30
0.0
 10
138.381266
 20
67.296726
 30
0.0
 10
138.297462
 20
67.235533
 30
0.0
 10
138.345140
 20
67.111285
 30
0.0
  0
SPLINE
  5
1ad
100
AcDbEntity
  8
Image
 62
1
100
AcDbSpline
 70
8
 71
3
 72
8
 73
4
 74
0
 40
0
 40
0
 40
0
 40
0
 40
1
 40
1
 40
1
 40
1
 10
138.345140
 20
67.111285
 30
0.0
 10
138.383933
 20
67.010195
 30
0.0
 10
138.801679
 20
67.016522
 30
0.0
 10
138.840924
 20
67.118799
 30
0.0
  0
LINE
  5
1ae
100
AcDbEntity
  8
Image
 62
1
100
AcDbLine
 10
138.840924
 20
67.118799
 30
0.0
 11
138.840924
 21
67.118794
 31
0.0
  0
SPLINE
  5
1af
100
AcDbEntity
  8
Image
 62
1
100
AcDbSpline
 70
8
 71
3
 72
8
 73
4
 74
0
 40
0
 40
0
 40
0
 40
0
 40
1
 40
1
 40
1
 40
1
 10
137.946831
 20
67.296726
 30
0.0
 10
137.946831
 20
67.382790
 30
0.0
 10
137.910594
 20
67.405438
 30
0.0
 10
137.772889
 20
67.405438
 30
0.0
  0
SPLINE
  5
1b0
100
AcDbEntity
  8
Image
 62
1
100
AcDbSpline
 70
8
 71
3
 72
8
 73
4
 74
0
 40
0
 40
0
 40
0
 40
0
 40
1
 40
1
 40
1
 40
1
 10
137.772889
 20
67.405438
 30
0.0
 10
137.644333
 20
67.405438
 30
0.0
 10
137.614858
 20
67.421339
 30
0.0
 10
137.659928
 20
67.466419
 30
0.0
  0
SPLINE
  5
1b1
100
AcDbEntity
  8
Image
 62
1
100
AcDbSpline
 70
8
 71
3
 72
8
 73
4
 74
0
 40
0
 40
0
 40
0
 40
0
 40
1
 40
1
 40
1
 40
1
 10
137.659928
 20
67.466419
 30
0.0
 10
137.771169
 20
67.577660
 30
0.0
 10
137.672866
 20
67.677223
 30
0.0
 10
137.451804
 20
67.677223
 30
0.0
  0
SPLINE
  5
1b2
100
AcDbEntity
  8
Image
 62
1
100
AcDbSpline
 70
8
 71
3
 72
8
 73
4
 74
0
 40
0
 40
0
 40
0
 40
0
 40
1
 40
1
 40
1
 40
1
 10
137.451804
 20
67.677223
 30
0.0
 10
137.335416
 20
67.677223
 30
0.0
 10
137.240193
 20
67.654469
 30
0.0
 10
137.240193
 20
67.626645
 30
0.0
  0
SPLINE
  5
1b3
100
AcDbEntity
  8
Image
 62
1
100
AcDbSpline
 70
8
 71
3
 72
8
 73
4
 74
0
 40
0
 40
0
 40
0
 40
0
 40
1
 40
1
 40
1
 40
1
 10
137.240193
 20
67.626645
 30
0.0
 10
137.240193
 20
67.598830
 30
0.0
 10
137.185157
 20
67.568254
 30
0.0
 10
137.117889
 20
67.558700
 30
0.0
  0
SPLINE
  5
1b4
100
AcDbEntity
  8
Image
 62
1
100
AcDbSpline
 70
8
 71
3
 72
8
 73
4
 74
0
 40
0
 40
0
 40
0
 40
0
 40
1
 40
1
 40
1
 40
1
 10
137.117889
 20
67.558700
 30
0.0
 10
137.039292
 20
67.547535
 30
0.0
 10
136.989378
 20
67.497627
 30
0.0
 10
136.978215
 20
67.419027
 30
0.0
  0
SPLINE
  5
1b5
100
AcDbEntity
  8
Image
 62
1
100
AcDbSpline
 70
8
 71
3
 72
8
 73
4
 74
0
 40
0
 40
0
 40
0
 40
0
 40
1
 40
1
 40
1
 40
1
 10
136.978215
 20
67.419027
 30
0.0
 10
136.962367
 20
67.307505
 30
0.0
 10
136.982740
 20
67.296726
 30
0.0
 10
137.209234
 20
67.296726
 30
0.0
  0
SPLINE
  5
1b6
100
AcDbEntity
  8
Image
 62
1
100
AcDbSpline
 70
8
 71
3
 72
8
 73
4
 74
0
 40
0
 40
0
 40
0
 40
0
 40
1
 40
1
 40
1
 40
1
 10
137.209234
 20
67.296726
 30
0.0
 10
137.345846
 20
67.296726
 30
0.0
 10
137.457619
 20
67.272252
 30
0.0
 10
137.457619
 20
67.242367
 30
0.0
  0
SPLINE
  5
1b7
100
AcDbEntity
  8
Image
 62
1
100
AcDbSpline
 70
8
 71
3
 72
8
 73
4
 74
0
 40
0
 40
0
 40
0
 40
0
 40
1
 40
1
 40
1
 40
1
 10
137.457619
 20
67.242367
 30
0.0
 10
137.457619
 20
67.212472
 30
0.0
 10
137.567691
 20
67.188011
 30
0.0
 10
137.702224
 20
67.188011
 30
0.0
  0
SPLINE
  5
1b8
100
AcDbEntity
  8
Image
 62
1
100
AcDbSpline
 70
8
 71
3
 72
8
 73
4
 74
0
 40
0
 40
0
 40
0
 40
0
 40
1
 40
1
 40
1
 40
1
 10
137.702224
 20
67.188011
 30
0.0
 10
137.910594
 20
67.188011
 30
0.0
 10
137.946831
 20
67.204124
 30
0.0
 10
137.946831
 20
67.296726
 30
0.0
  0
LINE
  5
1b9
100
AcDbEntity
  8
Image
 62
1
100
AcDbLine
 10
137.946831
 20
67.296726
 30
0.0
 11
137.946831
 21
67.296726
 31
0.0
  0
SPLINE
  5
1ba
100
AcDbEntity
  8
Image
 62
1
100
AcDbSpline
 70
8
 71
3
 72
8
 73
4
 74
0
 40
0
 40
0
 40
0
 40
0
 40
1
 40
1
 40
1
 40
1
 10
136.795529
 20
67.554919
 30
0.0
 10
136.811377
 20
67.666444
 30
0.0
 10
136.791004
 20
67.677223
 30
0.0
 10
136.564513
 20
67.677223
 30
0.0
  0
SPLINE
  5
1bb
100
AcDbEntity
  8
Image
 62
1
100
AcDbSpline
 70
8
 71
3
 72
8
 73
4
 74
0
 40
0
 40
0
 40
0
 40
0
 40
1
 40
1
 40
1
 40
1
 10
136.564513
 20
67.677223
 30
0.0
 10
136.359889
 20
67.677223
 30
0.0
 10
136.316125
 20
67.659655
 30
0.0
 10
136.316125
 20
67.577568
 30
0.0
  0
SPLINE
  5
1bc
100
AcDbEntity
  8
Image
 62
1
100
AcDbSpline
 70
8
 71
3
 72
8
 73
4
 74
0
 40
0
 40
0
 40
0
 40
0
 40
1
 40
1
 40
1
 40
1
 10
136.316125
 20
67.577568
 30
0.0
 10
136.316125
 20
67.431417
 30
0.0
 10
136.371446
 20
67.398384
 30
0.0
 10
136.585968
 20
67.416442
 30
0.0
  0
SPLINE
  5
1bd
100
AcDbEntity
  8
Image
 62
1
100
AcDbSpline
 70
8
 71
3
 72
8
 73
4
 74
0
 40
0
 40
0
 40
0
 40
0
 40
1
 40
1
 40
1
 40
1
 10
136.585968
 20
67.416442
 30
0.0
 10
136.737852
 20
67.429221
 30
0.0
 10
136.781802
 20
67.458267
 30
0.0
 10
136.795529
 20
67.554919
 30
0.0
  0
LINE
  5
1be
100
AcDbEntity
  8
Image
 62
1
100
AcDbLine
 10
136.795529
 20
67.554919
 30
0.0
 11
136.795529
 21
67.554919
 31
0.0
  0
SPLINE
  5
1bf
100
AcDbEntity
  8
Image
 62
1
100
AcDbSpline
 70
8
 71
3
 72
8
 73
4
 74
0
 40
0
 40
0
 40
0
 40
0
 40
1
 40
1
 40
1
 40
1
 10
139.216696
 20
67.486975
 30
0.0
 10
139.233894
 20
67.531819
 30
0.0
 10
139.297672
 20
67.568509
 30
0.0
 10
139.358402
 20
67.568509
 30
0.0
  0
SPLINE
  5
1c0
100
AcDbEntity
  8
Image
 62
1
100
AcDbSpline
 70
8
 71
3
 72
8
 73
4
 74
0
 40
0
 40
0
 40
0
 40
0
 40
1
 40
1
 40
1
 40
1
 10
139.358402
 20
67.568509
 30
0.0
 10
139.432586
 20
67.568509
 30
0.0
 10
139.468823
 20
67.604188
 30
0.0
 10
139.468823
 20
67.677223
 30
0.0
  0
SPLINE
  5
1c1
100
AcDbEntity
  8
Image
 62
1
100
AcDbSpline
 70
8
 71
3
 72
8
 73
4
 74
0
 40
0
 40
0
 40
0
 40
0
 40
1
 40
1
 40
1
 40
1
 10
139.468823
 20
67.677223
 30
0.0
 10
139.468823
 20
67.749698
 30
0.0
 10
139.432586
 20
67.785935
 30
0.0
 10
139.360108
 20
67.785935
 30
0.0
  0
SPLINE
  5
1c2
100
AcDbEntity
  8
Image
 62
1
100
AcDbSpline
 70
8
 71
3
 72
8
 73
4
 74
0
 40
0
 40
0
 40
0
 40
0
 40
1
 40
1
 40
1
 40
1
 10
139.360108
 20
67.785935
 30
0.0
 10
139.300315
 20
67.785935
 30
0.0
 10
139.251396
 20
67.752637
 30
0.0
 10
139.251396
 20
67.711939
 30
0.0
  0
SPLINE
  5
1c3
100
AcDbEntity
  8
Image
 62
1
100
AcDbSpline
 70
8
 71
3
 72
8
 73
4
 74
0
 40
0
 40
0
 40
0
 40
0
 40
1
 40
1
 40
1
 40
1
 10
139.251396
 20
67.711939
 30
0.0
 10
139.251396
 20
67.662319
 30
0.0
 10
139.206626
 20
67.646500
 30
0.0
 10
139.115504
 20
67.663920
 30
0.0
  0
SPLINE
  5
1c4
100
AcDbEntity
  8
Image
 62
1
100
AcDbSpline
 70
8
 71
3
 72
8
 73
4
 74
0
 40
0
 40
0
 40
0
 40
0
 40
1
 40
1
 40
1
 40
1
 10
139.115504
 20
67.663920
 30
0.0
 10
139.008130
 20
67.684452
 30
0.0
 10
138.979611
 20
67.667651
 30
0.0
 10
138.979611
 20
67.583905
 30
0.0
  0
SPLINE
  5
1c5
100
AcDbEntity
  8
Image
 62
1
100
AcDbSpline
 70
8
 71
3
 72
8
 73
4
 74
0
 40
0
 40
0
 40
0
 40
0
 40
1
 40
1
 40
1
 40
1
 10
138.979611
 20
67.583905
 30
0.0
 10
138.979611
 20
67.400620
 30
0.0
 10
139.155900
 20
67.328542
 30
0.0
 10
139.216696
 20
67.486974
 30
0.0
  0
LINE
  5
1c6
100
AcDbEntity
  8
Image
 62
1
100
AcDbLine
 10
139.216696
 20
67.486974
 30
0.0
 11
139.216696
 21
67.486975
 31
0.0
  0
SPLINE
  5
1c7
100
AcDbEntity
  8
Image
 62
1
100
AcDbSpline
 70
8
 71
3
 72
8
 73
4
 74
0
 40
0
 40
0
 40
0
 40
0
 40
1
 40
1
 40
1
 40
1
 10
134.902848
 20
67.677223
 30
0.0
 10
134.902848
 20
67.776876
 30
0.0
 10
134.866610
 20
67.785935
 30
0.0
 10
134.467992
 20
67.785935
 30
0.0
  0
SPLINE
  5
1c8
100
AcDbEntity
  8
Image
 62
1
100
AcDbSpline
 70
8
 71
3
 72
8
 73
4
 74
0
 40
0
 40
0
 40
0
 40
0
 40
1
 40
1
 40
1
 40
1
 10
134.467992
 20
67.785935
 30
0.0
 10
134.158844
 20
67.785935
 30
0.0
 10
134.031784
 20
67.805567
 30
0.0
 10
134.028455
 20
67.853883
 30
0.0
  0
SPLINE
  5
1c9
100
AcDbEntity
  8
Image
 62
1
100
AcDbSpline
 70
8
 71
3
 72
8
 73
4
 74
0
 40
0
 40
0
 40
0
 40
0
 40
1
 40
1
 40
1
 40
1
 10
134.028455
 20
67.853883
 30
0.0
 10
134.025809
 20
67.891253
 30
0.0
 10
134.019777
 20
68.007442
 30
0.0
 10
134.014856
 20
68.112076
 30
0.0
  0
SPLINE
  5
1ca
100
AcDbEntity
  8
Image
 62
1
100
AcDbSpline
 70
8
 71
3
 72
8
 73
4
 74
0
 40
0
 40
0
 40
0
 40
0
 40
1
 40
1
 40
1
 40
1
 10
134.014856
 20
68.112076
 30
0.0
 10
134.007791
 20
68.263119
 30
0.0
 10
133.983545
 20
68.302325
 30
0.0
 10
133.897235
 20
68.302325
 30
0.0
  0
SPLINE
  5
1cb
100
AcDbEntity
  8
Image
 62
1
100
AcDbSpline
 70
8
 71
3
 72
8
 73
4
 74
0
 40
0
 40
0
 40
0
 40
0
 40
1
 40
1
 40
1
 40
1
 10
133.897235
 20
68.302325
 30
0.0
 10
133.804099
 20
68.302325
 30
0.0
 10
133.787359
 20
68.263381
 30
0.0
 10
133.780403
 20
68.030542
 30
0.0
  0
SPLINE
  5
1cc
100
AcDbEntity
  8
Image
 62
1
100
AcDbSpline
 70
8
 71
3
 72
8
 73
4
 74
0
 40
0
 40
0
 40
0
 40
0
 40
1
 40
1
 40
1
 40
1
 10
133.780403
 20
68.030542
 30
0.0
 10
133.768417
 20
67.629265
 30
0.0
 10
133.843932
 20
67.575703
 30
0.0
 10
134.427214
 20
67.571739
 30
0.0
  0
SPLINE
  5
1cd
100
AcDbEntity
  8
Image
 62
1
100
AcDbSpline
 70
8
 71
3
 72
8
 73
4
 74
0
 40
0
 40
0
 40
0
 40
0
 40
1
 40
1
 40
1
 40
1
 10
134.427214
 20
67.571739
 30
0.0
 10
134.867676
 20
67.568749
 30
0.0
 10
134.902837
 20
67.576554
 30
0.0
 10
134.902837
 20
67.677223
 30
0.0
  0
LINE
  5
1ce
100
AcDbEntity
  8
Image
 62
1
100
AcDbLine
 10
134.902837
 20
67.677223
 30
0.0
 11
134.902848
 21
67.677223
 31
0.0
  0
SPLINE
  5
1cf
100
AcDbEntity
  8
Image
 62
1
100
AcDbSpline
 70
8
 71
3
 72
8
 73
4
 74
0
 40
0
 40
0
 40
0
 40
0
 40
1
 40
1
 40
1
 40
1
 10
133.479762
 20
67.799527
 30
0.0
 10
133.467036
 20
67.889112
 30
0.0
 10
133.426039
 20
67.921828
 30
0.0
 10
133.326500
 20
67.921828
 30
0.0
  0
SPLINE
  5
1d0
100
AcDbEntity
  8
Image
 62
1
100
AcDbSpline
 70
8
 71
3
 72
8
 73
4
 74
0
 40
0
 40
0
 40
0
 40
0
 40
1
 40
1
 40
1
 40
1
 10
133.326500
 20
67.921828
 30
0.0
 10
133.226958
 20
67.921828
 30
0.0
 10
133.185961
 20
67.889112
 30
0.0
 10
133.173237
 20
67.799527
 30
0.0
  0
SPLINE
  5
1d1
100
AcDbEntity
  8
Image
 62
1
100
AcDbSpline
 70
8
 71
3
 72
8
 73
4
 74
0
 40
0
 40
0
 40
0
 40
0
 40
1
 40
1
 40
1
 40
1
 10
133.173237
 20
67.799527
 30
0.0
 10
133.158394
 20
67.694979
 30
0.0
 10
133.180646
 20
67.677223
 30
0.0
 10
133.326500
 20
67.677223
 30
0.0
  0
SPLINE
  5
1d2
100
AcDbEntity
  8
Image
 62
1
100
AcDbSpline
 70
8
 71
3
 72
8
 73
4
 74
0
 40
0
 40
0
 40
0
 40
0
 40
1
 40
1
 40
1
 40
1
 10
133.326500
 20
67.677223
 30
0.0
 10
133.472359
 20
67.677223
 30
0.0
 10
133.494608
 20
67.694977
 30
0.0
 10
133.479762
 20
67.799527
 30
0.0
  0
LINE
  5
1d3
100
AcDbEntity
  8
Image
 62
1
100
AcDbLine
 10
133.479762
 20
67.799527
 30
0.0
 11
133.479762
 21
67.799527
 31
0.0
  0
SPLINE
  5
1d4
100
AcDbEntity
  8
Image
 62
1
100
AcDbSpline
 70
8
 71
3
 72
8
 73
4
 74
0
 40
0
 40
0
 40
0
 40
0
 40
1
 40
1
 40
1
 40
1
 10
134.512542
 20
68.180024
 30
0.0
 10
134.493572
 20
68.313567
 30
0.0
 10
134.279870
 20
68.380552
 30
0.0
 10
134.182720
 20
68.283405
 30
0.0
  0
SPLINE
  5
1d5
100
AcDbEntity
  8
Image
 62
1
100
AcDbSpline
 70
8
 71
3
 72
8
 73
4
 74
0
 40
0
 40
0
 40
0
 40
0
 40
1
 40
1
 40
1
 40
1
 10
134.182720
 20
68.283405
 30
0.0
 10
134.083563
 20
68.184244
 30
0.0
 10
134.183779
 20
68.057720
 30
0.0
 10
134.361354
 20
68.057720
 30
0.0
  0
SPLINE
  5
1d6
100
AcDbEntity
  8
Image
 62
1
100
AcDbSpline
 70
8
 71
3
 72
8
 73
4
 74
0
 40
0
 40
0
 40
0
 40
0
 40
1
 40
1
 40
1
 40
1
 10
134.361354
 20
68.057720
 30
0.0
 10
134.505062
 20
68.057720
 30
0.0
 10
134.527351
 20
68.075739
 30
0.0
 10
134.512542
 20
68.180024
 30
0.0
  0
LINE
  5
1d7
100
AcDbEntity
  8
Image
 62
1
100
AcDbLine
 10
134.512542
 20
68.180024
 30
0.0
 11
134.512542
 21
68.180024
 31
0.0
  0
SPLINE
  5
1d8
100
AcDbEntity
  8
Image
 62
1
100
AcDbSpline
 70
8
 71
3
 72
8
 73
4
 74
0
 40
0
 40
0
 40
0
 40
0
 40
1
 40
1
 40
1
 40
1
 10
136.143246
 20
68.180024
 30
0.0
 10
136.127450
 20
68.291152
 30
0.0
 10
136.092351
 20
68.303796
 30
0.0
 10
135.758968
 20
68.318399
 30
0.0
  0
SPLINE
  5
1d9
100
AcDbEntity
  8
Image
 62
1
100
AcDbSpline
 70
8
 71
3
 72
8
 73
4
 74
0
 40
0
 40
0
 40
0
 40
0
 40
1
 40
1
 40
1
 40
1
 10
135.758968
 20
68.318399
 30
0.0
 10
135.557167
 20
68.327236
 30
0.0
 10
135.392059
 20
68.357816
 30
0.0
 10
135.392059
 20
68.386346
 30
0.0
  0
SPLINE
  5
1da
100
AcDbEntity
  8
Image
 62
1
100
AcDbSpline
 70
8
 71
3
 72
8
 73
4
 74
0
 40
0
 40
0
 40
0
 40
0
 40
1
 40
1
 40
1
 40
1
 10
135.392059
 20
68.386346
 30
0.0
 10
135.392059
 20
68.464861
 30
0.0
 10
135.066601
 20
68.449031
 30
0.0
 10
135.061627
 20
68.370286
 30
0.0
  0
SPLINE
  5
1db
100
AcDbEntity
  8
Image
 62
1
100
AcDbSpline
 70
8
 71
3
 72
8
 73
4
 74
0
 40
0
 40
0
 40
0
 40
0
 40
1
 40
1
 40
1
 40
1
 10
135.061627
 20
68.370286
 30
0.0
 10
135.058187
 20
68.315930
 30
0.0
 10
135.051864
 20
68.315930
 30
0.0
 10
135.029919
 20
68.370286
 30
0.0
  0
SPLINE
  5
1dc
100
AcDbEntity
  8
Image
 62
1
100
AcDbSpline
 70
8
 71
3
 72
8
 73
4
 74
0
 40
0
 40
0
 40
0
 40
0
 40
1
 40
1
 40
1
 40
1
 10
135.029919
 20
68.370286
 30
0.0
 10
135.014838
 20
68.407656
 30
0.0
 10
134.931158
 20
68.438231
 30
0.0
 10
134.843962
 20
68.438231
 30
0.0
  0
SPLINE
  5
1dd
100
AcDbEntity
  8
Image
 62
1
100
AcDbSpline
 70
8
 71
3
 72
8
 73
4
 74
0
 40
0
 40
0
 40
0
 40
0
 40
1
 40
1
 40
1
 40
1
 10
134.843962
 20
68.438231
 30
0.0
 10
134.723140
 20
68.438231
 30
0.0
 10
134.685421
 20
68.413069
 30
0.0
 10
134.685421
 20
68.332485
 30
0.0
  0
SPLINE
  5
1de
100
AcDbEntity
  8
Image
 62
1
100
AcDbSpline
 70
8
 71
3
 72
8
 73
4
 74
0
 40
0
 40
0
 40
0
 40
0
 40
1
 40
1
 40
1
 40
1
 10
134.685421
 20
68.332485
 30
0.0
 10
134.685421
 20
68.145377
 30
0.0
 10
134.934820
 20
68.069751
 30
0.0
 10
135.572500
 20
68.063499
 30
0.0
  0
SPLINE
  5
1df
100
AcDbEntity
  8
Image
 62
1
100
AcDbSpline
 70
8
 71
3
 72
8
 73
4
 74
0
 40
0
 40
0
 40
0
 40
0
 40
1
 40
1
 40
1
 40
1
 10
135.572500
 20
68.063499
 30
0.0
 10
136.152731
 20
68.057810
 30
0.0
 10
136.160383
 20
68.059371
 30
0.0
 10
136.143246
 20
68.180037
 30
0.0
  0
LINE
  5
1e0
100
AcDbEntity
  8
Image
 62
1
100
AcDbLine
 10
136.143246
 20
68.180037
 30
0.0
 11
136.143246
 21
68.180024
 31
0.0
  0
SPLINE
  5
1e1
100
AcDbEntity
  8
Image
 62
1
100
AcDbSpline
 70
8
 71
3
 72
8
 73
4
 74
0
 40
0
 40
0
 40
0
 40
0
 40
1
 40
1
 40
1
 40
1
 10
136.523743
 20
68.180024
 30
0.0
 10
136.514192
 20
68.247289
 30
0.0
 10
136.469684
 20
68.302325
 30
0.0
 10
136.424839
 20
68.302325
 30
0.0
  0
SPLINE
  5
1e2
100
AcDbEntity
  8
Image
 62
1
100
AcDbSpline
 70
8
 71
3
 72
8
 73
4
 74
0
 40
0
 40
0
 40
0
 40
0
 40
1
 40
1
 40
1
 40
1
 10
136.424839
 20
68.302325
 30
0.0
 10
136.379995
 20
68.302325
 30
0.0
 10
136.335487
 20
68.247289
 30
0.0
 10
136.325933
 20
68.180024
 30
0.0
  0
SPLINE
  5
1e3
100
AcDbEntity
  8
Image
 62
1
100
AcDbSpline
 70
8
 71
3
 72
8
 73
4
 74
0
 40
0
 40
0
 40
0
 40
0
 40
1
 40
1
 40
1
 40
1
 10
136.325933
 20
68.180024
 30
0.0
 10
136.312571
 20
68.085893
 30
0.0
 10
136.335352
 20
68.057720
 30
0.0
 10
136.424839
 20
68.057720
 30
0.0
  0
SPLINE
  5
1e4
100
AcDbEntity
  8
Image
 62
1
100
AcDbSpline
 70
8
 71
3
 72
8
 73
4
 74
0
 40
0
 40
0
 40
0
 40
0
 40
1
 40
1
 40
1
 40
1
 10
136.424839
 20
68.057720
 30
0.0
 10
136.514329
 20
68.057720
 30
0.0
 10
136.537113
 20
68.085893
 30
0.0
 10
136.523743
 20
68.180024
 30
0.0
  0
LINE
  5
1e5
100
AcDbEntity
  8
Image
 62
1
100
AcDbLine
 10
136.523743
 20
68.180024
 30
0.0
 11
136.523743
 21
68.180024
 31
0.0
  0
SPLINE
  5
1e6
100
AcDbEntity
  8
Image
 62
1
100
AcDbSpline
 70
8
 71
3
 72
8
 73
4
 74
0
 40
0
 40
0
 40
0
 40
0
 40
1
 40
1
 40
1
 40
1
 10
139.063471
 20
68.232036
 30
0.0
 10
139.084532
 20
68.253176
 30
0.0
 10
139.087283
 20
68.308204
 30
0.0
 10
139.069556
 20
68.354340
 30
0.0
  0
SPLINE
  5
1e7
100
AcDbEntity
  8
Image
 62
1
100
AcDbSpline
 70
8
 71
3
 72
8
 73
4
 74
0
 40
0
 40
0
 40
0
 40
0
 40
1
 40
1
 40
1
 40
1
 10
139.069556
 20
68.354340
 30
0.0
 10
139.042193
 20
68.425650
 30
0.0
 10
138.890497
 20
68.438218
 30
0.0
 10
138.057239
 20
68.438218
 30
0.0
  0
SPLINE
  5
1e8
100
AcDbEntity
  8
Image
 62
1
100
AcDbSpline
 70
8
 71
3
 72
8
 73
4
 74
0
 40
0
 40
0
 40
0
 40
0
 40
1
 40
1
 40
1
 40
1
 10
138.057239
 20
68.438218
 30
0.0
 10
137.143048
 20
68.438218
 30
0.0
 10
137.077111
 20
68.431524
 30
0.0
 10
137.077111
 20
68.338565
 30
0.0
  0
SPLINE
  5
1e9
100
AcDbEntity
  8
Image
 62
1
100
AcDbSpline
 70
8
 71
3
 72
8
 73
4
 74
0
 40
0
 40
0
 40
0
 40
0
 40
1
 40
1
 40
1
 40
1
 10
137.077111
 20
68.338565
 30
0.0
 10
137.077111
 20
68.283754
 30
0.0
 10
137.094918
 20
68.221093
 30
0.0
 10
137.116706
 20
68.199315
 30
0.0
  0
SPLINE
  5
1ea
100
AcDbEntity
  8
Image
 62
1
100
AcDbSpline
 70
8
 71
3
 72
8
 73
4
 74
0
 40
0
 40
0
 40
0
 40
0
 40
1
 40
1
 40
1
 40
1
 10
137.116706
 20
68.199315
 30
0.0
 10
137.166818
 20
68.149203
 30
0.0
 10
139.011829
 20
68.180212
 30
0.0
 10
139.063460
 20
68.232036
 30
0.0
  0
LINE
  5
1eb
100
AcDbEntity
  8
Image
 62
1
100
AcDbLine
 10
139.063460
 20
68.232036
 30
0.0
 11
139.063471
 21
68.232036
 31
0.0
  0
SPLINE
  5
1ec
100
AcDbEntity
  8
Image
 62
1
100
AcDbSpline
 70
8
 71
3
 72
8
 73
4
 74
0
 40
0
 40
0
 40
0
 40
0
 40
1
 40
1
 40
1
 40
1
 10
136.415031
 20
68.700671
 30
0.0
 10
136.428075
 20
68.789397
 30
0.0
 10
136.404448
 20
68.818718
 30
0.0
 10
136.319906
 20
68.818718
 30
0.0
  0
SPLINE
  5
1ed
100
AcDbEntity
  8
Image
 62
1
100
AcDbSpline
 70
8
 71
3
 72
8
 73
4
 74
0
 40
0
 40
0
 40
0
 40
0
 40
1
 40
1
 40
1
 40
1
 10
136.319906
 20
68.818718
 30
0.0
 10
136.247058
 20
68.818718
 30
0.0
 10
136.207413
 20
68.783594
 30
0.0
 10
136.207413
 20
68.719062
 30
0.0
  0
SPLINE
  5
1ee
100
AcDbEntity
  8
Image
 62
1
100
AcDbSpline
 70
8
 71
3
 72
8
 73
4
 74
0
 40
0
 40
0
 40
0
 40
0
 40
1
 40
1
 40
1
 40
1
 10
136.207413
 20
68.719062
 30
0.0
 10
136.207413
 20
68.512417
 30
0.0
 10
136.385014
 20
68.496685
 30
0.0
 10
136.415031
 20
68.700674
 30
0.0
  0
LINE
  5
1ef
100
AcDbEntity
  8
Image
 62
1
100
AcDbLine
 10
136.415031
 20
68.700674
 30
0.0
 11
136.415031
 21
68.700671
 31
0.0
  0
SPLINE
  5
1f0
100
AcDbEntity
  8
Image
 62
1
100
AcDbSpline
 70
8
 71
3
 72
8
 73
4
 74
0
 40
0
 40
0
 40
0
 40
0
 40
1
 40
1
 40
1
 40
1
 10
137.828308
 20
68.941019
 30
0.0
 10
137.813598
 20
69.044574
 30
0.0
 10
137.777606
 20
69.063322
 30
0.0
 10
137.593512
 20
69.063322
 30
0.0
  0
SPLINE
  5
1f1
100
AcDbEntity
  8
Image
 62
1
100
AcDbSpline
 70
8
 71
3
 72
8
 73
4
 74
0
 40
0
 40
0
 40
0
 40
0
 40
1
 40
1
 40
1
 40
1
 10
137.593512
 20
69.063322
 30
0.0
 10
137.409415
 20
69.063322
 30
0.0
 10
137.373421
 20
69.044563
 30
0.0
 10
137.358715
 20
68.941019
 30
0.0
  0
SPLINE
  5
1f2
100
AcDbEntity
  8
Image
 62
1
100
AcDbSpline
 70
8
 71
3
 72
8
 73
4
 74
0
 40
0
 40
0
 40
0
 40
0
 40
1
 40
1
 40
1
 40
1
 10
137.358715
 20
68.941019
 30
0.0
 10
137.342840
 20
68.829267
 30
0.0
 10
137.363107
 20
68.818718
 30
0.0
 10
137.593512
 20
68.818718
 30
0.0
  0
SPLINE
  5
1f3
100
AcDbEntity
  8
Image
 62
1
100
AcDbSpline
 70
8
 71
3
 72
8
 73
4
 74
0
 40
0
 40
0
 40
0
 40
0
 40
1
 40
1
 40
1
 40
1
 10
137.593512
 20
68.818718
 30
0.0
 10
137.823927
 20
68.818718
 30
0.0
 10
137.844181
 20
68.829275
 30
0.0
 10
137.828308
 20
68.941019
 30
0.0
  0
LINE
  5
1f4
100
AcDbEntity
  8
Image
 62
1
100
AcDbLine
 10
137.828308
 20
68.941019
 30
0.0
 11
137.828308
 21
68.941019
 31
0.0
  0
SPLINE
  5
1f5
100
AcDbEntity
  8
Image
 62
1
100
AcDbSpline
 70
8
 71
3
 72
8
 73
4
 74
0
 40
0
 40
0
 40
0
 40
0
 40
1
 40
1
 40
1
 40
1
 10
138.952433
 20
69.199215
 30
0.0
 10
138.952433
 20
69.256278
 30
0.0
 10
138.883096
 20
69.285765
 30
0.0
 10
138.721415
 20
69.297465
 30
0.0
  0
SPLINE
  5
1f6
100
AcDbEntity
  8
Image
 62
1
100
AcDbSpline
 70
8
 71
3
 72
8
 73
4
 74
0
 40
0
 40
0
 40
0
 40
0
 40
1
 40
1
 40
1
 40
1
 10
138.721415
 20
69.297465
 30
0.0
 10
138.517180
 20
69.312229
 30
0.0
 10
138.490399
 20
69.300852
 30
0.0
 10
138.490399
 20
69.199215
 30
0.0
  0
SPLINE
  5
1f7
100
AcDbEntity
  8
Image
 62
1
100
AcDbSpline
 70
8
 71
3
 72
8
 73
4
 74
0
 40
0
 40
0
 40
0
 40
0
 40
1
 40
1
 40
1
 40
1
 10
138.490399
 20
69.199215
 30
0.0
 10
138.490399
 20
69.097578
 30
0.0
 10
138.517180
 20
69.086188
 30
0.0
 10
138.721415
 20
69.100965
 30
0.0
  0
SPLINE
  5
1f8
100
AcDbEntity
  8
Image
 62
1
100
AcDbSpline
 70
8
 71
3
 72
8
 73
4
 74
0
 40
0
 40
0
 40
0
 40
0
 40
1
 40
1
 40
1
 40
1
 10
138.721415
 20
69.100965
 30
0.0
 10
138.883096
 20
69.112659
 30
0.0
 10
138.952433
 20
69.142150
 30
0.0
 10
138.952433
 20
69.199215
 30
0.0
  0
LINE
  5
1f9
100
AcDbEntity
  8
Image
 62
1
100
AcDbLine
 10
138.952433
 20
69.199215
 30
0.0
 11
138.952433
 21
69.199215
 31
0.0
  0
SPLINE
  5
1fa
100
AcDbEntity
  8
Image
 62
1
100
AcDbSpline
 70
8
 71
3
 72
8
 73
4
 74
0
 40
0
 40
0
 40
0
 40
0
 40
1
 40
1
 40
1
 40
1
 10
139.360108
 20
69.309634
 30
0.0
 10
139.360108
 20
69.437840
 30
0.0
 10
139.216360
 20
69.512064
 30
0.0
 10
139.131810
 20
69.427513
 30
0.0
  0
SPLINE
  5
1fb
100
AcDbEntity
  8
Image
 62
1
100
AcDbSpline
 70
8
 71
3
 72
8
 73
4
 74
0
 40
0
 40
0
 40
0
 40
0
 40
1
 40
1
 40
1
 40
1
 10
139.131810
 20
69.427513
 30
0.0
 10
139.047260
 20
69.342963
 30
0.0
 10
139.121491
 20
69.199215
 30
0.0
 10
139.249690
 20
69.199215
 30
0.0
  0
SPLINE
  5
1fc
100
AcDbEntity
  8
Image
 62
1
100
AcDbSpline
 70
8
 71
3
 72
8
 73
4
 74
0
 40
0
 40
0
 40
0
 40
0
 40
1
 40
1
 40
1
 40
1
 10
139.249690
 20
69.199215
 30
0.0
 10
139.324440
 20
69.199215
 30
0.0
 10
139.360108
 20
69.234883
 30
0.0
 10
139.360108
 20
69.309634
 30
0.0
  0
LINE
  5
1fd
100
AcDbEntity
  8
Image
 62
1
100
AcDbLine
 10
139.360108
 20
69.309634
 30
0.0
 11
139.360108
 21
69.309634
 31
0.0
  0
SPLINE
  5
1fe
100
AcDbEntity
  8
Image
 62
1
100
AcDbSpline
 70
8
 71
3
 72
8
 73
4
 74
0
 40
0
 40
0
 40
0
 40
0
 40
1
 40
1
 40
1
 40
1
 10
139.988436
 20
69.520139
 30
0.0
 10
139.968195
 20
69.552905
 30
0.0
 10
139.904139
 20
69.579712
 30
0.0
 10
139.846111
 20
69.579712
 30
0.0
  0
SPLINE
  5
1ff
100
AcDbEntity
  8
Image
 62
1
100
AcDbSpline
 70
8
 71
3
 72
8
 73
4
 74
0
 40
0
 40
0
 40
0
 40
0
 40
1
 40
1
 40
1
 40
1
 10
139.846111
 20
69.579712
 30
0.0
 10
139.727104
 20
69.579712
 30
0.0
 10
139.696240
 20
69.387791
 30
0.0
 10
139.808553
 20
69.346154
 30
0.0
  0
SPLINE
  5
200
100
AcDbEntity
  8
Image
 62
1
100
AcDbSpline
 70
8
 71
3
 72
8
 73
4
 74
0
 40
0
 40
0
 40
0
 40
0
 40
1
 40
1
 40
1
 40
1
 10
139.808553
 20
69.346154
 30
0.0
 10
139.898808
 20
69.312692
 30
0.0
 10
140.035145
 20
69.444560
 30
0.0
 10
139.988436
 20
69.520139
 30
0.0
  0
LINE
  5
201
100
AcDbEntity
  8
Image
 62
1
100
AcDbLine
 10
139.988436
 20
69.520139
 30
0.0
 11
139.988436
 21
69.520139
 31
0.0
  0
SPLINE
  5
202
100
AcDbEntity
  8
Image
 62
1
100
AcDbSpline
 70
8
 71
3
 72
8
 73
4
 74
0
 40
0
 40
0
 40
0
 40
0
 40
1
 40
1
 40
1
 40
1
 10
141.515690
 20
41.828035
 30
0.0
 10
141.493147
 20
41.886746
 30
0.0
 10
141.409195
 20
41.912080
 30
0.0
 10
141.237126
 20
41.912080
 30
0.0
  0
SPLINE
  5
203
100
AcDbEntity
  8
Image
 62
1
100
AcDbSpline
 70
8
 71
3
 72
8
 73
4
 74
0
 40
0
 40
0
 40
0
 40
0
 40
1
 40
1
 40
1
 40
1
 10
141.237126
 20
41.912080
 30
0.0
 10
141.101654
 20
41.912080
 30
0.0
 10
140.990815
 20
41.936527
 30
0.0
 10
140.990815
 20
41.966436
 30
0.0
  0
SPLINE
  5
204
100
AcDbEntity
  8
Image
 62
1
100
AcDbSpline
 70
8
 71
3
 72
8
 73
4
 74
0
 40
0
 40
0
 40
0
 40
0
 40
1
 40
1
 40
1
 40
1
 10
140.990815
 20
41.966436
 30
0.0
 10
140.990815
 20
41.996331
 30
0.0
 10
140.857724
 20
42.020792
 30
0.0
 10
140.695058
 20
42.020792
 30
0.0
  0
SPLINE
  5
205
100
AcDbEntity
  8
Image
 62
1
100
AcDbSpline
 70
8
 71
3
 72
8
 73
4
 74
0
 40
0
 40
0
 40
0
 40
0
 40
1
 40
1
 40
1
 40
1
 10
140.695058
 20
42.020792
 30
0.0
 10
140.532395
 20
42.020792
 30
0.0
 10
140.384186
 20
42.045239
 30
0.0
 10
140.365710
 20
42.075150
 30
0.0
  0
SPLINE
  5
206
100
AcDbEntity
  8
Image
 62
1
100
AcDbSpline
 70
8
 71
3
 72
8
 73
4
 74
0
 40
0
 40
0
 40
0
 40
0
 40
1
 40
1
 40
1
 40
1
 10
140.365710
 20
42.075150
 30
0.0
 10
140.347242
 20
42.105046
 30
0.0
 10
140.201645
 20
42.129506
 30
0.0
 10
140.042178
 20
42.129506
 30
0.0
  0
SPLINE
  5
207
100
AcDbEntity
  8
Image
 62
1
100
AcDbSpline
 70
8
 71
3
 72
8
 73
4
 74
0
 40
0
 40
0
 40
0
 40
0
 40
1
 40
1
 40
1
 40
1
 10
140.042178
 20
42.129506
 30
0.0
 10
139.834596
 20
42.129506
 30
0.0
 10
139.743349
 20
42.152657
 30
0.0
 10
139.720950
 20
42.211043
 30
0.0
  0
SPLINE
  5
208
100
AcDbEntity
  8
Image
 62
1
100
AcDbSpline
 70
8
 71
3
 72
8
 73
4
 74
0
 40
0
 40
0
 40
0
 40
0
 40
1
 40
1
 40
1
 40
1
 10
139.720950
 20
42.211043
 30
0.0
 10
139.698354
 20
42.269918
 30
0.0
 10
139.606110
 20
42.292577
 30
0.0
 10
139.388993
 20
42.292577
 30
0.0
  0
SPLINE
  5
209
100
AcDbEntity
  8
Image
 62
1
100
AcDbSpline
 70
8
 71
3
 72
8
 73
4
 74
0
 40
0
 40
0
 40
0
 40
0
 40
1
 40
1
 40
1
 40
1
 10
139.388993
 20
42.292577
 30
0.0
 10
139.223626
 20
42.292577
 30
0.0
 10
139.088326
 20
42.317024
 30
0.0
 10
139.088326
 20
42.346933
 30
0.0
  0
SPLINE
  5
20a
100
AcDbEntity
  8
Image
 62
1
100
AcDbSpline
 70
8
 71
3
 72
8
 73
4
 74
0
 40
0
 40
0
 40
0
 40
0
 40
1
 40
1
 40
1
 40
1
 10
139.088326
 20
42.346933
 30
0.0
 10
139.088326
 20
42.376831
 30
0.0
 10
138.978251
 20
42.401292
 30
0.0
 10
138.843718
 20
42.401292
 30
0.0
  0
SPLINE
  5
20b
100
AcDbEntity
  8
Image
 62
1
100
AcDbSpline
 70
8
 71
3
 72
8
 73
4
 74
0
 40
0
 40
0
 40
0
 40
0
 40
1
 40
1
 40
1
 40
1
 10
138.843718
 20
42.401292
 30
0.0
 10
138.709186
 20
42.401292
 30
0.0
 10
138.599114
 20
42.425739
 30
0.0
 10
138.599114
 20
42.455648
 30
0.0
  0
SPLINE
  5
20c
100
AcDbEntity
  8
Image
 62
1
100
AcDbSpline
 70
8
 71
3
 72
8
 73
4
 74
0
 40
0
 40
0
 40
0
 40
0
 40
1
 40
1
 40
1
 40
1
 10
138.599114
 20
42.455648
 30
0.0
 10
138.599114
 20
42.485543
 30
0.0
 10
138.487293
 20
42.510004
 30
0.0
 10
138.350625
 20
42.510004
 30
0.0
  0
SPLINE
  5
20d
100
AcDbEntity
  8
Image
 62
1
100
AcDbSpline
 70
8
 71
3
 72
8
 73
4
 74
0
 40
0
 40
0
 40
0
 40
0
 40
1
 40
1
 40
1
 40
1
 10
138.350625
 20
42.510004
 30
0.0
 10
138.202220
 20
42.510004
 30
0.0
 10
138.069296
 20
42.542846
 30
0.0
 10
138.020600
 20
42.591540
 30
0.0
  0
SPLINE
  5
20e
100
AcDbEntity
  8
Image
 62
1
100
AcDbSpline
 70
8
 71
3
 72
8
 73
4
 74
0
 40
0
 40
0
 40
0
 40
0
 40
1
 40
1
 40
1
 40
1
 10
138.020600
 20
42.591540
 30
0.0
 10
137.972673
 20
42.639467
 30
0.0
 10
137.839844
 20
42.673074
 30
0.0
 10
137.698342
 20
42.673074
 30
0.0
  0
SPLINE
  5
20f
100
AcDbEntity
  8
Image
 62
1
100
AcDbSpline
 70
8
 71
3
 72
8
 73
4
 74
0
 40
0
 40
0
 40
0
 40
0
 40
1
 40
1
 40
1
 40
1
 10
137.698342
 20
42.673074
 30
0.0
 10
137.565945
 20
42.673074
 30
0.0
 10
137.457619
 20
42.697548
 30
0.0
 10
137.457619
 20
42.727433
 30
0.0
  0
SPLINE
  5
210
100
AcDbEntity
  8
Image
 62
1
100
AcDbSpline
 70
8
 71
3
 72
8
 73
4
 74
0
 40
0
 40
0
 40
0
 40
0
 40
1
 40
1
 40
1
 40
1
 10
137.457619
 20
42.727433
 30
0.0
 10
137.457619
 20
42.757328
 30
0.0
 10
137.335316
 20
42.781789
 30
0.0
 10
137.185834
 20
42.781789
 30
0.0
  0
SPLINE
  5
211
100
AcDbEntity
  8
Image
 62
1
100
AcDbSpline
 70
8
 71
3
 72
8
 73
4
 74
0
 40
0
 40
0
 40
0
 40
0
 40
1
 40
1
 40
1
 40
1
 10
137.185834
 20
42.781789
 30
0.0
 10
137.036355
 20
42.781789
 30
0.0
 10
136.914051
 20
42.806263
 30
0.0
 10
136.914051
 20
42.836145
 30
0.0
  0
SPLINE
  5
212
100
AcDbEntity
  8
Image
 62
1
100
AcDbSpline
 70
8
 71
3
 72
8
 73
4
 74
0
 40
0
 40
0
 40
0
 40
0
 40
1
 40
1
 40
1
 40
1
 10
136.914051
 20
42.836145
 30
0.0
 10
136.914051
 20
42.866043
 30
0.0
 10
136.782135
 20
42.890501
 30
0.0
 10
136.620904
 20
42.890501
 30
0.0
  0
SPLINE
  5
213
100
AcDbEntity
  8
Image
 62
1
100
AcDbSpline
 70
8
 71
3
 72
8
 73
4
 74
0
 40
0
 40
0
 40
0
 40
0
 40
1
 40
1
 40
1
 40
1
 10
136.620904
 20
42.890501
 30
0.0
 10
136.410472
 20
42.890501
 30
0.0
 10
136.318929
 20
42.913520
 30
0.0
 10
136.296469
 20
42.972038
 30
0.0
  0
SPLINE
  5
214
100
AcDbEntity
  8
Image
 62
1
100
AcDbSpline
 70
8
 71
3
 72
8
 73
4
 74
0
 40
0
 40
0
 40
0
 40
0
 40
1
 40
1
 40
1
 40
1
 10
136.296469
 20
42.972038
 30
0.0
 10
136.275038
 20
43.027915
 30
0.0
 10
136.187669
 20
43.053572
 30
0.0
 10
136.018868
 20
43.053572
 30
0.0
  0
SPLINE
  5
215
100
AcDbEntity
  8
Image
 62
1
100
AcDbSpline
 70
8
 71
3
 72
8
 73
4
 74
0
 40
0
 40
0
 40
0
 40
0
 40
1
 40
1
 40
1
 40
1
 10
136.018868
 20
43.053572
 30
0.0
 10
135.883399
 20
43.053572
 30
0.0
 10
135.772557
 20
43.078019
 30
0.0
 10
135.772557
 20
43.107930
 30
0.0
  0
SPLINE
  5
216
100
AcDbEntity
  8
Image
 62
1
100
AcDbSpline
 70
8
 71
3
 72
8
 73
4
 74
0
 40
0
 40
0
 40
0
 40
0
 40
1
 40
1
 40
1
 40
1
 10
135.772557
 20
43.107930
 30
0.0
 10
135.772557
 20
43.137825
 30
0.0
 10
135.638024
 20
43.162286
 30
0.0
 10
135.473593
 20
43.162286
 30
0.0
  0
SPLINE
  5
217
100
AcDbEntity
  8
Image
 62
1
100
AcDbSpline
 70
8
 71
3
 72
8
 73
4
 74
0
 40
0
 40
0
 40
0
 40
0
 40
1
 40
1
 40
1
 40
1
 10
135.473593
 20
43.162286
 30
0.0
 10
135.309165
 20
43.162286
 30
0.0
 10
135.174633
 20
43.186734
 30
0.0
 10
135.174633
 20
43.216642
 30
0.0
  0
SPLINE
  5
218
100
AcDbEntity
  8
Image
 62
1
100
AcDbSpline
 70
8
 71
3
 72
8
 73
4
 74
0
 40
0
 40
0
 40
0
 40
0
 40
1
 40
1
 40
1
 40
1
 10
135.174633
 20
43.216642
 30
0.0
 10
135.174633
 20
43.246540
 30
0.0
 10
135.052329
 20
43.271001
 30
0.0
 10
134.902848
 20
43.271001
 30
0.0
  0
SPLINE
  5
219
100
AcDbEntity
  8
Image
 62
1
100
AcDbSpline
 70
8
 71
3
 72
8
 73
4
 74
0
 40
0
 40
0
 40
0
 40
0
 40
1
 40
1
 40
1
 40
1
 10
134.902848
 20
43.271001
 30
0.0
 10
134.697499
 20
43.271001
 30
0.0
 10
134.631062
 20
43.290924
 30
0.0
 10
134.631062
 20
43.352535
 30
0.0
  0
SPLINE
  5
21a
100
AcDbEntity
  8
Image
 62
1
100
AcDbSpline
 70
8
 71
3
 72
8
 73
4
 74
0
 40
0
 40
0
 40
0
 40
0
 40
1
 40
1
 40
1
 40
1
 10
134.631062
 20
43.352535
 30
0.0
 10
134.631062
 20
43.415127
 30
0.0
 10
134.561606
 20
43.434071
 30
0.0
 10
134.332102
 20
43.434071
 30
0.0
  0
SPLINE
  5
21b
100
AcDbEntity
  8
Image
 62
1
100
AcDbSpline
 70
8
 71
3
 72
8
 73
4
 74
0
 40
0
 40
0
 40
0
 40
0
 40
1
 40
1
 40
1
 40
1
 10
134.332102
 20
43.434071
 30
0.0
 10
134.167671
 20
43.434071
 30
0.0
 10
134.033138
 20
43.458519
 30
0.0
 10
134.033138
 20
43.488427
 30
0.0
  0
SPLINE
  5
21c
100
AcDbEntity
  8
Image
 62
1
100
AcDbSpline
 70
8
 71
3
 72
8
 73
4
 74
0
 40
0
 40
0
 40
0
 40
0
 40
1
 40
1
 40
1
 40
1
 10
134.033138
 20
43.488427
 30
0.0
 10
134.033138
 20
43.518323
 30
0.0
 10
133.910835
 20
43.542783
 30
0.0
 10
133.761353
 20
43.542783
 30
0.0
  0
SPLINE
  5
21d
100
AcDbEntity
  8
Image
 62
1
100
AcDbSpline
 70
8
 71
3
 72
8
 73
4
 74
0
 40
0
 40
0
 40
0
 40
0
 40
1
 40
1
 40
1
 40
1
 10
133.761353
 20
43.542783
 30
0.0
 10
133.611871
 20
43.542783
 30
0.0
 10
133.489570
 20
43.567231
 30
0.0
 10
133.489570
 20
43.597142
 30
0.0
  0
SPLINE
  5
21e
100
AcDbEntity
  8
Image
 62
1
100
AcDbSpline
 70
8
 71
3
 72
8
 73
4
 74
0
 40
0
 40
0
 40
0
 40
0
 40
1
 40
1
 40
1
 40
1
 10
133.489570
 20
43.597142
 30
0.0
 10
133.489570
 20
43.627037
 30
0.0
 10
133.357654
 20
43.651498
 30
0.0
 10
133.196423
 20
43.651498
 30
0.0
  0
SPLINE
  5
21f
100
AcDbEntity
  8
Image
 62
1
100
AcDbSpline
 70
8
 71
3
 72
8
 73
4
 74
0
 40
0
 40
0
 40
0
 40
0
 40
1
 40
1
 40
1
 40
1
 10
133.196423
 20
43.651498
 30
0.0
 10
132.985992
 20
43.651498
 30
0.0
 10
132.894448
 20
43.674517
 30
0.0
 10
132.871988
 20
43.733032
 30
0.0
  0
SPLINE
  5
220
100
AcDbEntity
  8
Image
 62
1
100
AcDbSpline
 70
8
 71
3
 72
8
 73
4
 74
0
 40
0
 40
0
 40
0
 40
0
 40
1
 40
1
 40
1
 40
1
 10
132.871988
 20
43.733032
 30
0.0
 10
132.850557
 20
43.788909
 30
0.0
 10
132.763189
 20
43.814569
 30
0.0
 10
132.594387
 20
43.814569
 30
0.0
  0
SPLINE
  5
221
100
AcDbEntity
  8
Image
 62
1
100
AcDbSpline
 70
8
 71
3
 72
8
 73
4
 74
0
 40
0
 40
0
 40
0
 40
0
 40
1
 40
1
 40
1
 40
1
 10
132.594387
 20
43.814569
 30
0.0
 10
132.458915
 20
43.814569
 30
0.0
 10
132.348076
 20
43.839016
 30
0.0
 10
132.348076
 20
43.868925
 30
0.0
  0
SPLINE
  5
222
100
AcDbEntity
  8
Image
 62
1
100
AcDbSpline
 70
8
 71
3
 72
8
 73
4
 74
0
 40
0
 40
0
 40
0
 40
0
 40
1
 40
1
 40
1
 40
1
 10
132.348076
 20
43.868925
 30
0.0
 10
132.348076
 20
43.898823
 30
0.0
 10
132.213543
 20
43.923283
 30
0.0
 10
132.049113
 20
43.923283
 30
0.0
  0
SPLINE
  5
223
100
AcDbEntity
  8
Image
 62
1
100
AcDbSpline
 70
8
 71
3
 72
8
 73
4
 74
0
 40
0
 40
0
 40
0
 40
0
 40
1
 40
1
 40
1
 40
1
 10
132.049113
 20
43.923283
 30
0.0
 10
131.884685
 20
43.923283
 30
0.0
 10
131.750152
 20
43.945958
 30
0.0
 10
131.750152
 20
43.973655
 30
0.0
  0
SPLINE
  5
224
100
AcDbEntity
  8
Image
 62
1
100
AcDbSpline
 70
8
 71
3
 72
8
 73
4
 74
0
 40
0
 40
0
 40
0
 40
0
 40
1
 40
1
 40
1
 40
1
 10
131.750152
 20
43.973655
 30
0.0
 10
131.750152
 20
44.001357
 30
0.0
 10
131.707345
 20
44.035210
 30
0.0
 10
131.655026
 20
44.048884
 30
0.0
  0
SPLINE
  5
225
100
AcDbEntity
  8
Image
 62
1
100
AcDbSpline
 70
8
 71
3
 72
8
 73
4
 74
0
 40
0
 40
0
 40
0
 40
0
 40
1
 40
1
 40
1
 40
1
 10
131.655026
 20
44.048884
 30
0.0
 10
131.564430
 20
44.072564
 30
0.0
 10
131.564430
 20
44.074046
 30
0.0
 10
131.655026
 20
44.080046
 30
0.0
  0
SPLINE
  5
226
100
AcDbEntity
  8
Image
 62
1
100
AcDbSpline
 70
8
 71
3
 72
8
 73
4
 74
0
 40
0
 40
0
 40
0
 40
0
 40
1
 40
1
 40
1
 40
1
 10
131.655026
 20
44.080046
 30
0.0
 10
131.726300
 20
44.084782
 30
0.0
 10
131.750152
 20
44.134053
 30
0.0
 10
131.750152
 20
44.276603
 30
0.0
  0
SPLINE
  5
227
100
AcDbEntity
  8
Image
 62
1
100
AcDbSpline
 70
8
 71
3
 72
8
 73
4
 74
0
 40
0
 40
0
 40
0
 40
0
 40
1
 40
1
 40
1
 40
1
 10
131.750152
 20
44.276603
 30
0.0
 10
131.750152
 20
44.381237
 30
0.0
 10
131.774599
 20
44.466851
 30
0.0
 10
131.804508
 20
44.466851
 30
0.0
  0
SPLINE
  5
228
100
AcDbEntity
  8
Image
 62
1
100
AcDbSpline
 70
8
 71
3
 72
8
 73
4
 74
0
 40
0
 40
0
 40
0
 40
0
 40
1
 40
1
 40
1
 40
1
 10
131.804508
 20
44.466851
 30
0.0
 10
131.834403
 20
44.466851
 30
0.0
 10
131.858864
 20
44.552463
 30
0.0
 10
131.858864
 20
44.657100
 30
0.0
  0
SPLINE
  5
229
100
AcDbEntity
  8
Image
 62
1
100
AcDbSpline
 70
8
 71
3
 72
8
 73
4
 74
0
 40
0
 40
0
 40
0
 40
0
 40
1
 40
1
 40
1
 40
1
 10
131.858864
 20
44.657100
 30
0.0
 10
131.858864
 20
44.761737
 30
0.0
 10
131.883311
 20
44.847349
 30
0.0
 10
131.913220
 20
44.847349
 30
0.0
  0
SPLINE
  5
22a
100
AcDbEntity
  8
Image
 62
1
100
AcDbSpline
 70
8
 71
3
 72
8
 73
4
 74
0
 40
0
 40
0
 40
0
 40
0
 40
1
 40
1
 40
1
 40
1
 10
131.913220
 20
44.847349
 30
0.0
 10
131.943118
 20
44.847349
 30
0.0
 10
131.967579
 20
44.932960
 30
0.0
 10
131.967579
 20
45.037597
 30
0.0
  0
SPLINE
  5
22b
100
AcDbEntity
  8
Image
 62
1
100
AcDbSpline
 70
8
 71
3
 72
8
 73
4
 74
0
 40
0
 40
0
 40
0
 40
0
 40
1
 40
1
 40
1
 40
1
 10
131.967579
 20
45.037597
 30
0.0
 10
131.967579
 20
45.170468
 30
0.0
 10
131.992158
 20
45.227846
 30
0.0
 10
132.049113
 20
45.227846
 30
0.0
  0
SPLINE
  5
22c
100
AcDbEntity
  8
Image
 62
1
100
AcDbSpline
 70
8
 71
3
 72
8
 73
4
 74
0
 40
0
 40
0
 40
0
 40
0
 40
1
 40
1
 40
1
 40
1
 10
132.049113
 20
45.227846
 30
0.0
 10
132.106059
 20
45.227846
 30
0.0
 10
132.130649
 20
45.285223
 30
0.0
 10
132.130649
 20
45.418095
 30
0.0
  0
SPLINE
  5
22d
100
AcDbEntity
  8
Image
 62
1
100
AcDbSpline
 70
8
 71
3
 72
8
 73
4
 74
0
 40
0
 40
0
 40
0
 40
0
 40
1
 40
1
 40
1
 40
1
 10
132.130649
 20
45.418095
 30
0.0
 10
132.130649
 20
45.522732
 30
0.0
 10
132.155097
 20
45.608343
 30
0.0
 10
132.185005
 20
45.608343
 30
0.0
  0
SPLINE
  5
22e
100
AcDbEntity
  8
Image
 62
1
100
AcDbSpline
 70
8
 71
3
 72
8
 73
4
 74
0
 40
0
 40
0
 40
0
 40
0
 40
1
 40
1
 40
1
 40
1
 10
132.185005
 20
45.608343
 30
0.0
 10
132.214900
 20
45.608343
 30
0.0
 10
132.239361
 20
45.657265
 30
0.0
 10
132.239361
 20
45.717058
 30
0.0
  0
SPLINE
  5
22f
100
AcDbEntity
  8
Image
 62
1
100
AcDbSpline
 70
8
 71
3
 72
8
 73
4
 74
0
 40
0
 40
0
 40
0
 40
0
 40
1
 40
1
 40
1
 40
1
 10
132.239361
 20
45.717058
 30
0.0
 10
132.239361
 20
45.776851
 30
0.0
 10
132.263835
 20
45.825772
 30
0.0
 10
132.293720
 20
45.825772
 30
0.0
  0
SPLINE
  5
230
100
AcDbEntity
  8
Image
 62
1
100
AcDbSpline
 70
8
 71
3
 72
8
 73
4
 74
0
 40
0
 40
0
 40
0
 40
0
 40
1
 40
1
 40
1
 40
1
 10
132.293720
 20
45.825772
 30
0.0
 10
132.323615
 20
45.825772
 30
0.0
 10
132.348076
 20
45.908767
 30
0.0
 10
132.348076
 20
46.010206
 30
0.0
  0
SPLINE
  5
231
100
AcDbEntity
  8
Image
 62
1
100
AcDbSpline
 70
8
 71
3
 72
8
 73
4
 74
0
 40
0
 40
0
 40
0
 40
0
 40
1
 40
1
 40
1
 40
1
 10
132.348076
 20
46.010206
 30
0.0
 10
132.348076
 20
46.124003
 30
0.0
 10
132.379302
 20
46.206622
 30
0.0
 10
132.429612
 20
46.225926
 30
0.0
  0
SPLINE
  5
232
100
AcDbEntity
  8
Image
 62
1
100
AcDbSpline
 70
8
 71
3
 72
8
 73
4
 74
0
 40
0
 40
0
 40
0
 40
0
 40
1
 40
1
 40
1
 40
1
 10
132.429612
 20
46.225926
 30
0.0
 10
132.477275
 20
46.244208
 30
0.0
 10
132.511146
 20
46.325666
 30
0.0
 10
132.511146
 20
46.421992
 30
0.0
  0
SPLINE
  5
233
100
AcDbEntity
  8
Image
 62
1
100
AcDbSpline
 70
8
 71
3
 72
8
 73
4
 74
0
 40
0
 40
0
 40
0
 40
0
 40
1
 40
1
 40
1
 40
1
 10
132.511146
 20
46.421992
 30
0.0
 10
132.511146
 20
46.512618
 30
0.0
 10
132.535620
 20
46.586767
 30
0.0
 10
132.565502
 20
46.586767
 30
0.0
  0
SPLINE
  5
234
100
AcDbEntity
  8
Image
 62
1
100
AcDbSpline
 70
8
 71
3
 72
8
 73
4
 74
0
 40
0
 40
0
 40
0
 40
0
 40
1
 40
1
 40
1
 40
1
 10
132.565502
 20
46.586767
 30
0.0
 10
132.595400
 20
46.586767
 30
0.0
 10
132.619861
 20
46.647920
 30
0.0
 10
132.619861
 20
46.722660
 30
0.0
  0
SPLINE
  5
235
100
AcDbEntity
  8
Image
 62
1
100
AcDbSpline
 70
8
 71
3
 72
8
 73
4
 74
0
 40
0
 40
0
 40
0
 40
0
 40
1
 40
1
 40
1
 40
1
 10
132.619861
 20
46.722660
 30
0.0
 10
132.619861
 20
46.797399
 30
0.0
 10
132.644335
 20
46.858552
 30
0.0
 10
132.674217
 20
46.858552
 30
0.0
  0
SPLINE
  5
236
100
AcDbEntity
  8
Image
 62
1
100
AcDbSpline
 70
8
 71
3
 72
8
 73
4
 74
0
 40
0
 40
0
 40
0
 40
0
 40
1
 40
1
 40
1
 40
1
 10
132.674217
 20
46.858552
 30
0.0
 10
132.704112
 20
46.858552
 30
0.0
 10
132.728573
 20
46.944164
 30
0.0
 10
132.728573
 20
47.048801
 30
0.0
  0
SPLINE
  5
237
100
AcDbEntity
  8
Image
 62
1
100
AcDbSpline
 70
8
 71
3
 72
8
 73
4
 74
0
 40
0
 40
0
 40
0
 40
0
 40
1
 40
1
 40
1
 40
1
 10
132.728573
 20
47.048801
 30
0.0
 10
132.728573
 20
47.181672
 30
0.0
 10
132.753153
 20
47.239050
 30
0.0
 10
132.810110
 20
47.239050
 30
0.0
  0
SPLINE
  5
238
100
AcDbEntity
  8
Image
 62
1
100
AcDbSpline
 70
8
 71
3
 72
8
 73
4
 74
0
 40
0
 40
0
 40
0
 40
0
 40
1
 40
1
 40
1
 40
1
 10
132.810110
 20
47.239050
 30
0.0
 10
132.867053
 20
47.239050
 30
0.0
 10
132.891644
 20
47.296427
 30
0.0
 10
132.891644
 20
47.429298
 30
0.0
  0
SPLINE
  5
239
100
AcDbEntity
  8
Image
 62
1
100
AcDbSpline
 70
8
 71
3
 72
8
 73
4
 74
0
 40
0
 40
0
 40
0
 40
0
 40
1
 40
1
 40
1
 40
1
 10
132.891644
 20
47.429298
 30
0.0
 10
132.891644
 20
47.533936
 30
0.0
 10
132.916091
 20
47.619547
 30
0.0
 10
132.946002
 20
47.619547
 30
0.0
  0
SPLINE
  5
23a
100
AcDbEntity
  8
Image
 62
1
100
AcDbSpline
 70
8
 71
3
 72
8
 73
4
 74
0
 40
0
 40
0
 40
0
 40
0
 40
1
 40
1
 40
1
 40
1
 10
132.946002
 20
47.619547
 30
0.0
 10
132.975898
 20
47.619547
 30
0.0
 10
133.000358
 20
47.680700
 30
0.0
 10
133.000358
 20
47.755440
 30
0.0
  0
SPLINE
  5
23b
100
AcDbEntity
  8
Image
 62
1
100
AcDbSpline
 70
8
 71
3
 72
8
 73
4
 74
0
 40
0
 40
0
 40
0
 40
0
 40
1
 40
1
 40
1
 40
1
 10
133.000358
 20
47.755440
 30
0.0
 10
133.000358
 20
47.830179
 30
0.0
 10
133.024806
 20
47.891332
 30
0.0
 10
133.054714
 20
47.891332
 30
0.0
  0
SPLINE
  5
23c
100
AcDbEntity
  8
Image
 62
1
100
AcDbSpline
 70
8
 71
3
 72
8
 73
4
 74
0
 40
0
 40
0
 40
0
 40
0
 40
1
 40
1
 40
1
 40
1
 10
133.054714
 20
47.891332
 30
0.0
 10
133.084612
 20
47.891332
 30
0.0
 10
133.109070
 20
47.976943
 30
0.0
 10
133.109070
 20
48.081581
 30
0.0
  0
SPLINE
  5
23d
100
AcDbEntity
  8
Image
 62
1
100
AcDbSpline
 70
8
 71
3
 72
8
 73
4
 74
0
 40
0
 40
0
 40
0
 40
0
 40
1
 40
1
 40
1
 40
1
 10
133.109070
 20
48.081581
 30
0.0
 10
133.109070
 20
48.214452
 30
0.0
 10
133.133650
 20
48.271830
 30
0.0
 10
133.190607
 20
48.271830
 30
0.0
  0
SPLINE
  5
23e
100
AcDbEntity
  8
Image
 62
1
100
AcDbSpline
 70
8
 71
3
 72
8
 73
4
 74
0
 40
0
 40
0
 40
0
 40
0
 40
1
 40
1
 40
1
 40
1
 10
133.190607
 20
48.271830
 30
0.0
 10
133.247553
 20
48.271830
 30
0.0
 10
133.272141
 20
48.329207
 30
0.0
 10
133.272141
 20
48.462078
 30
0.0
  0
SPLINE
  5
23f
100
AcDbEntity
  8
Image
 62
1
100
AcDbSpline
 70
8
 71
3
 72
8
 73
4
 74
0
 40
0
 40
0
 40
0
 40
0
 40
1
 40
1
 40
1
 40
1
 10
133.272141
 20
48.462078
 30
0.0
 10
133.272141
 20
48.566716
 30
0.0
 10
133.296589
 20
48.652327
 30
0.0
 10
133.326500
 20
48.652327
 30
0.0
  0
SPLINE
  5
240
100
AcDbEntity
  8
Image
 62
1
100
AcDbSpline
 70
8
 71
3
 72
8
 73
4
 74
0
 40
0
 40
0
 40
0
 40
0
 40
1
 40
1
 40
1
 40
1
 10
133.326500
 20
48.652327
 30
0.0
 10
133.356395
 20
48.652327
 30
0.0
 10
133.380856
 20
48.737941
 30
0.0
 10
133.380856
 20
48.842575
 30
0.0
  0
SPLINE
  5
241
100
AcDbEntity
  8
Image
 62
1
100
AcDbSpline
 70
8
 71
3
 72
8
 73
4
 74
0
 40
0
 40
0
 40
0
 40
0
 40
1
 40
1
 40
1
 40
1
 10
133.380856
 20
48.842575
 30
0.0
 10
133.380856
 20
48.947213
 30
0.0
 10
133.405303
 20
49.032827
 30
0.0
 10
133.435212
 20
49.032827
 30
0.0
  0
SPLINE
  5
242
100
AcDbEntity
  8
Image
 62
1
100
AcDbSpline
 70
8
 71
3
 72
8
 73
4
 74
0
 40
0
 40
0
 40
0
 40
0
 40
1
 40
1
 40
1
 40
1
 10
133.435212
 20
49.032827
 30
0.0
 10
133.465110
 20
49.032827
 30
0.0
 10
133.489570
 20
49.079129
 30
0.0
 10
133.489570
 20
49.135723
 30
0.0
  0
SPLINE
  5
243
100
AcDbEntity
  8
Image
 62
1
100
AcDbSpline
 70
8
 71
3
 72
8
 73
4
 74
0
 40
0
 40
0
 40
0
 40
0
 40
1
 40
1
 40
1
 40
1
 10
133.489570
 20
49.135723
 30
0.0
 10
133.489570
 20
49.192318
 30
0.0
 10
133.526260
 20
49.252701
 30
0.0
 10
133.571104
 20
49.269909
 30
0.0
  0
SPLINE
  5
244
100
AcDbEntity
  8
Image
 62
1
100
AcDbSpline
 70
8
 71
3
 72
8
 73
4
 74
0
 40
0
 40
0
 40
0
 40
0
 40
1
 40
1
 40
1
 40
1
 10
133.571104
 20
49.269909
 30
0.0
 10
133.618277
 20
49.288007
 30
0.0
 10
133.652641
 20
49.369295
 30
0.0
 10
133.652641
 20
49.462767
 30
0.0
  0
SPLINE
  5
245
100
AcDbEntity
  8
Image
 62
1
100
AcDbSpline
 70
8
 71
3
 72
8
 73
4
 74
0
 40
0
 40
0
 40
0
 40
0
 40
1
 40
1
 40
1
 40
1
 10
133.652641
 20
49.462767
 30
0.0
 10
133.652641
 20
49.551630
 30
0.0
 10
133.677088
 20
49.639453
 30
0.0
 10
133.706997
 20
49.657929
 30
0.0
  0
SPLINE
  5
246
100
AcDbEntity
  8
Image
 62
1
100
AcDbSpline
 70
8
 71
3
 72
8
 73
4
 74
0
 40
0
 40
0
 40
0
 40
0
 40
1
 40
1
 40
1
 40
1
 10
133.706997
 20
49.657929
 30
0.0
 10
133.736892
 20
49.676397
 30
0.0
 10
133.761353
 20
49.763460
 30
0.0
 10
133.761353
 20
49.851387
 30
0.0
  0
SPLINE
  5
247
100
AcDbEntity
  8
Image
 62
1
100
AcDbSpline
 70
8
 71
3
 72
8
 73
4
 74
0
 40
0
 40
0
 40
0
 40
0
 40
1
 40
1
 40
1
 40
1
 10
133.761353
 20
49.851387
 30
0.0
 10
133.761353
 20
49.939310
 30
0.0
 10
133.785827
 20
50.011248
 30
0.0
 10
133.815712
 20
50.011248
 30
0.0
  0
SPLINE
  5
248
100
AcDbEntity
  8
Image
 62
1
100
AcDbSpline
 70
8
 71
3
 72
8
 73
4
 74
0
 40
0
 40
0
 40
0
 40
0
 40
1
 40
1
 40
1
 40
1
 10
133.815712
 20
50.011248
 30
0.0
 10
133.845607
 20
50.011248
 30
0.0
 10
133.870068
 20
50.094242
 30
0.0
 10
133.870068
 20
50.195681
 30
0.0
  0
SPLINE
  5
249
100
AcDbEntity
  8
Image
 62
1
100
AcDbSpline
 70
8
 71
3
 72
8
 73
4
 74
0
 40
0
 40
0
 40
0
 40
0
 40
1
 40
1
 40
1
 40
1
 10
133.870068
 20
50.195681
 30
0.0
 10
133.870068
 20
50.309478
 30
0.0
 10
133.901294
 20
50.392097
 30
0.0
 10
133.951602
 20
50.411404
 30
0.0
  0
SPLINE
  5
24a
100
AcDbEntity
  8
Image
 62
1
100
AcDbSpline
 70
8
 71
3
 72
8
 73
4
 74
0
 40
0
 40
0
 40
0
 40
0
 40
1
 40
1
 40
1
 40
1
 10
133.951602
 20
50.411404
 30
0.0
 10
133.998774
 20
50.429501
 30
0.0
 10
134.033138
 20
50.510787
 30
0.0
 10
134.033138
 20
50.604259
 30
0.0
  0
SPLINE
  5
24b
100
AcDbEntity
  8
Image
 62
1
100
AcDbSpline
 70
8
 71
3
 72
8
 73
4
 74
0
 40
0
 40
0
 40
0
 40
0
 40
1
 40
1
 40
1
 40
1
 10
134.033138
 20
50.604259
 30
0.0
 10
134.033138
 20
50.693122
 30
0.0
 10
134.057612
 20
50.780945
 30
0.0
 10
134.087494
 20
50.799423
 30
0.0
  0
SPLINE
  5
24c
100
AcDbEntity
  8
Image
 62
1
100
AcDbSpline
 70
8
 71
3
 72
8
 73
4
 74
0
 40
0
 40
0
 40
0
 40
0
 40
1
 40
1
 40
1
 40
1
 10
134.087494
 20
50.799423
 30
0.0
 10
134.117392
 20
50.817891
 30
0.0
 10
134.141853
 20
50.880494
 30
0.0
 10
134.141853
 20
50.938523
 30
0.0
  0
SPLINE
  5
24d
100
AcDbEntity
  8
Image
 62
1
100
AcDbSpline
 70
8
 71
3
 72
8
 73
4
 74
0
 40
0
 40
0
 40
0
 40
0
 40
1
 40
1
 40
1
 40
1
 10
134.141853
 20
50.938523
 30
0.0
 10
134.141853
 20
50.996551
 30
0.0
 10
134.166300
 20
51.044028
 30
0.0
 10
134.196209
 20
51.044028
 30
0.0
  0
SPLINE
  5
24e
100
AcDbEntity
  8
Image
 62
1
100
AcDbSpline
 70
8
 71
3
 72
8
 73
4
 74
0
 40
0
 40
0
 40
0
 40
0
 40
1
 40
1
 40
1
 40
1
 10
134.196209
 20
51.044028
 30
0.0
 10
134.226104
 20
51.044028
 30
0.0
 10
134.250565
 20
51.127022
 30
0.0
 10
134.250565
 20
51.228461
 30
0.0
  0
SPLINE
  5
24f
100
AcDbEntity
  8
Image
 62
1
100
AcDbSpline
 70
8
 71
3
 72
8
 73
4
 74
0
 40
0
 40
0
 40
0
 40
0
 40
1
 40
1
 40
1
 40
1
 10
134.250565
 20
51.228461
 30
0.0
 10
134.250565
 20
51.342258
 30
0.0
 10
134.281794
 20
51.424880
 30
0.0
 10
134.332102
 20
51.444184
 30
0.0
  0
SPLINE
  5
250
100
AcDbEntity
  8
Image
 62
1
100
AcDbSpline
 70
8
 71
3
 72
8
 73
4
 74
0
 40
0
 40
0
 40
0
 40
0
 40
1
 40
1
 40
1
 40
1
 10
134.332102
 20
51.444184
 30
0.0
 10
134.379764
 20
51.462466
 30
0.0
 10
134.413636
 20
51.543924
 30
0.0
 10
134.413636
 20
51.640248
 30
0.0
  0
SPLINE
  5
251
100
AcDbEntity
  8
Image
 62
1
100
AcDbSpline
 70
8
 71
3
 72
8
 73
4
 74
0
 40
0
 40
0
 40
0
 40
0
 40
1
 40
1
 40
1
 40
1
 10
134.413636
 20
51.640248
 30
0.0
 10
134.413636
 20
51.730876
 30
0.0
 10
134.438083
 20
51.805025
 30
0.0
 10
134.467992
 20
51.805025
 30
0.0
  0
SPLINE
  5
252
100
AcDbEntity
  8
Image
 62
1
100
AcDbSpline
 70
8
 71
3
 72
8
 73
4
 74
0
 40
0
 40
0
 40
0
 40
0
 40
1
 40
1
 40
1
 40
1
 10
134.467992
 20
51.805025
 30
0.0
 10
134.497890
 20
51.805025
 30
0.0
 10
134.522350
 20
51.890636
 30
0.0
 10
134.522350
 20
51.995274
 30
0.0
  0
SPLINE
  5
253
100
AcDbEntity
  8
Image
 62
1
100
AcDbSpline
 70
8
 71
3
 72
8
 73
4
 74
0
 40
0
 40
0
 40
0
 40
0
 40
1
 40
1
 40
1
 40
1
 10
134.522350
 20
51.995274
 30
0.0
 10
134.522350
 20
52.099911
 30
0.0
 10
134.546798
 20
52.185522
 30
0.0
 10
134.576706
 20
52.185522
 30
0.0
  0
SPLINE
  5
254
100
AcDbEntity
  8
Image
 62
1
100
AcDbSpline
 70
8
 71
3
 72
8
 73
4
 74
0
 40
0
 40
0
 40
0
 40
0
 40
1
 40
1
 40
1
 40
1
 10
134.576706
 20
52.185522
 30
0.0
 10
134.606602
 20
52.185522
 30
0.0
 10
134.631062
 20
52.246673
 30
0.0
 10
134.631062
 20
52.321415
 30
0.0
  0
SPLINE
  5
255
100
AcDbEntity
  8
Image
 62
1
100
AcDbSpline
 70
8
 71
3
 72
8
 73
4
 74
0
 40
0
 40
0
 40
0
 40
0
 40
1
 40
1
 40
1
 40
1
 10
134.631062
 20
52.321415
 30
0.0
 10
134.631062
 20
52.405971
 30
0.0
 10
134.661865
 20
52.457308
 30
0.0
 10
134.712599
 20
52.457308
 30
0.0
  0
SPLINE
  5
256
100
AcDbEntity
  8
Image
 62
1
100
AcDbSpline
 70
8
 71
3
 72
8
 73
4
 74
0
 40
0
 40
0
 40
0
 40
0
 40
1
 40
1
 40
1
 40
1
 10
134.712599
 20
52.457308
 30
0.0
 10
134.769545
 20
52.457308
 30
0.0
 10
134.794133
 20
52.514683
 30
0.0
 10
134.794133
 20
52.647556
 30
0.0
  0
SPLINE
  5
257
100
AcDbEntity
  8
Image
 62
1
100
AcDbSpline
 70
8
 71
3
 72
8
 73
4
 74
0
 40
0
 40
0
 40
0
 40
0
 40
1
 40
1
 40
1
 40
1
 10
134.794133
 20
52.647556
 30
0.0
 10
134.794133
 20
52.752194
 30
0.0
 10
134.818580
 20
52.837805
 30
0.0
 10
134.848492
 20
52.837805
 30
0.0
  0
SPLINE
  5
258
100
AcDbEntity
  8
Image
 62
1
100
AcDbSpline
 70
8
 71
3
 72
8
 73
4
 74
0
 40
0
 40
0
 40
0
 40
0
 40
1
 40
1
 40
1
 40
1
 10
134.848492
 20
52.837805
 30
0.0
 10
134.878387
 20
52.837805
 30
0.0
 10
134.902848
 20
52.923416
 30
0.0
 10
134.902848
 20
53.028054
 30
0.0
  0
LINE
  5
259
100
AcDbEntity
  8
Image
 62
1
100
AcDbLine
 10
134.902848
 20
53.028054
 30
0.0
 11
134.902848
 21
53.218302
 31
0.0
  0
LINE
  5
25a
100
AcDbEntity
  8
Image
 62
1
100
AcDbLine
 10
134.902848
 20
53.218302
 30
0.0
 11
137.892475
 21
53.218302
 31
0.0
  0
LINE
  5
25b
100
AcDbEntity
  8
Image
 62
1
100
AcDbLine
 10
137.892475
 20
53.218302
 30
0.0
 11
140.882100
 21
53.218302
 31
0.0
  0
LINE
  5
25c
100
AcDbEntity
  8
Image
 62
1
100
AcDbLine
 10
140.882100
 20
53.218302
 30
0.0
 11
140.882100
 21
53.028054
 31
0.0
  0
SPLINE
  5
25d
100
AcDbEntity
  8
Image
 62
1
100
AcDbSpline
 70
8
 71
3
 72
8
 73
4
 74
0
 40
0
 40
0
 40
0
 40
0
 40
1
 40
1
 40
1
 40
1
 10
140.882100
 20
53.028054
 30
0.0
 10
140.882100
 20
52.923416
 30
0.0
 10
140.906574
 20
52.837805
 30
0.0
 10
140.936456
 20
52.837805
 30
0.0
  0
SPLINE
  5
25e
100
AcDbEntity
  8
Image
 62
1
100
AcDbSpline
 70
8
 71
3
 72
8
 73
4
 74
0
 40
0
 40
0
 40
0
 40
0
 40
1
 40
1
 40
1
 40
1
 10
140.936456
 20
52.837805
 30
0.0
 10
140.966354
 20
52.837805
 30
0.0
 10
140.990815
 20
52.763655
 30
0.0
 10
140.990815
 20
52.673028
 30
0.0
  0
SPLINE
  5
25f
100
AcDbEntity
  8
Image
 62
1
100
AcDbSpline
 70
8
 71
3
 72
8
 73
4
 74
0
 40
0
 40
0
 40
0
 40
0
 40
1
 40
1
 40
1
 40
1
 10
140.990815
 20
52.673028
 30
0.0
 10
140.990815
 20
52.576704
 30
0.0
 10
141.024687
 20
52.495254
 30
0.0
 10
141.072349
 20
52.476964
 30
0.0
  0
SPLINE
  5
260
100
AcDbEntity
  8
Image
 62
1
100
AcDbSpline
 70
8
 71
3
 72
8
 73
4
 74
0
 40
0
 40
0
 40
0
 40
0
 40
1
 40
1
 40
1
 40
1
 10
141.072349
 20
52.476964
 30
0.0
 10
141.117193
 20
52.459766
 30
0.0
 10
141.153885
 20
52.387140
 30
0.0
 10
141.153885
 20
52.315599
 30
0.0
  0
SPLINE
  5
261
100
AcDbEntity
  8
Image
 62
1
100
AcDbSpline
 70
8
 71
3
 72
8
 73
4
 74
0
 40
0
 40
0
 40
0
 40
0
 40
1
 40
1
 40
1
 40
1
 10
141.153885
 20
52.315599
 30
0.0
 10
141.153885
 20
52.244056
 30
0.0
 10
141.178333
 20
52.185522
 30
0.0
 10
141.208241
 20
52.185522
 30
0.0
  0
SPLINE
  5
262
100
AcDbEntity
  8
Image
 62
1
100
AcDbSpline
 70
8
 71
3
 72
8
 73
4
 74
0
 40
0
 40
0
 40
0
 40
0
 40
1
 40
1
 40
1
 40
1
 10
141.208241
 20
52.185522
 30
0.0
 10
141.238137
 20
52.185522
 30
0.0
 10
141.262597
 20
52.099911
 30
0.0
 10
141.262597
 20
51.995274
 30
0.0
  0
SPLINE
  5
263
100
AcDbEntity
  8
Image
 62
1
100
AcDbSpline
 70
8
 71
3
 72
8
 73
4
 74
0
 40
0
 40
0
 40
0
 40
0
 40
1
 40
1
 40
1
 40
1
 10
141.262597
 20
51.995274
 30
0.0
 10
141.262597
 20
51.890636
 30
0.0
 10
141.287045
 20
51.805025
 30
0.0
 10
141.316956
 20
51.805025
 30
0.0
  0
SPLINE
  5
264
100
AcDbEntity
  8
Image
 62
1
100
AcDbSpline
 70
8
 71
3
 72
8
 73
4
 74
0
 40
0
 40
0
 40
0
 40
0
 40
1
 40
1
 40
1
 40
1
 10
141.316956
 20
51.805025
 30
0.0
 10
141.346851
 20
51.805025
 30
0.0
 10
141.371312
 20
51.745621
 30
0.0
 10
141.371312
 20
51.673014
 30
0.0
  0
SPLINE
  5
265
100
AcDbEntity
  8
Image
 62
1
100
AcDbSpline
 70
8
 71
3
 72
8
 73
4
 74
0
 40
0
 40
0
 40
0
 40
0
 40
1
 40
1
 40
1
 40
1
 10
141.371312
 20
51.673014
 30
0.0
 10
141.371312
 20
51.600410
 30
0.0
 10
141.408002
 20
51.504316
 30
0.0
 10
141.452846
 20
51.459471
 30
0.0
  0
SPLINE
  5
266
100
AcDbEntity
  8
Image
 62
1
100
AcDbSpline
 70
8
 71
3
 72
8
 73
4
 74
0
 40
0
 40
0
 40
0
 40
0
 40
1
 40
1
 40
1
 40
1
 10
141.452846
 20
51.459471
 30
0.0
 10
141.497690
 20
51.414627
 30
0.0
 10
141.534383
 20
51.340941
 30
0.0
 10
141.534383
 20
51.295726
 30
0.0
  0
SPLINE
  5
267
100
AcDbEntity
  8
Image
 62
1
100
AcDbSpline
 70
8
 71
3
 72
8
 73
4
 74
0
 40
0
 40
0
 40
0
 40
0
 40
1
 40
1
 40
1
 40
1
 10
141.534383
 20
51.295726
 30
0.0
 10
141.534383
 20
51.250509
 30
0.0
 10
141.558830
 20
51.198396
 30
0.0
 10
141.588739
 20
51.179920
 30
0.0
  0
SPLINE
  5
268
100
AcDbEntity
  8
Image
 62
1
100
AcDbSpline
 70
8
 71
3
 72
8
 73
4
 74
0
 40
0
 40
0
 40
0
 40
0
 40
1
 40
1
 40
1
 40
1
 10
141.588739
 20
51.179920
 30
0.0
 10
141.618637
 20
51.161453
 30
0.0
 10
141.643097
 20
51.075831
 30
0.0
 10
141.643097
 20
50.989672
 30
0.0
  0
SPLINE
  5
269
100
AcDbEntity
  8
Image
 62
1
100
AcDbSpline
 70
8
 71
3
 72
8
 73
4
 74
0
 40
0
 40
0
 40
0
 40
0
 40
1
 40
1
 40
1
 40
1
 10
141.643097
 20
50.989672
 30
0.0
 10
141.643097
 20
50.903513
 30
0.0
 10
141.667545
 20
50.817899
 30
0.0
 10
141.697453
 20
50.799423
 30
0.0
  0
SPLINE
  5
26a
100
AcDbEntity
  8
Image
 62
1
100
AcDbSpline
 70
8
 71
3
 72
8
 73
4
 74
0
 40
0
 40
0
 40
0
 40
0
 40
1
 40
1
 40
1
 40
1
 10
141.697453
 20
50.799423
 30
0.0
 10
141.727349
 20
50.780955
 30
0.0
 10
141.751809
 20
50.707867
 30
0.0
 10
141.751809
 20
50.637027
 30
0.0
  0
SPLINE
  5
26b
100
AcDbEntity
  8
Image
 62
1
100
AcDbSpline
 70
8
 71
3
 72
8
 73
4
 74
0
 40
0
 40
0
 40
0
 40
0
 40
1
 40
1
 40
1
 40
1
 10
141.751809
 20
50.637027
 30
0.0
 10
141.751809
 20
50.566185
 30
0.0
 10
141.788502
 20
50.471536
 30
0.0
 10
141.833346
 20
50.426691
 30
0.0
  0
SPLINE
  5
26c
100
AcDbEntity
  8
Image
 62
1
100
AcDbSpline
 70
8
 71
3
 72
8
 73
4
 74
0
 40
0
 40
0
 40
0
 40
0
 40
1
 40
1
 40
1
 40
1
 10
141.833346
 20
50.426691
 30
0.0
 10
141.878190
 20
50.381845
 30
0.0
 10
141.914880
 20
50.306716
 30
0.0
 10
141.914880
 20
50.259737
 30
0.0
  0
SPLINE
  5
26d
100
AcDbEntity
  8
Image
 62
1
100
AcDbSpline
 70
8
 71
3
 72
8
 73
4
 74
0
 40
0
 40
0
 40
0
 40
0
 40
1
 40
1
 40
1
 40
1
 10
141.914880
 20
50.259737
 30
0.0
 10
141.914880
 20
50.212757
 30
0.0
 10
141.939327
 20
50.174319
 30
0.0
 10
141.969236
 20
50.174319
 30
0.0
  0
SPLINE
  5
26e
100
AcDbEntity
  8
Image
 62
1
100
AcDbSpline
 70
8
 71
3
 72
8
 73
4
 74
0
 40
0
 40
0
 40
0
 40
0
 40
1
 40
1
 40
1
 40
1
 10
141.969236
 20
50.174319
 30
0.0
 10
141.999134
 20
50.174319
 30
0.0
 10
142.023595
 20
50.088707
 30
0.0
 10
142.023595
 20
49.984070
 30
0.0
  0
SPLINE
  5
26f
100
AcDbEntity
  8
Image
 62
1
100
AcDbSpline
 70
8
 71
3
 72
8
 73
4
 74
0
 40
0
 40
0
 40
0
 40
0
 40
1
 40
1
 40
1
 40
1
 10
142.023595
 20
49.984070
 30
0.0
 10
142.023595
 20
49.879433
 30
0.0
 10
142.048042
 20
49.793821
 30
0.0
 10
142.077951
 20
49.793821
 30
0.0
  0
SPLINE
  5
270
100
AcDbEntity
  8
Image
 62
1
100
AcDbSpline
 70
8
 71
3
 72
8
 73
4
 74
0
 40
0
 40
0
 40
0
 40
0
 40
1
 40
1
 40
1
 40
1
 10
142.077951
 20
49.793821
 30
0.0
 10
142.107846
 20
49.793821
 30
0.0
 10
142.132307
 20
49.719672
 30
0.0
 10
142.132307
 20
49.629044
 30
0.0
  0
SPLINE
  5
271
100
AcDbEntity
  8
Image
 62
1
100
AcDbSpline
 70
8
 71
3
 72
8
 73
4
 74
0
 40
0
 40
0
 40
0
 40
0
 40
1
 40
1
 40
1
 40
1
 10
142.132307
 20
49.629044
 30
0.0
 10
142.132307
 20
49.532720
 30
0.0
 10
142.166179
 20
49.451271
 30
0.0
 10
142.213843
 20
49.432980
 30
0.0
  0
SPLINE
  5
272
100
AcDbEntity
  8
Image
 62
1
100
AcDbSpline
 70
8
 71
3
 72
8
 73
4
 74
0
 40
0
 40
0
 40
0
 40
0
 40
1
 40
1
 40
1
 40
1
 10
142.213843
 20
49.432980
 30
0.0
 10
142.264151
 20
49.413665
 30
0.0
 10
142.295377
 20
49.331057
 30
0.0
 10
142.295377
 20
49.217260
 30
0.0
  0
SPLINE
  5
273
100
AcDbEntity
  8
Image
 62
1
100
AcDbSpline
 70
8
 71
3
 72
8
 73
4
 74
0
 40
0
 40
0
 40
0
 40
0
 40
1
 40
1
 40
1
 40
1
 10
142.295377
 20
49.217260
 30
0.0
 10
142.295377
 20
49.115821
 30
0.0
 10
142.319825
 20
49.032827
 30
0.0
 10
142.349736
 20
49.032827
 30
0.0
  0
SPLINE
  5
274
100
AcDbEntity
  8
Image
 62
1
100
AcDbSpline
 70
8
 71
3
 72
8
 73
4
 74
0
 40
0
 40
0
 40
0
 40
0
 40
1
 40
1
 40
1
 40
1
 10
142.349736
 20
49.032827
 30
0.0
 10
142.379631
 20
49.032827
 30
0.0
 10
142.404092
 20
48.971674
 30
0.0
 10
142.404092
 20
48.896934
 30
0.0
  0
SPLINE
  5
275
100
AcDbEntity
  8
Image
 62
1
100
AcDbSpline
 70
8
 71
3
 72
8
 73
4
 74
0
 40
0
 40
0
 40
0
 40
0
 40
1
 40
1
 40
1
 40
1
 10
142.404092
 20
48.896934
 30
0.0
 10
142.404092
 20
48.822192
 30
0.0
 10
142.428539
 20
48.761041
 30
0.0
 10
142.458448
 20
48.761041
 30
0.0
  0
SPLINE
  5
276
100
AcDbEntity
  8
Image
 62
1
100
AcDbSpline
 70
8
 71
3
 72
8
 73
4
 74
0
 40
0
 40
0
 40
0
 40
0
 40
1
 40
1
 40
1
 40
1
 10
142.458448
 20
48.761041
 30
0.0
 10
142.488346
 20
48.761041
 30
0.0
 10
142.512807
 20
48.701637
 30
0.0
 10
142.512807
 20
48.629033
 30
0.0
  0
SPLINE
  5
277
100
AcDbEntity
  8
Image
 62
1
100
AcDbSpline
 70
8
 71
3
 72
8
 73
4
 74
0
 40
0
 40
0
 40
0
 40
0
 40
1
 40
1
 40
1
 40
1
 10
142.512807
 20
48.629033
 30
0.0
 10
142.512807
 20
48.556426
 30
0.0
 10
142.549496
 20
48.460332
 30
0.0
 10
142.594341
 20
48.415488
 30
0.0
  0
SPLINE
  5
278
100
AcDbEntity
  8
Image
 62
1
100
AcDbSpline
 70
8
 71
3
 72
8
 73
4
 74
0
 40
0
 40
0
 40
0
 40
0
 40
1
 40
1
 40
1
 40
1
 10
142.594341
 20
48.415488
 30
0.0
 10
142.639185
 20
48.370643
 30
0.0
 10
142.675877
 20
48.258823
 30
0.0
 10
142.675877
 20
48.166999
 30
0.0
  0
SPLINE
  5
279
100
AcDbEntity
  8
Image
 62
1
100
AcDbSpline
 70
8
 71
3
 72
8
 73
4
 74
0
 40
0
 40
0
 40
0
 40
0
 40
1
 40
1
 40
1
 40
1
 10
142.675877
 20
48.166999
 30
0.0
 10
142.675877
 20
48.075175
 30
0.0
 10
142.700351
 20
48.000044
 30
0.0
 10
142.730233
 20
48.000044
 30
0.0
  0
SPLINE
  5
27a
100
AcDbEntity
  8
Image
 62
1
100
AcDbSpline
 70
8
 71
3
 72
8
 73
4
 74
0
 40
0
 40
0
 40
0
 40
0
 40
1
 40
1
 40
1
 40
1
 10
142.730233
 20
48.000044
 30
0.0
 10
142.760128
 20
48.000044
 30
0.0
 10
142.784589
 20
47.952567
 30
0.0
 10
142.784589
 20
47.894539
 30
0.0
  0
SPLINE
  5
27b
100
AcDbEntity
  8
Image
 62
1
100
AcDbSpline
 70
8
 71
3
 72
8
 73
4
 74
0
 40
0
 40
0
 40
0
 40
0
 40
1
 40
1
 40
1
 40
1
 10
142.784589
 20
47.894539
 30
0.0
 10
142.784589
 20
47.836511
 30
0.0
 10
142.809037
 20
47.773915
 30
0.0
 10
142.838948
 20
47.755440
 30
0.0
  0
SPLINE
  5
27c
100
AcDbEntity
  8
Image
 62
1
100
AcDbSpline
 70
8
 71
3
 72
8
 73
4
 74
0
 40
0
 40
0
 40
0
 40
0
 40
1
 40
1
 40
1
 40
1
 10
142.838948
 20
47.755440
 30
0.0
 10
142.918683
 20
47.706161
 30
0.0
 10
142.905186
 20
47.514952
 30
0.0
 10
142.815665
 20
47.425417
 30
0.0
  0
SPLINE
  5
27d
100
AcDbEntity
  8
Image
 62
1
100
AcDbSpline
 70
8
 71
3
 72
8
 73
4
 74
0
 40
0
 40
0
 40
0
 40
0
 40
1
 40
1
 40
1
 40
1
 10
142.815665
 20
47.425417
 30
0.0
 10
142.772955
 20
47.382708
 30
0.0
 10
142.638423
 20
47.347764
 30
0.0
 10
142.516701
 20
47.347764
 30
0.0
  0
SPLINE
  5
27e
100
AcDbEntity
  8
Image
 62
1
100
AcDbSpline
 70
8
 71
3
 72
8
 73
4
 74
0
 40
0
 40
0
 40
0
 40
0
 40
1
 40
1
 40
1
 40
1
 10
142.516701
 20
47.347764
 30
0.0
 10
142.331630
 20
47.347764
 30
0.0
 10
142.295391
 20
47.329958
 30
0.0
 10
142.295391
 20
47.239050
 30
0.0
  0
SPLINE
  5
27f
100
AcDbEntity
  8
Image
 62
1
100
AcDbSpline
 70
8
 71
3
 72
8
 73
4
 74
0
 40
0
 40
0
 40
0
 40
0
 40
1
 40
1
 40
1
 40
1
 10
142.295391
 20
47.239050
 30
0.0
 10
142.295391
 20
47.146443
 30
0.0
 10
142.331630
 20
47.130335
 30
0.0
 10
142.539998
 20
47.130335
 30
0.0
  0
SPLINE
  5
280
100
AcDbEntity
  8
Image
 62
1
100
AcDbSpline
 70
8
 71
3
 72
8
 73
4
 74
0
 40
0
 40
0
 40
0
 40
0
 40
1
 40
1
 40
1
 40
1
 10
142.539998
 20
47.130335
 30
0.0
 10
142.674530
 20
47.130335
 30
0.0
 10
142.784602
 20
47.154809
 30
0.0
 10
142.784602
 20
47.184694
 30
0.0
  0
SPLINE
  5
281
100
AcDbEntity
  8
Image
 62
1
100
AcDbSpline
 70
8
 71
3
 72
8
 73
4
 74
0
 40
0
 40
0
 40
0
 40
0
 40
1
 40
1
 40
1
 40
1
 10
142.784602
 20
47.184694
 30
0.0
 10
142.784602
 20
47.214589
 30
0.0
 10
142.809050
 20
47.239050
 30
0.0
 10
142.838961
 20
47.239050
 30
0.0
  0
SPLINE
  5
282
100
AcDbEntity
  8
Image
 62
1
100
AcDbSpline
 70
8
 71
3
 72
8
 73
4
 74
0
 40
0
 40
0
 40
0
 40
0
 40
1
 40
1
 40
1
 40
1
 10
142.838961
 20
47.239050
 30
0.0
 10
142.868856
 20
47.239050
 30
0.0
 10
142.893317
 20
47.202360
 30
0.0
 10
142.893317
 20
47.157516
 30
0.0
  0
SPLINE
  5
283
100
AcDbEntity
  8
Image
 62
1
100
AcDbSpline
 70
8
 71
3
 72
8
 73
4
 74
0
 40
0
 40
0
 40
0
 40
0
 40
1
 40
1
 40
1
 40
1
 10
142.893317
 20
47.157516
 30
0.0
 10
142.893317
 20
47.112669
 30
0.0
 10
142.868870
 20
47.075979
 30
0.0
 10
142.838961
 20
47.075979
 30
0.0
  0
SPLINE
  5
284
100
AcDbEntity
  8
Image
 62
1
100
AcDbSpline
 70
8
 71
3
 72
8
 73
4
 74
0
 40
0
 40
0
 40
0
 40
0
 40
1
 40
1
 40
1
 40
1
 10
142.838961
 20
47.075979
 30
0.0
 10
142.809063
 20
47.075979
 30
0.0
 10
142.784602
 20
46.990368
 30
0.0
 10
142.784602
 20
46.885730
 30
0.0
  0
SPLINE
  5
285
100
AcDbEntity
  8
Image
 62
1
100
AcDbSpline
 70
8
 71
3
 72
8
 73
4
 74
0
 40
0
 40
0
 40
0
 40
0
 40
1
 40
1
 40
1
 40
1
 10
142.784602
 20
46.885730
 30
0.0
 10
142.784602
 20
46.781093
 30
0.0
 10
142.760155
 20
46.695482
 30
0.0
 10
142.730246
 20
46.695482
 30
0.0
  0
SPLINE
  5
286
100
AcDbEntity
  8
Image
 62
1
100
AcDbSpline
 70
8
 71
3
 72
8
 73
4
 74
0
 40
0
 40
0
 40
0
 40
0
 40
1
 40
1
 40
1
 40
1
 10
142.730246
 20
46.695482
 30
0.0
 10
142.700351
 20
46.695482
 30
0.0
 10
142.675890
 20
46.595893
 30
0.0
 10
142.675890
 20
46.474171
 30
0.0
  0
SPLINE
  5
287
100
AcDbEntity
  8
Image
 62
1
100
AcDbSpline
 70
8
 71
3
 72
8
 73
4
 74
0
 40
0
 40
0
 40
0
 40
0
 40
1
 40
1
 40
1
 40
1
 10
142.675890
 20
46.474171
 30
0.0
 10
142.675890
 20
46.349928
 30
0.0
 10
142.640129
 20
46.217099
 30
0.0
 10
142.594354
 20
46.171326
 30
0.0
  0
SPLINE
  5
288
100
AcDbEntity
  8
Image
 62
1
100
AcDbSpline
 70
8
 71
3
 72
8
 73
4
 74
0
 40
0
 40
0
 40
0
 40
0
 40
1
 40
1
 40
1
 40
1
 10
142.594354
 20
46.171326
 30
0.0
 10
142.549510
 20
46.126482
 30
0.0
 10
142.512820
 20
46.030385
 30
0.0
 10
142.512820
 20
45.957781
 30
0.0
  0
SPLINE
  5
289
100
AcDbEntity
  8
Image
 62
1
100
AcDbSpline
 70
8
 71
3
 72
8
 73
4
 74
0
 40
0
 40
0
 40
0
 40
0
 40
1
 40
1
 40
1
 40
1
 10
142.512820
 20
45.957781
 30
0.0
 10
142.512820
 20
45.885177
 30
0.0
 10
142.488372
 20
45.825772
 30
0.0
 10
142.458461
 20
45.825772
 30
0.0
  0
SPLINE
  5
28a
100
AcDbEntity
  8
Image
 62
1
100
AcDbSpline
 70
8
 71
3
 72
8
 73
4
 74
0
 40
0
 40
0
 40
0
 40
0
 40
1
 40
1
 40
1
 40
1
 10
142.458461
 20
45.825772
 30
0.0
 10
142.428566
 20
45.825772
 30
0.0
 10
142.404105
 20
45.753835
 30
0.0
 10
142.404105
 20
45.665909
 30
0.0
  0
SPLINE
  5
28b
100
AcDbEntity
  8
Image
 62
1
100
AcDbSpline
 70
8
 71
3
 72
8
 73
4
 74
0
 40
0
 40
0
 40
0
 40
0
 40
1
 40
1
 40
1
 40
1
 10
142.404105
 20
45.665909
 30
0.0
 10
142.404105
 20
45.577985
 30
0.0
 10
142.428553
 20
45.490929
 30
0.0
 10
142.458461
 20
45.472453
 30
0.0
  0
SPLINE
  5
28c
100
AcDbEntity
  8
Image
 62
1
100
AcDbSpline
 70
8
 71
3
 72
8
 73
4
 74
0
 40
0
 40
0
 40
0
 40
0
 40
1
 40
1
 40
1
 40
1
 10
142.458461
 20
45.472453
 30
0.0
 10
142.488359
 20
45.453985
 30
0.0
 10
142.512820
 20
45.380897
 30
0.0
 10
142.512820
 20
45.310057
 30
0.0
  0
SPLINE
  5
28d
100
AcDbEntity
  8
Image
 62
1
100
AcDbSpline
 70
8
 71
3
 72
8
 73
4
 74
0
 40
0
 40
0
 40
0
 40
0
 40
1
 40
1
 40
1
 40
1
 10
142.512820
 20
45.310057
 30
0.0
 10
142.512820
 20
45.239215
 30
0.0
 10
142.549510
 20
45.144563
 30
0.0
 10
142.594354
 20
45.099719
 30
0.0
  0
SPLINE
  5
28e
100
AcDbEntity
  8
Image
 62
1
100
AcDbSpline
 70
8
 71
3
 72
8
 73
4
 74
0
 40
0
 40
0
 40
0
 40
0
 40
1
 40
1
 40
1
 40
1
 10
142.594354
 20
45.099719
 30
0.0
 10
142.640129
 20
45.053946
 30
0.0
 10
142.675890
 20
44.921117
 30
0.0
 10
142.675890
 20
44.796874
 30
0.0
  0
SPLINE
  5
28f
100
AcDbEntity
  8
Image
 62
1
100
AcDbSpline
 70
8
 71
3
 72
8
 73
4
 74
0
 40
0
 40
0
 40
0
 40
0
 40
1
 40
1
 40
1
 40
1
 10
142.675890
 20
44.796874
 30
0.0
 10
142.675890
 20
44.675152
 30
0.0
 10
142.700364
 20
44.575563
 30
0.0
 10
142.730246
 20
44.575563
 30
0.0
  0
SPLINE
  5
290
100
AcDbEntity
  8
Image
 62
1
100
AcDbSpline
 70
8
 71
3
 72
8
 73
4
 74
0
 40
0
 40
0
 40
0
 40
0
 40
1
 40
1
 40
1
 40
1
 10
142.730246
 20
44.575563
 30
0.0
 10
142.760142
 20
44.575563
 30
0.0
 10
142.784602
 20
44.465491
 30
0.0
 10
142.784602
 20
44.330959
 30
0.0
  0
SPLINE
  5
291
100
AcDbEntity
  8
Image
 62
1
100
AcDbSpline
 70
8
 71
3
 72
8
 73
4
 74
0
 40
0
 40
0
 40
0
 40
0
 40
1
 40
1
 40
1
 40
1
 10
142.784602
 20
44.330959
 30
0.0
 10
142.784602
 20
44.196426
 30
0.0
 10
142.809050
 20
44.086354
 30
0.0
 10
142.838961
 20
44.086354
 30
0.0
  0
SPLINE
  5
292
100
AcDbEntity
  8
Image
 62
1
100
AcDbSpline
 70
8
 71
3
 72
8
 73
4
 74
0
 40
0
 40
0
 40
0
 40
0
 40
1
 40
1
 40
1
 40
1
 10
142.838961
 20
44.086354
 30
0.0
 10
142.868856
 20
44.086354
 30
0.0
 10
142.893317
 20
44.049662
 30
0.0
 10
142.893317
 20
44.004817
 30
0.0
  0
SPLINE
  5
293
100
AcDbEntity
  8
Image
 62
1
100
AcDbSpline
 70
8
 71
3
 72
8
 73
4
 74
0
 40
0
 40
0
 40
0
 40
0
 40
1
 40
1
 40
1
 40
1
 10
142.893317
 20
44.004817
 30
0.0
 10
142.893317
 20
43.951131
 30
0.0
 10
142.839607
 20
43.923283
 30
0.0
 10
142.736062
 20
43.923283
 30
0.0
  0
SPLINE
  5
294
100
AcDbEntity
  8
Image
 62
1
100
AcDbSpline
 70
8
 71
3
 72
8
 73
4
 74
0
 40
0
 40
0
 40
0
 40
0
 40
1
 40
1
 40
1
 40
1
 10
142.736062
 20
43.923283
 30
0.0
 10
142.649572
 20
43.923283
 30
0.0
 10
142.565644
 20
43.888983
 30
0.0
 10
142.549557
 20
43.847062
 30
0.0
  0
SPLINE
  5
295
100
AcDbEntity
  8
Image
 62
1
100
AcDbSpline
 70
8
 71
3
 72
8
 73
4
 74
0
 40
0
 40
0
 40
0
 40
0
 40
1
 40
1
 40
1
 40
1
 10
142.549557
 20
43.847062
 30
0.0
 10
142.509375
 20
43.742345
 30
0.0
 10
142.558421
 20
43.705854
 30
0.0
 10
142.739306
 20
43.705854
 30
0.0
  0
SPLINE
  5
296
100
AcDbEntity
  8
Image
 62
1
100
AcDbSpline
 70
8
 71
3
 72
8
 73
4
 74
0
 40
0
 40
0
 40
0
 40
0
 40
1
 40
1
 40
1
 40
1
 10
142.739306
 20
43.705854
 30
0.0
 10
142.839967
 20
43.705854
 30
0.0
 10
142.893317
 20
43.677610
 30
0.0
 10
142.893317
 20
43.624320
 30
0.0
  0
SPLINE
  5
297
100
AcDbEntity
  8
Image
 62
1
100
AcDbSpline
 70
8
 71
3
 72
8
 73
4
 74
0
 40
0
 40
0
 40
0
 40
0
 40
1
 40
1
 40
1
 40
1
 10
142.893317
 20
43.624320
 30
0.0
 10
142.893317
 20
43.579476
 30
0.0
 10
142.868870
 20
43.542783
 30
0.0
 10
142.838961
 20
43.542783
 30
0.0
  0
SPLINE
  5
298
100
AcDbEntity
  8
Image
 62
1
100
AcDbSpline
 70
8
 71
3
 72
8
 73
4
 74
0
 40
0
 40
0
 40
0
 40
0
 40
1
 40
1
 40
1
 40
1
 10
142.838961
 20
43.542783
 30
0.0
 10
142.809063
 20
43.542783
 30
0.0
 10
142.784602
 20
43.481633
 30
0.0
 10
142.784602
 20
43.406893
 30
0.0
  0
SPLINE
  5
299
100
AcDbEntity
  8
Image
 62
1
100
AcDbSpline
 70
8
 71
3
 72
8
 73
4
 74
0
 40
0
 40
0
 40
0
 40
0
 40
1
 40
1
 40
1
 40
1
 10
142.784602
 20
43.406893
 30
0.0
 10
142.784602
 20
43.332151
 30
0.0
 10
142.760155
 20
43.271001
 30
0.0
 10
142.730246
 20
43.271001
 30
0.0
  0
SPLINE
  5
29a
100
AcDbEntity
  8
Image
 62
1
100
AcDbSpline
 70
8
 71
3
 72
8
 73
4
 74
0
 40
0
 40
0
 40
0
 40
0
 40
1
 40
1
 40
1
 40
1
 10
142.730246
 20
43.271001
 30
0.0
 10
142.700351
 20
43.271001
 30
0.0
 10
142.675890
 20
43.185387
 30
0.0
 10
142.675890
 20
43.080752
 30
0.0
  0
SPLINE
  5
29b
100
AcDbEntity
  8
Image
 62
1
100
AcDbSpline
 70
8
 71
3
 72
8
 73
4
 74
0
 40
0
 40
0
 40
0
 40
0
 40
1
 40
1
 40
1
 40
1
 10
142.675890
 20
43.080752
 30
0.0
 10
142.675890
 20
42.976115
 30
0.0
 10
142.653216
 20
42.890501
 30
0.0
 10
142.625514
 20
42.890501
 30
0.0
  0
SPLINE
  5
29c
100
AcDbEntity
  8
Image
 62
1
100
AcDbSpline
 70
8
 71
3
 72
8
 73
4
 74
0
 40
0
 40
0
 40
0
 40
0
 40
1
 40
1
 40
1
 40
1
 10
142.625514
 20
42.890501
 30
0.0
 10
142.554754
 20
42.890501
 30
0.0
 10
142.404105
 20
42.572630
 30
0.0
 10
142.404105
 20
42.423326
 30
0.0
  0
SPLINE
  5
29d
100
AcDbEntity
  8
Image
 62
1
100
AcDbSpline
 70
8
 71
3
 72
8
 73
4
 74
0
 40
0
 40
0
 40
0
 40
0
 40
1
 40
1
 40
1
 40
1
 10
142.404105
 20
42.423326
 30
0.0
 10
142.404105
 20
42.354942
 30
0.0
 10
142.379658
 20
42.283875
 30
0.0
 10
142.349749
 20
42.265399
 30
0.0
  0
SPLINE
  5
29e
100
AcDbEntity
  8
Image
 62
1
100
AcDbSpline
 70
8
 71
3
 72
8
 73
4
 74
0
 40
0
 40
0
 40
0
 40
0
 40
1
 40
1
 40
1
 40
1
 10
142.349749
 20
42.265399
 30
0.0
 10
142.319851
 20
42.246931
 30
0.0
 10
142.295391
 20
42.184325
 30
0.0
 10
142.295391
 20
42.126300
 30
0.0
  0
SPLINE
  5
29f
100
AcDbEntity
  8
Image
 62
1
100
AcDbSpline
 70
8
 71
3
 72
8
 73
4
 74
0
 40
0
 40
0
 40
0
 40
0
 40
1
 40
1
 40
1
 40
1
 10
142.295391
 20
42.126300
 30
0.0
 10
142.295391
 20
42.068271
 30
0.0
 10
142.272636
 20
42.020792
 30
0.0
 10
142.244815
 20
42.020792
 30
0.0
  0
SPLINE
  5
2a0
100
AcDbEntity
  8
Image
 62
1
100
AcDbSpline
 70
8
 71
3
 72
8
 73
4
 74
0
 40
0
 40
0
 40
0
 40
0
 40
1
 40
1
 40
1
 40
1
 10
142.244815
 20
42.020792
 30
0.0
 10
142.216997
 20
42.020792
 30
0.0
 10
142.186422
 20
41.965756
 30
0.0
 10
142.176868
 20
41.898491
 30
0.0
  0
SPLINE
  5
2a1
100
AcDbEntity
  8
Image
 62
1
100
AcDbSpline
 70
8
 71
3
 72
8
 73
4
 74
0
 40
0
 40
0
 40
0
 40
0
 40
1
 40
1
 40
1
 40
1
 10
142.176868
 20
41.898491
 30
0.0
 10
142.161548
 20
41.790530
 30
0.0
 10
142.123639
 20
41.774298
 30
0.0
 10
141.853727
 20
41.760087
 30
0.0
  0
SPLINE
  5
2a2
100
AcDbEntity
  8
Image
 62
1
100
AcDbSpline
 70
8
 71
3
 72
8
 73
4
 74
0
 40
0
 40
0
 40
0
 40
0
 40
1
 40
1
 40
1
 40
1
 10
141.853727
 20
41.760087
 30
0.0
 10
141.617605
 20
41.747652
 30
0.0
 10
141.540606
 20
41.763130
 30
0.0
 10
141.515703
 20
41.828035
 30
0.0
  0
LINE
  5
2a3
100
AcDbEntity
  8
Image
 62
1
100
AcDbLine
 10
141.515703
 20
41.828035
 30
0.0
 11
141.515690
 21
41.828035
 31
0.0
  0
SPLINE
  5
2a4
100
AcDbEntity
  8
Image
 62
1
100
AcDbSpline
 70
8
 71
3
 72
8
 73
4
 74
0
 40
0
 40
0
 40
0
 40
0
 40
1
 40
1
 40
1
 40
1
 10
142.512807
 20
43.927742
 30
0.0
 10
142.512807
 20
44.033347
 30
0.0
 10
142.487354
 20
44.039711
 30
0.0
 10
142.132185
 20
44.022867
 30
0.0
  0
SPLINE
  5
2a5
100
AcDbEntity
  8
Image
 62
1
100
AcDbSpline
 70
8
 71
3
 72
8
 73
4
 74
0
 40
0
 40
0
 40
0
 40
0
 40
1
 40
1
 40
1
 40
1
 10
142.132185
 20
44.022867
 30
0.0
 10
141.799016
 20
44.007072
 30
0.0
 10
141.751579
 20
44.016676
 30
0.0
 10
141.751688
 20
44.099943
 30
0.0
  0
SPLINE
  5
2a6
100
AcDbEntity
  8
Image
 62
1
100
AcDbSpline
 70
8
 71
3
 72
8
 73
4
 74
0
 40
0
 40
0
 40
0
 40
0
 40
1
 40
1
 40
1
 40
1
 10
141.751688
 20
44.099943
 30
0.0
 10
141.751796
 20
44.172441
 30
0.0
 10
141.706558
 20
44.195066
 30
0.0
 10
141.561561
 20
44.195066
 30
0.0
  0
SPLINE
  5
2a7
100
AcDbEntity
  8
Image
 62
1
100
AcDbSpline
 70
8
 71
3
 72
8
 73
4
 74
0
 40
0
 40
0
 40
0
 40
0
 40
1
 40
1
 40
1
 40
1
 10
141.561561
 20
44.195066
 30
0.0
 10
141.456923
 20
44.195066
 30
0.0
 10
141.371312
 20
44.217000
 30
0.0
 10
141.371312
 20
44.243802
 30
0.0
  0
SPLINE
  5
2a8
100
AcDbEntity
  8
Image
 62
1
100
AcDbSpline
 70
8
 71
3
 72
8
 73
4
 74
0
 40
0
 40
0
 40
0
 40
0
 40
1
 40
1
 40
1
 40
1
 10
141.371312
 20
44.243802
 30
0.0
 10
141.371312
 20
44.270605
 30
0.0
 10
141.236779
 20
44.294145
 30
0.0
 10
141.072349
 20
44.296108
 30
0.0
  0
SPLINE
  5
2a9
100
AcDbEntity
  8
Image
 62
1
100
AcDbSpline
 70
8
 71
3
 72
8
 73
4
 74
0
 40
0
 40
0
 40
0
 40
0
 40
1
 40
1
 40
1
 40
1
 10
141.072349
 20
44.296108
 30
0.0
 10
140.810327
 20
44.299230
 30
0.0
 10
140.773385
 20
44.286503
 30
0.0
 10
140.773385
 20
44.193016
 30
0.0
  0
SPLINE
  5
2aa
100
AcDbEntity
  8
Image
 62
1
100
AcDbSpline
 70
8
 71
3
 72
8
 73
4
 74
0
 40
0
 40
0
 40
0
 40
0
 40
1
 40
1
 40
1
 40
1
 10
140.773385
 20
44.193016
 30
0.0
 10
140.773385
 20
44.107354
 30
0.0
 10
140.810845
 20
44.086354
 30
0.0
 10
140.963637
 20
44.086354
 30
0.0
  0
SPLINE
  5
2ab
100
AcDbEntity
  8
Image
 62
1
100
AcDbSpline
 70
8
 71
3
 72
8
 73
4
 74
0
 40
0
 40
0
 40
0
 40
0
 40
1
 40
1
 40
1
 40
1
 10
140.963637
 20
44.086354
 30
0.0
 10
141.096508
 20
44.086354
 30
0.0
 10
141.153885
 20
44.061774
 30
0.0
 10
141.153885
 20
44.004817
 30
0.0
  0
SPLINE
  5
2ac
100
AcDbEntity
  8
Image
 62
1
100
AcDbSpline
 70
8
 71
3
 72
8
 73
4
 74
0
 40
0
 40
0
 40
0
 40
0
 40
1
 40
1
 40
1
 40
1
 10
141.153885
 20
44.004817
 30
0.0
 10
141.153885
 20
43.942333
 30
0.0
 10
141.222984
 20
43.923283
 30
0.0
 10
141.449639
 20
43.923283
 30
0.0
  0
SPLINE
  5
2ad
100
AcDbEntity
  8
Image
 62
1
100
AcDbSpline
 70
8
 71
3
 72
8
 73
4
 74
0
 40
0
 40
0
 40
0
 40
0
 40
1
 40
1
 40
1
 40
1
 10
141.449639
 20
43.923283
 30
0.0
 10
141.612305
 20
43.923283
 30
0.0
 10
141.760511
 20
43.898809
 30
0.0
 10
141.778987
 20
43.868925
 30
0.0
  0
SPLINE
  5
2ae
100
AcDbEntity
  8
Image
 62
1
100
AcDbSpline
 70
8
 71
3
 72
8
 73
4
 74
0
 40
0
 40
0
 40
0
 40
0
 40
1
 40
1
 40
1
 40
1
 10
141.778987
 20
43.868925
 30
0.0
 10
141.797455
 20
43.839029
 30
0.0
 10
141.970133
 20
43.814569
 30
0.0
 10
142.162694
 20
43.814569
 30
0.0
  0
SPLINE
  5
2af
100
AcDbEntity
  8
Image
 62
1
100
AcDbSpline
 70
8
 71
3
 72
8
 73
4
 74
0
 40
0
 40
0
 40
0
 40
0
 40
1
 40
1
 40
1
 40
1
 10
142.162694
 20
43.814569
 30
0.0
 10
142.481168
 20
43.814569
 30
0.0
 10
142.512807
 20
43.824782
 30
0.0
 10
142.512807
 20
43.927742
 30
0.0
  0
LINE
  5
2b0
100
AcDbEntity
  8
Image
 62
1
100
AcDbLine
 10
142.512807
 20
43.927742
 30
0.0
 11
142.512807
 21
43.927742
 31
0.0
  0
SPLINE
  5
2b1
100
AcDbEntity
  8
Image
 62
1
100
AcDbSpline
 70
8
 71
3
 72
8
 73
4
 74
0
 40
0
 40
0
 40
0
 40
0
 40
1
 40
1
 40
1
 40
1
 10
140.610315
 20
44.303781
 30
0.0
 10
140.610315
 20
44.396387
 30
0.0
 10
140.574077
 20
44.412493
 30
0.0
 10
140.365710
 20
44.412493
 30
0.0
  0
SPLINE
  5
2b2
100
AcDbEntity
  8
Image
 62
1
100
AcDbSpline
 70
8
 71
3
 72
8
 73
4
 74
0
 40
0
 40
0
 40
0
 40
0
 40
1
 40
1
 40
1
 40
1
 10
140.365710
 20
44.412493
 30
0.0
 10
140.157343
 20
44.412493
 30
0.0
 10
140.121106
 20
44.396380
 30
0.0
 10
140.121106
 20
44.303781
 30
0.0
  0
SPLINE
  5
2b3
100
AcDbEntity
  8
Image
 62
1
100
AcDbSpline
 70
8
 71
3
 72
8
 73
4
 74
0
 40
0
 40
0
 40
0
 40
0
 40
1
 40
1
 40
1
 40
1
 10
140.121106
 20
44.303781
 30
0.0
 10
140.121106
 20
44.211171
 30
0.0
 10
140.157343
 20
44.195066
 30
0.0
 10
140.365710
 20
44.195066
 30
0.0
  0
SPLINE
  5
2b4
100
AcDbEntity
  8
Image
 62
1
100
AcDbSpline
 70
8
 71
3
 72
8
 73
4
 74
0
 40
0
 40
0
 40
0
 40
0
 40
1
 40
1
 40
1
 40
1
 10
140.365710
 20
44.195066
 30
0.0
 10
140.574077
 20
44.195066
 30
0.0
 10
140.610315
 20
44.211179
 30
0.0
 10
140.610315
 20
44.303781
 30
0.0
  0
LINE
  5
2b5
100
AcDbEntity
  8
Image
 62
1
100
AcDbLine
 10
140.610315
 20
44.303781
 30
0.0
 11
140.610315
 21
44.303781
 31
0.0
  0
SPLINE
  5
2b6
100
AcDbEntity
  8
Image
 62
1
100
AcDbSpline
 70
8
 71
3
 72
8
 73
4
 74
0
 40
0
 40
0
 40
0
 40
0
 40
1
 40
1
 40
1
 40
1
 10
139.740606
 20
44.580392
 30
0.0
 10
139.740606
 20
44.684976
 30
0.0
 10
139.714862
 20
44.692480
 30
0.0
 10
139.414366
 20
44.675518
 30
0.0
  0
SPLINE
  5
2b7
100
AcDbEntity
  8
Image
 62
1
100
AcDbSpline
 70
8
 71
3
 72
8
 73
4
 74
0
 40
0
 40
0
 40
0
 40
0
 40
1
 40
1
 40
1
 40
1
 10
139.414366
 20
44.675518
 30
0.0
 10
139.179752
 20
44.662262
 30
0.0
 10
139.088154
 20
44.676047
 30
0.0
 10
139.088225
 20
44.725045
 30
0.0
  0
SPLINE
  5
2b8
100
AcDbEntity
  8
Image
 62
1
100
AcDbSpline
 70
8
 71
3
 72
8
 73
4
 74
0
 40
0
 40
0
 40
0
 40
0
 40
1
 40
1
 40
1
 40
1
 10
139.088225
 20
44.725045
 30
0.0
 10
139.088281
 20
44.769106
 30
0.0
 10
139.004381
 20
44.792993
 30
0.0
 10
138.849534
 20
44.792993
 30
0.0
  0
SPLINE
  5
2b9
100
AcDbEntity
  8
Image
 62
1
100
AcDbSpline
 70
8
 71
3
 72
8
 73
4
 74
0
 40
0
 40
0
 40
0
 40
0
 40
1
 40
1
 40
1
 40
1
 10
138.849534
 20
44.792993
 30
0.0
 10
138.687421
 20
44.792993
 30
0.0
 10
138.600699
 20
44.819186
 30
0.0
 10
138.579455
 20
44.874527
 30
0.0
  0
SPLINE
  5
2ba
100
AcDbEntity
  8
Image
 62
1
100
AcDbSpline
 70
8
 71
3
 72
8
 73
4
 74
0
 40
0
 40
0
 40
0
 40
0
 40
1
 40
1
 40
1
 40
1
 10
138.579455
 20
44.874527
 30
0.0
 10
138.561172
 20
44.922191
 30
0.0
 10
138.479715
 20
44.956063
 30
0.0
 10
138.383391
 20
44.956063
 30
0.0
  0
SPLINE
  5
2bb
100
AcDbEntity
  8
Image
 62
1
100
AcDbSpline
 70
8
 71
3
 72
8
 73
4
 74
0
 40
0
 40
0
 40
0
 40
0
 40
1
 40
1
 40
1
 40
1
 10
138.383391
 20
44.956063
 30
0.0
 10
138.292763
 20
44.956063
 30
0.0
 10
138.218614
 20
44.981754
 30
0.0
 10
138.218614
 20
45.013131
 30
0.0
  0
SPLINE
  5
2bc
100
AcDbEntity
  8
Image
 62
1
100
AcDbSpline
 70
8
 71
3
 72
8
 73
4
 74
0
 40
0
 40
0
 40
0
 40
0
 40
1
 40
1
 40
1
 40
1
 10
138.218614
 20
45.013131
 30
0.0
 10
138.218614
 20
45.048252
 30
0.0
 10
138.098609
 20
45.063931
 30
0.0
 10
137.906591
 20
45.053898
 30
0.0
  0
SPLINE
  5
2bd
100
AcDbEntity
  8
Image
 62
1
100
AcDbSpline
 70
8
 71
3
 72
8
 73
4
 74
0
 40
0
 40
0
 40
0
 40
0
 40
1
 40
1
 40
1
 40
1
 10
137.906591
 20
45.053898
 30
0.0
 10
137.660459
 20
45.041039
 30
0.0
 10
137.590744
 20
45.017510
 30
0.0
 10
137.576465
 20
44.942474
 30
0.0
  0
SPLINE
  5
2be
100
AcDbEntity
  8
Image
 62
1
100
AcDbSpline
 70
8
 71
3
 72
8
 73
4
 74
0
 40
0
 40
0
 40
0
 40
0
 40
1
 40
1
 40
1
 40
1
 10
137.576465
 20
44.942474
 30
0.0
 10
137.561145
 20
44.861999
 30
0.0
 10
137.600833
 20
44.847349
 30
0.0
 10
137.834132
 20
44.847349
 30
0.0
  0
SPLINE
  5
2bf
100
AcDbEntity
  8
Image
 62
1
100
AcDbSpline
 70
8
 71
3
 72
8
 73
4
 74
0
 40
0
 40
0
 40
0
 40
0
 40
1
 40
1
 40
1
 40
1
 10
137.834132
 20
44.847349
 30
0.0
 10
138.050733
 20
44.847349
 30
0.0
 10
138.109902
 20
44.828669
 30
0.0
 10
138.109902
 20
44.760340
 30
0.0
  0
SPLINE
  5
2c0
100
AcDbEntity
  8
Image
 62
1
100
AcDbSpline
 70
8
 71
3
 72
8
 73
4
 74
0
 40
0
 40
0
 40
0
 40
0
 40
1
 40
1
 40
1
 40
1
 10
138.109902
 20
44.760340
 30
0.0
 10
138.109902
 20
44.690575
 30
0.0
 10
138.158376
 20
44.677187
 30
0.0
 10
138.354506
 20
44.692784
 30
0.0
  0
SPLINE
  5
2c1
100
AcDbEntity
  8
Image
 62
1
100
AcDbSpline
 70
8
 71
3
 72
8
 73
4
 74
0
 40
0
 40
0
 40
0
 40
0
 40
1
 40
1
 40
1
 40
1
 10
138.354506
 20
44.692784
 30
0.0
 10
138.525017
 20
44.706357
 30
0.0
 10
138.599114
 20
44.691461
 30
0.0
 10
138.599114
 20
44.643903
 30
0.0
  0
SPLINE
  5
2c2
100
AcDbEntity
  8
Image
 62
1
100
AcDbSpline
 70
8
 71
3
 72
8
 73
4
 74
0
 40
0
 40
0
 40
0
 40
0
 40
1
 40
1
 40
1
 40
1
 10
138.599114
 20
44.643903
 30
0.0
 10
138.599114
 20
44.599281
 30
0.0
 10
138.682891
 20
44.575563
 30
0.0
 10
138.840512
 20
44.575563
 30
0.0
  0
SPLINE
  5
2c3
100
AcDbEntity
  8
Image
 62
1
100
AcDbSpline
 70
8
 71
3
 72
8
 73
4
 74
0
 40
0
 40
0
 40
0
 40
0
 40
1
 40
1
 40
1
 40
1
 10
138.840512
 20
44.575563
 30
0.0
 10
138.973280
 20
44.575563
 30
0.0
 10
139.097025
 20
44.551116
 30
0.0
 10
139.115504
 20
44.521207
 30
0.0
  0
SPLINE
  5
2c4
100
AcDbEntity
  8
Image
 62
1
100
AcDbSpline
 70
8
 71
3
 72
8
 73
4
 74
0
 40
0
 40
0
 40
0
 40
0
 40
1
 40
1
 40
1
 40
1
 10
139.115504
 20
44.521207
 30
0.0
 10
139.133972
 20
44.491312
 30
0.0
 10
139.282186
 20
44.466851
 30
0.0
 10
139.444852
 20
44.466851
 30
0.0
  0
SPLINE
  5
2c5
100
AcDbEntity
  8
Image
 62
1
100
AcDbSpline
 70
8
 71
3
 72
8
 73
4
 74
0
 40
0
 40
0
 40
0
 40
0
 40
1
 40
1
 40
1
 40
1
 10
139.444852
 20
44.466851
 30
0.0
 10
139.708559
 20
44.466851
 30
0.0
 10
139.740606
 20
44.479154
 30
0.0
 10
139.740606
 20
44.580392
 30
0.0
  0
LINE
  5
2c6
100
AcDbEntity
  8
Image
 62
1
100
AcDbLine
 10
139.740606
 20
44.580392
 30
0.0
 11
139.740606
 21
44.580392
 31
0.0
  0
SPLINE
  5
2c7
100
AcDbEntity
  8
Image
 62
1
100
AcDbSpline
 70
8
 71
3
 72
8
 73
4
 74
0
 40
0
 40
0
 40
0
 40
0
 40
1
 40
1
 40
1
 40
1
 10
137.314996
 20
45.039656
 30
0.0
 10
137.333252
 20
45.087220
 30
0.0
 10
137.312323
 20
45.136581
 30
0.0
 10
137.266452
 20
45.154183
 30
0.0
  0
SPLINE
  5
2c8
100
AcDbEntity
  8
Image
 62
1
100
AcDbSpline
 70
8
 71
3
 72
8
 73
4
 74
0
 40
0
 40
0
 40
0
 40
0
 40
1
 40
1
 40
1
 40
1
 10
137.266452
 20
45.154183
 30
0.0
 10
137.222114
 20
45.171196
 30
0.0
 10
137.185834
 20
45.219194
 30
0.0
 10
137.185834
 20
45.260839
 30
0.0
  0
SPLINE
  5
2c9
100
AcDbEntity
  8
Image
 62
1
100
AcDbSpline
 70
8
 71
3
 72
8
 73
4
 74
0
 40
0
 40
0
 40
0
 40
0
 40
1
 40
1
 40
1
 40
1
 10
137.185834
 20
45.260839
 30
0.0
 10
137.185834
 20
45.319193
 30
0.0
 10
137.288685
 20
45.337267
 30
0.0
 10
137.634279
 20
45.339648
 30
0.0
  0
SPLINE
  5
2ca
100
AcDbEntity
  8
Image
 62
1
100
AcDbSpline
 70
8
 71
3
 72
8
 73
4
 74
0
 40
0
 40
0
 40
0
 40
0
 40
1
 40
1
 40
1
 40
1
 10
137.634279
 20
45.339648
 30
0.0
 10
138.753294
 20
45.347348
 30
0.0
 10
139.334338
 20
45.326948
 30
0.0
 10
139.351049
 20
45.279408
 30
0.0
  0
SPLINE
  5
2cb
100
AcDbEntity
  8
Image
 62
1
100
AcDbSpline
 70
8
 71
3
 72
8
 73
4
 74
0
 40
0
 40
0
 40
0
 40
0
 40
1
 40
1
 40
1
 40
1
 10
139.351049
 20
45.279408
 30
0.0
 10
139.375311
 20
45.210362
 30
0.0
 10
139.740606
 20
45.212984
 30
0.0
 10
139.740606
 20
45.282212
 30
0.0
  0
SPLINE
  5
2cc
100
AcDbEntity
  8
Image
 62
1
100
AcDbSpline
 70
8
 71
3
 72
8
 73
4
 74
0
 40
0
 40
0
 40
0
 40
0
 40
1
 40
1
 40
1
 40
1
 10
139.740606
 20
45.282212
 30
0.0
 10
139.740606
 20
45.315661
 30
0.0
 10
140.012391
 20
45.336568
 30
0.0
 10
140.447247
 20
45.336568
 30
0.0
  0
SPLINE
  5
2cd
100
AcDbEntity
  8
Image
 62
1
100
AcDbSpline
 70
8
 71
3
 72
8
 73
4
 74
0
 40
0
 40
0
 40
0
 40
0
 40
1
 40
1
 40
1
 40
1
 10
140.447247
 20
45.336568
 30
0.0
 10
140.882100
 20
45.336568
 30
0.0
 10
141.153885
 20
45.315666
 30
0.0
 10
141.153885
 20
45.282212
 30
0.0
  0
SPLINE
  5
2ce
100
AcDbEntity
  8
Image
 62
1
100
AcDbSpline
 70
8
 71
3
 72
8
 73
4
 74
0
 40
0
 40
0
 40
0
 40
0
 40
1
 40
1
 40
1
 40
1
 10
141.153885
 20
45.282212
 30
0.0
 10
141.153885
 20
45.252315
 30
0.0
 10
141.202807
 20
45.227854
 30
0.0
 10
141.262597
 20
45.227854
 30
0.0
  0
SPLINE
  5
2cf
100
AcDbEntity
  8
Image
 62
1
100
AcDbSpline
 70
8
 71
3
 72
8
 73
4
 74
0
 40
0
 40
0
 40
0
 40
0
 40
1
 40
1
 40
1
 40
1
 10
141.262597
 20
45.227854
 30
0.0
 10
141.322391
 20
45.227854
 30
0.0
 10
141.371312
 20
45.251322
 30
0.0
 10
141.371312
 20
45.280014
 30
0.0
  0
SPLINE
  5
2d0
100
AcDbEntity
  8
Image
 62
1
100
AcDbSpline
 70
8
 71
3
 72
8
 73
4
 74
0
 40
0
 40
0
 40
0
 40
0
 40
1
 40
1
 40
1
 40
1
 10
141.371312
 20
45.280014
 30
0.0
 10
141.371312
 20
45.308700
 30
0.0
 10
141.572840
 20
45.339275
 30
0.0
 10
141.819154
 20
45.347959
 30
0.0
  0
SPLINE
  5
2d1
100
AcDbEntity
  8
Image
 62
1
100
AcDbSpline
 70
8
 71
3
 72
8
 73
4
 74
0
 40
0
 40
0
 40
0
 40
0
 40
1
 40
1
 40
1
 40
1
 10
141.819154
 20
45.347959
 30
0.0
 10
142.195005
 20
45.361214
 30
0.0
 10
142.269919
 20
45.379039
 30
0.0
 10
142.285172
 20
45.458872
 30
0.0
  0
SPLINE
  5
2d2
100
AcDbEntity
  8
Image
 62
1
100
AcDbSpline
 70
8
 71
3
 72
8
 73
4
 74
0
 40
0
 40
0
 40
0
 40
0
 40
1
 40
1
 40
1
 40
1
 10
142.285172
 20
45.458872
 30
0.0
 10
142.299751
 20
45.535101
 30
0.0
 10
142.262074
 20
45.555466
 30
0.0
 10
142.095524
 20
45.561398
 30
0.0
  0
SPLINE
  5
2d3
100
AcDbEntity
  8
Image
 62
1
100
AcDbSpline
 70
8
 71
3
 72
8
 73
4
 74
0
 40
0
 40
0
 40
0
 40
0
 40
1
 40
1
 40
1
 40
1
 10
142.095524
 20
45.561398
 30
0.0
 10
141.969649
 20
45.565896
 30
0.0
 10
141.935925
 20
45.578093
 30
0.0
 10
142.010006
 20
45.592357
 30
0.0
  0
SPLINE
  5
2d4
100
AcDbEntity
  8
Image
 62
1
100
AcDbSpline
 70
8
 71
3
 72
8
 73
4
 74
0
 40
0
 40
0
 40
0
 40
0
 40
1
 40
1
 40
1
 40
1
 10
142.010006
 20
45.592357
 30
0.0
 10
142.086465
 20
45.607094
 30
0.0
 10
142.132307
 20
45.655246
 30
0.0
 10
142.132307
 20
45.720847
 30
0.0
  0
SPLINE
  5
2d5
100
AcDbEntity
  8
Image
 62
1
100
AcDbSpline
 70
8
 71
3
 72
8
 73
4
 74
0
 40
0
 40
0
 40
0
 40
0
 40
1
 40
1
 40
1
 40
1
 10
142.132307
 20
45.720847
 30
0.0
 10
142.132307
 20
45.822854
 30
0.0
 10
142.068653
 20
45.825780
 30
0.0
 10
139.849320
 20
45.825780
 30
0.0
  0
SPLINE
  5
2d6
100
AcDbEntity
  8
Image
 62
1
100
AcDbSpline
 70
8
 71
3
 72
8
 73
4
 74
0
 40
0
 40
0
 40
0
 40
0
 40
1
 40
1
 40
1
 40
1
 10
139.849320
 20
45.825780
 30
0.0
 10
137.856235
 20
45.825780
 30
0.0
 10
137.566334
 20
45.836126
 30
0.0
 10
137.566334
 20
45.907314
 30
0.0
  0
SPLINE
  5
2d7
100
AcDbEntity
  8
Image
 62
1
100
AcDbSpline
 70
8
 71
3
 72
8
 73
4
 74
0
 40
0
 40
0
 40
0
 40
0
 40
1
 40
1
 40
1
 40
1
 10
137.566334
 20
45.907314
 30
0.0
 10
137.566334
 20
45.970732
 30
0.0
 10
137.638809
 20
45.988851
 30
0.0
 10
137.892475
 20
45.988851
 30
0.0
  0
SPLINE
  5
2d8
100
AcDbEntity
  8
Image
 62
1
100
AcDbSpline
 70
8
 71
3
 72
8
 73
4
 74
0
 40
0
 40
0
 40
0
 40
0
 40
1
 40
1
 40
1
 40
1
 10
137.892475
 20
45.988851
 30
0.0
 10
138.182376
 20
45.988851
 30
0.0
 10
138.218614
 20
46.000943
 30
0.0
 10
138.218614
 20
46.097563
 30
0.0
  0
SPLINE
  5
2d9
100
AcDbEntity
  8
Image
 62
1
100
AcDbSpline
 70
8
 71
3
 72
8
 73
4
 74
0
 40
0
 40
0
 40
0
 40
0
 40
1
 40
1
 40
1
 40
1
 10
138.218614
 20
46.097563
 30
0.0
 10
138.218614
 20
46.192959
 30
0.0
 10
138.182376
 20
46.206278
 30
0.0
 10
137.922860
 20
46.206278
 30
0.0
  0
SPLINE
  5
2da
100
AcDbEntity
  8
Image
 62
1
100
AcDbSpline
 70
8
 71
3
 72
8
 73
4
 74
0
 40
0
 40
0
 40
0
 40
0
 40
1
 40
1
 40
1
 40
1
 10
137.922860
 20
46.206278
 30
0.0
 10
137.760197
 20
46.206278
 30
0.0
 10
137.611988
 20
46.181830
 30
0.0
 10
137.593512
 20
46.151922
 30
0.0
  0
SPLINE
  5
2db
100
AcDbEntity
  8
Image
 62
1
100
AcDbSpline
 70
8
 71
3
 72
8
 73
4
 74
0
 40
0
 40
0
 40
0
 40
0
 40
1
 40
1
 40
1
 40
1
 10
137.593512
 20
46.151922
 30
0.0
 10
137.575044
 20
46.122024
 30
0.0
 10
137.426827
 20
46.097563
 30
0.0
 10
137.264161
 20
46.097563
 30
0.0
  0
SPLINE
  5
2dc
100
AcDbEntity
  8
Image
 62
1
100
AcDbSpline
 70
8
 71
3
 72
8
 73
4
 74
0
 40
0
 40
0
 40
0
 40
0
 40
1
 40
1
 40
1
 40
1
 10
137.264161
 20
46.097563
 30
0.0
 10
136.984928
 20
46.097563
 30
0.0
 10
136.968407
 20
46.089970
 30
0.0
 10
136.968407
 20
45.961670
 30
0.0
  0
SPLINE
  5
2dd
100
AcDbEntity
  8
Image
 62
1
100
AcDbSpline
 70
8
 71
3
 72
8
 73
4
 74
0
 40
0
 40
0
 40
0
 40
0
 40
1
 40
1
 40
1
 40
1
 10
136.968407
 20
45.961670
 30
0.0
 10
136.968407
 20
45.877118
 30
0.0
 10
136.937604
 20
45.825780
 30
0.0
 10
136.886873
 20
45.825780
 30
0.0
  0
SPLINE
  5
2de
100
AcDbEntity
  8
Image
 62
1
100
AcDbSpline
 70
8
 71
3
 72
8
 73
4
 74
0
 40
0
 40
0
 40
0
 40
0
 40
1
 40
1
 40
1
 40
1
 10
136.886873
 20
45.825780
 30
0.0
 10
136.842029
 20
45.825780
 30
0.0
 10
136.805337
 20
45.850254
 30
0.0
 10
136.805337
 20
45.880136
 30
0.0
  0
SPLINE
  5
2df
100
AcDbEntity
  8
Image
 62
1
100
AcDbSpline
 70
8
 71
3
 72
8
 73
4
 74
0
 40
0
 40
0
 40
0
 40
0
 40
1
 40
1
 40
1
 40
1
 10
136.805337
 20
45.880136
 30
0.0
 10
136.805337
 20
45.910032
 30
0.0
 10
136.719725
 20
45.934492
 30
0.0
 10
136.615088
 20
45.934492
 30
0.0
  0
SPLINE
  5
2e0
100
AcDbEntity
  8
Image
 62
1
100
AcDbSpline
 70
8
 71
3
 72
8
 73
4
 74
0
 40
0
 40
0
 40
0
 40
0
 40
1
 40
1
 40
1
 40
1
 10
136.615088
 20
45.934492
 30
0.0
 10
136.510451
 20
45.934492
 30
0.0
 10
136.424839
 20
45.910601
 30
0.0
 10
136.424839
 20
45.881420
 30
0.0
  0
SPLINE
  5
2e1
100
AcDbEntity
  8
Image
 62
1
100
AcDbSpline
 70
8
 71
3
 72
8
 73
4
 74
0
 40
0
 40
0
 40
0
 40
0
 40
1
 40
1
 40
1
 40
1
 10
136.424839
 20
45.881420
 30
0.0
 10
136.424839
 20
45.849521
 30
0.0
 10
136.051020
 20
45.822412
 30
0.0
 10
135.487881
 20
45.813475
 30
0.0
  0
SPLINE
  5
2e2
100
AcDbEntity
  8
Image
 62
1
100
AcDbSpline
 70
8
 71
3
 72
8
 73
4
 74
0
 40
0
 40
0
 40
0
 40
0
 40
1
 40
1
 40
1
 40
1
 10
135.487881
 20
45.813475
 30
0.0
 10
134.645643
 20
45.800113
 30
0.0
 10
134.549073
 20
45.788974
 30
0.0
 10
134.532650
 20
45.703477
 30
0.0
  0
SPLINE
  5
2e3
100
AcDbEntity
  8
Image
 62
1
100
AcDbSpline
 70
8
 71
3
 72
8
 73
4
 74
0
 40
0
 40
0
 40
0
 40
0
 40
1
 40
1
 40
1
 40
1
 10
134.532650
 20
45.703477
 30
0.0
 10
134.518866
 20
45.631746
 30
0.0
 10
134.552124
 20
45.607295
 30
0.0
 10
134.667845
 20
45.604060
 30
0.0
  0
SPLINE
  5
2e4
100
AcDbEntity
  8
Image
 62
1
100
AcDbSpline
 70
8
 71
3
 72
8
 73
4
 74
0
 40
0
 40
0
 40
0
 40
0
 40
1
 40
1
 40
1
 40
1
 10
134.667845
 20
45.604060
 30
0.0
 10
134.752252
 20
45.601678
 30
0.0
 10
134.790736
 20
45.587444
 30
0.0
 10
134.753366
 20
45.572352
 30
0.0
  0
SPLINE
  5
2e5
100
AcDbEntity
  8
Image
 62
1
100
AcDbSpline
 70
8
 71
3
 72
8
 73
4
 74
0
 40
0
 40
0
 40
0
 40
0
 40
1
 40
1
 40
1
 40
1
 10
134.753366
 20
45.572352
 30
0.0
 10
134.715996
 20
45.557271
 30
0.0
 10
134.685421
 20
45.498054
 30
0.0
 10
134.685421
 20
45.440753
 30
0.0
  0
SPLINE
  5
2e6
100
AcDbEntity
  8
Image
 62
1
100
AcDbSpline
 70
8
 71
3
 72
8
 73
4
 74
0
 40
0
 40
0
 40
0
 40
0
 40
1
 40
1
 40
1
 40
1
 10
134.685421
 20
45.440753
 30
0.0
 10
134.685421
 20
45.343040
 30
0.0
 10
134.732686
 20
45.336568
 30
0.0
 10
135.446415
 20
45.336568
 30
0.0
  0
SPLINE
  5
2e7
100
AcDbEntity
  8
Image
 62
1
100
AcDbSpline
 70
8
 71
3
 72
8
 73
4
 74
0
 40
0
 40
0
 40
0
 40
0
 40
1
 40
1
 40
1
 40
1
 10
135.446415
 20
45.336568
 30
0.0
 10
135.917509
 20
45.336568
 30
0.0
 10
136.207413
 20
45.315852
 30
0.0
 10
136.207413
 20
45.282212
 30
0.0
  0
SPLINE
  5
2e8
100
AcDbEntity
  8
Image
 62
1
100
AcDbSpline
 70
8
 71
3
 72
8
 73
4
 74
0
 40
0
 40
0
 40
0
 40
0
 40
1
 40
1
 40
1
 40
1
 10
136.207413
 20
45.282212
 30
0.0
 10
136.207413
 20
45.252315
 30
0.0
 10
136.280792
 20
45.227854
 30
0.0
 10
136.370483
 20
45.227854
 30
0.0
  0
SPLINE
  5
2e9
100
AcDbEntity
  8
Image
 62
1
100
AcDbSpline
 70
8
 71
3
 72
8
 73
4
 74
0
 40
0
 40
0
 40
0
 40
0
 40
1
 40
1
 40
1
 40
1
 10
136.370483
 20
45.227854
 30
0.0
 10
136.460172
 20
45.227854
 30
0.0
 10
136.533554
 20
45.252301
 30
0.0
 10
136.533554
 20
45.282212
 30
0.0
  0
SPLINE
  5
2ea
100
AcDbEntity
  8
Image
 62
1
100
AcDbSpline
 70
8
 71
3
 72
8
 73
4
 74
0
 40
0
 40
0
 40
0
 40
0
 40
1
 40
1
 40
1
 40
1
 10
136.533554
 20
45.282212
 30
0.0
 10
136.533554
 20
45.312108
 30
0.0
 10
136.579081
 20
45.336568
 30
0.0
 10
136.634728
 20
45.336568
 30
0.0
  0
SPLINE
  5
2eb
100
AcDbEntity
  8
Image
 62
1
100
AcDbSpline
 70
8
 71
3
 72
8
 73
4
 74
0
 40
0
 40
0
 40
0
 40
0
 40
1
 40
1
 40
1
 40
1
 10
136.634728
 20
45.336568
 30
0.0
 10
136.713338
 20
45.336568
 30
0.0
 10
136.730110
 20
45.306260
 30
0.0
 10
136.709928
 20
45.200676
 30
0.0
  0
SPLINE
  5
2ec
100
AcDbEntity
  8
Image
 62
1
100
AcDbSpline
 70
8
 71
3
 72
8
 73
4
 74
0
 40
0
 40
0
 40
0
 40
0
 40
1
 40
1
 40
1
 40
1
 10
136.709928
 20
45.200676
 30
0.0
 10
136.686089
 20
45.075986
 30
0.0
 10
136.700165
 20
45.064783
 30
0.0
 10
136.880536
 20
45.064783
 30
0.0
  0
SPLINE
  5
2ed
100
AcDbEntity
  8
Image
 62
1
100
AcDbSpline
 70
8
 71
3
 72
8
 73
4
 74
0
 40
0
 40
0
 40
0
 40
0
 40
1
 40
1
 40
1
 40
1
 10
136.880536
 20
45.064783
 30
0.0
 10
136.988658
 20
45.064783
 30
0.0
 10
137.077122
 20
45.040309
 30
0.0
 10
137.077122
 20
45.010427
 30
0.0
  0
SPLINE
  5
2ee
100
AcDbEntity
  8
Image
 62
1
100
AcDbSpline
 70
8
 71
3
 72
8
 73
4
 74
0
 40
0
 40
0
 40
0
 40
0
 40
1
 40
1
 40
1
 40
1
 10
137.077122
 20
45.010427
 30
0.0
 10
137.077122
 20
44.923051
 30
0.0
 10
137.279806
 20
44.947962
 30
0.0
 10
137.314996
 20
45.039664
 30
0.0
  0
LINE
  5
2ef
100
AcDbEntity
  8
Image
 62
1
100
AcDbLine
 10
137.314996
 20
45.039664
 30
0.0
 11
137.314996
 21
45.039656
 31
0.0
  0
SPLINE
  5
2f0
100
AcDbEntity
  8
Image
 62
1
100
AcDbSpline
 70
8
 71
3
 72
8
 73
4
 74
0
 40
0
 40
0
 40
0
 40
0
 40
1
 40
1
 40
1
 40
1
 10
134.250565
 20
45.581165
 30
0.0
 10
134.250565
 20
45.703130
 30
0.0
 10
134.228605
 20
45.717058
 30
0.0
 10
134.036345
 20
45.717058
 30
0.0
  0
SPLINE
  5
2f1
100
AcDbEntity
  8
Image
 62
1
100
AcDbSpline
 70
8
 71
3
 72
8
 73
4
 74
0
 40
0
 40
0
 40
0
 40
0
 40
1
 40
1
 40
1
 40
1
 10
134.036345
 20
45.717058
 30
0.0
 10
133.811510
 20
45.717058
 30
0.0
 10
133.731333
 20
45.656265
 30
0.0
 10
133.782009
 20
45.524206
 30
0.0
  0
SPLINE
  5
2f2
100
AcDbEntity
  8
Image
 62
1
100
AcDbSpline
 70
8
 71
3
 72
8
 73
4
 74
0
 40
0
 40
0
 40
0
 40
0
 40
1
 40
1
 40
1
 40
1
 10
133.782009
 20
45.524206
 30
0.0
 10
133.801562
 20
45.473263
 30
0.0
 10
133.890001
 20
45.445273
 30
0.0
 10
134.031432
 20
45.445273
 30
0.0
  0
SPLINE
  5
2f3
100
AcDbEntity
  8
Image
 62
1
100
AcDbSpline
 70
8
 71
3
 72
8
 73
4
 74
0
 40
0
 40
0
 40
0
 40
0
 40
1
 40
1
 40
1
 40
1
 10
134.031432
 20
45.445273
 30
0.0
 10
134.228935
 20
45.445273
 30
0.0
 10
134.250565
 20
45.458687
 30
0.0
 10
134.250565
 20
45.581165
 30
0.0
  0
LINE
  5
2f4
100
AcDbEntity
  8
Image
 62
1
100
AcDbLine
 10
134.250565
 20
45.581165
 30
0.0
 11
134.250565
 21
45.581165
 31
0.0
  0
SPLINE
  5
2f5
100
AcDbEntity
  8
Image
 62
1
100
AcDbSpline
 70
8
 71
3
 72
8
 73
4
 74
0
 40
0
 40
0
 40
0
 40
0
 40
1
 40
1
 40
1
 40
1
 10
138.959952
 20
46.287804
 30
0.0
 10
138.981199
 20
46.343160
 30
0.0
 10
139.067918
 20
46.369340
 30
0.0
 10
139.230031
 20
46.369340
 30
0.0
  0
SPLINE
  5
2f6
100
AcDbEntity
  8
Image
 62
1
100
AcDbSpline
 70
8
 71
3
 72
8
 73
4
 74
0
 40
0
 40
0
 40
0
 40
0
 40
1
 40
1
 40
1
 40
1
 10
139.230031
 20
46.369340
 30
0.0
 10
139.432586
 20
46.369340
 30
0.0
 10
139.468823
 20
46.385824
 30
0.0
 10
139.468823
 20
46.478055
 30
0.0
  0
SPLINE
  5
2f7
100
AcDbEntity
  8
Image
 62
1
100
AcDbSpline
 70
8
 71
3
 72
8
 73
4
 74
0
 40
0
 40
0
 40
0
 40
0
 40
1
 40
1
 40
1
 40
1
 10
139.468823
 20
46.478055
 30
0.0
 10
139.468823
 20
46.570662
 30
0.0
 10
139.432586
 20
46.586767
 30
0.0
 10
139.224216
 20
46.586767
 30
0.0
  0
SPLINE
  5
2f8
100
AcDbEntity
  8
Image
 62
1
100
AcDbSpline
 70
8
 71
3
 72
8
 73
4
 74
0
 40
0
 40
0
 40
0
 40
0
 40
1
 40
1
 40
1
 40
1
 10
139.224216
 20
46.586767
 30
0.0
 10
139.057219
 20
46.586767
 30
0.0
 10
138.979611
 20
46.563881
 30
0.0
 10
138.979611
 20
46.514647
 30
0.0
  0
SPLINE
  5
2f9
100
AcDbEntity
  8
Image
 62
1
100
AcDbSpline
 70
8
 71
3
 72
8
 73
4
 74
0
 40
0
 40
0
 40
0
 40
0
 40
1
 40
1
 40
1
 40
1
 10
138.979611
 20
46.514647
 30
0.0
 10
138.979611
 20
46.466091
 30
0.0
 10
138.928433
 20
46.450036
 30
0.0
 10
138.822978
 20
46.465514
 30
0.0
  0
SPLINE
  5
2fa
100
AcDbEntity
  8
Image
 62
1
100
AcDbSpline
 70
8
 71
3
 72
8
 73
4
 74
0
 40
0
 40
0
 40
0
 40
0
 40
1
 40
1
 40
1
 40
1
 10
138.822978
 20
46.465514
 30
0.0
 10
138.655790
 20
46.490041
 30
0.0
 10
138.570277
 20
46.414174
 30
0.0
 10
138.619770
 20
46.285203
 30
0.0
  0
SPLINE
  5
2fb
100
AcDbEntity
  8
Image
 62
1
100
AcDbSpline
 70
8
 71
3
 72
8
 73
4
 74
0
 40
0
 40
0
 40
0
 40
0
 40
1
 40
1
 40
1
 40
1
 10
138.619770
 20
46.285203
 30
0.0
 10
138.659616
 20
46.181359
 30
0.0
 10
138.919871
 20
46.183352
 30
0.0
 10
138.959952
 20
46.287849
 30
0.0
  0
LINE
  5
2fc
100
AcDbEntity
  8
Image
 62
1
100
AcDbLine
 10
138.959952
 20
46.287849
 30
0.0
 11
138.959952
 21
46.287804
 31
0.0
  0
SPLINE
  5
2fd
100
AcDbEntity
  8
Image
 62
1
100
AcDbSpline
 70
8
 71
3
 72
8
 73
4
 74
0
 40
0
 40
0
 40
0
 40
0
 40
1
 40
1
 40
1
 40
1
 10
141.371312
 20
46.478055
 30
0.0
 10
141.371312
 20
46.550530
 30
0.0
 10
141.335075
 20
46.586767
 30
0.0
 10
141.262597
 20
46.586767
 30
0.0
  0
SPLINE
  5
2fe
100
AcDbEntity
  8
Image
 62
1
100
AcDbSpline
 70
8
 71
3
 72
8
 73
4
 74
0
 40
0
 40
0
 40
0
 40
0
 40
1
 40
1
 40
1
 40
1
 10
141.262597
 20
46.586767
 30
0.0
 10
141.190123
 20
46.586767
 30
0.0
 10
141.153885
 20
46.550530
 30
0.0
 10
141.153885
 20
46.478055
 30
0.0
  0
SPLINE
  5
2ff
100
AcDbEntity
  8
Image
 62
1
100
AcDbSpline
 70
8
 71
3
 72
8
 73
4
 74
0
 40
0
 40
0
 40
0
 40
0
 40
1
 40
1
 40
1
 40
1
 10
141.153885
 20
46.478055
 30
0.0
 10
141.153885
 20
46.405578
 30
0.0
 10
141.190123
 20
46.369340
 30
0.0
 10
141.262597
 20
46.369340
 30
0.0
  0
SPLINE
  5
300
100
AcDbEntity
  8
Image
 62
1
100
AcDbSpline
 70
8
 71
3
 72
8
 73
4
 74
0
 40
0
 40
0
 40
0
 40
0
 40
1
 40
1
 40
1
 40
1
 10
141.262597
 20
46.369340
 30
0.0
 10
141.335075
 20
46.369340
 30
0.0
 10
141.371312
 20
46.405578
 30
0.0
 10
141.371312
 20
46.478055
 30
0.0
  0
LINE
  5
301
100
AcDbEntity
  8
Image
 62
1
100
AcDbLine
 10
141.371312
 20
46.478055
 30
0.0
 11
141.371312
 21
46.478055
 31
0.0
  0
SPLINE
  5
302
100
AcDbEntity
  8
Image
 62
1
100
AcDbSpline
 70
8
 71
3
 72
8
 73
4
 74
0
 40
0
 40
0
 40
0
 40
0
 40
1
 40
1
 40
1
 40
1
 10
140.121106
 20
46.546392
 30
0.0
 10
140.121106
 20
46.594027
 30
0.0
 10
140.195199
 20
46.608836
 30
0.0
 10
140.365710
 20
46.595276
 30
0.0
  0
SPLINE
  5
303
100
AcDbEntity
  8
Image
 62
1
100
AcDbSpline
 70
8
 71
3
 72
8
 73
4
 74
0
 40
0
 40
0
 40
0
 40
0
 40
1
 40
1
 40
1
 40
1
 10
140.365710
 20
46.595276
 30
0.0
 10
140.597898
 20
46.576808
 30
0.0
 10
140.610315
 20
46.582999
 30
0.0
 10
140.610315
 20
46.717185
 30
0.0
  0
SPLINE
  5
304
100
AcDbEntity
  8
Image
 62
1
100
AcDbSpline
 70
8
 71
3
 72
8
 73
4
 74
0
 40
0
 40
0
 40
0
 40
0
 40
1
 40
1
 40
1
 40
1
 10
140.610315
 20
46.717185
 30
0.0
 10
140.610315
 20
46.846059
 30
0.0
 10
140.590947
 20
46.858552
 30
0.0
 10
140.391184
 20
46.858552
 30
0.0
  0
SPLINE
  5
305
100
AcDbEntity
  8
Image
 62
1
100
AcDbSpline
 70
8
 71
3
 72
8
 73
4
 74
0
 40
0
 40
0
 40
0
 40
0
 40
1
 40
1
 40
1
 40
1
 10
140.391184
 20
46.858552
 30
0.0
 10
140.246542
 20
46.858552
 30
0.0
 10
140.161412
 20
46.830835
 30
0.0
 10
140.140761
 20
46.777016
 30
0.0
  0
SPLINE
  5
306
100
AcDbEntity
  8
Image
 62
1
100
AcDbSpline
 70
8
 71
3
 72
8
 73
4
 74
0
 40
0
 40
0
 40
0
 40
0
 40
1
 40
1
 40
1
 40
1
 10
140.140761
 20
46.777016
 30
0.0
 10
140.119515
 20
46.721662
 30
0.0
 10
140.032798
 20
46.695482
 30
0.0
 10
139.870683
 20
46.695482
 30
0.0
  0
SPLINE
  5
307
100
AcDbEntity
  8
Image
 62
1
100
AcDbSpline
 70
8
 71
3
 72
8
 73
4
 74
0
 40
0
 40
0
 40
0
 40
0
 40
1
 40
1
 40
1
 40
1
 10
139.870683
 20
46.695482
 30
0.0
 10
139.668131
 20
46.695482
 30
0.0
 10
139.631894
 20
46.678972
 30
0.0
 10
139.631894
 20
46.586767
 30
0.0
  0
SPLINE
  5
308
100
AcDbEntity
  8
Image
 62
1
100
AcDbSpline
 70
8
 71
3
 72
8
 73
4
 74
0
 40
0
 40
0
 40
0
 40
0
 40
1
 40
1
 40
1
 40
1
 10
139.631894
 20
46.586767
 30
0.0
 10
139.631894
 20
46.494160
 30
0.0
 10
139.668131
 20
46.478055
 30
0.0
 10
139.876498
 20
46.478055
 30
0.0
  0
SPLINE
  5
309
100
AcDbEntity
  8
Image
 62
1
100
AcDbSpline
 70
8
 71
3
 72
8
 73
4
 74
0
 40
0
 40
0
 40
0
 40
0
 40
1
 40
1
 40
1
 40
1
 10
139.876498
 20
46.478055
 30
0.0
 10
140.036693
 20
46.478055
 30
0.0
 10
140.121106
 20
46.501629
 30
0.0
 10
140.121106
 20
46.546392
 30
0.0
  0
LINE
  5
30a
100
AcDbEntity
  8
Image
 62
1
100
AcDbLine
 10
140.121106
 20
46.546392
 30
0.0
 11
140.121106
 21
46.546392
 31
0.0
  0
SPLINE
  5
30b
100
AcDbEntity
  8
Image
 62
1
100
AcDbSpline
 70
8
 71
3
 72
8
 73
4
 74
0
 40
0
 40
0
 40
0
 40
0
 40
1
 40
1
 40
1
 40
1
 10
141.371312
 20
46.804194
 30
0.0
 10
141.371312
 20
46.834092
 30
0.0
 10
141.456923
 20
46.858552
 30
0.0
 10
141.561561
 20
46.858552
 30
0.0
  0
SPLINE
  5
30c
100
AcDbEntity
  8
Image
 62
1
100
AcDbSpline
 70
8
 71
3
 72
8
 73
4
 74
0
 40
0
 40
0
 40
0
 40
0
 40
1
 40
1
 40
1
 40
1
 10
141.561561
 20
46.858552
 30
0.0
 10
141.715572
 20
46.858552
 30
0.0
 10
141.751809
 20
46.879269
 30
0.0
 10
141.751809
 20
46.967264
 30
0.0
  0
SPLINE
  5
30d
100
AcDbEntity
  8
Image
 62
1
100
AcDbSpline
 70
8
 71
3
 72
8
 73
4
 74
0
 40
0
 40
0
 40
0
 40
0
 40
1
 40
1
 40
1
 40
1
 10
141.751809
 20
46.967264
 30
0.0
 10
141.751809
 20
47.062803
 30
0.0
 10
141.715572
 20
47.075979
 30
0.0
 10
141.452846
 20
47.075979
 30
0.0
  0
SPLINE
  5
30e
100
AcDbEntity
  8
Image
 62
1
100
AcDbSpline
 70
8
 71
3
 72
8
 73
4
 74
0
 40
0
 40
0
 40
0
 40
0
 40
1
 40
1
 40
1
 40
1
 10
141.452846
 20
47.075979
 30
0.0
 10
141.288418
 20
47.075979
 30
0.0
 10
141.153885
 20
47.051531
 30
0.0
 10
141.153885
 20
47.021623
 30
0.0
  0
SPLINE
  5
30f
100
AcDbEntity
  8
Image
 62
1
100
AcDbSpline
 70
8
 71
3
 72
8
 73
4
 74
0
 40
0
 40
0
 40
0
 40
0
 40
1
 40
1
 40
1
 40
1
 10
141.153885
 20
47.021623
 30
0.0
 10
141.153885
 20
46.991725
 30
0.0
 10
141.092732
 20
46.967264
 30
0.0
 10
141.017993
 20
46.967264
 30
0.0
  0
SPLINE
  5
310
100
AcDbEntity
  8
Image
 62
1
100
AcDbSpline
 70
8
 71
3
 72
8
 73
4
 74
0
 40
0
 40
0
 40
0
 40
0
 40
1
 40
1
 40
1
 40
1
 10
141.017993
 20
46.967264
 30
0.0
 10
140.918337
 20
46.967264
 30
0.0
 10
140.882100
 20
46.938274
 30
0.0
 10
140.882100
 20
46.858552
 30
0.0
  0
SPLINE
  5
311
100
AcDbEntity
  8
Image
 62
1
100
AcDbSpline
 70
8
 71
3
 72
8
 73
4
 74
0
 40
0
 40
0
 40
0
 40
0
 40
1
 40
1
 40
1
 40
1
 10
140.882100
 20
46.858552
 30
0.0
 10
140.882100
 20
46.765943
 30
0.0
 10
140.918337
 20
46.749838
 30
0.0
 10
141.126707
 20
46.749838
 30
0.0
  0
SPLINE
  5
312
100
AcDbEntity
  8
Image
 62
1
100
AcDbSpline
 70
8
 71
3
 72
8
 73
4
 74
0
 40
0
 40
0
 40
0
 40
0
 40
1
 40
1
 40
1
 40
1
 10
141.126707
 20
46.749838
 30
0.0
 10
141.261240
 20
46.749838
 30
0.0
 10
141.371312
 20
46.774285
 30
0.0
 10
141.371312
 20
46.804194
 30
0.0
  0
LINE
  5
313
100
AcDbEntity
  8
Image
 62
1
100
AcDbLine
 10
141.371312
 20
46.804194
 30
0.0
 11
141.371312
 21
46.804194
 31
0.0
  0
ENDSEC
  0
SECTION
  2
OBJECTS
  0
DICTIONARY
  5
C
330
0
100
AcDbDictionary
  3
ACAD_GROUP
350
D
  3
ACAD_MLINESTYLE
350
17
  0
DICTIONARY
  5
D
330
C
100
AcDbDictionary
  0
DICTIONARY
  5
1A
330
C
100
AcDbDictionary
  0
DICTIONARY
  5
17
330
C
100
AcDbDictionary
  3
STANDARD
350
18
  0
DICTIONARY
  5
19
330
C
100
AcDbDictionary
  0
ENDSEC
  0
EOF
