999
dxfrw 0.6.3
  0
SECTION
  2
HEADER
  9
$ACADVER
  1
AC1021
  9
$DWGCODEPAGE
  3
ANSI_1252
  9
$INSBASE
 10
0
 20
0
 30
0
  9
$EXTMIN
 10
131.5871497044745
 20
41.75615960978148
 30
0
  9
$EXTMAX
 10
143.0175291321637
 20
74.41746999999999
 30
0
  9
$LIMMIN
 10
0
 20
0
  9
$LIMMAX
 10
420
 20
297
  9
$ORTHOMODE
 70
    0
  9
$REGENMODE
 70
    1
  9
$FILLMODE
 70
    1
  9
$QTEXTMODE
 70
    0
  9
$MIRRTEXT
 70
    0
  9
$LTSCALE
 40
1
  9
$ATTMODE
 70
    0
  9
$TEXTSIZE
 40
2.5
  9
$TRACEWID
 40
15.68
  9
$TEXTSTYLE
  7
STANDARD
  9
$CLAYER
  8
0
  9
$CELTYPE
  6
BYLAYER
  9
$CECOLOR
 62
  256
  9
$CELTSCALE
 40
1
  9
$DISPSILH
 70
    0
  9
$DIMSCALE
 40
2.5
  9
$DIMASZ
 40
2.5
  9
$DIMEXO
 40
0.625
  9
$DIMDLI
 40
3.75
  9
$DIMRND
 40
0
  9
$DIMDLE
 40
0
  9
$DIMEXE
 40
1.25
  9
$DIMTP
 40
0
  9
$DIMTM
 40
0
  9
$DIMTXT
 40
2.5
  9
$DIMCEN
 40
2.5
  9
$DIMTSZ
 40
0
  9
$DIMTOL
 70
    0
  9
$DIMLIM
 70
    0
  9
$DIMTIH
 70
    0
  9
$DIMTOH
 70
    0
  9
$DIMSE1
 70
    0
  9
$DIMSE2
 70
    0
  9
$DIMTAD
 70
    1
  9
$DIMZIN
 70
    8
  9
$DIMBLK
  1

  9
$DIMASO
 70
    1
  9
$DIMSHO
 70
    1
  9
$DIMPOST
  1

  9
$DIMAPOST
  1

  9
$DIMALT
 70
    0
  9
$DIMALTD
 70
    3
  9
$DIMALTF
 40
0.03937
  9
$DIMLFAC
 40
1
  9
$DIMTOFL
 70
    1
  9
$DIMTVP
 40
0
  9
$DIMTIX
 70
    0
  9
$DIMSOXD
 70
    0
  9
$DIMSAH
 70
    0
  9
$DIMBLK1
  1

  9
$DIMBLK2
  1

  9
$DIMSTYLE
  2
Standard
  9
$DIMCLRD
 70
    0
  9
$DIMCLRE
 70
    0
  9
$DIMCLRT
 70
    0
  9
$DIMTFAC
 40
1
  9
$DIMGAP
 40
0.625
  9
$DIMJUST
 70
    0
  9
$DIMSD1
 70
    0
  9
$DIMSD2
 70
    0
  9
$DIMTOLJ
 70
    0
  9
$DIMTZIN
 70
    8
  9
$DIMALTZ
 70
    0
  9
$DIMALTTZ
 70
    0
  9
$DIMUPT
 70
    0
  9
$DIMDEC
 70
    2
  9
$DIMTDEC
 70
    2
  9
$DIMALTU
 70
    2
  9
$DIMALTTD
 70
    3
  9
$DIMTXSTY
  7
STANDARD
  9
$DIMAUNIT
 70
    0
  9
$DIMADEC
 70
    0
  9
$DIMALTRND
 40
0
  9
$DIMAZIN
 70
    0
  9
$DIMDSEP
 70
   44
  9
$DIMATFIT
 70
    3
  9
$DIMFRAC
 70
    0
  9
$DIMLDRBLK
  1
STANDARD
  9
$DIMLUNIT
 70
    2
  9
$DIMLWD
 70
   -2
  9
$DIMLWE
 70
   -2
  9
$DIMTMOVE
 70
    0
  9
$DIMFXL
 40
1
  9
$DIMFXLON
 70
    0
  9
$DIMJOGANG
 40
0.7854
  9
$DIMTFILL
 70
    0
  9
$DIMTFILLCLR
 70
    0
  9
$DIMARCSYM
 70
    0
  9
$DIMLTYPE
  6

  9
$DIMLTEX1
  6

  9
$DIMLTEX2
  6

  9
$LUNITS
 70
    2
  9
$LUPREC
 70
    4
  9
$SKETCHINC
 40
1
  9
$FILLETRAD
 40
0
  9
$AUNITS
 70
    0
  9
$AUPREC
 70
    2
  9
$MENU
  1
.
  9
$ELEVATION
 40
0
  9
$PELEVATION
 40
0
  9
$THICKNESS
 40
0
  9
$LIMCHECK
 70
    0
  9
$CHAMFERA
 40
0
  9
$CHAMFERB
 40
0
  9
$CHAMFERC
 40
0
  9
$CHAMFERD
 40
0
  9
$SKPOLY
 70
    0
  9
$USRTIMER
 70
    1
  9
$ANGBASE
 50
0
  9
$ANGDIR
 70
    0
  9
$PDMODE
 70
   34
  9
$PDSIZE
 40
0
  9
$PLINEWID
 40
0
  9
$SPLFRAME
 70
    0
  9
$SPLINETYPE
 70
    2
  9
$SPLINESEGS
 70
    8
  9
$HANDSEED
  5
20000
  9
$SURFTAB1
 70
    6
  9
$SURFTAB2
 70
    6
  9
$SURFTYPE
 70
    6
  9
$SURFU
 70
    6
  9
$SURFV
 70
    6
  9
$UCSBASE
  2

  9
$UCSNAME
  2

  9
$UCSORG
 10
0
 20
0
 30
0
  9
$UCSXDIR
 10
1
 20
0
 30
0
  9
$UCSYDIR
 10
0
 20
1
 30
0
  9
$UCSORTHOREF
  2

  9
$UCSORTHOVIEW
 70
    0
  9
$UCSORGTOP
 10
0
 20
0
 30
0
  9
$UCSORGBOTTOM
 10
0
 20
0
 30
0
  9
$UCSORGLEFT
 10
0
 20
0
 30
0
  9
$UCSORGRIGHT
 10
0
 20
0
 30
0
  9
$UCSORGFRONT
 10
0
 20
0
 30
0
  9
$UCSORGBACK
 10
0
 20
0
 30
0
  9
$PUCSBASE
  2

  9
$PUCSNAME
  2

  9
$PUCSORG
 10
0
 20
0
 30
0
  9
$PUCSXDIR
 10
1
 20
0
 30
0
  9
$PUCSYDIR
 10
0
 20
1
 30
0
  9
$PUCSORTHOREF
  2

  9
$PUCSORTHOVIEW
 70
    0
  9
$PUCSORGTOP
 10
0
 20
0
 30
0
  9
$PUCSORGBOTTOM
 10
0
 20
0
 30
0
  9
$PUCSORGLEFT
 10
0
 20
0
 30
0
  9
$PUCSORGRIGHT
 10
0
 20
0
 30
0
  9
$PUCSORGFRONT
 10
0
 20
0
 30
0
  9
$PUCSORGBACK
 10
0
 20
0
 30
0
  9
$USERI1
 70
    0
  9
$USERI2
 70
    0
  9
$USERI3
 70
    0
  9
$USERI4
 70
    0
  9
$USERI5
 70
    0
  9
$USERR1
 40
0
  9
$USERR2
 40
0
  9
$USERR3
 40
0
  9
$USERR4
 40
0
  9
$USERR5
 40
0
  9
$WORLDVIEW
 70
    1
  9
$SHADEDGE
 70
    3
  9
$SHADEDIF
 70
   70
  9
$TILEMODE
 70
    1
  9
$MAXACTVP
 70
   64
  9
$PINSBASE
 10
0
 20
0
 30
0
  9
$PLIMCHECK
 70
    0
  9
$PEXTMIN
 10
0
 20
0
 30
0
  9
$PEXTMAX
 10
0
 20
0
 30
0
  9
$GRIDMODE
 70
    0
  9
$SNAPSTYLE
 70
    0
  9
$PLIMMIN
 10
0
 20
0
  9
$PLIMMAX
 10
297
 20
210
  9
$UNITMODE
 70
    0
  9
$VISRETAIN
 70
    1
  9
$PLINEGEN
 70
    0
  9
$PSLTSCALE
 70
    1
  9
$TREEDEPTH
 70
 3020
  9
$CMLSTYLE
  2
Standard
  9
$CMLJUST
 70
    0
  9
$CMLSCALE
 40
20
  9
$PROXYGRAPHICS
 70
    1
  9
$MEASUREMENT
 70
    1
  9
$CELWEIGHT
370
   -1
  9
$ENDCAPS
280
    0
  9
$JOINSTYLE
280
    0
  9
$LWDISPLAY
290
    0
  9
$INSUNITS
 70
    4
  9
$HYPERLINKBASE
  1

  9
$STYLESHEET
  1

  9
$XEDIT
290
    1
  9
$CEPSNTYPE
380
    0
  9
$PSTYLEMODE
290
    1
  9
$EXTNAMES
290
    1
  9
$PSVPSCALE
 40
1
  9
$OLESTARTUP
290
    0
  9
$SORTENTS
280
  127
  9
$INDEXCTL
280
    0
  9
$HIDETEXT
280
    1
  9
$XCLIPFRAME
290
    0
  9
$HALOGAP
280
    0
  9
$OBSCOLOR
 70
  257
  9
$OBSLTYPE
280
    0
  9
$INTERSECTIONDISPLAY
280
    0
  9
$INTERSECTIONCOLOR
 70
  257
  9
$DIMASSOC
280
    1
  9
$PROJECTNAME
  1

  9
$CAMERADISPLAY
290
    0
  9
$LENSLENGTH
 40
50
  9
$CAMERAHEIGHT
 40
0
  9
$STEPSPERSEC
 40
2
  9
$STEPSIZE
 40
50
  9
$3DDWFPREC
 40
2
  9
$PSOLWIDTH
 40
5
  9
$PSOLHEIGHT
 40
80
  9
$LOFTANG1
 40
1.570796326794897
  9
$LOFTANG2
 40
1.570796326794897
  9
$LOFTMAG1
 40
0
  9
$LOFTMAG2
 40
0
  9
$LOFTPARAM
 70
    7
  9
$LOFTNORMALS
280
    1
  9
$LATITUDE
 40
1
  9
$LONGITUDE
 40
1
  9
$NORTHDIRECTION
 40
0
  9
$TIMEZONE
 70
-8000
  9
$LIGHTGLYPHDISPLAY
280
    1
  9
$TILEMODELIGHTSYNCH
280
    1
  9
$SOLIDHIST
280
    1
  9
$SHOWHIST
280
    1
  9
$DWFFRAME
280
    2
  9
$DGNFRAME
280
    0
  9
$REALWORLDSCALE
290
    1
  9
$INTERFERECOLOR
 62
    1
  9
$CSHADOW
280
    0
  9
$SHADOWPLANELOCATION
 40
0
  0
ENDSEC
  0
SECTION
  2
CLASSES
  0
ENDSEC
  0
SECTION
  2
TABLES
  0
TABLE
  2
VPORT
  5
8
330
0
100
AcDbSymbolTable
 70
    1
  0
VPORT
  5
31
330
2
100
AcDbSymbolTableRecord
100
AcDbViewportTableRecord
  2
*ACTIVE
 70
    0
 10
0
 20
0
 11
1
 21
1
 12
89.04399212095836
 22
42.79633729844511
 13
0
 23
0
 14
10
 24
10
 15
10
 25
10
 16
0
 26
0
 36
1
 17
0
 27
0
 37
0
 40
49.69897234658141
 41
1.703703703703704
 42
50
 43
0
 44
0
 50
0
 51
0
 71
    0
 72
  100
 73
    1
 74
    3
 75
    0
 76
    0
 77
    0
 78
    0
281
    0
 65
    1
110
0
120
0
130
0
111
1
121
0
131
0
112
0
122
1
132
0
 79
    0
146
0
348
10020
 60
    7
 61
    5
292
1
282
    1
141
0
142
0
 63
  250
421
3358443
  0
ENDTAB
  0
TABLE
  2
LTYPE
  5
5
330
0
100
AcDbSymbolTable
 70
    4
  0
LTYPE
  5
14
330
5
100
AcDbSymbolTableRecord
100
AcDbLinetypeTableRecord
  2
ByBlock
 70
    0
  3

 72
   65
 73
    0
 40
0
  0
LTYPE
  5
15
330
5
100
AcDbSymbolTableRecord
100
AcDbLinetypeTableRecord
  2
ByLayer
 70
    0
  3

 72
   65
 73
    0
 40
0
  0
LTYPE
  5
16
330
5
100
AcDbSymbolTableRecord
100
AcDbLinetypeTableRecord
  2
Continuous
 70
    0
  3
Solid line
 72
   65
 73
    0
 40
0
  0
LTYPE
  5
32
330
5
100
AcDbSymbolTableRecord
100
AcDbLinetypeTableRecord
  2
DOT
 70
    0
  3
Dot . . . . . . . . . . . . . . . . . . . . . .
 72
   65
 73
    2
 40
6.35
 49
0
 74
    0
 49
-6.35
 74
    0
  0
LTYPE
  5
33
330
5
100
AcDbSymbolTableRecord
100
AcDbLinetypeTableRecord
  2
DOTTINY
 70
    0
  3
Dot (.15x) .....................................
 72
   65
 73
    2
 40
0.9525
 49
0
 74
    0
 49
-0.9525
 74
    0
  0
LTYPE
  5
34
330
5
100
AcDbSymbolTableRecord
100
AcDbLinetypeTableRecord
  2
DOT2
 70
    0
  3
Dot (.5x) .....................................
 72
   65
 73
    2
 40
3.175
 49
0
 74
    0
 49
-3.175
 74
    0
  0
LTYPE
  5
35
330
5
100
AcDbSymbolTableRecord
100
AcDbLinetypeTableRecord
  2
DOTX2
 70
    0
  3
Dot (2x) .  .  .  .  .  .  .  .  .  .  .  .  .
 72
   65
 73
    2
 40
12.7
 49
0
 74
    0
 49
-12.7
 74
    0
  0
LTYPE
  5
36
330
5
100
AcDbSymbolTableRecord
100
AcDbLinetypeTableRecord
  2
DASHED
 70
    0
  3
Dashed _ _ _ _ _ _ _ _ _ _ _ _ _ _ _ _ _
 72
   65
 73
    2
 40
19.05
 49
12.7
 74
    0
 49
-6.35
 74
    0
  0
LTYPE
  5
37
330
5
100
AcDbSymbolTableRecord
100
AcDbLinetypeTableRecord
  2
DASHEDTINY
 70
    0
  3
Dashed (.15x) _ _ _ _ _ _ _ _ _ _ _ _ _ _ _ _ _
 72
   65
 73
    2
 40
2.8575
 49
1.905
 74
    0
 49
-0.9525
 74
    0
  0
LTYPE
  5
38
330
5
100
AcDbSymbolTableRecord
100
AcDbLinetypeTableRecord
  2
DASHED2
 70
    0
  3
Dashed (.5x) _ _ _ _ _ _ _ _ _ _ _ _ _ _ _ _ _
 72
   65
 73
    2
 40
9.524999999999999
 49
6.35
 74
    0
 49
-3.175
 74
    0
  0
LTYPE
  5
39
330
5
100
AcDbSymbolTableRecord
100
AcDbLinetypeTableRecord
  2
DASHEDX2
 70
    0
  3
Dashed (2x) ____  ____  ____  ____  ____  ___
 72
   65
 73
    2
 40
38.09999999999999
 49
25.4
 74
    0
 49
-12.7
 74
    0
  0
LTYPE
  5
3A
330
5
100
AcDbSymbolTableRecord
100
AcDbLinetypeTableRecord
  2
DASHDOT
 70
    0
  3
Dash dot __ . __ . __ . __ . __ . __ . __ . __
 72
   65
 73
    4
 40
25.4
 49
12.7
 74
    0
 49
-6.35
 74
    0
 49
0
 74
    0
 49
-6.35
 74
    0
  0
LTYPE
  5
3B
330
5
100
AcDbSymbolTableRecord
100
AcDbLinetypeTableRecord
  2
DASHDOTTINY
 70
    0
  3
Dash dot (.15x) _._._._._._._._._._._._._._._.
 72
   65
 73
    4
 40
3.81
 49
1.905
 74
    0
 49
-0.9525
 74
    0
 49
0
 74
    0
 49
-0.9525
 74
    0
  0
LTYPE
  5
3C
330
5
100
AcDbSymbolTableRecord
100
AcDbLinetypeTableRecord
  2
DASHDOT2
 70
    0
  3
Dash dot (.5x) _._._._._._._._._._._._._._._.
 72
   65
 73
    4
 40
12.7
 49
6.35
 74
    0
 49
-3.175
 74
    0
 49
0
 74
    0
 49
-3.175
 74
    0
  0
LTYPE
  5
3D
330
5
100
AcDbSymbolTableRecord
100
AcDbLinetypeTableRecord
  2
DASHDOTX2
 70
    0
  3
Dash dot (2x) ____  .  ____  .  ____  .  ___
 72
   65
 73
    4
 40
50.8
 49
25.4
 74
    0
 49
-12.7
 74
    0
 49
0
 74
    0
 49
-12.7
 74
    0
  0
LTYPE
  5
3E
330
5
100
AcDbSymbolTableRecord
100
AcDbLinetypeTableRecord
  2
DIVIDE
 70
    0
  3
Divide ____ . . ____ . . ____ . . ____ . . ____
 72
   65
 73
    6
 40
31.75
 49
12.7
 74
    0
 49
-6.35
 74
    0
 49
0
 74
    0
 49
-6.35
 74
    0
 49
0
 74
    0
 49
-6.35
 74
    0
  0
LTYPE
  5
3F
330
5
100
AcDbSymbolTableRecord
100
AcDbLinetypeTableRecord
  2
DIVIDETINY
 70
    0
  3
Divide (.15x) __..__..__..__..__..__..__..__.._
 72
   65
 73
    6
 40
4.7625
 49
1.905
 74
    0
 49
-0.9525
 74
    0
 49
0
 74
    0
 49
-0.9525
 74
    0
 49
0
 74
    0
 49
-0.9525
 74
    0
  0
LTYPE
  5
40
330
5
100
AcDbSymbolTableRecord
100
AcDbLinetypeTableRecord
  2
DIVIDE2
 70
    0
  3
Divide (.5x) __..__..__..__..__..__..__..__.._
 72
   65
 73
    6
 40
15.875
 49
6.35
 74
    0
 49
-3.175
 74
    0
 49
0
 74
    0
 49
-3.175
 74
    0
 49
0
 74
    0
 49
-3.175
 74
    0
  0
LTYPE
  5
41
330
5
100
AcDbSymbolTableRecord
100
AcDbLinetypeTableRecord
  2
DIVIDEX2
 70
    0
  3
Divide (2x) ________  .  .  ________  .  .  _
 72
   65
 73
    6
 40
63.5
 49
25.4
 74
    0
 49
-12.7
 74
    0
 49
0
 74
    0
 49
-12.7
 74
    0
 49
0
 74
    0
 49
-12.7
 74
    0
  0
LTYPE
  5
42
330
5
100
AcDbSymbolTableRecord
100
AcDbLinetypeTableRecord
  2
BORDER
 70
    0
  3
Border __ __ . __ __ . __ __ . __ __ . __ __ .
 72
   65
 73
    6
 40
44.45
 49
12.7
 74
    0
 49
-6.35
 74
    0
 49
12.7
 74
    0
 49
-6.35
 74
    0
 49
0
 74
    0
 49
-6.35
 74
    0
  0
LTYPE
  5
43
330
5
100
AcDbSymbolTableRecord
100
AcDbLinetypeTableRecord
  2
BORDERTINY
 70
    0
  3
Border (.15x) __.__.__.__.__.__.__.__.__.__.__.
 72
   65
 73
    6
 40
6.6675
 49
1.905
 74
    0
 49
-0.9525
 74
    0
 49
1.905
 74
    0
 49
-0.9525
 74
    0
 49
0
 74
    0
 49
-0.9525
 74
    0
  0
LTYPE
  5
44
330
5
100
AcDbSymbolTableRecord
100
AcDbLinetypeTableRecord
  2
BORDER2
 70
    0
  3
Border (.5x) __.__.__.__.__.__.__.__.__.__.__.
 72
   65
 73
    6
 40
22.225
 49
6.35
 74
    0
 49
-3.175
 74
    0
 49
6.35
 74
    0
 49
-3.175
 74
    0
 49
0
 74
    0
 49
-3.175
 74
    0
  0
LTYPE
  5
45
330
5
100
AcDbSymbolTableRecord
100
AcDbLinetypeTableRecord
  2
BORDERX2
 70
    0
  3
Border (2x) ____  ____  .  ____  ____  .  ___
 72
   65
 73
    6
 40
88.89999999999999
 49
25.4
 74
    0
 49
-12.7
 74
    0
 49
25.4
 74
    0
 49
-12.7
 74
    0
 49
0
 74
    0
 49
-12.7
 74
    0
  0
LTYPE
  5
46
330
5
100
AcDbSymbolTableRecord
100
AcDbLinetypeTableRecord
  2
CENTER
 70
    0
  3
Center ____ _ ____ _ ____ _ ____ _ ____ _ ____
 72
   65
 73
    4
 40
50.8
 49
31.75
 74
    0
 49
-6.35
 74
    0
 49
6.35
 74
    0
 49
-6.35
 74
    0
  0
LTYPE
  5
47
330
5
100
AcDbSymbolTableRecord
100
AcDbLinetypeTableRecord
  2
CENTERTINY
 70
    0
  3
Center (.15x) ___ _ ___ _ ___ _ ___ _ ___ _ ___
 72
   65
 73
    4
 40
7.619999999999999
 49
4.7625
 74
    0
 49
-0.9525
 74
    0
 49
0.9525
 74
    0
 49
-0.9525
 74
    0
  0
LTYPE
  5
48
330
5
100
AcDbSymbolTableRecord
100
AcDbLinetypeTableRecord
  2
CENTER2
 70
    0
  3
Center (.5x) ___ _ ___ _ ___ _ ___ _ ___ _ ___
 72
   65
 73
    4
 40
28.575
 49
19.05
 74
    0
 49
-3.175
 74
    0
 49
3.175
 74
    0
 49
-3.175
 74
    0
  0
LTYPE
  5
49
330
5
100
AcDbSymbolTableRecord
100
AcDbLinetypeTableRecord
  2
CENTERX2
 70
    0
  3
Center (2x) ________  __  ________  __  _____
 72
   65
 73
    4
 40
101.6
 49
63.5
 74
    0
 49
-12.7
 74
    0
 49
12.7
 74
    0
 49
-12.7
 74
    0
  0
ENDTAB
  0
TABLE
  2
LAYER
  5
2
330
0
100
AcDbSymbolTable
 70
    1
  0
LAYER
  5
10
330
2
100
AcDbSymbolTableRecord
100
AcDbLayerTableRecord
  2
0
 70
    4
 62
    7
  6
CONTINUOUS
370
   -3
390
F
  0
LAYER
  5
4A
330
2
100
AcDbSymbolTableRecord
100
AcDbLayerTableRecord
  2
Guides0
 70
    5
 62
    3
  6
CONTINUOUS
370
    0
390
F
1001
LibreCad
1070
    1
  0
LAYER
  5
4B
330
2
100
AcDbSymbolTableRecord
100
AcDbLayerTableRecord
  2
Guides1
 70
    5
 62
    3
  6
CONTINUOUS
370
    0
390
F
1001
LibreCad
1070
    1
  0
LAYER
  5
4C
330
2
100
AcDbSymbolTableRecord
100
AcDbLayerTableRecord
  2
Image
 70
    0
 62
    7
  6
CONTINUOUS
370
   -3
390
F
  0
ENDTAB
  0
TABLE
  2
STYLE
  5
3
330
0
100
AcDbSymbolTable
 70
    3
  0
STYLE
  5
4D
330
2
100
AcDbSymbolTableRecord
100
AcDbTextStyleTableRecord
  2
Standard
 70
    0
 40
0
 41
1
 50
0
 71
    0
 42
1
  3
txt
  4

  0
ENDTAB
  0
TABLE
  2
VIEW
  5
6
330
0
100
AcDbSymbolTable
 70
    0
  0
ENDTAB
  0
TABLE
  2
UCS
  5
7
330
0
100
AcDbSymbolTable
 70
    0
  0
ENDTAB
  0
TABLE
  2
APPID
  5
9
330
0
100
AcDbSymbolTable
 70
    1
  0
APPID
  5
12
330
9
100
AcDbSymbolTableRecord
100
AcDbRegAppTableRecord
  2
ACAD
 70
    0
  0
APPID
  5
4E
330
9
100
AcDbSymbolTableRecord
100
AcDbRegAppTableRecord
  2
LibreCad
 70
    0
  0
ENDTAB
  0
TABLE
  2
DIMSTYLE
  5
A
330
0
100
AcDbSymbolTable
 70
    1
100
AcDbDimStyleTable
 71
    1
  0
DIMSTYLE
105
4F
330
A
100
AcDbSymbolTableRecord
100
AcDbDimStyleTableRecord
  2
Standard
 70
    0
 40
1
 41
2.5
 42
0.625
 43
0.38
 44
1.25
 45
0
 46
0
 47
0
 48
0
 49
1
140
2.5
141
0.09
142
2.5
143
25.4
144
1
145
0
146
1
147
0.625
148
0
 71
    0
 72
    0
 73
    0
 74
    1
 75
    0
 76
    0
 77
    0
 78
    1
 79
    0
170
    0
171
    2
172
    0
173
    0
174
    0
175
    0
176
    0
177
    0
178
    0
179
    0
271
    2
272
    4
273
    2
274
    2
275
    0
276
    0
277
    2
278
    0
279
    0
280
    0
281
    0
282
    0
283
    1
284
    0
285
    0
286
    0
288
    0
289
    3
340
standard
341

371
   -2
372
   -2
  0
ENDTAB
  0
TABLE
  2
BLOCK_RECORD
  5
1
330
0
100
AcDbSymbolTable
 70
    2
  0
BLOCK_RECORD
  5
1F
330
1
100
AcDbSymbolTableRecord
100
AcDbBlockTableRecord
  2
*Model_Space
 70
    0
280
    1
281
    0
  0
BLOCK_RECORD
  5
1E
330
1
100
AcDbSymbolTableRecord
100
AcDbBlockTableRecord
  2
*Paper_Space
 70
    0
280
    1
281
    0
  0
ENDTAB
  0
ENDSEC
  0
SECTION
  2
BLOCKS
  0
BLOCK
  5
20
330
1F
100
AcDbEntity
  8
0
100
AcDbBlockBegin
  2
*Model_Space
 70
    0
 10
0
 20
0
 30
0
  3
*Model_Space
  1

  0
ENDBLK
  5
21
330
1F
100
AcDbEntity
  8
0
100
AcDbBlockEnd
  0
BLOCK
  5
1C
330
1B
100
AcDbEntity
  8
0
100
AcDbBlockBegin
  2
*Paper_Space
 70
    0
 10
0
 20
0
 30
0
  3
*Paper_Space
  1

  0
ENDBLK
  5
1D
330
1F
100
AcDbEntity
  8
0
100
AcDbBlockEnd
  0
ENDSEC
  0
SECTION
  2
ENTITIES
  0
SPLINE
  5
50
100
AcDbEntity
  8
Image
  6
ByLayer
 62
    1
370
   -1
100
AcDbSpline
210
0
220
0
230
0
 70
    8
 71
    3
 72
    8
 73
    4
 74
    0
 42
1e-07
 43
1e-07
 40
0
 40
0
 40
0
 40
0
 40
1
 40
1
 40
1
 40
1
 10
134.794133
 20
56.805854
 30
0
 10
134.794133
 20
56.835749
 30
0
 10
134.757443
 20
56.86021
 30
0
 10
134.712599
 20
56.86021
 30
0
  0
SPLINE
  5
51
100
AcDbEntity
  8
Image
  6
ByLayer
 62
    1
370
   -1
100
AcDbSpline
210
0
220
0
230
0
 70
    8
 71
    3
 72
    8
 73
    4
 74
    0
 42
1e-07
 43
1e-07
 40
0
 40
0
 40
0
 40
0
 40
1
 40
1
 40
1
 40
1
 10
134.712599
 20
56.86021
 30
0
 10
134.650993
 20
56.86021
 30
0
 10
134.631062
 20
56.926647
 30
0
 10
134.631062
 20
57.131995
 30
0
  0
SPLINE
  5
52
100
AcDbEntity
  8
Image
  6
ByLayer
 62
    1
370
   -1
100
AcDbSpline
210
0
220
0
230
0
 70
    8
 71
    3
 72
    8
 73
    4
 74
    0
 42
1e-07
 43
1e-07
 40
0
 40
0
 40
0
 40
0
 40
1
 40
1
 40
1
 40
1
 10
134.631062
 20
57.131995
 30
0
 10
134.631062
 20
57.281477
 30
0
 10
134.606615
 20
57.40378
 30
0
 10
134.576706
 20
57.40378
 30
0
  0
SPLINE
  5
53
100
AcDbEntity
  8
Image
  6
ByLayer
 62
    1
370
   -1
100
AcDbSpline
210
0
220
0
230
0
 70
    8
 71
    3
 72
    8
 73
    4
 74
    0
 42
1e-07
 43
1e-07
 40
0
 40
0
 40
0
 40
0
 40
1
 40
1
 40
1
 40
1
 10
134.576706
 20
57.40378
 30
0
 10
134.546811
 20
57.40378
 30
0
 10
134.52235
 20
57.513852
 30
0
 10
134.52235
 20
57.648385
 30
0
  0
SPLINE
  5
54
100
AcDbEntity
  8
Image
  6
ByLayer
 62
    1
370
   -1
100
AcDbSpline
210
0
220
0
230
0
 70
    8
 71
    3
 72
    8
 73
    4
 74
    0
 42
1e-07
 43
1e-07
 40
0
 40
0
 40
0
 40
0
 40
1
 40
1
 40
1
 40
1
 10
134.52235
 20
57.648385
 30
0
 10
134.52235
 20
57.782918
 30
0
 10
134.497903
 20
57.89299
 30
0
 10
134.467992
 20
57.89299
 30
0
  0
SPLINE
  5
55
100
AcDbEntity
  8
Image
  6
ByLayer
 62
    1
370
   -1
100
AcDbSpline
210
0
220
0
230
0
 70
    8
 71
    3
 72
    8
 73
    4
 74
    0
 42
1e-07
 43
1e-07
 40
0
 40
0
 40
0
 40
0
 40
1
 40
1
 40
1
 40
1
 10
134.467992
 20
57.89299
 30
0
 10
134.438096
 20
57.89299
 30
0
 10
134.413636
 20
58.028292
 30
0
 10
134.413636
 20
58.19366
 30
0
  0
SPLINE
  5
56
100
AcDbEntity
  8
Image
  6
ByLayer
 62
    1
370
   -1
100
AcDbSpline
210
0
220
0
230
0
 70
    8
 71
    3
 72
    8
 73
    4
 74
    0
 42
1e-07
 43
1e-07
 40
0
 40
0
 40
0
 40
0
 40
1
 40
1
 40
1
 40
1
 10
134.413636
 20
58.19366
 30
0
 10
134.413636
 20
58.410777
 30
0
 10
134.390987
 20
58.503024
 30
0
 10
134.332102
 20
58.525616
 30
0
  0
SPLINE
  5
57
100
AcDbEntity
  8
Image
  6
ByLayer
 62
    1
370
   -1
100
AcDbSpline
210
0
220
0
230
0
 70
    8
 71
    3
 72
    8
 73
    4
 74
    0
 42
1e-07
 43
1e-07
 40
0
 40
0
 40
0
 40
0
 40
1
 40
1
 40
1
 40
1
 10
134.332102
 20
58.525616
 30
0
 10
134.27357
 20
58.54808
 30
0
 10
134.250565
 20
58.63962
 30
0
 10
134.250565
 20
58.850051
 30
0
  0
SPLINE
  5
58
100
AcDbEntity
  8
Image
  6
ByLayer
 62
    1
370
   -1
100
AcDbSpline
210
0
220
0
230
0
 70
    8
 71
    3
 72
    8
 73
    4
 74
    0
 42
1e-07
 43
1e-07
 40
0
 40
0
 40
0
 40
0
 40
1
 40
1
 40
1
 40
1
 10
134.250565
 20
58.850051
 30
0
 10
134.250565
 20
59.011283
 30
0
 10
134.226117
 20
59.143199
 30
0
 10
134.196209
 20
59.143199
 30
0
  0
SPLINE
  5
59
100
AcDbEntity
  8
Image
  6
ByLayer
 62
    1
370
   -1
100
AcDbSpline
210
0
220
0
230
0
 70
    8
 71
    3
 72
    8
 73
    4
 74
    0
 42
1e-07
 43
1e-07
 40
0
 40
0
 40
0
 40
0
 40
1
 40
1
 40
1
 40
1
 10
134.196209
 20
59.143199
 30
0
 10
134.166311
 20
59.143199
 30
0
 10
134.141853
 20
59.2655
 30
0
 10
134.141853
 20
59.414981
 30
0
  0
SPLINE
  5
5A
100
AcDbEntity
  8
Image
  6
ByLayer
 62
    1
370
   -1
100
AcDbSpline
210
0
220
0
230
0
 70
    8
 71
    3
 72
    8
 73
    4
 74
    0
 42
1e-07
 43
1e-07
 40
0
 40
0
 40
0
 40
0
 40
1
 40
1
 40
1
 40
1
 10
134.141853
 20
59.414981
 30
0
 10
134.141853
 20
59.564463
 30
0
 10
134.117379
 20
59.686767
 30
0
 10
134.087494
 20
59.686767
 30
0
  0
SPLINE
  5
5B
100
AcDbEntity
  8
Image
  6
ByLayer
 62
    1
370
   -1
100
AcDbSpline
210
0
220
0
230
0
 70
    8
 71
    3
 72
    8
 73
    4
 74
    0
 42
1e-07
 43
1e-07
 40
0
 40
0
 40
0
 40
0
 40
1
 40
1
 40
1
 40
1
 10
134.087494
 20
59.686767
 30
0
 10
134.057599
 20
59.686767
 30
0
 10
134.033138
 20
59.821299
 30
0
 10
134.033138
 20
59.98573
 30
0
  0
SPLINE
  5
5C
100
AcDbEntity
  8
Image
  6
ByLayer
 62
    1
370
   -1
100
AcDbSpline
210
0
220
0
230
0
 70
    8
 71
    3
 72
    8
 73
    4
 74
    0
 42
1e-07
 43
1e-07
 40
0
 40
0
 40
0
 40
0
 40
1
 40
1
 40
1
 40
1
 10
134.033138
 20
59.98573
 30
0
 10
134.033138
 20
60.215235
 30
0
 10
134.014194
 20
60.284691
 30
0
 10
133.951602
 20
60.284691
 30
0
  0
SPLINE
  5
5D
100
AcDbEntity
  8
Image
  6
ByLayer
 62
    1
370
   -1
100
AcDbSpline
210
0
220
0
230
0
 70
    8
 71
    3
 72
    8
 73
    4
 74
    0
 42
1e-07
 43
1e-07
 40
0
 40
0
 40
0
 40
0
 40
1
 40
1
 40
1
 40
1
 10
133.951602
 20
60.284691
 30
0
 10
133.889999
 20
60.284691
 30
0
 10
133.870068
 20
60.351128
 30
0
 10
133.870068
 20
60.556476
 30
0
  0
SPLINE
  5
5E
100
AcDbEntity
  8
Image
  6
ByLayer
 62
    1
370
   -1
100
AcDbSpline
210
0
220
0
230
0
 70
    8
 71
    3
 72
    8
 73
    4
 74
    0
 42
1e-07
 43
1e-07
 40
0
 40
0
 40
0
 40
0
 40
1
 40
1
 40
1
 40
1
 10
133.870068
 20
60.556476
 30
0
 10
133.870068
 20
60.705958
 30
0
 10
133.845594
 20
60.828261
 30
0
 10
133.815712
 20
60.828261
 30
0
  0
SPLINE
  5
5F
100
AcDbEntity
  8
Image
  6
ByLayer
 62
    1
370
   -1
100
AcDbSpline
210
0
220
0
230
0
 70
    8
 71
    3
 72
    8
 73
    4
 74
    0
 42
1e-07
 43
1e-07
 40
0
 40
0
 40
0
 40
0
 40
1
 40
1
 40
1
 40
1
 10
133.815712
 20
60.828261
 30
0
 10
133.785814
 20
60.828261
 30
0
 10
133.761353
 20
60.962794
 30
0
 10
133.761353
 20
61.127222
 30
0
  0
SPLINE
  5
60
100
AcDbEntity
  8
Image
  6
ByLayer
 62
    1
370
   -1
100
AcDbSpline
210
0
220
0
230
0
 70
    8
 71
    3
 72
    8
 73
    4
 74
    0
 42
1e-07
 43
1e-07
 40
0
 40
0
 40
0
 40
0
 40
1
 40
1
 40
1
 40
1
 10
133.761353
 20
61.127222
 30
0
 10
133.761353
 20
61.291653
 30
0
 10
133.736906
 20
61.426185
 30
0
 10
133.706997
 20
61.426185
 30
0
  0
SPLINE
  5
61
100
AcDbEntity
  8
Image
  6
ByLayer
 62
    1
370
   -1
100
AcDbSpline
210
0
220
0
230
0
 70
    8
 71
    3
 72
    8
 73
    4
 74
    0
 42
1e-07
 43
1e-07
 40
0
 40
0
 40
0
 40
0
 40
1
 40
1
 40
1
 40
1
 10
133.706997
 20
61.426185
 30
0
 10
133.676797
 20
61.426185
 30
0
 10
133.652641
 20
61.571137
 30
0
 10
133.652641
 20
61.752327
 30
0
  0
SPLINE
  5
62
100
AcDbEntity
  8
Image
  6
ByLayer
 62
    1
370
   -1
100
AcDbSpline
210
0
220
0
230
0
 70
    8
 71
    3
 72
    8
 73
    4
 74
    0
 42
1e-07
 43
1e-07
 40
0
 40
0
 40
0
 40
0
 40
1
 40
1
 40
1
 40
1
 10
133.652641
 20
61.752327
 30
0
 10
133.652641
 20
62.005993
 30
0
 10
133.634517
 20
62.078468
 30
0
 10
133.571104
 20
62.078468
 30
0
  0
SPLINE
  5
63
100
AcDbEntity
  8
Image
  6
ByLayer
 62
    1
370
   -1
100
AcDbSpline
210
0
220
0
230
0
 70
    8
 71
    3
 72
    8
 73
    4
 74
    0
 42
1e-07
 43
1e-07
 40
0
 40
0
 40
0
 40
0
 40
1
 40
1
 40
1
 40
1
 10
133.571104
 20
62.078468
 30
0
 10
133.510708
 20
62.078468
 30
0
 10
133.48957
 20
62.141883
 30
0
 10
133.48957
 20
62.323072
 30
0
  0
SPLINE
  5
64
100
AcDbEntity
  8
Image
  6
ByLayer
 62
    1
370
   -1
100
AcDbSpline
210
0
220
0
230
0
 70
    8
 71
    3
 72
    8
 73
    4
 74
    0
 42
1e-07
 43
1e-07
 40
0
 40
0
 40
0
 40
0
 40
1
 40
1
 40
1
 40
1
 10
133.48957
 20
62.323072
 30
0
 10
133.48957
 20
62.457608
 30
0
 10
133.465123
 20
62.56768
 30
0
 10
133.435212
 20
62.56768
 30
0
  0
SPLINE
  5
65
100
AcDbEntity
  8
Image
  6
ByLayer
 62
    1
370
   -1
100
AcDbSpline
210
0
220
0
230
0
 70
    8
 71
    3
 72
    8
 73
    4
 74
    0
 42
1e-07
 43
1e-07
 40
0
 40
0
 40
0
 40
0
 40
1
 40
1
 40
1
 40
1
 10
133.435212
 20
62.56768
 30
0
 10
133.405316
 20
62.56768
 30
0
 10
133.380856
 20
62.689983
 30
0
 10
133.380856
 20
62.839462
 30
0
  0
SPLINE
  5
66
100
AcDbEntity
  8
Image
  6
ByLayer
 62
    1
370
   -1
100
AcDbSpline
210
0
220
0
230
0
 70
    8
 71
    3
 72
    8
 73
    4
 74
    0
 42
1e-07
 43
1e-07
 40
0
 40
0
 40
0
 40
0
 40
1
 40
1
 40
1
 40
1
 10
133.380856
 20
62.839462
 30
0
 10
133.380856
 20
62.988944
 30
0
 10
133.356408
 20
63.111248
 30
0
 10
133.3265
 20
63.111248
 30
0
  0
SPLINE
  5
67
100
AcDbEntity
  8
Image
  6
ByLayer
 62
    1
370
   -1
100
AcDbSpline
210
0
220
0
230
0
 70
    8
 71
    3
 72
    8
 73
    4
 74
    0
 42
1e-07
 43
1e-07
 40
0
 40
0
 40
0
 40
0
 40
1
 40
1
 40
1
 40
1
 10
133.3265
 20
63.111248
 30
0
 10
133.296602
 20
63.111248
 30
0
 10
133.272141
 20
63.24578
 30
0
 10
133.272141
 20
63.410211
 30
0
  0
SPLINE
  5
68
100
AcDbEntity
  8
Image
  6
ByLayer
 62
    1
370
   -1
100
AcDbSpline
210
0
220
0
230
0
 70
    8
 71
    3
 72
    8
 73
    4
 74
    0
 42
1e-07
 43
1e-07
 40
0
 40
0
 40
0
 40
0
 40
1
 40
1
 40
1
 40
1
 10
133.272141
 20
63.410211
 30
0
 10
133.272141
 20
63.639716
 30
0
 10
133.253197
 20
63.709174
 30
0
 10
133.190607
 20
63.709174
 30
0
  0
SPLINE
  5
69
100
AcDbEntity
  8
Image
  6
ByLayer
 62
    1
370
   -1
100
AcDbSpline
210
0
220
0
230
0
 70
    8
 71
    3
 72
    8
 73
    4
 74
    0
 42
1e-07
 43
1e-07
 40
0
 40
0
 40
0
 40
0
 40
1
 40
1
 40
1
 40
1
 10
133.190607
 20
63.709174
 30
0
 10
133.128015
 20
63.709174
 30
0
 10
133.10907
 20
63.77863
 30
0
 10
133.10907
 20
64.008135
 30
0
  0
SPLINE
  5
6A
100
AcDbEntity
  8
Image
  6
ByLayer
 62
    1
370
   -1
100
AcDbSpline
210
0
220
0
230
0
 70
    8
 71
    3
 72
    8
 73
    4
 74
    0
 42
1e-07
 43
1e-07
 40
0
 40
0
 40
0
 40
0
 40
1
 40
1
 40
1
 40
1
 10
133.10907
 20
64.008135
 30
0
 10
133.10907
 20
64.172566
 30
0
 10
133.084623
 20
64.307098
 30
0
 10
133.054714
 20
64.307098
 30
0
  0
SPLINE
  5
6B
100
AcDbEntity
  8
Image
  6
ByLayer
 62
    1
370
   -1
100
AcDbSpline
210
0
220
0
230
0
 70
    8
 71
    3
 72
    8
 73
    4
 74
    0
 42
1e-07
 43
1e-07
 40
0
 40
0
 40
0
 40
0
 40
1
 40
1
 40
1
 40
1
 10
133.054714
 20
64.307098
 30
0
 10
133.024819
 20
64.307098
 30
0
 10
133.000358
 20
64.429402
 30
0
 10
133.000358
 20
64.578884
 30
0
  0
SPLINE
  5
6C
100
AcDbEntity
  8
Image
  6
ByLayer
 62
    1
370
   -1
100
AcDbSpline
210
0
220
0
230
0
 70
    8
 71
    3
 72
    8
 73
    4
 74
    0
 42
1e-07
 43
1e-07
 40
0
 40
0
 40
0
 40
0
 40
1
 40
1
 40
1
 40
1
 10
133.000358
 20
64.578884
 30
0
 10
133.000358
 20
64.728365
 30
0
 10
132.975911
 20
64.850666
 30
0
 10
132.946002
 20
64.850666
 30
0
  0
SPLINE
  5
6D
100
AcDbEntity
  8
Image
  6
ByLayer
 62
    1
370
   -1
100
AcDbSpline
210
0
220
0
230
0
 70
    8
 71
    3
 72
    8
 73
    4
 74
    0
 42
1e-07
 43
1e-07
 40
0
 40
0
 40
0
 40
0
 40
1
 40
1
 40
1
 40
1
 10
132.946002
 20
64.850666
 30
0
 10
132.916104
 20
64.850666
 30
0
 10
132.891644
 20
64.985969
 30
0
 10
132.891644
 20
65.151336
 30
0
  0
SPLINE
  5
6E
100
AcDbEntity
  8
Image
  6
ByLayer
 62
    1
370
   -1
100
AcDbSpline
210
0
220
0
230
0
 70
    8
 71
    3
 72
    8
 73
    4
 74
    0
 42
1e-07
 43
1e-07
 40
0
 40
0
 40
0
 40
0
 40
1
 40
1
 40
1
 40
1
 10
132.891644
 20
65.151336
 30
0
 10
132.891644
 20
65.368453
 30
0
 10
132.868995
 20
65.460697
 30
0
 10
132.81011
 20
65.483293
 30
0
  0
SPLINE
  5
6F
100
AcDbEntity
  8
Image
  6
ByLayer
 62
    1
370
   -1
100
AcDbSpline
210
0
220
0
230
0
 70
    8
 71
    3
 72
    8
 73
    4
 74
    0
 42
1e-07
 43
1e-07
 40
0
 40
0
 40
0
 40
0
 40
1
 40
1
 40
1
 40
1
 10
132.81011
 20
65.483293
 30
0
 10
132.754989
 20
65.50443300000001
 30
0
 10
132.728573
 20
65.59089899999999
 30
0
 10
132.728573
 20
65.750162
 30
0
  0
SPLINE
  5
70
100
AcDbEntity
  8
Image
  6
ByLayer
 62
    1
370
   -1
100
AcDbSpline
210
0
220
0
230
0
 70
    8
 71
    3
 72
    8
 73
    4
 74
    0
 42
1e-07
 43
1e-07
 40
0
 40
0
 40
0
 40
0
 40
1
 40
1
 40
1
 40
1
 10
132.728573
 20
65.750162
 30
0
 10
132.728573
 20
65.879734
 30
0
 10
132.704126
 20
66.000863
 30
0
 10
132.674217
 20
66.019339
 30
0
  0
SPLINE
  5
71
100
AcDbEntity
  8
Image
  6
ByLayer
 62
    1
370
   -1
100
AcDbSpline
210
0
220
0
230
0
 70
    8
 71
    3
 72
    8
 73
    4
 74
    0
 42
1e-07
 43
1e-07
 40
0
 40
0
 40
0
 40
0
 40
1
 40
1
 40
1
 40
1
 10
132.674217
 20
66.019339
 30
0
 10
132.644322
 20
66.037807
 30
0
 10
132.619861
 20
66.186024
 30
0
 10
132.619861
 20
66.34868899999999
 30
0
  0
SPLINE
  5
72
100
AcDbEntity
  8
Image
  6
ByLayer
 62
    1
370
   -1
100
AcDbSpline
210
0
220
0
230
0
 70
    8
 71
    3
 72
    8
 73
    4
 74
    0
 42
1e-07
 43
1e-07
 40
0
 40
0
 40
0
 40
0
 40
1
 40
1
 40
1
 40
1
 10
132.619861
 20
66.34868899999999
 30
0
 10
132.619861
 20
66.511353
 30
0
 10
132.595414
 20
66.644443
 30
0
 10
132.565502
 20
66.644443
 30
0
  0
SPLINE
  5
73
100
AcDbEntity
  8
Image
  6
ByLayer
 62
    1
370
   -1
100
AcDbSpline
210
0
220
0
230
0
 70
    8
 71
    3
 72
    8
 73
    4
 74
    0
 42
1e-07
 43
1e-07
 40
0
 40
0
 40
0
 40
0
 40
1
 40
1
 40
1
 40
1
 10
132.565502
 20
66.644443
 30
0
 10
132.535607
 20
66.644443
 30
0
 10
132.511146
 20
66.76499800000001
 30
0
 10
132.511146
 20
66.912344
 30
0
  0
SPLINE
  5
74
100
AcDbEntity
  8
Image
  6
ByLayer
 62
    1
370
   -1
100
AcDbSpline
210
0
220
0
230
0
 70
    8
 71
    3
 72
    8
 73
    4
 74
    0
 42
1e-07
 43
1e-07
 40
0
 40
0
 40
0
 40
0
 40
1
 40
1
 40
1
 40
1
 10
132.511146
 20
66.912344
 30
0
 10
132.511146
 20
67.078003
 30
0
 10
132.480029
 20
67.21136300000001
 30
0
 10
132.429612
 20
67.26178
 30
0
  0
SPLINE
  5
75
100
AcDbEntity
  8
Image
  6
ByLayer
 62
    1
370
   -1
100
AcDbSpline
210
0
220
0
230
0
 70
    8
 71
    3
 72
    8
 73
    4
 74
    0
 42
1e-07
 43
1e-07
 40
0
 40
0
 40
0
 40
0
 40
1
 40
1
 40
1
 40
1
 10
132.429612
 20
67.26178
 30
0
 10
132.384395
 20
67.306997
 30
0
 10
132.348076
 20
67.439879
 30
0
 10
132.348076
 20
67.560097
 30
0
  0
SPLINE
  5
76
100
AcDbEntity
  8
Image
  6
ByLayer
 62
    1
370
   -1
100
AcDbSpline
210
0
220
0
230
0
 70
    8
 71
    3
 72
    8
 73
    4
 74
    0
 42
1e-07
 43
1e-07
 40
0
 40
0
 40
0
 40
0
 40
1
 40
1
 40
1
 40
1
 10
132.348076
 20
67.560097
 30
0
 10
132.348076
 20
67.679327
 30
0
 10
132.322782
 20
67.78531099999999
 30
0
 10
132.291847
 20
67.795619
 30
0
  0
SPLINE
  5
77
100
AcDbEntity
  8
Image
  6
ByLayer
 62
    1
370
   -1
100
AcDbSpline
210
0
220
0
230
0
 70
    8
 71
    3
 72
    8
 73
    4
 74
    0
 42
1e-07
 43
1e-07
 40
0
 40
0
 40
0
 40
0
 40
1
 40
1
 40
1
 40
1
 10
132.291847
 20
67.795619
 30
0
 10
132.215279
 20
67.821151
 30
0
 10
132.213146
 20
68.674086
 30
0
 10
132.289465
 20
68.69956500000001
 30
0
  0
SPLINE
  5
78
100
AcDbEntity
  8
Image
  6
ByLayer
 62
    1
370
   -1
100
AcDbSpline
210
0
220
0
230
0
 70
    8
 71
    3
 72
    8
 73
    4
 74
    0
 42
1e-07
 43
1e-07
 40
0
 40
0
 40
0
 40
0
 40
1
 40
1
 40
1
 40
1
 10
132.289465
 20
68.69956500000001
 30
0
 10
132.321633
 20
68.71028099999999
 30
0
 10
132.347954
 20
68.76671399999999
 30
0
 10
132.347954
 20
68.824951
 30
0
  0
SPLINE
  5
79
100
AcDbEntity
  8
Image
  6
ByLayer
 62
    1
370
   -1
100
AcDbSpline
210
0
220
0
230
0
 70
    8
 71
    3
 72
    8
 73
    4
 74
    0
 42
1e-07
 43
1e-07
 40
0
 40
0
 40
0
 40
0
 40
1
 40
1
 40
1
 40
1
 10
132.347954
 20
68.824951
 30
0
 10
132.347954
 20
68.883191
 30
0
 10
132.384644
 20
68.94492099999999
 30
0
 10
132.429491
 20
68.96213
 30
0
  0
SPLINE
  5
7A
100
AcDbEntity
  8
Image
  6
ByLayer
 62
    1
370
   -1
100
AcDbSpline
210
0
220
0
230
0
 70
    8
 71
    3
 72
    8
 73
    4
 74
    0
 42
1e-07
 43
1e-07
 40
0
 40
0
 40
0
 40
0
 40
1
 40
1
 40
1
 40
1
 10
132.429491
 20
68.96213
 30
0
 10
132.475425
 20
68.97975099999999
 30
0
 10
132.511025
 20
69.06067899999999
 30
0
 10
132.511025
 20
69.147465
 30
0
  0
SPLINE
  5
7B
100
AcDbEntity
  8
Image
  6
ByLayer
 62
    1
370
   -1
100
AcDbSpline
210
0
220
0
230
0
 70
    8
 71
    3
 72
    8
 73
    4
 74
    0
 42
1e-07
 43
1e-07
 40
0
 40
0
 40
0
 40
0
 40
1
 40
1
 40
1
 40
1
 10
132.511025
 20
69.147465
 30
0
 10
132.511025
 20
69.23219
 30
0
 10
132.535499
 20
69.31662900000001
 30
0
 10
132.565381
 20
69.33510800000001
 30
0
  0
SPLINE
  5
7C
100
AcDbEntity
  8
Image
  6
ByLayer
 62
    1
370
   -1
100
AcDbSpline
210
0
220
0
230
0
 70
    8
 71
    3
 72
    8
 73
    4
 74
    0
 42
1e-07
 43
1e-07
 40
0
 40
0
 40
0
 40
0
 40
1
 40
1
 40
1
 40
1
 10
132.565381
 20
69.33510800000001
 30
0
 10
132.595279
 20
69.353576
 30
0
 10
132.619739
 20
69.416179
 30
0
 10
132.619739
 20
69.47420700000001
 30
0
  0
SPLINE
  5
7D
100
AcDbEntity
  8
Image
  6
ByLayer
 62
    1
370
   -1
100
AcDbSpline
210
0
220
0
230
0
 70
    8
 71
    3
 72
    8
 73
    4
 74
    0
 42
1e-07
 43
1e-07
 40
0
 40
0
 40
0
 40
0
 40
1
 40
1
 40
1
 40
1
 10
132.619739
 20
69.47420700000001
 30
0
 10
132.619739
 20
69.532235
 30
0
 10
132.644213
 20
69.579712
 30
0
 10
132.674095
 20
69.579712
 30
0
  0
SPLINE
  5
7E
100
AcDbEntity
  8
Image
  6
ByLayer
 62
    1
370
   -1
100
AcDbSpline
210
0
220
0
230
0
 70
    8
 71
    3
 72
    8
 73
    4
 74
    0
 42
1e-07
 43
1e-07
 40
0
 40
0
 40
0
 40
0
 40
1
 40
1
 40
1
 40
1
 10
132.674095
 20
69.579712
 30
0
 10
132.703991
 20
69.579712
 30
0
 10
132.728451
 20
69.638246
 30
0
 10
132.728451
 20
69.709789
 30
0
  0
SPLINE
  5
7F
100
AcDbEntity
  8
Image
  6
ByLayer
 62
    1
370
   -1
100
AcDbSpline
210
0
220
0
230
0
 70
    8
 71
    3
 72
    8
 73
    4
 74
    0
 42
1e-07
 43
1e-07
 40
0
 40
0
 40
0
 40
0
 40
1
 40
1
 40
1
 40
1
 10
132.728451
 20
69.709789
 30
0
 10
132.728451
 20
69.78133
 30
0
 10
132.765144
 20
69.853945
 30
0
 10
132.809988
 20
69.87115300000001
 30
0
  0
SPLINE
  5
80
100
AcDbEntity
  8
Image
  6
ByLayer
 62
    1
370
   -1
100
AcDbSpline
210
0
220
0
230
0
 70
    8
 71
    3
 72
    8
 73
    4
 74
    0
 42
1e-07
 43
1e-07
 40
0
 40
0
 40
0
 40
0
 40
1
 40
1
 40
1
 40
1
 10
132.809988
 20
69.87115300000001
 30
0
 10
132.85765
 20
69.889436
 30
0
 10
132.891522
 20
69.970893
 30
0
 10
132.891522
 20
70.067218
 30
0
  0
SPLINE
  5
81
100
AcDbEntity
  8
Image
  6
ByLayer
 62
    1
370
   -1
100
AcDbSpline
210
0
220
0
230
0
 70
    8
 71
    3
 72
    8
 73
    4
 74
    0
 42
1e-07
 43
1e-07
 40
0
 40
0
 40
0
 40
0
 40
1
 40
1
 40
1
 40
1
 10
132.891522
 20
70.067218
 30
0
 10
132.891522
 20
70.15784499999999
 30
0
 10
132.91597
 20
70.231995
 30
0
 10
132.945881
 20
70.231995
 30
0
  0
SPLINE
  5
82
100
AcDbEntity
  8
Image
  6
ByLayer
 62
    1
370
   -1
100
AcDbSpline
210
0
220
0
230
0
 70
    8
 71
    3
 72
    8
 73
    4
 74
    0
 42
1e-07
 43
1e-07
 40
0
 40
0
 40
0
 40
0
 40
1
 40
1
 40
1
 40
1
 10
132.945881
 20
70.231995
 30
0
 10
132.975776
 20
70.231995
 30
0
 10
133.000237
 20
70.279472
 30
0
 10
133.000237
 20
70.33750000000001
 30
0
  0
SPLINE
  5
83
100
AcDbEntity
  8
Image
  6
ByLayer
 62
    1
370
   -1
100
AcDbSpline
210
0
220
0
230
0
 70
    8
 71
    3
 72
    8
 73
    4
 74
    0
 42
1e-07
 43
1e-07
 40
0
 40
0
 40
0
 40
0
 40
1
 40
1
 40
1
 40
1
 10
133.000237
 20
70.33750000000001
 30
0
 10
133.000237
 20
70.395529
 30
0
 10
133.024684
 20
70.458124
 30
0
 10
133.054593
 20
70.47659899999999
 30
0
  0
SPLINE
  5
84
100
AcDbEntity
  8
Image
  6
ByLayer
 62
    1
370
   -1
100
AcDbSpline
210
0
220
0
230
0
 70
    8
 71
    3
 72
    8
 73
    4
 74
    0
 42
1e-07
 43
1e-07
 40
0
 40
0
 40
0
 40
0
 40
1
 40
1
 40
1
 40
1
 10
133.054593
 20
70.47659899999999
 30
0
 10
133.084491
 20
70.49506700000001
 30
0
 10
133.108949
 20
70.555054
 30
0
 10
133.108949
 20
70.609883
 30
0
  0
SPLINE
  5
85
100
AcDbEntity
  8
Image
  6
ByLayer
 62
    1
370
   -1
100
AcDbSpline
210
0
220
0
230
0
 70
    8
 71
    3
 72
    8
 73
    4
 74
    0
 42
1e-07
 43
1e-07
 40
0
 40
0
 40
0
 40
0
 40
1
 40
1
 40
1
 40
1
 10
133.108949
 20
70.609883
 30
0
 10
133.108949
 20
70.66471300000001
 30
0
 10
133.145641
 20
70.723654
 30
0
 10
133.190485
 20
70.740863
 30
0
  0
SPLINE
  5
86
100
AcDbEntity
  8
Image
  6
ByLayer
 62
    1
370
   -1
100
AcDbSpline
210
0
220
0
230
0
 70
    8
 71
    3
 72
    8
 73
    4
 74
    0
 42
1e-07
 43
1e-07
 40
0
 40
0
 40
0
 40
0
 40
1
 40
1
 40
1
 40
1
 10
133.190485
 20
70.740863
 30
0
 10
133.23815
 20
70.759145
 30
0
 10
133.272019
 20
70.840603
 30
0
 10
133.272019
 20
70.936927
 30
0
  0
SPLINE
  5
87
100
AcDbEntity
  8
Image
  6
ByLayer
 62
    1
370
   -1
100
AcDbSpline
210
0
220
0
230
0
 70
    8
 71
    3
 72
    8
 73
    4
 74
    0
 42
1e-07
 43
1e-07
 40
0
 40
0
 40
0
 40
0
 40
1
 40
1
 40
1
 40
1
 10
133.272019
 20
70.936927
 30
0
 10
133.272019
 20
71.02755500000001
 30
0
 10
133.296467
 20
71.101704
 30
0
 10
133.326378
 20
71.101704
 30
0
  0
SPLINE
  5
88
100
AcDbEntity
  8
Image
  6
ByLayer
 62
    1
370
   -1
100
AcDbSpline
210
0
220
0
230
0
 70
    8
 71
    3
 72
    8
 73
    4
 74
    0
 42
1e-07
 43
1e-07
 40
0
 40
0
 40
0
 40
0
 40
1
 40
1
 40
1
 40
1
 10
133.326378
 20
71.101704
 30
0
 10
133.356273
 20
71.101704
 30
0
 10
133.380734
 20
71.16285499999999
 30
0
 10
133.380734
 20
71.23759699999999
 30
0
  0
SPLINE
  5
89
100
AcDbEntity
  8
Image
  6
ByLayer
 62
    1
370
   -1
100
AcDbSpline
210
0
220
0
230
0
 70
    8
 71
    3
 72
    8
 73
    4
 74
    0
 42
1e-07
 43
1e-07
 40
0
 40
0
 40
0
 40
0
 40
1
 40
1
 40
1
 40
1
 10
133.380734
 20
71.23759699999999
 30
0
 10
133.380734
 20
71.312336
 30
0
 10
133.405181
 20
71.373487
 30
0
 10
133.43509
 20
71.373487
 30
0
  0
SPLINE
  5
8A
100
AcDbEntity
  8
Image
  6
ByLayer
 62
    1
370
   -1
100
AcDbSpline
210
0
220
0
230
0
 70
    8
 71
    3
 72
    8
 73
    4
 74
    0
 42
1e-07
 43
1e-07
 40
0
 40
0
 40
0
 40
0
 40
1
 40
1
 40
1
 40
1
 10
133.43509
 20
71.373487
 30
0
 10
133.464988
 20
71.373487
 30
0
 10
133.489449
 20
71.42317799999999
 30
0
 10
133.489449
 20
71.483908
 30
0
  0
SPLINE
  5
8B
100
AcDbEntity
  8
Image
  6
ByLayer
 62
    1
370
   -1
100
AcDbSpline
210
0
220
0
230
0
 70
    8
 71
    3
 72
    8
 73
    4
 74
    0
 42
1e-07
 43
1e-07
 40
0
 40
0
 40
0
 40
0
 40
1
 40
1
 40
1
 40
1
 10
133.489449
 20
71.483908
 30
0
 10
133.489449
 20
71.54463800000001
 30
0
 10
133.526138
 20
71.608408
 30
0
 10
133.570983
 20
71.62561599999999
 30
0
  0
SPLINE
  5
8C
100
AcDbEntity
  8
Image
  6
ByLayer
 62
    1
370
   -1
100
AcDbSpline
210
0
220
0
230
0
 70
    8
 71
    3
 72
    8
 73
    4
 74
    0
 42
1e-07
 43
1e-07
 40
0
 40
0
 40
0
 40
0
 40
1
 40
1
 40
1
 40
1
 10
133.570983
 20
71.62561599999999
 30
0
 10
133.621291
 20
71.644931
 30
0
 10
133.652519
 20
71.72753899999999
 30
0
 10
133.652519
 20
71.841336
 30
0
  0
SPLINE
  5
8D
100
AcDbEntity
  8
Image
  6
ByLayer
 62
    1
370
   -1
100
AcDbSpline
210
0
220
0
230
0
 70
    8
 71
    3
 72
    8
 73
    4
 74
    0
 42
1e-07
 43
1e-07
 40
0
 40
0
 40
0
 40
0
 40
1
 40
1
 40
1
 40
1
 10
133.652519
 20
71.841336
 30
0
 10
133.652519
 20
71.942775
 30
0
 10
133.676967
 20
72.025769
 30
0
 10
133.706875
 20
72.025769
 30
0
  0
SPLINE
  5
8E
100
AcDbEntity
  8
Image
  6
ByLayer
 62
    1
370
   -1
100
AcDbSpline
210
0
220
0
230
0
 70
    8
 71
    3
 72
    8
 73
    4
 74
    0
 42
1e-07
 43
1e-07
 40
0
 40
0
 40
0
 40
0
 40
1
 40
1
 40
1
 40
1
 10
133.706875
 20
72.025769
 30
0
 10
133.736771
 20
72.025769
 30
0
 10
133.761231
 20
72.074691
 30
0
 10
133.761231
 20
72.134484
 30
0
  0
SPLINE
  5
8F
100
AcDbEntity
  8
Image
  6
ByLayer
 62
    1
370
   -1
100
AcDbSpline
210
0
220
0
230
0
 70
    8
 71
    3
 72
    8
 73
    4
 74
    0
 42
1e-07
 43
1e-07
 40
0
 40
0
 40
0
 40
0
 40
1
 40
1
 40
1
 40
1
 10
133.761231
 20
72.134484
 30
0
 10
133.761231
 20
72.194277
 30
0
 10
133.785705
 20
72.243199
 30
0
 10
133.81559
 20
72.243199
 30
0
  0
SPLINE
  5
90
100
AcDbEntity
  8
Image
  6
ByLayer
 62
    1
370
   -1
100
AcDbSpline
210
0
220
0
230
0
 70
    8
 71
    3
 72
    8
 73
    4
 74
    0
 42
1e-07
 43
1e-07
 40
0
 40
0
 40
0
 40
0
 40
1
 40
1
 40
1
 40
1
 10
133.81559
 20
72.243199
 30
0
 10
133.845485
 20
72.243199
 30
0
 10
133.869946
 20
72.304349
 30
0
 10
133.869946
 20
72.37908899999999
 30
0
  0
SPLINE
  5
91
100
AcDbEntity
  8
Image
  6
ByLayer
 62
    1
370
   -1
100
AcDbSpline
210
0
220
0
230
0
 70
    8
 71
    3
 72
    8
 73
    4
 74
    0
 42
1e-07
 43
1e-07
 40
0
 40
0
 40
0
 40
0
 40
1
 40
1
 40
1
 40
1
 10
133.869946
 20
72.37908899999999
 30
0
 10
133.869946
 20
72.463644
 30
0
 10
133.900749
 20
72.51498100000001
 30
0
 10
133.95148
 20
72.51498100000001
 30
0
  0
SPLINE
  5
92
100
AcDbEntity
  8
Image
  6
ByLayer
 62
    1
370
   -1
100
AcDbSpline
210
0
220
0
230
0
 70
    8
 71
    3
 72
    8
 73
    4
 74
    0
 42
1e-07
 43
1e-07
 40
0
 40
0
 40
0
 40
0
 40
1
 40
1
 40
1
 40
1
 10
133.95148
 20
72.51498100000001
 30
0
 10
134.008426
 20
72.51498100000001
 30
0
 10
134.033017
 20
72.57235900000001
 30
0
 10
134.033017
 20
72.70523
 30
0
  0
SPLINE
  5
93
100
AcDbEntity
  8
Image
  6
ByLayer
 62
    1
370
   -1
100
AcDbSpline
210
0
220
0
230
0
 70
    8
 71
    3
 72
    8
 73
    4
 74
    0
 42
1e-07
 43
1e-07
 40
0
 40
0
 40
0
 40
0
 40
1
 40
1
 40
1
 40
1
 10
134.033017
 20
72.70523
 30
0
 10
134.033017
 20
72.809867
 30
0
 10
134.057491
 20
72.89547899999999
 30
0
 10
134.087373
 20
72.89547899999999
 30
0
  0
SPLINE
  5
94
100
AcDbEntity
  8
Image
  6
ByLayer
 62
    1
370
   -1
100
AcDbSpline
210
0
220
0
230
0
 70
    8
 71
    3
 72
    8
 73
    4
 74
    0
 42
1e-07
 43
1e-07
 40
0
 40
0
 40
0
 40
0
 40
1
 40
1
 40
1
 40
1
 10
134.087373
 20
72.89547899999999
 30
0
 10
134.117271
 20
72.89547899999999
 30
0
 10
134.141731
 20
72.956632
 30
0
 10
134.141731
 20
73.03137099999999
 30
0
  0
SPLINE
  5
95
100
AcDbEntity
  8
Image
  6
ByLayer
 62
    1
370
   -1
100
AcDbSpline
210
0
220
0
230
0
 70
    8
 71
    3
 72
    8
 73
    4
 74
    0
 42
1e-07
 43
1e-07
 40
0
 40
0
 40
0
 40
0
 40
1
 40
1
 40
1
 40
1
 10
134.141731
 20
73.03137099999999
 30
0
 10
134.141731
 20
73.10611299999999
 30
0
 10
134.166179
 20
73.167264
 30
0
 10
134.196087
 20
73.167264
 30
0
  0
SPLINE
  5
96
100
AcDbEntity
  8
Image
  6
ByLayer
 62
    1
370
   -1
100
AcDbSpline
210
0
220
0
230
0
 70
    8
 71
    3
 72
    8
 73
    4
 74
    0
 42
1e-07
 43
1e-07
 40
0
 40
0
 40
0
 40
0
 40
1
 40
1
 40
1
 40
1
 10
134.196087
 20
73.167264
 30
0
 10
134.225983
 20
73.167264
 30
0
 10
134.250443
 20
73.252875
 30
0
 10
134.250443
 20
73.357512
 30
0
  0
SPLINE
  5
97
100
AcDbEntity
  8
Image
  6
ByLayer
 62
    1
370
   -1
100
AcDbSpline
210
0
220
0
230
0
 70
    8
 71
    3
 72
    8
 73
    4
 74
    0
 42
1e-07
 43
1e-07
 40
0
 40
0
 40
0
 40
0
 40
1
 40
1
 40
1
 40
1
 10
134.250443
 20
73.357512
 30
0
 10
134.250443
 20
73.490386
 30
0
 10
134.275023
 20
73.54776099999999
 30
0
 10
134.33198
 20
73.54776099999999
 30
0
  0
SPLINE
  5
98
100
AcDbEntity
  8
Image
  6
ByLayer
 62
    1
370
   -1
100
AcDbSpline
210
0
220
0
230
0
 70
    8
 71
    3
 72
    8
 73
    4
 74
    0
 42
1e-07
 43
1e-07
 40
0
 40
0
 40
0
 40
0
 40
1
 40
1
 40
1
 40
1
 10
134.33198
 20
73.54776099999999
 30
0
 10
134.377277
 20
73.54776099999999
 30
0
 10
134.413514
 20
73.596079
 30
0
 10
134.413514
 20
73.656476
 30
0
  0
SPLINE
  5
99
100
AcDbEntity
  8
Image
  6
ByLayer
 62
    1
370
   -1
100
AcDbSpline
210
0
220
0
230
0
 70
    8
 71
    3
 72
    8
 73
    4
 74
    0
 42
1e-07
 43
1e-07
 40
0
 40
0
 40
0
 40
0
 40
1
 40
1
 40
1
 40
1
 10
134.413514
 20
73.656476
 30
0
 10
134.413514
 20
73.716269
 30
0
 10
134.437961
 20
73.76519
 30
0
 10
134.46787
 20
73.76519
 30
0
  0
SPLINE
  5
9A
100
AcDbEntity
  8
Image
  6
ByLayer
 62
    1
370
   -1
100
AcDbSpline
210
0
220
0
230
0
 70
    8
 71
    3
 72
    8
 73
    4
 74
    0
 42
1e-07
 43
1e-07
 40
0
 40
0
 40
0
 40
0
 40
1
 40
1
 40
1
 40
1
 10
134.46787
 20
73.76519
 30
0
 10
134.497768
 20
73.76519
 30
0
 10
134.522229
 20
73.826341
 30
0
 10
134.522229
 20
73.90107999999999
 30
0
  0
SPLINE
  5
9B
100
AcDbEntity
  8
Image
  6
ByLayer
 62
    1
370
   -1
100
AcDbSpline
210
0
220
0
230
0
 70
    8
 71
    3
 72
    8
 73
    4
 74
    0
 42
1e-07
 43
1e-07
 40
0
 40
0
 40
0
 40
0
 40
1
 40
1
 40
1
 40
1
 10
134.522229
 20
73.90107999999999
 30
0
 10
134.522229
 20
73.97582300000001
 30
0
 10
134.546676
 20
74.036973
 30
0
 10
134.576585
 20
74.036973
 30
0
  0
SPLINE
  5
9C
100
AcDbEntity
  8
Image
  6
ByLayer
 62
    1
370
   -1
100
AcDbSpline
210
0
220
0
230
0
 70
    8
 71
    3
 72
    8
 73
    4
 74
    0
 42
1e-07
 43
1e-07
 40
0
 40
0
 40
0
 40
0
 40
1
 40
1
 40
1
 40
1
 10
134.576585
 20
74.036973
 30
0
 10
134.60648
 20
74.036973
 30
0
 10
134.630941
 20
74.122584
 30
0
 10
134.630941
 20
74.227222
 30
0
  0
LINE
  5
9D
100
AcDbEntity
  8
Image
  6
ByLayer
 62
    1
370
   -1
100
AcDbLine
 10
134.630941
 20
74.227222
 11
134.630941
 21
74.41746999999999
  0
LINE
  5
9E
100
AcDbEntity
  8
Image
  6
ByLayer
 62
    1
370
   -1
100
AcDbLine
 10
134.630941
 20
74.41746999999999
 11
137.011728
 21
74.41746999999999
  0
LINE
  5
9F
100
AcDbEntity
  8
Image
  6
ByLayer
 62
    1
370
   -1
100
AcDbLine
 10
137.011728
 20
74.41746999999999
 11
139.392514
 21
74.41746999999999
  0
LINE
  5
A0
100
AcDbEntity
  8
Image
  6
ByLayer
 62
    1
370
   -1
100
AcDbLine
 10
139.392514
 20
74.41746999999999
 11
139.370316
 21
74.227222
  0
SPLINE
  5
A1
100
AcDbEntity
  8
Image
  6
ByLayer
 62
    1
370
   -1
100
AcDbSpline
210
0
220
0
230
0
 70
    8
 71
    3
 72
    8
 73
    4
 74
    0
 42
1e-07
 43
1e-07
 40
0
 40
0
 40
0
 40
0
 40
1
 40
1
 40
1
 40
1
 10
139.370316
 20
74.227222
 30
0
 10
139.356716
 20
74.11077299999999
 30
0
 10
139.371374
 20
74.036973
 30
0
 10
139.408411
 20
74.036973
 30
0
  0
SPLINE
  5
A2
100
AcDbEntity
  8
Image
  6
ByLayer
 62
    1
370
   -1
100
AcDbSpline
210
0
220
0
230
0
 70
    8
 71
    3
 72
    8
 73
    4
 74
    0
 42
1e-07
 43
1e-07
 40
0
 40
0
 40
0
 40
0
 40
1
 40
1
 40
1
 40
1
 10
139.408411
 20
74.036973
 30
0
 10
139.441576
 20
74.036973
 30
0
 10
139.468714
 20
73.987284
 30
0
 10
139.468714
 20
73.926554
 30
0
  0
SPLINE
  5
A3
100
AcDbEntity
  8
Image
  6
ByLayer
 62
    1
370
   -1
100
AcDbSpline
210
0
220
0
230
0
 70
    8
 71
    3
 72
    8
 73
    4
 74
    0
 42
1e-07
 43
1e-07
 40
0
 40
0
 40
0
 40
0
 40
1
 40
1
 40
1
 40
1
 10
139.468714
 20
73.926554
 30
0
 10
139.468714
 20
73.86582199999999
 30
0
 10
139.505404
 20
73.802055
 30
0
 10
139.550248
 20
73.784846
 30
0
  0
SPLINE
  5
A4
100
AcDbEntity
  8
Image
  6
ByLayer
 62
    1
370
   -1
100
AcDbSpline
210
0
220
0
230
0
 70
    8
 71
    3
 72
    8
 73
    4
 74
    0
 42
1e-07
 43
1e-07
 40
0
 40
0
 40
0
 40
0
 40
1
 40
1
 40
1
 40
1
 10
139.550248
 20
73.784846
 30
0
 10
139.600556
 20
73.76553199999999
 30
0
 10
139.631785
 20
73.68292099999999
 30
0
 10
139.631785
 20
73.569124
 30
0
  0
SPLINE
  5
A5
100
AcDbEntity
  8
Image
  6
ByLayer
 62
    1
370
   -1
100
AcDbSpline
210
0
220
0
230
0
 70
    8
 71
    3
 72
    8
 73
    4
 74
    0
 42
1e-07
 43
1e-07
 40
0
 40
0
 40
0
 40
0
 40
1
 40
1
 40
1
 40
1
 10
139.631785
 20
73.569124
 30
0
 10
139.631785
 20
73.467685
 30
0
 10
139.656259
 20
73.38469000000001
 30
0
 10
139.686141
 20
73.38469000000001
 30
0
  0
SPLINE
  5
A6
100
AcDbEntity
  8
Image
  6
ByLayer
 62
    1
370
   -1
100
AcDbSpline
210
0
220
0
230
0
 70
    8
 71
    3
 72
    8
 73
    4
 74
    0
 42
1e-07
 43
1e-07
 40
0
 40
0
 40
0
 40
0
 40
1
 40
1
 40
1
 40
1
 10
139.686141
 20
73.38469000000001
 30
0
 10
139.716036
 20
73.38469000000001
 30
0
 10
139.740497
 20
73.335769
 30
0
 10
139.740497
 20
73.27597799999999
 30
0
  0
SPLINE
  5
A7
100
AcDbEntity
  8
Image
  6
ByLayer
 62
    1
370
   -1
100
AcDbSpline
210
0
220
0
230
0
 70
    8
 71
    3
 72
    8
 73
    4
 74
    0
 42
1e-07
 43
1e-07
 40
0
 40
0
 40
0
 40
0
 40
1
 40
1
 40
1
 40
1
 10
139.740497
 20
73.27597799999999
 30
0
 10
139.740497
 20
73.216185
 30
0
 10
139.764945
 20
73.167264
 30
0
 10
139.794856
 20
73.167264
 30
0
  0
SPLINE
  5
A8
100
AcDbEntity
  8
Image
  6
ByLayer
 62
    1
370
   -1
100
AcDbSpline
210
0
220
0
230
0
 70
    8
 71
    3
 72
    8
 73
    4
 74
    0
 42
1e-07
 43
1e-07
 40
0
 40
0
 40
0
 40
0
 40
1
 40
1
 40
1
 40
1
 10
139.794856
 20
73.167264
 30
0
 10
139.824751
 20
73.167264
 30
0
 10
139.849212
 20
73.117575
 30
0
 10
139.849212
 20
73.056845
 30
0
  0
SPLINE
  5
A9
100
AcDbEntity
  8
Image
  6
ByLayer
 62
    1
370
   -1
100
AcDbSpline
210
0
220
0
230
0
 70
    8
 71
    3
 72
    8
 73
    4
 74
    0
 42
1e-07
 43
1e-07
 40
0
 40
0
 40
0
 40
0
 40
1
 40
1
 40
1
 40
1
 10
139.849212
 20
73.056845
 30
0
 10
139.849212
 20
72.99611299999999
 30
0
 10
139.885902
 20
72.932346
 30
0
 10
139.930746
 20
72.915137
 30
0
  0
SPLINE
  5
AA
100
AcDbEntity
  8
Image
  6
ByLayer
 62
    1
370
   -1
100
AcDbSpline
210
0
220
0
230
0
 70
    8
 71
    3
 72
    8
 73
    4
 74
    0
 42
1e-07
 43
1e-07
 40
0
 40
0
 40
0
 40
0
 40
1
 40
1
 40
1
 40
1
 10
139.930746
 20
72.915137
 30
0
 10
139.981054
 20
72.895822
 30
0
 10
140.012282
 20
72.81321199999999
 30
0
 10
140.012282
 20
72.699414
 30
0
  0
SPLINE
  5
AB
100
AcDbEntity
  8
Image
  6
ByLayer
 62
    1
370
   -1
100
AcDbSpline
210
0
220
0
230
0
 70
    8
 71
    3
 72
    8
 73
    4
 74
    0
 42
1e-07
 43
1e-07
 40
0
 40
0
 40
0
 40
0
 40
1
 40
1
 40
1
 40
1
 10
140.012282
 20
72.699414
 30
0
 10
140.012282
 20
72.597976
 30
0
 10
140.03673
 20
72.51498100000001
 30
0
 10
140.066638
 20
72.51498100000001
 30
0
  0
SPLINE
  5
AC
100
AcDbEntity
  8
Image
  6
ByLayer
 62
    1
370
   -1
100
AcDbSpline
210
0
220
0
230
0
 70
    8
 71
    3
 72
    8
 73
    4
 74
    0
 42
1e-07
 43
1e-07
 40
0
 40
0
 40
0
 40
0
 40
1
 40
1
 40
1
 40
1
 10
140.066638
 20
72.51498100000001
 30
0
 10
140.096536
 20
72.51498100000001
 30
0
 10
140.120997
 20
72.42937000000001
 30
0
 10
140.120997
 20
72.32473299999999
 30
0
  0
SPLINE
  5
AD
100
AcDbEntity
  8
Image
  6
ByLayer
 62
    1
370
   -1
100
AcDbSpline
210
0
220
0
230
0
 70
    8
 71
    3
 72
    8
 73
    4
 74
    0
 42
1e-07
 43
1e-07
 40
0
 40
0
 40
0
 40
0
 40
1
 40
1
 40
1
 40
1
 10
140.120997
 20
72.32473299999999
 30
0
 10
140.120997
 20
72.220095
 30
0
 10
140.145445
 20
72.134484
 30
0
 10
140.175353
 20
72.134484
 30
0
  0
SPLINE
  5
AE
100
AcDbEntity
  8
Image
  6
ByLayer
 62
    1
370
   -1
100
AcDbSpline
210
0
220
0
230
0
 70
    8
 71
    3
 72
    8
 73
    4
 74
    0
 42
1e-07
 43
1e-07
 40
0
 40
0
 40
0
 40
0
 40
1
 40
1
 40
1
 40
1
 10
140.175353
 20
72.134484
 30
0
 10
140.205248
 20
72.134484
 30
0
 10
140.229709
 20
72.084795
 30
0
 10
140.229709
 20
72.02406499999999
 30
0
  0
SPLINE
  5
AF
100
AcDbEntity
  8
Image
  6
ByLayer
 62
    1
370
   -1
100
AcDbSpline
210
0
220
0
230
0
 70
    8
 71
    3
 72
    8
 73
    4
 74
    0
 42
1e-07
 43
1e-07
 40
0
 40
0
 40
0
 40
0
 40
1
 40
1
 40
1
 40
1
 10
140.229709
 20
72.02406499999999
 30
0
 10
140.229709
 20
71.96333300000001
 30
0
 10
140.266401
 20
71.89956599999999
 30
0
 10
140.311246
 20
71.882357
 30
0
  0
SPLINE
  5
B0
100
AcDbEntity
  8
Image
  6
ByLayer
 62
    1
370
   -1
100
AcDbSpline
210
0
220
0
230
0
 70
    8
 71
    3
 72
    8
 73
    4
 74
    0
 42
1e-07
 43
1e-07
 40
0
 40
0
 40
0
 40
0
 40
1
 40
1
 40
1
 40
1
 10
140.311246
 20
71.882357
 30
0
 10
140.361554
 20
71.863043
 30
0
 10
140.39278
 20
71.780432
 30
0
 10
140.39278
 20
71.666634
 30
0
  0
SPLINE
  5
B1
100
AcDbEntity
  8
Image
  6
ByLayer
 62
    1
370
   -1
100
AcDbSpline
210
0
220
0
230
0
 70
    8
 71
    3
 72
    8
 73
    4
 74
    0
 42
1e-07
 43
1e-07
 40
0
 40
0
 40
0
 40
0
 40
1
 40
1
 40
1
 40
1
 10
140.39278
 20
71.666634
 30
0
 10
140.39278
 20
71.565196
 30
0
 10
140.417227
 20
71.482201
 30
0
 10
140.447138
 20
71.482201
 30
0
  0
SPLINE
  5
B2
100
AcDbEntity
  8
Image
  6
ByLayer
 62
    1
370
   -1
100
AcDbSpline
210
0
220
0
230
0
 70
    8
 71
    3
 72
    8
 73
    4
 74
    0
 42
1e-07
 43
1e-07
 40
0
 40
0
 40
0
 40
0
 40
1
 40
1
 40
1
 40
1
 10
140.447138
 20
71.482201
 30
0
 10
140.477034
 20
71.482201
 30
0
 10
140.501494
 20
71.43328
 30
0
 10
140.501494
 20
71.373487
 30
0
  0
SPLINE
  5
B3
100
AcDbEntity
  8
Image
  6
ByLayer
 62
    1
370
   -1
100
AcDbSpline
210
0
220
0
230
0
 70
    8
 71
    3
 72
    8
 73
    4
 74
    0
 42
1e-07
 43
1e-07
 40
0
 40
0
 40
0
 40
0
 40
1
 40
1
 40
1
 40
1
 10
140.501494
 20
71.373487
 30
0
 10
140.501494
 20
71.31369599999999
 30
0
 10
140.525942
 20
71.264775
 30
0
 10
140.55585
 20
71.264775
 30
0
  0
SPLINE
  5
B4
100
AcDbEntity
  8
Image
  6
ByLayer
 62
    1
370
   -1
100
AcDbSpline
210
0
220
0
230
0
 70
    8
 71
    3
 72
    8
 73
    4
 74
    0
 42
1e-07
 43
1e-07
 40
0
 40
0
 40
0
 40
0
 40
1
 40
1
 40
1
 40
1
 10
140.55585
 20
71.264775
 30
0
 10
140.585748
 20
71.264775
 30
0
 10
140.610206
 20
71.215086
 30
0
 10
140.610206
 20
71.154354
 30
0
  0
SPLINE
  5
B5
100
AcDbEntity
  8
Image
  6
ByLayer
 62
    1
370
   -1
100
AcDbSpline
210
0
220
0
230
0
 70
    8
 71
    3
 72
    8
 73
    4
 74
    0
 42
1e-07
 43
1e-07
 40
0
 40
0
 40
0
 40
0
 40
1
 40
1
 40
1
 40
1
 10
140.610206
 20
71.154354
 30
0
 10
140.610206
 20
71.09362400000001
 30
0
 10
140.646899
 20
71.029856
 30
0
 10
140.691743
 20
71.012648
 30
0
  0
SPLINE
  5
B6
100
AcDbEntity
  8
Image
  6
ByLayer
 62
    1
370
   -1
100
AcDbSpline
210
0
220
0
230
0
 70
    8
 71
    3
 72
    8
 73
    4
 74
    0
 42
1e-07
 43
1e-07
 40
0
 40
0
 40
0
 40
0
 40
1
 40
1
 40
1
 40
1
 10
140.691743
 20
71.012648
 30
0
 10
140.742051
 20
70.99333300000001
 30
0
 10
140.773277
 20
70.910723
 30
0
 10
140.773277
 20
70.796925
 30
0
  0
SPLINE
  5
B7
100
AcDbEntity
  8
Image
  6
ByLayer
 62
    1
370
   -1
100
AcDbSpline
210
0
220
0
230
0
 70
    8
 71
    3
 72
    8
 73
    4
 74
    0
 42
1e-07
 43
1e-07
 40
0
 40
0
 40
0
 40
0
 40
1
 40
1
 40
1
 40
1
 10
140.773277
 20
70.796925
 30
0
 10
140.773277
 20
70.695487
 30
0
 10
140.797751
 20
70.612492
 30
0
 10
140.827636
 20
70.612492
 30
0
  0
SPLINE
  5
B8
100
AcDbEntity
  8
Image
  6
ByLayer
 62
    1
370
   -1
100
AcDbSpline
210
0
220
0
230
0
 70
    8
 71
    3
 72
    8
 73
    4
 74
    0
 42
1e-07
 43
1e-07
 40
0
 40
0
 40
0
 40
0
 40
1
 40
1
 40
1
 40
1
 10
140.827636
 20
70.612492
 30
0
 10
140.857531
 20
70.612492
 30
0
 10
140.881992
 20
70.55134200000001
 30
0
 10
140.881992
 20
70.47659899999999
 30
0
  0
SPLINE
  5
B9
100
AcDbEntity
  8
Image
  6
ByLayer
 62
    1
370
   -1
100
AcDbSpline
210
0
220
0
230
0
 70
    8
 71
    3
 72
    8
 73
    4
 74
    0
 42
1e-07
 43
1e-07
 40
0
 40
0
 40
0
 40
0
 40
1
 40
1
 40
1
 40
1
 10
140.881992
 20
70.47659899999999
 30
0
 10
140.881992
 20
70.40186
 30
0
 10
140.906466
 20
70.34070699999999
 30
0
 10
140.936348
 20
70.34070699999999
 30
0
  0
SPLINE
  5
BA
100
AcDbEntity
  8
Image
  6
ByLayer
 62
    1
370
   -1
100
AcDbSpline
210
0
220
0
230
0
 70
    8
 71
    3
 72
    8
 73
    4
 74
    0
 42
1e-07
 43
1e-07
 40
0
 40
0
 40
0
 40
0
 40
1
 40
1
 40
1
 40
1
 10
140.936348
 20
70.34070699999999
 30
0
 10
140.966547
 20
70.34070699999999
 30
0
 10
140.990706
 20
70.195758
 30
0
 10
140.990706
 20
70.014568
 30
0
  0
SPLINE
  5
BB
100
AcDbEntity
  8
Image
  6
ByLayer
 62
    1
370
   -1
100
AcDbSpline
210
0
220
0
230
0
 70
    8
 71
    3
 72
    8
 73
    4
 74
    0
 42
1e-07
 43
1e-07
 40
0
 40
0
 40
0
 40
0
 40
1
 40
1
 40
1
 40
1
 10
140.990706
 20
70.014568
 30
0
 10
140.990706
 20
69.833376
 30
0
 10
140.96655
 20
69.688427
 30
0
 10
140.936348
 20
69.688427
 30
0
  0
SPLINE
  5
BC
100
AcDbEntity
  8
Image
  6
ByLayer
 62
    1
370
   -1
100
AcDbSpline
210
0
220
0
230
0
 70
    8
 71
    3
 72
    8
 73
    4
 74
    0
 42
1e-07
 43
1e-07
 40
0
 40
0
 40
0
 40
0
 40
1
 40
1
 40
1
 40
1
 10
140.936348
 20
69.688427
 30
0
 10
140.906452
 20
69.688427
 30
0
 10
140.881992
 20
69.578352
 30
0
 10
140.881992
 20
69.44382
 30
0
  0
SPLINE
  5
BD
100
AcDbEntity
  8
Image
  6
ByLayer
 62
    1
370
   -1
100
AcDbSpline
210
0
220
0
230
0
 70
    8
 71
    3
 72
    8
 73
    4
 74
    0
 42
1e-07
 43
1e-07
 40
0
 40
0
 40
0
 40
0
 40
1
 40
1
 40
1
 40
1
 10
140.881992
 20
69.44382
 30
0
 10
140.881992
 20
69.309287
 30
0
 10
140.857544
 20
69.199215
 30
0
 10
140.827636
 20
69.199215
 30
0
  0
SPLINE
  5
BE
100
AcDbEntity
  8
Image
  6
ByLayer
 62
    1
370
   -1
100
AcDbSpline
210
0
220
0
230
0
 70
    8
 71
    3
 72
    8
 73
    4
 74
    0
 42
1e-07
 43
1e-07
 40
0
 40
0
 40
0
 40
0
 40
1
 40
1
 40
1
 40
1
 10
140.827636
 20
69.199215
 30
0
 10
140.797738
 20
69.199215
 30
0
 10
140.773277
 20
69.11622
 30
0
 10
140.773277
 20
69.014782
 30
0
  0
SPLINE
  5
BF
100
AcDbEntity
  8
Image
  6
ByLayer
 62
    1
370
   -1
100
AcDbSpline
210
0
220
0
230
0
 70
    8
 71
    3
 72
    8
 73
    4
 74
    0
 42
1e-07
 43
1e-07
 40
0
 40
0
 40
0
 40
0
 40
1
 40
1
 40
1
 40
1
 10
140.773277
 20
69.014782
 30
0
 10
140.773277
 20
68.90098500000001
 30
0
 10
140.742051
 20
68.818366
 30
0
 10
140.691743
 20
68.799059
 30
0
  0
SPLINE
  5
C0
100
AcDbEntity
  8
Image
  6
ByLayer
 62
    1
370
   -1
100
AcDbSpline
210
0
220
0
230
0
 70
    8
 71
    3
 72
    8
 73
    4
 74
    0
 42
1e-07
 43
1e-07
 40
0
 40
0
 40
0
 40
0
 40
1
 40
1
 40
1
 40
1
 10
140.691743
 20
68.799059
 30
0
 10
140.646899
 20
68.78186100000001
 30
0
 10
140.610206
 20
68.71808299999999
 30
0
 10
140.610206
 20
68.65735100000001
 30
0
  0
SPLINE
  5
C1
100
AcDbEntity
  8
Image
  6
ByLayer
 62
    1
370
   -1
100
AcDbSpline
210
0
220
0
230
0
 70
    8
 71
    3
 72
    8
 73
    4
 74
    0
 42
1e-07
 43
1e-07
 40
0
 40
0
 40
0
 40
0
 40
1
 40
1
 40
1
 40
1
 10
140.610206
 20
68.65735100000001
 30
0
 10
140.610206
 20
68.596621
 30
0
 10
140.585759
 20
68.546932
 30
0
 10
140.55585
 20
68.546932
 30
0
  0
SPLINE
  5
C2
100
AcDbEntity
  8
Image
  6
ByLayer
 62
    1
370
   -1
100
AcDbSpline
210
0
220
0
230
0
 70
    8
 71
    3
 72
    8
 73
    4
 74
    0
 42
1e-07
 43
1e-07
 40
0
 40
0
 40
0
 40
0
 40
1
 40
1
 40
1
 40
1
 10
140.55585
 20
68.546932
 30
0
 10
140.525955
 20
68.546932
 30
0
 10
140.501494
 20
68.49801100000001
 30
0
 10
140.501494
 20
68.43821800000001
 30
0
  0
SPLINE
  5
C3
100
AcDbEntity
  8
Image
  6
ByLayer
 62
    1
370
   -1
100
AcDbSpline
210
0
220
0
230
0
 70
    8
 71
    3
 72
    8
 73
    4
 74
    0
 42
1e-07
 43
1e-07
 40
0
 40
0
 40
0
 40
0
 40
1
 40
1
 40
1
 40
1
 10
140.501494
 20
68.43821800000001
 30
0
 10
140.501494
 20
68.378427
 30
0
 10
140.525942
 20
68.32950599999999
 30
0
 10
140.55585
 20
68.32950599999999
 30
0
  0
SPLINE
  5
C4
100
AcDbEntity
  8
Image
  6
ByLayer
 62
    1
370
   -1
100
AcDbSpline
210
0
220
0
230
0
 70
    8
 71
    3
 72
    8
 73
    4
 74
    0
 42
1e-07
 43
1e-07
 40
0
 40
0
 40
0
 40
0
 40
1
 40
1
 40
1
 40
1
 10
140.55585
 20
68.32950599999999
 30
0
 10
140.585748
 20
68.32950599999999
 30
0
 10
140.610206
 20
68.25535600000001
 30
0
 10
140.610206
 20
68.16472899999999
 30
0
  0
SPLINE
  5
C5
100
AcDbEntity
  8
Image
  6
ByLayer
 62
    1
370
   -1
100
AcDbSpline
210
0
220
0
230
0
 70
    8
 71
    3
 72
    8
 73
    4
 74
    0
 42
1e-07
 43
1e-07
 40
0
 40
0
 40
0
 40
0
 40
1
 40
1
 40
1
 40
1
 10
140.610206
 20
68.16472899999999
 30
0
 10
140.610206
 20
68.068404
 30
0
 10
140.644078
 20
67.98695499999999
 30
0
 10
140.691743
 20
67.968664
 30
0
  0
SPLINE
  5
C6
100
AcDbEntity
  8
Image
  6
ByLayer
 62
    1
370
   -1
100
AcDbSpline
210
0
220
0
230
0
 70
    8
 71
    3
 72
    8
 73
    4
 74
    0
 42
1e-07
 43
1e-07
 40
0
 40
0
 40
0
 40
0
 40
1
 40
1
 40
1
 40
1
 10
140.691743
 20
67.968664
 30
0
 10
140.736587
 20
67.951466
 30
0
 10
140.773277
 20
67.87884099999999
 30
0
 10
140.773277
 20
67.8073
 30
0
  0
SPLINE
  5
C7
100
AcDbEntity
  8
Image
  6
ByLayer
 62
    1
370
   -1
100
AcDbSpline
210
0
220
0
230
0
 70
    8
 71
    3
 72
    8
 73
    4
 74
    0
 42
1e-07
 43
1e-07
 40
0
 40
0
 40
0
 40
0
 40
1
 40
1
 40
1
 40
1
 10
140.773277
 20
67.8073
 30
0
 10
140.773277
 20
67.73575700000001
 30
0
 10
140.797751
 20
67.677223
 30
0
 10
140.827636
 20
67.677223
 30
0
  0
SPLINE
  5
C8
100
AcDbEntity
  8
Image
  6
ByLayer
 62
    1
370
   -1
100
AcDbSpline
210
0
220
0
230
0
 70
    8
 71
    3
 72
    8
 73
    4
 74
    0
 42
1e-07
 43
1e-07
 40
0
 40
0
 40
0
 40
0
 40
1
 40
1
 40
1
 40
1
 10
140.827636
 20
67.677223
 30
0
 10
140.857531
 20
67.677223
 30
0
 10
140.881992
 20
67.591612
 30
0
 10
140.881992
 20
67.486975
 30
0
  0
SPLINE
  5
C9
100
AcDbEntity
  8
Image
  6
ByLayer
 62
    1
370
   -1
100
AcDbSpline
210
0
220
0
230
0
 70
    8
 71
    3
 72
    8
 73
    4
 74
    0
 42
1e-07
 43
1e-07
 40
0
 40
0
 40
0
 40
0
 40
1
 40
1
 40
1
 40
1
 10
140.881992
 20
67.486975
 30
0
 10
140.881992
 20
67.38233700000001
 30
0
 10
140.906466
 20
67.29672600000001
 30
0
 10
140.936348
 20
67.29672600000001
 30
0
  0
SPLINE
  5
CA
100
AcDbEntity
  8
Image
  6
ByLayer
 62
    1
370
   -1
100
AcDbSpline
210
0
220
0
230
0
 70
    8
 71
    3
 72
    8
 73
    4
 74
    0
 42
1e-07
 43
1e-07
 40
0
 40
0
 40
0
 40
0
 40
1
 40
1
 40
1
 40
1
 10
140.936348
 20
67.29672600000001
 30
0
 10
140.966246
 20
67.29672600000001
 30
0
 10
140.990706
 20
67.263029
 30
0
 10
140.990706
 20
67.221846
 30
0
  0
SPLINE
  5
CB
100
AcDbEntity
  8
Image
  6
ByLayer
 62
    1
370
   -1
100
AcDbSpline
210
0
220
0
230
0
 70
    8
 71
    3
 72
    8
 73
    4
 74
    0
 42
1e-07
 43
1e-07
 40
0
 40
0
 40
0
 40
0
 40
1
 40
1
 40
1
 40
1
 10
140.990706
 20
67.221846
 30
0
 10
140.990706
 20
67.180661
 30
0
 10
141.027396
 20
67.116516
 30
0
 10
141.07224
 20
67.079297
 30
0
  0
SPLINE
  5
CC
100
AcDbEntity
  8
Image
  6
ByLayer
 62
    1
370
   -1
100
AcDbSpline
210
0
220
0
230
0
 70
    8
 71
    3
 72
    8
 73
    4
 74
    0
 42
1e-07
 43
1e-07
 40
0
 40
0
 40
0
 40
0
 40
1
 40
1
 40
1
 40
1
 10
141.07224
 20
67.079297
 30
0
 10
141.117085
 20
67.04208
 30
0
 10
141.153777
 20
66.94268700000001
 30
0
 10
141.153777
 20
66.858422
 30
0
  0
SPLINE
  5
CD
100
AcDbEntity
  8
Image
  6
ByLayer
 62
    1
370
   -1
100
AcDbSpline
210
0
220
0
230
0
 70
    8
 71
    3
 72
    8
 73
    4
 74
    0
 42
1e-07
 43
1e-07
 40
0
 40
0
 40
0
 40
0
 40
1
 40
1
 40
1
 40
1
 10
141.153777
 20
66.858422
 30
0
 10
141.153777
 20
66.774158
 30
0
 10
141.178224
 20
66.69009699999999
 30
0
 10
141.208133
 20
66.671621
 30
0
  0
SPLINE
  5
CE
100
AcDbEntity
  8
Image
  6
ByLayer
 62
    1
370
   -1
100
AcDbSpline
210
0
220
0
230
0
 70
    8
 71
    3
 72
    8
 73
    4
 74
    0
 42
1e-07
 43
1e-07
 40
0
 40
0
 40
0
 40
0
 40
1
 40
1
 40
1
 40
1
 10
141.208133
 20
66.671621
 30
0
 10
141.238028
 20
66.653153
 30
0
 10
141.262489
 20
66.506381
 30
0
 10
141.262489
 20
66.34547999999999
 30
0
  0
SPLINE
  5
CF
100
AcDbEntity
  8
Image
  6
ByLayer
 62
    1
370
   -1
100
AcDbSpline
210
0
220
0
230
0
 70
    8
 71
    3
 72
    8
 73
    4
 74
    0
 42
1e-07
 43
1e-07
 40
0
 40
0
 40
0
 40
0
 40
1
 40
1
 40
1
 40
1
 10
141.262489
 20
66.34547999999999
 30
0
 10
141.262489
 20
66.184579
 30
0
 10
141.238041
 20
66.037817
 30
0
 10
141.208133
 20
66.019339
 30
0
  0
SPLINE
  5
D0
100
AcDbEntity
  8
Image
  6
ByLayer
 62
    1
370
   -1
100
AcDbSpline
210
0
220
0
230
0
 70
    8
 71
    3
 72
    8
 73
    4
 74
    0
 42
1e-07
 43
1e-07
 40
0
 40
0
 40
0
 40
0
 40
1
 40
1
 40
1
 40
1
 10
141.208133
 20
66.019339
 30
0
 10
141.178238
 20
66.000871
 30
0
 10
141.153777
 20
65.855273
 30
0
 10
141.153777
 20
65.695806
 30
0
  0
SPLINE
  5
D1
100
AcDbEntity
  8
Image
  6
ByLayer
 62
    1
370
   -1
100
AcDbSpline
210
0
220
0
230
0
 70
    8
 71
    3
 72
    8
 73
    4
 74
    0
 42
1e-07
 43
1e-07
 40
0
 40
0
 40
0
 40
0
 40
1
 40
1
 40
1
 40
1
 10
141.153777
 20
65.695806
 30
0
 10
141.153777
 20
65.49755399999999
 30
0
 10
141.129726
 20
65.39663899999999
 30
0
 10
141.077744
 20
65.37669
 30
0
  0
SPLINE
  5
D2
100
AcDbEntity
  8
Image
  6
ByLayer
 62
    1
370
   -1
100
AcDbSpline
210
0
220
0
230
0
 70
    8
 71
    3
 72
    8
 73
    4
 74
    0
 42
1e-07
 43
1e-07
 40
0
 40
0
 40
0
 40
0
 40
1
 40
1
 40
1
 40
1
 10
141.077744
 20
65.37669
 30
0
 10
141.033331
 20
65.35965
 30
0
 10
140.988121
 20
65.23291
 30
0
 10
140.969032
 20
65.071913
 30
0
  0
SPLINE
  5
D3
100
AcDbEntity
  8
Image
  6
ByLayer
 62
    1
370
   -1
100
AcDbSpline
210
0
220
0
230
0
 70
    8
 71
    3
 72
    8
 73
    4
 74
    0
 42
1e-07
 43
1e-07
 40
0
 40
0
 40
0
 40
0
 40
1
 40
1
 40
1
 40
1
 10
140.969032
 20
65.071913
 30
0
 10
140.951066
 20
64.920331
 30
0
 10
140.921759
 20
64.674007
 30
0
 10
140.903923
 20
64.524525
 30
0
  0
SPLINE
  5
D4
100
AcDbEntity
  8
Image
  6
ByLayer
 62
    1
370
   -1
100
AcDbSpline
210
0
220
0
230
0
 70
    8
 71
    3
 72
    8
 73
    4
 74
    0
 42
1e-07
 43
1e-07
 40
0
 40
0
 40
0
 40
0
 40
1
 40
1
 40
1
 40
1
 10
140.903923
 20
64.524525
 30
0
 10
140.88609
 20
64.37504300000001
 30
0
 10
140.8494
 20
64.252742
 30
0
 10
140.822389
 20
64.252742
 30
0
  0
SPLINE
  5
D5
100
AcDbEntity
  8
Image
  6
ByLayer
 62
    1
370
   -1
100
AcDbSpline
210
0
220
0
230
0
 70
    8
 71
    3
 72
    8
 73
    4
 74
    0
 42
1e-07
 43
1e-07
 40
0
 40
0
 40
0
 40
0
 40
1
 40
1
 40
1
 40
1
 10
140.822389
 20
64.252742
 30
0
 10
140.795378
 20
64.252742
 30
0
 10
140.773277
 20
64.10859499999999
 30
0
 10
140.773277
 20
63.932416
 30
0
  0
SPLINE
  5
D6
100
AcDbEntity
  8
Image
  6
ByLayer
 62
    1
370
   -1
100
AcDbSpline
210
0
220
0
230
0
 70
    8
 71
    3
 72
    8
 73
    4
 74
    0
 42
1e-07
 43
1e-07
 40
0
 40
0
 40
0
 40
0
 40
1
 40
1
 40
1
 40
1
 10
140.773277
 20
63.932416
 30
0
 10
140.773277
 20
63.697826
 30
0
 10
140.751449
 20
63.603717
 30
0
 10
140.691743
 20
63.580801
 30
0
  0
SPLINE
  5
D7
100
AcDbEntity
  8
Image
  6
ByLayer
 62
    1
370
   -1
100
AcDbSpline
210
0
220
0
230
0
 70
    8
 71
    3
 72
    8
 73
    4
 74
    0
 42
1e-07
 43
1e-07
 40
0
 40
0
 40
0
 40
0
 40
1
 40
1
 40
1
 40
1
 10
140.691743
 20
63.580801
 30
0
 10
140.632865
 20
63.558206
 30
0
 10
140.610206
 20
63.465964
 30
0
 10
140.610206
 20
63.248847
 30
0
  0
SPLINE
  5
D8
100
AcDbEntity
  8
Image
  6
ByLayer
 62
    1
370
   -1
100
AcDbSpline
210
0
220
0
230
0
 70
    8
 71
    3
 72
    8
 73
    4
 74
    0
 42
1e-07
 43
1e-07
 40
0
 40
0
 40
0
 40
0
 40
1
 40
1
 40
1
 40
1
 10
140.610206
 20
63.248847
 30
0
 10
140.610206
 20
63.083477
 30
0
 10
140.585759
 20
62.948177
 30
0
 10
140.55585
 20
62.948177
 30
0
  0
SPLINE
  5
D9
100
AcDbEntity
  8
Image
  6
ByLayer
 62
    1
370
   -1
100
AcDbSpline
210
0
220
0
230
0
 70
    8
 71
    3
 72
    8
 73
    4
 74
    0
 42
1e-07
 43
1e-07
 40
0
 40
0
 40
0
 40
0
 40
1
 40
1
 40
1
 40
1
 10
140.55585
 20
62.948177
 30
0
 10
140.525955
 20
62.948177
 30
0
 10
140.501494
 20
62.813644
 30
0
 10
140.501494
 20
62.649214
 30
0
  0
SPLINE
  5
DA
100
AcDbEntity
  8
Image
  6
ByLayer
 62
    1
370
   -1
100
AcDbSpline
210
0
220
0
230
0
 70
    8
 71
    3
 72
    8
 73
    4
 74
    0
 42
1e-07
 43
1e-07
 40
0
 40
0
 40
0
 40
0
 40
1
 40
1
 40
1
 40
1
 10
140.501494
 20
62.649214
 30
0
 10
140.501494
 20
62.484786
 30
0
 10
140.477047
 20
62.350253
 30
0
 10
140.447138
 20
62.350253
 30
0
  0
SPLINE
  5
DB
100
AcDbEntity
  8
Image
  6
ByLayer
 62
    1
370
   -1
100
AcDbSpline
210
0
220
0
230
0
 70
    8
 71
    3
 72
    8
 73
    4
 74
    0
 42
1e-07
 43
1e-07
 40
0
 40
0
 40
0
 40
0
 40
1
 40
1
 40
1
 40
1
 10
140.447138
 20
62.350253
 30
0
 10
140.41724
 20
62.350253
 30
0
 10
140.39278
 20
62.230566
 30
0
 10
140.39278
 20
62.084283
 30
0
  0
SPLINE
  5
DC
100
AcDbEntity
  8
Image
  6
ByLayer
 62
    1
370
   -1
100
AcDbSpline
210
0
220
0
230
0
 70
    8
 71
    3
 72
    8
 73
    4
 74
    0
 42
1e-07
 43
1e-07
 40
0
 40
0
 40
0
 40
0
 40
1
 40
1
 40
1
 40
1
 10
140.39278
 20
62.084283
 30
0
 10
140.39278
 20
61.898011
 30
0
 10
140.368359
 20
61.808939
 30
0
 10
140.311246
 20
61.787027
 30
0
  0
SPLINE
  5
DD
100
AcDbEntity
  8
Image
  6
ByLayer
 62
    1
370
   -1
100
AcDbSpline
210
0
220
0
230
0
 70
    8
 71
    3
 72
    8
 73
    4
 74
    0
 42
1e-07
 43
1e-07
 40
0
 40
0
 40
0
 40
0
 40
1
 40
1
 40
1
 40
1
 10
140.311246
 20
61.787027
 30
0
 10
140.253895
 20
61.765013
 30
0
 10
140.229709
 20
61.675563
 30
0
 10
140.229709
 20
61.485457
 30
0
  0
SPLINE
  5
DE
100
AcDbEntity
  8
Image
  6
ByLayer
 62
    1
370
   -1
100
AcDbSpline
210
0
220
0
230
0
 70
    8
 71
    3
 72
    8
 73
    4
 74
    0
 42
1e-07
 43
1e-07
 40
0
 40
0
 40
0
 40
0
 40
1
 40
1
 40
1
 40
1
 10
140.229709
 20
61.485457
 30
0
 10
140.229709
 20
61.336801
 30
0
 10
140.205262
 20
61.200056
 30
0
 10
140.175353
 20
61.181581
 30
0
  0
SPLINE
  5
DF
100
AcDbEntity
  8
Image
  6
ByLayer
 62
    1
370
   -1
100
AcDbSpline
210
0
220
0
230
0
 70
    8
 71
    3
 72
    8
 73
    4
 74
    0
 42
1e-07
 43
1e-07
 40
0
 40
0
 40
0
 40
0
 40
1
 40
1
 40
1
 40
1
 10
140.175353
 20
61.181581
 30
0
 10
140.145458
 20
61.163113
 30
0
 10
140.120997
 20
61.014896
 30
0
 10
140.120997
 20
60.85223
 30
0
  0
SPLINE
  5
E0
100
AcDbEntity
  8
Image
  6
ByLayer
 62
    1
370
   -1
100
AcDbSpline
210
0
220
0
230
0
 70
    8
 71
    3
 72
    8
 73
    4
 74
    0
 42
1e-07
 43
1e-07
 40
0
 40
0
 40
0
 40
0
 40
1
 40
1
 40
1
 40
1
 10
140.120997
 20
60.85223
 30
0
 10
140.120997
 20
60.689567
 30
0
 10
140.09655
 20
60.556476
 30
0
 10
140.066638
 20
60.556476
 30
0
  0
SPLINE
  5
E1
100
AcDbEntity
  8
Image
  6
ByLayer
 62
    1
370
   -1
100
AcDbSpline
210
0
220
0
230
0
 70
    8
 71
    3
 72
    8
 73
    4
 74
    0
 42
1e-07
 43
1e-07
 40
0
 40
0
 40
0
 40
0
 40
1
 40
1
 40
1
 40
1
 10
140.066638
 20
60.556476
 30
0
 10
140.03655
 20
60.556476
 30
0
 10
140.012282
 20
60.413463
 30
0
 10
140.012282
 20
60.23615
 30
0
  0
SPLINE
  5
E2
100
AcDbEntity
  8
Image
  6
ByLayer
 62
    1
370
   -1
100
AcDbSpline
210
0
220
0
230
0
 70
    8
 71
    3
 72
    8
 73
    4
 74
    0
 42
1e-07
 43
1e-07
 40
0
 40
0
 40
0
 40
0
 40
1
 40
1
 40
1
 40
1
 10
140.012282
 20
60.23615
 30
0
 10
140.012282
 20
60.00156
 30
0
 10
139.990454
 20
59.90745
 30
0
 10
139.930746
 20
59.884538
 30
0
  0
SPLINE
  5
E3
100
AcDbEntity
  8
Image
  6
ByLayer
 62
    1
370
   -1
100
AcDbSpline
210
0
220
0
230
0
 70
    8
 71
    3
 72
    8
 73
    4
 74
    0
 42
1e-07
 43
1e-07
 40
0
 40
0
 40
0
 40
0
 40
1
 40
1
 40
1
 40
1
 10
139.930746
 20
59.884538
 30
0
 10
139.87693
 20
59.863874
 30
0
 10
139.849212
 20
59.778757
 30
0
 10
139.849212
 20
59.634115
 30
0
  0
SPLINE
  5
E4
100
AcDbEntity
  8
Image
  6
ByLayer
 62
    1
370
   -1
100
AcDbSpline
210
0
220
0
230
0
 70
    8
 71
    3
 72
    8
 73
    4
 74
    0
 42
1e-07
 43
1e-07
 40
0
 40
0
 40
0
 40
0
 40
1
 40
1
 40
1
 40
1
 10
139.849212
 20
59.634115
 30
0
 10
139.849212
 20
59.513592
 30
0
 10
139.824764
 20
59.414981
 30
0
 10
139.794856
 20
59.414981
 30
0
  0
SPLINE
  5
E5
100
AcDbEntity
  8
Image
  6
ByLayer
 62
    1
370
   -1
100
AcDbSpline
210
0
220
0
230
0
 70
    8
 71
    3
 72
    8
 73
    4
 74
    0
 42
1e-07
 43
1e-07
 40
0
 40
0
 40
0
 40
0
 40
1
 40
1
 40
1
 40
1
 10
139.794856
 20
59.414981
 30
0
 10
139.764656
 20
59.414981
 30
0
 10
139.740497
 20
59.27003
 30
0
 10
139.740497
 20
59.08884
 30
0
  0
SPLINE
  5
E6
100
AcDbEntity
  8
Image
  6
ByLayer
 62
    1
370
   -1
100
AcDbSpline
210
0
220
0
230
0
 70
    8
 71
    3
 72
    8
 73
    4
 74
    0
 42
1e-07
 43
1e-07
 40
0
 40
0
 40
0
 40
0
 40
1
 40
1
 40
1
 40
1
 10
139.740497
 20
59.08884
 30
0
 10
139.740497
 20
58.907651
 30
0
 10
139.716341
 20
58.762702
 30
0
 10
139.686141
 20
58.762702
 30
0
  0
SPLINE
  5
E7
100
AcDbEntity
  8
Image
  6
ByLayer
 62
    1
370
   -1
100
AcDbSpline
210
0
220
0
230
0
 70
    8
 71
    3
 72
    8
 73
    4
 74
    0
 42
1e-07
 43
1e-07
 40
0
 40
0
 40
0
 40
0
 40
1
 40
1
 40
1
 40
1
 10
139.686141
 20
58.762702
 30
0
 10
139.656246
 20
58.762702
 30
0
 10
139.631785
 20
58.630783
 30
0
 10
139.631785
 20
58.469554
 30
0
  0
SPLINE
  5
E8
100
AcDbEntity
  8
Image
  6
ByLayer
 62
    1
370
   -1
100
AcDbSpline
210
0
220
0
230
0
 70
    8
 71
    3
 72
    8
 73
    4
 74
    0
 42
1e-07
 43
1e-07
 40
0
 40
0
 40
0
 40
0
 40
1
 40
1
 40
1
 40
1
 10
139.631785
 20
58.469554
 30
0
 10
139.631785
 20
58.259123
 30
0
 10
139.608766
 20
58.167577
 30
0
 10
139.550248
 20
58.145119
 30
0
  0
SPLINE
  5
E9
100
AcDbEntity
  8
Image
  6
ByLayer
 62
    1
370
   -1
100
AcDbSpline
210
0
220
0
230
0
 70
    8
 71
    3
 72
    8
 73
    4
 74
    0
 42
1e-07
 43
1e-07
 40
0
 40
0
 40
0
 40
0
 40
1
 40
1
 40
1
 40
1
 10
139.550248
 20
58.145119
 30
0
 10
139.491371
 20
58.122524
 30
0
 10
139.468714
 20
58.030279
 30
0
 10
139.468714
 20
57.813162
 30
0
  0
SPLINE
  5
EA
100
AcDbEntity
  8
Image
  6
ByLayer
 62
    1
370
   -1
100
AcDbSpline
210
0
220
0
230
0
 70
    8
 71
    3
 72
    8
 73
    4
 74
    0
 42
1e-07
 43
1e-07
 40
0
 40
0
 40
0
 40
0
 40
1
 40
1
 40
1
 40
1
 10
139.468714
 20
57.813162
 30
0
 10
139.468714
 20
57.647792
 30
0
 10
139.444267
 20
57.512492
 30
0
 10
139.414356
 20
57.512492
 30
0
  0
SPLINE
  5
EB
100
AcDbEntity
  8
Image
  6
ByLayer
 62
    1
370
   -1
100
AcDbSpline
210
0
220
0
230
0
 70
    8
 71
    3
 72
    8
 73
    4
 74
    0
 42
1e-07
 43
1e-07
 40
0
 40
0
 40
0
 40
0
 40
1
 40
1
 40
1
 40
1
 10
139.414356
 20
57.512492
 30
0
 10
139.384461
 20
57.512492
 30
0
 10
139.36
 20
57.403865
 30
0
 10
139.36
 20
57.271095
 30
0
  0
SPLINE
  5
EC
100
AcDbEntity
  8
Image
  6
ByLayer
 62
    1
370
   -1
100
AcDbSpline
210
0
220
0
230
0
 70
    8
 71
    3
 72
    8
 73
    4
 74
    0
 42
1e-07
 43
1e-07
 40
0
 40
0
 40
0
 40
0
 40
1
 40
1
 40
1
 40
1
 10
139.36
 20
57.271095
 30
0
 10
139.36
 20
57.138327
 30
0
 10
139.335552
 20
57.014581
 30
0
 10
139.305644
 20
56.996102
 30
0
  0
SPLINE
  5
ED
100
AcDbEntity
  8
Image
  6
ByLayer
 62
    1
370
   -1
100
AcDbSpline
210
0
220
0
230
0
 70
    8
 71
    3
 72
    8
 73
    4
 74
    0
 42
1e-07
 43
1e-07
 40
0
 40
0
 40
0
 40
0
 40
1
 40
1
 40
1
 40
1
 10
139.305644
 20
56.996102
 30
0
 10
139.275746
 20
56.977635
 30
0
 10
139.251288
 20
56.915031
 30
0
 10
139.251288
 20
56.857003
 30
0
  0
SPLINE
  5
EE
100
AcDbEntity
  8
Image
  6
ByLayer
 62
    1
370
   -1
100
AcDbSpline
210
0
220
0
230
0
 70
    8
 71
    3
 72
    8
 73
    4
 74
    0
 42
1e-07
 43
1e-07
 40
0
 40
0
 40
0
 40
0
 40
1
 40
1
 40
1
 40
1
 10
139.251288
 20
56.857003
 30
0
 10
139.251288
 20
56.754281
 30
0
 10
139.19246
 20
56.751498
 30
0
 10
137.022655
 20
56.751498
 30
0
  0
SPLINE
  5
EF
100
AcDbEntity
  8
Image
  6
ByLayer
 62
    1
370
   -1
100
AcDbSpline
210
0
220
0
230
0
 70
    8
 71
    3
 72
    8
 73
    4
 74
    0
 42
1e-07
 43
1e-07
 40
0
 40
0
 40
0
 40
0
 40
1
 40
1
 40
1
 40
1
 10
137.022655
 20
56.751498
 30
0
 10
135.57314
 20
56.751498
 30
0
 10
134.794024
 20
56.770495
 30
0
 10
134.794024
 20
56.805854
 30
0
  0
LINE
  5
F0
100
AcDbEntity
  8
Image
  6
ByLayer
 62
    1
370
   -1
100
AcDbLine
 10
134.794024
 20
56.805854
 11
134.794133
 21
56.805854
  0
SPLINE
  5
F1
100
AcDbEntity
  8
Image
  6
ByLayer
 62
    1
370
   -1
100
AcDbSpline
210
0
220
0
230
0
 70
    8
 71
    3
 72
    8
 73
    4
 74
    0
 42
1e-07
 43
1e-07
 40
0
 40
0
 40
0
 40
0
 40
1
 40
1
 40
1
 40
1
 10
141.51569
 20
41.828035
 30
0
 10
141.493147
 20
41.886746
 30
0
 10
141.409195
 20
41.91208
 30
0
 10
141.237126
 20
41.91208
 30
0
  0
SPLINE
  5
F2
100
AcDbEntity
  8
Image
  6
ByLayer
 62
    1
370
   -1
100
AcDbSpline
210
0
220
0
230
0
 70
    8
 71
    3
 72
    8
 73
    4
 74
    0
 42
1e-07
 43
1e-07
 40
0
 40
0
 40
0
 40
0
 40
1
 40
1
 40
1
 40
1
 10
141.237126
 20
41.91208
 30
0
 10
141.101654
 20
41.91208
 30
0
 10
140.990815
 20
41.936527
 30
0
 10
140.990815
 20
41.966436
 30
0
  0
SPLINE
  5
F3
100
AcDbEntity
  8
Image
  6
ByLayer
 62
    1
370
   -1
100
AcDbSpline
210
0
220
0
230
0
 70
    8
 71
    3
 72
    8
 73
    4
 74
    0
 42
1e-07
 43
1e-07
 40
0
 40
0
 40
0
 40
0
 40
1
 40
1
 40
1
 40
1
 10
140.990815
 20
41.966436
 30
0
 10
140.990815
 20
41.996331
 30
0
 10
140.857724
 20
42.020792
 30
0
 10
140.695058
 20
42.020792
 30
0
  0
SPLINE
  5
F4
100
AcDbEntity
  8
Image
  6
ByLayer
 62
    1
370
   -1
100
AcDbSpline
210
0
220
0
230
0
 70
    8
 71
    3
 72
    8
 73
    4
 74
    0
 42
1e-07
 43
1e-07
 40
0
 40
0
 40
0
 40
0
 40
1
 40
1
 40
1
 40
1
 10
140.695058
 20
42.020792
 30
0
 10
140.532395
 20
42.020792
 30
0
 10
140.384186
 20
42.045239
 30
0
 10
140.36571
 20
42.07515
 30
0
  0
SPLINE
  5
F5
100
AcDbEntity
  8
Image
  6
ByLayer
 62
    1
370
   -1
100
AcDbSpline
210
0
220
0
230
0
 70
    8
 71
    3
 72
    8
 73
    4
 74
    0
 42
1e-07
 43
1e-07
 40
0
 40
0
 40
0
 40
0
 40
1
 40
1
 40
1
 40
1
 10
140.36571
 20
42.07515
 30
0
 10
140.347242
 20
42.105046
 30
0
 10
140.201645
 20
42.129506
 30
0
 10
140.042178
 20
42.129506
 30
0
  0
SPLINE
  5
F6
100
AcDbEntity
  8
Image
  6
ByLayer
 62
    1
370
   -1
100
AcDbSpline
210
0
220
0
230
0
 70
    8
 71
    3
 72
    8
 73
    4
 74
    0
 42
1e-07
 43
1e-07
 40
0
 40
0
 40
0
 40
0
 40
1
 40
1
 40
1
 40
1
 10
140.042178
 20
42.129506
 30
0
 10
139.834596
 20
42.129506
 30
0
 10
139.743349
 20
42.152657
 30
0
 10
139.72095
 20
42.211043
 30
0
  0
SPLINE
  5
F7
100
AcDbEntity
  8
Image
  6
ByLayer
 62
    1
370
   -1
100
AcDbSpline
210
0
220
0
230
0
 70
    8
 71
    3
 72
    8
 73
    4
 74
    0
 42
1e-07
 43
1e-07
 40
0
 40
0
 40
0
 40
0
 40
1
 40
1
 40
1
 40
1
 10
139.72095
 20
42.211043
 30
0
 10
139.698354
 20
42.269918
 30
0
 10
139.60611
 20
42.292577
 30
0
 10
139.388993
 20
42.292577
 30
0
  0
SPLINE
  5
F8
100
AcDbEntity
  8
Image
  6
ByLayer
 62
    1
370
   -1
100
AcDbSpline
210
0
220
0
230
0
 70
    8
 71
    3
 72
    8
 73
    4
 74
    0
 42
1e-07
 43
1e-07
 40
0
 40
0
 40
0
 40
0
 40
1
 40
1
 40
1
 40
1
 10
139.388993
 20
42.292577
 30
0
 10
139.223626
 20
42.292577
 30
0
 10
139.088326
 20
42.317024
 30
0
 10
139.088326
 20
42.346933
 30
0
  0
SPLINE
  5
F9
100
AcDbEntity
  8
Image
  6
ByLayer
 62
    1
370
   -1
100
AcDbSpline
210
0
220
0
230
0
 70
    8
 71
    3
 72
    8
 73
    4
 74
    0
 42
1e-07
 43
1e-07
 40
0
 40
0
 40
0
 40
0
 40
1
 40
1
 40
1
 40
1
 10
139.088326
 20
42.346933
 30
0
 10
139.088326
 20
42.376831
 30
0
 10
138.978251
 20
42.401292
 30
0
 10
138.843718
 20
42.401292
 30
0
  0
SPLINE
  5
FA
100
AcDbEntity
  8
Image
  6
ByLayer
 62
    1
370
   -1
100
AcDbSpline
210
0
220
0
230
0
 70
    8
 71
    3
 72
    8
 73
    4
 74
    0
 42
1e-07
 43
1e-07
 40
0
 40
0
 40
0
 40
0
 40
1
 40
1
 40
1
 40
1
 10
138.843718
 20
42.401292
 30
0
 10
138.709186
 20
42.401292
 30
0
 10
138.599114
 20
42.425739
 30
0
 10
138.599114
 20
42.455648
 30
0
  0
SPLINE
  5
FB
100
AcDbEntity
  8
Image
  6
ByLayer
 62
    1
370
   -1
100
AcDbSpline
210
0
220
0
230
0
 70
    8
 71
    3
 72
    8
 73
    4
 74
    0
 42
1e-07
 43
1e-07
 40
0
 40
0
 40
0
 40
0
 40
1
 40
1
 40
1
 40
1
 10
138.599114
 20
42.455648
 30
0
 10
138.599114
 20
42.485543
 30
0
 10
138.487293
 20
42.510004
 30
0
 10
138.350625
 20
42.510004
 30
0
  0
SPLINE
  5
FC
100
AcDbEntity
  8
Image
  6
ByLayer
 62
    1
370
   -1
100
AcDbSpline
210
0
220
0
230
0
 70
    8
 71
    3
 72
    8
 73
    4
 74
    0
 42
1e-07
 43
1e-07
 40
0
 40
0
 40
0
 40
0
 40
1
 40
1
 40
1
 40
1
 10
138.350625
 20
42.510004
 30
0
 10
138.20222
 20
42.510004
 30
0
 10
138.069296
 20
42.542846
 30
0
 10
138.0206
 20
42.59154
 30
0
  0
SPLINE
  5
FD
100
AcDbEntity
  8
Image
  6
ByLayer
 62
    1
370
   -1
100
AcDbSpline
210
0
220
0
230
0
 70
    8
 71
    3
 72
    8
 73
    4
 74
    0
 42
1e-07
 43
1e-07
 40
0
 40
0
 40
0
 40
0
 40
1
 40
1
 40
1
 40
1
 10
138.0206
 20
42.59154
 30
0
 10
137.972673
 20
42.639467
 30
0
 10
137.839844
 20
42.673074
 30
0
 10
137.698342
 20
42.673074
 30
0
  0
SPLINE
  5
FE
100
AcDbEntity
  8
Image
  6
ByLayer
 62
    1
370
   -1
100
AcDbSpline
210
0
220
0
230
0
 70
    8
 71
    3
 72
    8
 73
    4
 74
    0
 42
1e-07
 43
1e-07
 40
0
 40
0
 40
0
 40
0
 40
1
 40
1
 40
1
 40
1
 10
137.698342
 20
42.673074
 30
0
 10
137.565945
 20
42.673074
 30
0
 10
137.457619
 20
42.697548
 30
0
 10
137.457619
 20
42.727433
 30
0
  0
SPLINE
  5
FF
100
AcDbEntity
  8
Image
  6
ByLayer
 62
    1
370
   -1
100
AcDbSpline
210
0
220
0
230
0
 70
    8
 71
    3
 72
    8
 73
    4
 74
    0
 42
1e-07
 43
1e-07
 40
0
 40
0
 40
0
 40
0
 40
1
 40
1
 40
1
 40
1
 10
137.457619
 20
42.727433
 30
0
 10
137.457619
 20
42.757328
 30
0
 10
137.335316
 20
42.781789
 30
0
 10
137.185834
 20
42.781789
 30
0
  0
SPLINE
  5
100
100
AcDbEntity
  8
Image
  6
ByLayer
 62
    1
370
   -1
100
AcDbSpline
210
0
220
0
230
0
 70
    8
 71
    3
 72
    8
 73
    4
 74
    0
 42
1e-07
 43
1e-07
 40
0
 40
0
 40
0
 40
0
 40
1
 40
1
 40
1
 40
1
 10
137.185834
 20
42.781789
 30
0
 10
137.036355
 20
42.781789
 30
0
 10
136.914051
 20
42.806263
 30
0
 10
136.914051
 20
42.836145
 30
0
  0
SPLINE
  5
101
100
AcDbEntity
  8
Image
  6
ByLayer
 62
    1
370
   -1
100
AcDbSpline
210
0
220
0
230
0
 70
    8
 71
    3
 72
    8
 73
    4
 74
    0
 42
1e-07
 43
1e-07
 40
0
 40
0
 40
0
 40
0
 40
1
 40
1
 40
1
 40
1
 10
136.914051
 20
42.836145
 30
0
 10
136.914051
 20
42.866043
 30
0
 10
136.782135
 20
42.890501
 30
0
 10
136.620904
 20
42.890501
 30
0
  0
SPLINE
  5
102
100
AcDbEntity
  8
Image
  6
ByLayer
 62
    1
370
   -1
100
AcDbSpline
210
0
220
0
230
0
 70
    8
 71
    3
 72
    8
 73
    4
 74
    0
 42
1e-07
 43
1e-07
 40
0
 40
0
 40
0
 40
0
 40
1
 40
1
 40
1
 40
1
 10
136.620904
 20
42.890501
 30
0
 10
136.410472
 20
42.890501
 30
0
 10
136.318929
 20
42.91352
 30
0
 10
136.296469
 20
42.972038
 30
0
  0
SPLINE
  5
103
100
AcDbEntity
  8
Image
  6
ByLayer
 62
    1
370
   -1
100
AcDbSpline
210
0
220
0
230
0
 70
    8
 71
    3
 72
    8
 73
    4
 74
    0
 42
1e-07
 43
1e-07
 40
0
 40
0
 40
0
 40
0
 40
1
 40
1
 40
1
 40
1
 10
136.296469
 20
42.972038
 30
0
 10
136.275038
 20
43.027915
 30
0
 10
136.187669
 20
43.053572
 30
0
 10
136.018868
 20
43.053572
 30
0
  0
SPLINE
  5
104
100
AcDbEntity
  8
Image
  6
ByLayer
 62
    1
370
   -1
100
AcDbSpline
210
0
220
0
230
0
 70
    8
 71
    3
 72
    8
 73
    4
 74
    0
 42
1e-07
 43
1e-07
 40
0
 40
0
 40
0
 40
0
 40
1
 40
1
 40
1
 40
1
 10
136.018868
 20
43.053572
 30
0
 10
135.883399
 20
43.053572
 30
0
 10
135.772557
 20
43.078019
 30
0
 10
135.772557
 20
43.10793
 30
0
  0
SPLINE
  5
105
100
AcDbEntity
  8
Image
  6
ByLayer
 62
    1
370
   -1
100
AcDbSpline
210
0
220
0
230
0
 70
    8
 71
    3
 72
    8
 73
    4
 74
    0
 42
1e-07
 43
1e-07
 40
0
 40
0
 40
0
 40
0
 40
1
 40
1
 40
1
 40
1
 10
135.772557
 20
43.10793
 30
0
 10
135.772557
 20
43.137825
 30
0
 10
135.638024
 20
43.162286
 30
0
 10
135.473593
 20
43.162286
 30
0
  0
SPLINE
  5
106
100
AcDbEntity
  8
Image
  6
ByLayer
 62
    1
370
   -1
100
AcDbSpline
210
0
220
0
230
0
 70
    8
 71
    3
 72
    8
 73
    4
 74
    0
 42
1e-07
 43
1e-07
 40
0
 40
0
 40
0
 40
0
 40
1
 40
1
 40
1
 40
1
 10
135.473593
 20
43.162286
 30
0
 10
135.309165
 20
43.162286
 30
0
 10
135.174633
 20
43.186734
 30
0
 10
135.174633
 20
43.216642
 30
0
  0
SPLINE
  5
107
100
AcDbEntity
  8
Image
  6
ByLayer
 62
    1
370
   -1
100
AcDbSpline
210
0
220
0
230
0
 70
    8
 71
    3
 72
    8
 73
    4
 74
    0
 42
1e-07
 43
1e-07
 40
0
 40
0
 40
0
 40
0
 40
1
 40
1
 40
1
 40
1
 10
135.174633
 20
43.216642
 30
0
 10
135.174633
 20
43.24654
 30
0
 10
135.052329
 20
43.271001
 30
0
 10
134.902848
 20
43.271001
 30
0
  0
SPLINE
  5
108
100
AcDbEntity
  8
Image
  6
ByLayer
 62
    1
370
   -1
100
AcDbSpline
210
0
220
0
230
0
 70
    8
 71
    3
 72
    8
 73
    4
 74
    0
 42
1e-07
 43
1e-07
 40
0
 40
0
 40
0
 40
0
 40
1
 40
1
 40
1
 40
1
 10
134.902848
 20
43.271001
 30
0
 10
134.697499
 20
43.271001
 30
0
 10
134.631062
 20
43.290924
 30
0
 10
134.631062
 20
43.352535
 30
0
  0
SPLINE
  5
109
100
AcDbEntity
  8
Image
  6
ByLayer
 62
    1
370
   -1
100
AcDbSpline
210
0
220
0
230
0
 70
    8
 71
    3
 72
    8
 73
    4
 74
    0
 42
1e-07
 43
1e-07
 40
0
 40
0
 40
0
 40
0
 40
1
 40
1
 40
1
 40
1
 10
134.631062
 20
43.352535
 30
0
 10
134.631062
 20
43.415127
 30
0
 10
134.561606
 20
43.434071
 30
0
 10
134.332102
 20
43.434071
 30
0
  0
SPLINE
  5
10A
100
AcDbEntity
  8
Image
  6
ByLayer
 62
    1
370
   -1
100
AcDbSpline
210
0
220
0
230
0
 70
    8
 71
    3
 72
    8
 73
    4
 74
    0
 42
1e-07
 43
1e-07
 40
0
 40
0
 40
0
 40
0
 40
1
 40
1
 40
1
 40
1
 10
134.332102
 20
43.434071
 30
0
 10
134.167671
 20
43.434071
 30
0
 10
134.033138
 20
43.458519
 30
0
 10
134.033138
 20
43.488427
 30
0
  0
SPLINE
  5
10B
100
AcDbEntity
  8
Image
  6
ByLayer
 62
    1
370
   -1
100
AcDbSpline
210
0
220
0
230
0
 70
    8
 71
    3
 72
    8
 73
    4
 74
    0
 42
1e-07
 43
1e-07
 40
0
 40
0
 40
0
 40
0
 40
1
 40
1
 40
1
 40
1
 10
133.48957
 20
43.597142
 30
0
 10
133.48957
 20
43.627037
 30
0
 10
133.357654
 20
43.651498
 30
0
 10
133.196423
 20
43.651498
 30
0
  0
SPLINE
  5
10C
100
AcDbEntity
  8
Image
  6
ByLayer
 62
    1
370
   -1
100
AcDbSpline
210
0
220
0
230
0
 70
    8
 71
    3
 72
    8
 73
    4
 74
    0
 42
1e-07
 43
1e-07
 40
0
 40
0
 40
0
 40
0
 40
1
 40
1
 40
1
 40
1
 10
133.196423
 20
43.651498
 30
0
 10
132.985992
 20
43.651498
 30
0
 10
132.894448
 20
43.674517
 30
0
 10
132.871988
 20
43.733032
 30
0
  0
SPLINE
  5
10D
100
AcDbEntity
  8
Image
  6
ByLayer
 62
    1
370
   -1
100
AcDbSpline
210
0
220
0
230
0
 70
    8
 71
    3
 72
    8
 73
    4
 74
    0
 42
1e-07
 43
1e-07
 40
0
 40
0
 40
0
 40
0
 40
1
 40
1
 40
1
 40
1
 10
132.871988
 20
43.733032
 30
0
 10
132.850557
 20
43.788909
 30
0
 10
132.763189
 20
43.814569
 30
0
 10
132.594387
 20
43.814569
 30
0
  0
SPLINE
  5
10E
100
AcDbEntity
  8
Image
  6
ByLayer
 62
    1
370
   -1
100
AcDbSpline
210
0
220
0
230
0
 70
    8
 71
    3
 72
    8
 73
    4
 74
    0
 42
1e-07
 43
1e-07
 40
0
 40
0
 40
0
 40
0
 40
1
 40
1
 40
1
 40
1
 10
132.594387
 20
43.814569
 30
0
 10
132.458915
 20
43.814569
 30
0
 10
132.348076
 20
43.839016
 30
0
 10
132.348076
 20
43.868925
 30
0
  0
SPLINE
  5
10F
100
AcDbEntity
  8
Image
  6
ByLayer
 62
    1
370
   -1
100
AcDbSpline
210
0
220
0
230
0
 70
    8
 71
    3
 72
    8
 73
    4
 74
    0
 42
1e-07
 43
1e-07
 40
0
 40
0
 40
0
 40
0
 40
1
 40
1
 40
1
 40
1
 10
132.348076
 20
43.868925
 30
0
 10
132.348076
 20
43.898823
 30
0
 10
132.213543
 20
43.923283
 30
0
 10
132.049113
 20
43.923283
 30
0
  0
SPLINE
  5
110
100
AcDbEntity
  8
Image
  6
ByLayer
 62
    1
370
   -1
100
AcDbSpline
210
0
220
0
230
0
 70
    8
 71
    3
 72
    8
 73
    4
 74
    0
 42
1e-07
 43
1e-07
 40
0
 40
0
 40
0
 40
0
 40
1
 40
1
 40
1
 40
1
 10
132.049113
 20
43.923283
 30
0
 10
131.884685
 20
43.923283
 30
0
 10
131.750152
 20
43.945958
 30
0
 10
131.750152
 20
43.973655
 30
0
  0
SPLINE
  5
111
100
AcDbEntity
  8
Image
  6
ByLayer
 62
    1
370
   -1
100
AcDbSpline
210
0
220
0
230
0
 70
    8
 71
    3
 72
    8
 73
    4
 74
    0
 42
1e-07
 43
1e-07
 40
0
 40
0
 40
0
 40
0
 40
1
 40
1
 40
1
 40
1
 10
131.750152
 20
43.973655
 30
0
 10
131.750152
 20
44.001357
 30
0
 10
131.707345
 20
44.03521
 30
0
 10
131.655026
 20
44.048884
 30
0
  0
SPLINE
  5
112
100
AcDbEntity
  8
Image
  6
ByLayer
 62
    1
370
   -1
100
AcDbSpline
210
0
220
0
230
0
 70
    8
 71
    3
 72
    8
 73
    4
 74
    0
 42
1e-07
 43
1e-07
 40
0
 40
0
 40
0
 40
0
 40
1
 40
1
 40
1
 40
1
 10
131.655026
 20
44.048884
 30
0
 10
131.56443
 20
44.072564
 30
0
 10
131.56443
 20
44.074046
 30
0
 10
131.655026
 20
44.080046
 30
0
  0
SPLINE
  5
113
100
AcDbEntity
  8
Image
  6
ByLayer
 62
    1
370
   -1
100
AcDbSpline
210
0
220
0
230
0
 70
    8
 71
    3
 72
    8
 73
    4
 74
    0
 42
1e-07
 43
1e-07
 40
0
 40
0
 40
0
 40
0
 40
1
 40
1
 40
1
 40
1
 10
131.655026
 20
44.080046
 30
0
 10
131.7263
 20
44.084782
 30
0
 10
131.750152
 20
44.134053
 30
0
 10
131.750152
 20
44.276603
 30
0
  0
SPLINE
  5
114
100
AcDbEntity
  8
Image
  6
ByLayer
 62
    1
370
   -1
100
AcDbSpline
210
0
220
0
230
0
 70
    8
 71
    3
 72
    8
 73
    4
 74
    0
 42
1e-07
 43
1e-07
 40
0
 40
0
 40
0
 40
0
 40
1
 40
1
 40
1
 40
1
 10
131.750152
 20
44.276603
 30
0
 10
131.750152
 20
44.381237
 30
0
 10
131.774599
 20
44.466851
 30
0
 10
131.804508
 20
44.466851
 30
0
  0
SPLINE
  5
115
100
AcDbEntity
  8
Image
  6
ByLayer
 62
    1
370
   -1
100
AcDbSpline
210
0
220
0
230
0
 70
    8
 71
    3
 72
    8
 73
    4
 74
    0
 42
1e-07
 43
1e-07
 40
0
 40
0
 40
0
 40
0
 40
1
 40
1
 40
1
 40
1
 10
131.804508
 20
44.466851
 30
0
 10
131.834403
 20
44.466851
 30
0
 10
131.858864
 20
44.552463
 30
0
 10
131.858864
 20
44.6571
 30
0
  0
SPLINE
  5
116
100
AcDbEntity
  8
Image
  6
ByLayer
 62
    1
370
   -1
100
AcDbSpline
210
0
220
0
230
0
 70
    8
 71
    3
 72
    8
 73
    4
 74
    0
 42
1e-07
 43
1e-07
 40
0
 40
0
 40
0
 40
0
 40
1
 40
1
 40
1
 40
1
 10
131.858864
 20
44.6571
 30
0
 10
131.858864
 20
44.761737
 30
0
 10
131.883311
 20
44.847349
 30
0
 10
131.91322
 20
44.847349
 30
0
  0
SPLINE
  5
117
100
AcDbEntity
  8
Image
  6
ByLayer
 62
    1
370
   -1
100
AcDbSpline
210
0
220
0
230
0
 70
    8
 71
    3
 72
    8
 73
    4
 74
    0
 42
1e-07
 43
1e-07
 40
0
 40
0
 40
0
 40
0
 40
1
 40
1
 40
1
 40
1
 10
131.91322
 20
44.847349
 30
0
 10
131.943118
 20
44.847349
 30
0
 10
131.967579
 20
44.93296
 30
0
 10
131.967579
 20
45.037597
 30
0
  0
SPLINE
  5
118
100
AcDbEntity
  8
Image
  6
ByLayer
 62
    1
370
   -1
100
AcDbSpline
210
0
220
0
230
0
 70
    8
 71
    3
 72
    8
 73
    4
 74
    0
 42
1e-07
 43
1e-07
 40
0
 40
0
 40
0
 40
0
 40
1
 40
1
 40
1
 40
1
 10
131.967579
 20
45.037597
 30
0
 10
131.967579
 20
45.170468
 30
0
 10
131.992158
 20
45.227846
 30
0
 10
132.049113
 20
45.227846
 30
0
  0
SPLINE
  5
119
100
AcDbEntity
  8
Image
  6
ByLayer
 62
    1
370
   -1
100
AcDbSpline
210
0
220
0
230
0
 70
    8
 71
    3
 72
    8
 73
    4
 74
    0
 42
1e-07
 43
1e-07
 40
0
 40
0
 40
0
 40
0
 40
1
 40
1
 40
1
 40
1
 10
132.049113
 20
45.227846
 30
0
 10
132.106059
 20
45.227846
 30
0
 10
132.130649
 20
45.285223
 30
0
 10
132.130649
 20
45.418095
 30
0
  0
SPLINE
  5
11A
100
AcDbEntity
  8
Image
  6
ByLayer
 62
    1
370
   -1
100
AcDbSpline
210
0
220
0
230
0
 70
    8
 71
    3
 72
    8
 73
    4
 74
    0
 42
1e-07
 43
1e-07
 40
0
 40
0
 40
0
 40
0
 40
1
 40
1
 40
1
 40
1
 10
132.130649
 20
45.418095
 30
0
 10
132.130649
 20
45.522732
 30
0
 10
132.155097
 20
45.608343
 30
0
 10
132.185005
 20
45.608343
 30
0
  0
SPLINE
  5
11B
100
AcDbEntity
  8
Image
  6
ByLayer
 62
    1
370
   -1
100
AcDbSpline
210
0
220
0
230
0
 70
    8
 71
    3
 72
    8
 73
    4
 74
    0
 42
1e-07
 43
1e-07
 40
0
 40
0
 40
0
 40
0
 40
1
 40
1
 40
1
 40
1
 10
132.185005
 20
45.608343
 30
0
 10
132.2149
 20
45.608343
 30
0
 10
132.239361
 20
45.657265
 30
0
 10
132.239361
 20
45.717058
 30
0
  0
SPLINE
  5
11C
100
AcDbEntity
  8
Image
  6
ByLayer
 62
    1
370
   -1
100
AcDbSpline
210
0
220
0
230
0
 70
    8
 71
    3
 72
    8
 73
    4
 74
    0
 42
1e-07
 43
1e-07
 40
0
 40
0
 40
0
 40
0
 40
1
 40
1
 40
1
 40
1
 10
132.239361
 20
45.717058
 30
0
 10
132.239361
 20
45.776851
 30
0
 10
132.263835
 20
45.825772
 30
0
 10
132.29372
 20
45.825772
 30
0
  0
SPLINE
  5
11D
100
AcDbEntity
  8
Image
  6
ByLayer
 62
    1
370
   -1
100
AcDbSpline
210
0
220
0
230
0
 70
    8
 71
    3
 72
    8
 73
    4
 74
    0
 42
1e-07
 43
1e-07
 40
0
 40
0
 40
0
 40
0
 40
1
 40
1
 40
1
 40
1
 10
132.29372
 20
45.825772
 30
0
 10
132.323615
 20
45.825772
 30
0
 10
132.348076
 20
45.908767
 30
0
 10
132.348076
 20
46.010206
 30
0
  0
SPLINE
  5
11E
100
AcDbEntity
  8
Image
  6
ByLayer
 62
    1
370
   -1
100
AcDbSpline
210
0
220
0
230
0
 70
    8
 71
    3
 72
    8
 73
    4
 74
    0
 42
1e-07
 43
1e-07
 40
0
 40
0
 40
0
 40
0
 40
1
 40
1
 40
1
 40
1
 10
132.348076
 20
46.010206
 30
0
 10
132.348076
 20
46.124003
 30
0
 10
132.379302
 20
46.206622
 30
0
 10
132.429612
 20
46.225926
 30
0
  0
SPLINE
  5
11F
100
AcDbEntity
  8
Image
  6
ByLayer
 62
    1
370
   -1
100
AcDbSpline
210
0
220
0
230
0
 70
    8
 71
    3
 72
    8
 73
    4
 74
    0
 42
1e-07
 43
1e-07
 40
0
 40
0
 40
0
 40
0
 40
1
 40
1
 40
1
 40
1
 10
132.429612
 20
46.225926
 30
0
 10
132.477275
 20
46.244208
 30
0
 10
132.511146
 20
46.325666
 30
0
 10
132.511146
 20
46.421992
 30
0
  0
SPLINE
  5
120
100
AcDbEntity
  8
Image
  6
ByLayer
 62
    1
370
   -1
100
AcDbSpline
210
0
220
0
230
0
 70
    8
 71
    3
 72
    8
 73
    4
 74
    0
 42
1e-07
 43
1e-07
 40
0
 40
0
 40
0
 40
0
 40
1
 40
1
 40
1
 40
1
 10
132.511146
 20
46.421992
 30
0
 10
132.511146
 20
46.512618
 30
0
 10
132.53562
 20
46.586767
 30
0
 10
132.565502
 20
46.586767
 30
0
  0
SPLINE
  5
121
100
AcDbEntity
  8
Image
  6
ByLayer
 62
    1
370
   -1
100
AcDbSpline
210
0
220
0
230
0
 70
    8
 71
    3
 72
    8
 73
    4
 74
    0
 42
1e-07
 43
1e-07
 40
0
 40
0
 40
0
 40
0
 40
1
 40
1
 40
1
 40
1
 10
132.565502
 20
46.586767
 30
0
 10
132.5954
 20
46.586767
 30
0
 10
132.619861
 20
46.64792
 30
0
 10
132.619861
 20
46.72266
 30
0
  0
SPLINE
  5
122
100
AcDbEntity
  8
Image
  6
ByLayer
 62
    1
370
   -1
100
AcDbSpline
210
0
220
0
230
0
 70
    8
 71
    3
 72
    8
 73
    4
 74
    0
 42
1e-07
 43
1e-07
 40
0
 40
0
 40
0
 40
0
 40
1
 40
1
 40
1
 40
1
 10
132.619861
 20
46.72266
 30
0
 10
132.619861
 20
46.797399
 30
0
 10
132.644335
 20
46.858552
 30
0
 10
132.674217
 20
46.858552
 30
0
  0
SPLINE
  5
123
100
AcDbEntity
  8
Image
  6
ByLayer
 62
    1
370
   -1
100
AcDbSpline
210
0
220
0
230
0
 70
    8
 71
    3
 72
    8
 73
    4
 74
    0
 42
1e-07
 43
1e-07
 40
0
 40
0
 40
0
 40
0
 40
1
 40
1
 40
1
 40
1
 10
132.674217
 20
46.858552
 30
0
 10
132.704112
 20
46.858552
 30
0
 10
132.728573
 20
46.944164
 30
0
 10
132.728573
 20
47.048801
 30
0
  0
SPLINE
  5
124
100
AcDbEntity
  8
Image
  6
ByLayer
 62
    1
370
   -1
100
AcDbSpline
210
0
220
0
230
0
 70
    8
 71
    3
 72
    8
 73
    4
 74
    0
 42
1e-07
 43
1e-07
 40
0
 40
0
 40
0
 40
0
 40
1
 40
1
 40
1
 40
1
 10
132.728573
 20
47.048801
 30
0
 10
132.728573
 20
47.181672
 30
0
 10
132.753153
 20
47.23905
 30
0
 10
132.81011
 20
47.23905
 30
0
  0
SPLINE
  5
125
100
AcDbEntity
  8
Image
  6
ByLayer
 62
    1
370
   -1
100
AcDbSpline
210
0
220
0
230
0
 70
    8
 71
    3
 72
    8
 73
    4
 74
    0
 42
1e-07
 43
1e-07
 40
0
 40
0
 40
0
 40
0
 40
1
 40
1
 40
1
 40
1
 10
132.81011
 20
47.23905
 30
0
 10
132.867053
 20
47.23905
 30
0
 10
132.891644
 20
47.296427
 30
0
 10
132.891644
 20
47.429298
 30
0
  0
SPLINE
  5
126
100
AcDbEntity
  8
Image
  6
ByLayer
 62
    1
370
   -1
100
AcDbSpline
210
0
220
0
230
0
 70
    8
 71
    3
 72
    8
 73
    4
 74
    0
 42
1e-07
 43
1e-07
 40
0
 40
0
 40
0
 40
0
 40
1
 40
1
 40
1
 40
1
 10
132.891644
 20
47.429298
 30
0
 10
132.891644
 20
47.533936
 30
0
 10
132.916091
 20
47.619547
 30
0
 10
132.946002
 20
47.619547
 30
0
  0
SPLINE
  5
127
100
AcDbEntity
  8
Image
  6
ByLayer
 62
    1
370
   -1
100
AcDbSpline
210
0
220
0
230
0
 70
    8
 71
    3
 72
    8
 73
    4
 74
    0
 42
1e-07
 43
1e-07
 40
0
 40
0
 40
0
 40
0
 40
1
 40
1
 40
1
 40
1
 10
132.946002
 20
47.619547
 30
0
 10
132.975898
 20
47.619547
 30
0
 10
133.000358
 20
47.6807
 30
0
 10
133.000358
 20
47.75544
 30
0
  0
SPLINE
  5
128
100
AcDbEntity
  8
Image
  6
ByLayer
 62
    1
370
   -1
100
AcDbSpline
210
0
220
0
230
0
 70
    8
 71
    3
 72
    8
 73
    4
 74
    0
 42
1e-07
 43
1e-07
 40
0
 40
0
 40
0
 40
0
 40
1
 40
1
 40
1
 40
1
 10
133.000358
 20
47.75544
 30
0
 10
133.000358
 20
47.830179
 30
0
 10
133.024806
 20
47.891332
 30
0
 10
133.054714
 20
47.891332
 30
0
  0
SPLINE
  5
129
100
AcDbEntity
  8
Image
  6
ByLayer
 62
    1
370
   -1
100
AcDbSpline
210
0
220
0
230
0
 70
    8
 71
    3
 72
    8
 73
    4
 74
    0
 42
1e-07
 43
1e-07
 40
0
 40
0
 40
0
 40
0
 40
1
 40
1
 40
1
 40
1
 10
133.054714
 20
47.891332
 30
0
 10
133.084612
 20
47.891332
 30
0
 10
133.10907
 20
47.976943
 30
0
 10
133.10907
 20
48.081581
 30
0
  0
SPLINE
  5
12A
100
AcDbEntity
  8
Image
  6
ByLayer
 62
    1
370
   -1
100
AcDbSpline
210
0
220
0
230
0
 70
    8
 71
    3
 72
    8
 73
    4
 74
    0
 42
1e-07
 43
1e-07
 40
0
 40
0
 40
0
 40
0
 40
1
 40
1
 40
1
 40
1
 10
133.10907
 20
48.081581
 30
0
 10
133.10907
 20
48.214452
 30
0
 10
133.13365
 20
48.27183
 30
0
 10
133.190607
 20
48.27183
 30
0
  0
SPLINE
  5
12B
100
AcDbEntity
  8
Image
  6
ByLayer
 62
    1
370
   -1
100
AcDbSpline
210
0
220
0
230
0
 70
    8
 71
    3
 72
    8
 73
    4
 74
    0
 42
1e-07
 43
1e-07
 40
0
 40
0
 40
0
 40
0
 40
1
 40
1
 40
1
 40
1
 10
133.190607
 20
48.27183
 30
0
 10
133.247553
 20
48.27183
 30
0
 10
133.272141
 20
48.329207
 30
0
 10
133.272141
 20
48.462078
 30
0
  0
SPLINE
  5
12C
100
AcDbEntity
  8
Image
  6
ByLayer
 62
    1
370
   -1
100
AcDbSpline
210
0
220
0
230
0
 70
    8
 71
    3
 72
    8
 73
    4
 74
    0
 42
1e-07
 43
1e-07
 40
0
 40
0
 40
0
 40
0
 40
1
 40
1
 40
1
 40
1
 10
133.272141
 20
48.462078
 30
0
 10
133.272141
 20
48.566716
 30
0
 10
133.296589
 20
48.652327
 30
0
 10
133.3265
 20
48.652327
 30
0
  0
SPLINE
  5
12D
100
AcDbEntity
  8
Image
  6
ByLayer
 62
    1
370
   -1
100
AcDbSpline
210
0
220
0
230
0
 70
    8
 71
    3
 72
    8
 73
    4
 74
    0
 42
1e-07
 43
1e-07
 40
0
 40
0
 40
0
 40
0
 40
1
 40
1
 40
1
 40
1
 10
133.3265
 20
48.652327
 30
0
 10
133.356395
 20
48.652327
 30
0
 10
133.380856
 20
48.737941
 30
0
 10
133.380856
 20
48.842575
 30
0
  0
SPLINE
  5
12E
100
AcDbEntity
  8
Image
  6
ByLayer
 62
    1
370
   -1
100
AcDbSpline
210
0
220
0
230
0
 70
    8
 71
    3
 72
    8
 73
    4
 74
    0
 42
1e-07
 43
1e-07
 40
0
 40
0
 40
0
 40
0
 40
1
 40
1
 40
1
 40
1
 10
133.380856
 20
48.842575
 30
0
 10
133.380856
 20
48.947213
 30
0
 10
133.405303
 20
49.032827
 30
0
 10
133.435212
 20
49.032827
 30
0
  0
SPLINE
  5
12F
100
AcDbEntity
  8
Image
  6
ByLayer
 62
    1
370
   -1
100
AcDbSpline
210
0
220
0
230
0
 70
    8
 71
    3
 72
    8
 73
    4
 74
    0
 42
1e-07
 43
1e-07
 40
0
 40
0
 40
0
 40
0
 40
1
 40
1
 40
1
 40
1
 10
133.435212
 20
49.032827
 30
0
 10
133.46511
 20
49.032827
 30
0
 10
133.48957
 20
49.079129
 30
0
 10
133.48957
 20
49.135723
 30
0
  0
SPLINE
  5
130
100
AcDbEntity
  8
Image
  6
ByLayer
 62
    1
370
   -1
100
AcDbSpline
210
0
220
0
230
0
 70
    8
 71
    3
 72
    8
 73
    4
 74
    0
 42
1e-07
 43
1e-07
 40
0
 40
0
 40
0
 40
0
 40
1
 40
1
 40
1
 40
1
 10
133.48957
 20
49.135723
 30
0
 10
133.48957
 20
49.192318
 30
0
 10
133.52626
 20
49.252701
 30
0
 10
133.571104
 20
49.269909
 30
0
  0
SPLINE
  5
131
100
AcDbEntity
  8
Image
  6
ByLayer
 62
    1
370
   -1
100
AcDbSpline
210
0
220
0
230
0
 70
    8
 71
    3
 72
    8
 73
    4
 74
    0
 42
1e-07
 43
1e-07
 40
0
 40
0
 40
0
 40
0
 40
1
 40
1
 40
1
 40
1
 10
133.571104
 20
49.269909
 30
0
 10
133.618277
 20
49.288007
 30
0
 10
133.652641
 20
49.369295
 30
0
 10
133.652641
 20
49.462767
 30
0
  0
SPLINE
  5
132
100
AcDbEntity
  8
Image
  6
ByLayer
 62
    1
370
   -1
100
AcDbSpline
210
0
220
0
230
0
 70
    8
 71
    3
 72
    8
 73
    4
 74
    0
 42
1e-07
 43
1e-07
 40
0
 40
0
 40
0
 40
0
 40
1
 40
1
 40
1
 40
1
 10
133.652641
 20
49.462767
 30
0
 10
133.652641
 20
49.55163
 30
0
 10
133.677088
 20
49.639453
 30
0
 10
133.706997
 20
49.657929
 30
0
  0
SPLINE
  5
133
100
AcDbEntity
  8
Image
  6
ByLayer
 62
    1
370
   -1
100
AcDbSpline
210
0
220
0
230
0
 70
    8
 71
    3
 72
    8
 73
    4
 74
    0
 42
1e-07
 43
1e-07
 40
0
 40
0
 40
0
 40
0
 40
1
 40
1
 40
1
 40
1
 10
133.706997
 20
49.657929
 30
0
 10
133.736892
 20
49.676397
 30
0
 10
133.761353
 20
49.76346
 30
0
 10
133.761353
 20
49.851387
 30
0
  0
SPLINE
  5
134
100
AcDbEntity
  8
Image
  6
ByLayer
 62
    1
370
   -1
100
AcDbSpline
210
0
220
0
230
0
 70
    8
 71
    3
 72
    8
 73
    4
 74
    0
 42
1e-07
 43
1e-07
 40
0
 40
0
 40
0
 40
0
 40
1
 40
1
 40
1
 40
1
 10
133.761353
 20
49.851387
 30
0
 10
133.761353
 20
49.93931
 30
0
 10
133.785827
 20
50.011248
 30
0
 10
133.815712
 20
50.011248
 30
0
  0
SPLINE
  5
135
100
AcDbEntity
  8
Image
  6
ByLayer
 62
    1
370
   -1
100
AcDbSpline
210
0
220
0
230
0
 70
    8
 71
    3
 72
    8
 73
    4
 74
    0
 42
1e-07
 43
1e-07
 40
0
 40
0
 40
0
 40
0
 40
1
 40
1
 40
1
 40
1
 10
133.815712
 20
50.011248
 30
0
 10
133.845607
 20
50.011248
 30
0
 10
133.870068
 20
50.094242
 30
0
 10
133.870068
 20
50.195681
 30
0
  0
SPLINE
  5
136
100
AcDbEntity
  8
Image
  6
ByLayer
 62
    1
370
   -1
100
AcDbSpline
210
0
220
0
230
0
 70
    8
 71
    3
 72
    8
 73
    4
 74
    0
 42
1e-07
 43
1e-07
 40
0
 40
0
 40
0
 40
0
 40
1
 40
1
 40
1
 40
1
 10
133.870068
 20
50.195681
 30
0
 10
133.870068
 20
50.309478
 30
0
 10
133.901294
 20
50.392097
 30
0
 10
133.951602
 20
50.411404
 30
0
  0
SPLINE
  5
137
100
AcDbEntity
  8
Image
  6
ByLayer
 62
    1
370
   -1
100
AcDbSpline
210
0
220
0
230
0
 70
    8
 71
    3
 72
    8
 73
    4
 74
    0
 42
1e-07
 43
1e-07
 40
0
 40
0
 40
0
 40
0
 40
1
 40
1
 40
1
 40
1
 10
133.951602
 20
50.411404
 30
0
 10
133.998774
 20
50.429501
 30
0
 10
134.033138
 20
50.510787
 30
0
 10
134.033138
 20
50.604259
 30
0
  0
SPLINE
  5
138
100
AcDbEntity
  8
Image
  6
ByLayer
 62
    1
370
   -1
100
AcDbSpline
210
0
220
0
230
0
 70
    8
 71
    3
 72
    8
 73
    4
 74
    0
 42
1e-07
 43
1e-07
 40
0
 40
0
 40
0
 40
0
 40
1
 40
1
 40
1
 40
1
 10
134.033138
 20
50.604259
 30
0
 10
134.033138
 20
50.693122
 30
0
 10
134.057612
 20
50.780945
 30
0
 10
134.087494
 20
50.799423
 30
0
  0
SPLINE
  5
139
100
AcDbEntity
  8
Image
  6
ByLayer
 62
    1
370
   -1
100
AcDbSpline
210
0
220
0
230
0
 70
    8
 71
    3
 72
    8
 73
    4
 74
    0
 42
1e-07
 43
1e-07
 40
0
 40
0
 40
0
 40
0
 40
1
 40
1
 40
1
 40
1
 10
134.087494
 20
50.799423
 30
0
 10
134.117392
 20
50.817891
 30
0
 10
134.141853
 20
50.880494
 30
0
 10
134.141853
 20
50.938523
 30
0
  0
SPLINE
  5
13A
100
AcDbEntity
  8
Image
  6
ByLayer
 62
    1
370
   -1
100
AcDbSpline
210
0
220
0
230
0
 70
    8
 71
    3
 72
    8
 73
    4
 74
    0
 42
1e-07
 43
1e-07
 40
0
 40
0
 40
0
 40
0
 40
1
 40
1
 40
1
 40
1
 10
134.141853
 20
50.938523
 30
0
 10
134.141853
 20
50.996551
 30
0
 10
134.1663
 20
51.044028
 30
0
 10
134.196209
 20
51.044028
 30
0
  0
SPLINE
  5
13B
100
AcDbEntity
  8
Image
  6
ByLayer
 62
    1
370
   -1
100
AcDbSpline
210
0
220
0
230
0
 70
    8
 71
    3
 72
    8
 73
    4
 74
    0
 42
1e-07
 43
1e-07
 40
0
 40
0
 40
0
 40
0
 40
1
 40
1
 40
1
 40
1
 10
134.196209
 20
51.044028
 30
0
 10
134.226104
 20
51.044028
 30
0
 10
134.250565
 20
51.127022
 30
0
 10
134.250565
 20
51.228461
 30
0
  0
SPLINE
  5
13C
100
AcDbEntity
  8
Image
  6
ByLayer
 62
    1
370
   -1
100
AcDbSpline
210
0
220
0
230
0
 70
    8
 71
    3
 72
    8
 73
    4
 74
    0
 42
1e-07
 43
1e-07
 40
0
 40
0
 40
0
 40
0
 40
1
 40
1
 40
1
 40
1
 10
134.250565
 20
51.228461
 30
0
 10
134.250565
 20
51.342258
 30
0
 10
134.281794
 20
51.42488
 30
0
 10
134.332102
 20
51.444184
 30
0
  0
SPLINE
  5
13D
100
AcDbEntity
  8
Image
  6
ByLayer
 62
    1
370
   -1
100
AcDbSpline
210
0
220
0
230
0
 70
    8
 71
    3
 72
    8
 73
    4
 74
    0
 42
1e-07
 43
1e-07
 40
0
 40
0
 40
0
 40
0
 40
1
 40
1
 40
1
 40
1
 10
134.332102
 20
51.444184
 30
0
 10
134.379764
 20
51.462466
 30
0
 10
134.413636
 20
51.543924
 30
0
 10
134.413636
 20
51.640248
 30
0
  0
SPLINE
  5
13E
100
AcDbEntity
  8
Image
  6
ByLayer
 62
    1
370
   -1
100
AcDbSpline
210
0
220
0
230
0
 70
    8
 71
    3
 72
    8
 73
    4
 74
    0
 42
1e-07
 43
1e-07
 40
0
 40
0
 40
0
 40
0
 40
1
 40
1
 40
1
 40
1
 10
134.413636
 20
51.640248
 30
0
 10
134.413636
 20
51.730876
 30
0
 10
134.438083
 20
51.805025
 30
0
 10
134.467992
 20
51.805025
 30
0
  0
SPLINE
  5
13F
100
AcDbEntity
  8
Image
  6
ByLayer
 62
    1
370
   -1
100
AcDbSpline
210
0
220
0
230
0
 70
    8
 71
    3
 72
    8
 73
    4
 74
    0
 42
1e-07
 43
1e-07
 40
0
 40
0
 40
0
 40
0
 40
1
 40
1
 40
1
 40
1
 10
134.467992
 20
51.805025
 30
0
 10
134.49789
 20
51.805025
 30
0
 10
134.52235
 20
51.890636
 30
0
 10
134.52235
 20
51.995274
 30
0
  0
SPLINE
  5
140
100
AcDbEntity
  8
Image
  6
ByLayer
 62
    1
370
   -1
100
AcDbSpline
210
0
220
0
230
0
 70
    8
 71
    3
 72
    8
 73
    4
 74
    0
 42
1e-07
 43
1e-07
 40
0
 40
0
 40
0
 40
0
 40
1
 40
1
 40
1
 40
1
 10
134.52235
 20
51.995274
 30
0
 10
134.52235
 20
52.099911
 30
0
 10
134.546798
 20
52.185522
 30
0
 10
134.576706
 20
52.185522
 30
0
  0
SPLINE
  5
141
100
AcDbEntity
  8
Image
  6
ByLayer
 62
    1
370
   -1
100
AcDbSpline
210
0
220
0
230
0
 70
    8
 71
    3
 72
    8
 73
    4
 74
    0
 42
1e-07
 43
1e-07
 40
0
 40
0
 40
0
 40
0
 40
1
 40
1
 40
1
 40
1
 10
134.576706
 20
52.185522
 30
0
 10
134.606602
 20
52.185522
 30
0
 10
134.631062
 20
52.246673
 30
0
 10
134.631062
 20
52.321415
 30
0
  0
SPLINE
  5
142
100
AcDbEntity
  8
Image
  6
ByLayer
 62
    1
370
   -1
100
AcDbSpline
210
0
220
0
230
0
 70
    8
 71
    3
 72
    8
 73
    4
 74
    0
 42
1e-07
 43
1e-07
 40
0
 40
0
 40
0
 40
0
 40
1
 40
1
 40
1
 40
1
 10
134.631062
 20
52.321415
 30
0
 10
134.631062
 20
52.405971
 30
0
 10
134.661865
 20
52.457308
 30
0
 10
134.712599
 20
52.457308
 30
0
  0
SPLINE
  5
143
100
AcDbEntity
  8
Image
  6
ByLayer
 62
    1
370
   -1
100
AcDbSpline
210
0
220
0
230
0
 70
    8
 71
    3
 72
    8
 73
    4
 74
    0
 42
1e-07
 43
1e-07
 40
0
 40
0
 40
0
 40
0
 40
1
 40
1
 40
1
 40
1
 10
134.712599
 20
52.457308
 30
0
 10
134.769545
 20
52.457308
 30
0
 10
134.794133
 20
52.514683
 30
0
 10
134.794133
 20
52.647556
 30
0
  0
SPLINE
  5
144
100
AcDbEntity
  8
Image
  6
ByLayer
 62
    1
370
   -1
100
AcDbSpline
210
0
220
0
230
0
 70
    8
 71
    3
 72
    8
 73
    4
 74
    0
 42
1e-07
 43
1e-07
 40
0
 40
0
 40
0
 40
0
 40
1
 40
1
 40
1
 40
1
 10
134.794133
 20
52.647556
 30
0
 10
134.794133
 20
52.752194
 30
0
 10
134.81858
 20
52.837805
 30
0
 10
134.848492
 20
52.837805
 30
0
  0
SPLINE
  5
145
100
AcDbEntity
  8
Image
  6
ByLayer
 62
    1
370
   -1
100
AcDbSpline
210
0
220
0
230
0
 70
    8
 71
    3
 72
    8
 73
    4
 74
    0
 42
1e-07
 43
1e-07
 40
0
 40
0
 40
0
 40
0
 40
1
 40
1
 40
1
 40
1
 10
134.848492
 20
52.837805
 30
0
 10
134.878387
 20
52.837805
 30
0
 10
134.902848
 20
52.923416
 30
0
 10
134.902848
 20
53.028054
 30
0
  0
LINE
  5
146
100
AcDbEntity
  8
Image
  6
ByLayer
 62
    1
370
   -1
100
AcDbLine
 10
134.902848
 20
53.028054
 11
134.902848
 21
53.218302
  0
LINE
  5
147
100
AcDbEntity
  8
Image
  6
ByLayer
 62
    1
370
   -1
100
AcDbLine
 10
134.902848
 20
53.218302
 11
137.892475
 21
53.218302
  0
LINE
  5
148
100
AcDbEntity
  8
Image
  6
ByLayer
 62
    1
370
   -1
100
AcDbLine
 10
137.892475
 20
53.218302
 11
140.8821
 21
53.218302
  0
LINE
  5
149
100
AcDbEntity
  8
Image
  6
ByLayer
 62
    1
370
   -1
100
AcDbLine
 10
140.8821
 20
53.218302
 11
140.8821
 21
53.028054
  0
SPLINE
  5
14A
100
AcDbEntity
  8
Image
  6
ByLayer
 62
    1
370
   -1
100
AcDbSpline
210
0
220
0
230
0
 70
    8
 71
    3
 72
    8
 73
    4
 74
    0
 42
1e-07
 43
1e-07
 40
0
 40
0
 40
0
 40
0
 40
1
 40
1
 40
1
 40
1
 10
140.8821
 20
53.028054
 30
0
 10
140.8821
 20
52.923416
 30
0
 10
140.906574
 20
52.837805
 30
0
 10
140.936456
 20
52.837805
 30
0
  0
SPLINE
  5
14B
100
AcDbEntity
  8
Image
  6
ByLayer
 62
    1
370
   -1
100
AcDbSpline
210
0
220
0
230
0
 70
    8
 71
    3
 72
    8
 73
    4
 74
    0
 42
1e-07
 43
1e-07
 40
0
 40
0
 40
0
 40
0
 40
1
 40
1
 40
1
 40
1
 10
140.936456
 20
52.837805
 30
0
 10
140.966354
 20
52.837805
 30
0
 10
140.990815
 20
52.763655
 30
0
 10
140.990815
 20
52.673028
 30
0
  0
SPLINE
  5
14C
100
AcDbEntity
  8
Image
  6
ByLayer
 62
    1
370
   -1
100
AcDbSpline
210
0
220
0
230
0
 70
    8
 71
    3
 72
    8
 73
    4
 74
    0
 42
1e-07
 43
1e-07
 40
0
 40
0
 40
0
 40
0
 40
1
 40
1
 40
1
 40
1
 10
140.990815
 20
52.673028
 30
0
 10
140.990815
 20
52.576704
 30
0
 10
141.024687
 20
52.495254
 30
0
 10
141.072349
 20
52.476964
 30
0
  0
SPLINE
  5
14D
100
AcDbEntity
  8
Image
  6
ByLayer
 62
    1
370
   -1
100
AcDbSpline
210
0
220
0
230
0
 70
    8
 71
    3
 72
    8
 73
    4
 74
    0
 42
1e-07
 43
1e-07
 40
0
 40
0
 40
0
 40
0
 40
1
 40
1
 40
1
 40
1
 10
141.072349
 20
52.476964
 30
0
 10
141.117193
 20
52.459766
 30
0
 10
141.153885
 20
52.38714
 30
0
 10
141.153885
 20
52.315599
 30
0
  0
SPLINE
  5
14E
100
AcDbEntity
  8
Image
  6
ByLayer
 62
    1
370
   -1
100
AcDbSpline
210
0
220
0
230
0
 70
    8
 71
    3
 72
    8
 73
    4
 74
    0
 42
1e-07
 43
1e-07
 40
0
 40
0
 40
0
 40
0
 40
1
 40
1
 40
1
 40
1
 10
141.153885
 20
52.315599
 30
0
 10
141.153885
 20
52.244056
 30
0
 10
141.178333
 20
52.185522
 30
0
 10
141.208241
 20
52.185522
 30
0
  0
SPLINE
  5
14F
100
AcDbEntity
  8
Image
  6
ByLayer
 62
    1
370
   -1
100
AcDbSpline
210
0
220
0
230
0
 70
    8
 71
    3
 72
    8
 73
    4
 74
    0
 42
1e-07
 43
1e-07
 40
0
 40
0
 40
0
 40
0
 40
1
 40
1
 40
1
 40
1
 10
141.208241
 20
52.185522
 30
0
 10
141.238137
 20
52.185522
 30
0
 10
141.262597
 20
52.099911
 30
0
 10
141.262597
 20
51.995274
 30
0
  0
SPLINE
  5
150
100
AcDbEntity
  8
Image
  6
ByLayer
 62
    1
370
   -1
100
AcDbSpline
210
0
220
0
230
0
 70
    8
 71
    3
 72
    8
 73
    4
 74
    0
 42
1e-07
 43
1e-07
 40
0
 40
0
 40
0
 40
0
 40
1
 40
1
 40
1
 40
1
 10
141.262597
 20
51.995274
 30
0
 10
141.262597
 20
51.890636
 30
0
 10
141.287045
 20
51.805025
 30
0
 10
141.316956
 20
51.805025
 30
0
  0
SPLINE
  5
151
100
AcDbEntity
  8
Image
  6
ByLayer
 62
    1
370
   -1
100
AcDbSpline
210
0
220
0
230
0
 70
    8
 71
    3
 72
    8
 73
    4
 74
    0
 42
1e-07
 43
1e-07
 40
0
 40
0
 40
0
 40
0
 40
1
 40
1
 40
1
 40
1
 10
141.316956
 20
51.805025
 30
0
 10
141.346851
 20
51.805025
 30
0
 10
141.371312
 20
51.745621
 30
0
 10
141.371312
 20
51.673014
 30
0
  0
SPLINE
  5
152
100
AcDbEntity
  8
Image
  6
ByLayer
 62
    1
370
   -1
100
AcDbSpline
210
0
220
0
230
0
 70
    8
 71
    3
 72
    8
 73
    4
 74
    0
 42
1e-07
 43
1e-07
 40
0
 40
0
 40
0
 40
0
 40
1
 40
1
 40
1
 40
1
 10
141.371312
 20
51.673014
 30
0
 10
141.371312
 20
51.60041
 30
0
 10
141.408002
 20
51.504316
 30
0
 10
141.452846
 20
51.459471
 30
0
  0
SPLINE
  5
153
100
AcDbEntity
  8
Image
  6
ByLayer
 62
    1
370
   -1
100
AcDbSpline
210
0
220
0
230
0
 70
    8
 71
    3
 72
    8
 73
    4
 74
    0
 42
1e-07
 43
1e-07
 40
0
 40
0
 40
0
 40
0
 40
1
 40
1
 40
1
 40
1
 10
141.452846
 20
51.459471
 30
0
 10
141.49769
 20
51.414627
 30
0
 10
141.534383
 20
51.340941
 30
0
 10
141.534383
 20
51.295726
 30
0
  0
SPLINE
  5
154
100
AcDbEntity
  8
Image
  6
ByLayer
 62
    1
370
   -1
100
AcDbSpline
210
0
220
0
230
0
 70
    8
 71
    3
 72
    8
 73
    4
 74
    0
 42
1e-07
 43
1e-07
 40
0
 40
0
 40
0
 40
0
 40
1
 40
1
 40
1
 40
1
 10
141.534383
 20
51.295726
 30
0
 10
141.534383
 20
51.250509
 30
0
 10
141.55883
 20
51.198396
 30
0
 10
141.588739
 20
51.17992
 30
0
  0
SPLINE
  5
155
100
AcDbEntity
  8
Image
  6
ByLayer
 62
    1
370
   -1
100
AcDbSpline
210
0
220
0
230
0
 70
    8
 71
    3
 72
    8
 73
    4
 74
    0
 42
1e-07
 43
1e-07
 40
0
 40
0
 40
0
 40
0
 40
1
 40
1
 40
1
 40
1
 10
141.588739
 20
51.17992
 30
0
 10
141.618637
 20
51.161453
 30
0
 10
141.643097
 20
51.075831
 30
0
 10
141.643097
 20
50.989672
 30
0
  0
SPLINE
  5
156
100
AcDbEntity
  8
Image
  6
ByLayer
 62
    1
370
   -1
100
AcDbSpline
210
0
220
0
230
0
 70
    8
 71
    3
 72
    8
 73
    4
 74
    0
 42
1e-07
 43
1e-07
 40
0
 40
0
 40
0
 40
0
 40
1
 40
1
 40
1
 40
1
 10
141.643097
 20
50.989672
 30
0
 10
141.643097
 20
50.903513
 30
0
 10
141.667545
 20
50.817899
 30
0
 10
141.697453
 20
50.799423
 30
0
  0
SPLINE
  5
157
100
AcDbEntity
  8
Image
  6
ByLayer
 62
    1
370
   -1
100
AcDbSpline
210
0
220
0
230
0
 70
    8
 71
    3
 72
    8
 73
    4
 74
    0
 42
1e-07
 43
1e-07
 40
0
 40
0
 40
0
 40
0
 40
1
 40
1
 40
1
 40
1
 10
141.697453
 20
50.799423
 30
0
 10
141.727349
 20
50.780955
 30
0
 10
141.751809
 20
50.707867
 30
0
 10
141.751809
 20
50.637027
 30
0
  0
SPLINE
  5
158
100
AcDbEntity
  8
Image
  6
ByLayer
 62
    1
370
   -1
100
AcDbSpline
210
0
220
0
230
0
 70
    8
 71
    3
 72
    8
 73
    4
 74
    0
 42
1e-07
 43
1e-07
 40
0
 40
0
 40
0
 40
0
 40
1
 40
1
 40
1
 40
1
 10
141.751809
 20
50.637027
 30
0
 10
141.751809
 20
50.566185
 30
0
 10
141.788502
 20
50.471536
 30
0
 10
141.833346
 20
50.426691
 30
0
  0
SPLINE
  5
159
100
AcDbEntity
  8
Image
  6
ByLayer
 62
    1
370
   -1
100
AcDbSpline
210
0
220
0
230
0
 70
    8
 71
    3
 72
    8
 73
    4
 74
    0
 42
1e-07
 43
1e-07
 40
0
 40
0
 40
0
 40
0
 40
1
 40
1
 40
1
 40
1
 10
141.833346
 20
50.426691
 30
0
 10
141.87819
 20
50.381845
 30
0
 10
141.91488
 20
50.306716
 30
0
 10
141.91488
 20
50.259737
 30
0
  0
SPLINE
  5
15A
100
AcDbEntity
  8
Image
  6
ByLayer
 62
    1
370
   -1
100
AcDbSpline
210
0
220
0
230
0
 70
    8
 71
    3
 72
    8
 73
    4
 74
    0
 42
1e-07
 43
1e-07
 40
0
 40
0
 40
0
 40
0
 40
1
 40
1
 40
1
 40
1
 10
141.91488
 20
50.259737
 30
0
 10
141.91488
 20
50.212757
 30
0
 10
141.939327
 20
50.174319
 30
0
 10
141.969236
 20
50.174319
 30
0
  0
SPLINE
  5
15B
100
AcDbEntity
  8
Image
  6
ByLayer
 62
    1
370
   -1
100
AcDbSpline
210
0
220
0
230
0
 70
    8
 71
    3
 72
    8
 73
    4
 74
    0
 42
1e-07
 43
1e-07
 40
0
 40
0
 40
0
 40
0
 40
1
 40
1
 40
1
 40
1
 10
141.969236
 20
50.174319
 30
0
 10
141.999134
 20
50.174319
 30
0
 10
142.023595
 20
50.088707
 30
0
 10
142.023595
 20
49.98407
 30
0
  0
SPLINE
  5
15C
100
AcDbEntity
  8
Image
  6
ByLayer
 62
    1
370
   -1
100
AcDbSpline
210
0
220
0
230
0
 70
    8
 71
    3
 72
    8
 73
    4
 74
    0
 42
1e-07
 43
1e-07
 40
0
 40
0
 40
0
 40
0
 40
1
 40
1
 40
1
 40
1
 10
142.023595
 20
49.98407
 30
0
 10
142.023595
 20
49.879433
 30
0
 10
142.048042
 20
49.793821
 30
0
 10
142.077951
 20
49.793821
 30
0
  0
SPLINE
  5
15D
100
AcDbEntity
  8
Image
  6
ByLayer
 62
    1
370
   -1
100
AcDbSpline
210
0
220
0
230
0
 70
    8
 71
    3
 72
    8
 73
    4
 74
    0
 42
1e-07
 43
1e-07
 40
0
 40
0
 40
0
 40
0
 40
1
 40
1
 40
1
 40
1
 10
142.077951
 20
49.793821
 30
0
 10
142.107846
 20
49.793821
 30
0
 10
142.132307
 20
49.719672
 30
0
 10
142.132307
 20
49.629044
 30
0
  0
SPLINE
  5
15E
100
AcDbEntity
  8
Image
  6
ByLayer
 62
    1
370
   -1
100
AcDbSpline
210
0
220
0
230
0
 70
    8
 71
    3
 72
    8
 73
    4
 74
    0
 42
1e-07
 43
1e-07
 40
0
 40
0
 40
0
 40
0
 40
1
 40
1
 40
1
 40
1
 10
142.132307
 20
49.629044
 30
0
 10
142.132307
 20
49.53272
 30
0
 10
142.166179
 20
49.451271
 30
0
 10
142.213843
 20
49.43298
 30
0
  0
SPLINE
  5
15F
100
AcDbEntity
  8
Image
  6
ByLayer
 62
    1
370
   -1
100
AcDbSpline
210
0
220
0
230
0
 70
    8
 71
    3
 72
    8
 73
    4
 74
    0
 42
1e-07
 43
1e-07
 40
0
 40
0
 40
0
 40
0
 40
1
 40
1
 40
1
 40
1
 10
142.213843
 20
49.43298
 30
0
 10
142.264151
 20
49.413665
 30
0
 10
142.295377
 20
49.331057
 30
0
 10
142.295377
 20
49.21726
 30
0
  0
SPLINE
  5
160
100
AcDbEntity
  8
Image
  6
ByLayer
 62
    1
370
   -1
100
AcDbSpline
210
0
220
0
230
0
 70
    8
 71
    3
 72
    8
 73
    4
 74
    0
 42
1e-07
 43
1e-07
 40
0
 40
0
 40
0
 40
0
 40
1
 40
1
 40
1
 40
1
 10
142.295377
 20
49.21726
 30
0
 10
142.295377
 20
49.115821
 30
0
 10
142.319825
 20
49.032827
 30
0
 10
142.349736
 20
49.032827
 30
0
  0
SPLINE
  5
161
100
AcDbEntity
  8
Image
  6
ByLayer
 62
    1
370
   -1
100
AcDbSpline
210
0
220
0
230
0
 70
    8
 71
    3
 72
    8
 73
    4
 74
    0
 42
1e-07
 43
1e-07
 40
0
 40
0
 40
0
 40
0
 40
1
 40
1
 40
1
 40
1
 10
142.349736
 20
49.032827
 30
0
 10
142.379631
 20
49.032827
 30
0
 10
142.404092
 20
48.971674
 30
0
 10
142.404092
 20
48.896934
 30
0
  0
SPLINE
  5
162
100
AcDbEntity
  8
Image
  6
ByLayer
 62
    1
370
   -1
100
AcDbSpline
210
0
220
0
230
0
 70
    8
 71
    3
 72
    8
 73
    4
 74
    0
 42
1e-07
 43
1e-07
 40
0
 40
0
 40
0
 40
0
 40
1
 40
1
 40
1
 40
1
 10
142.404092
 20
48.896934
 30
0
 10
142.404092
 20
48.822192
 30
0
 10
142.428539
 20
48.761041
 30
0
 10
142.458448
 20
48.761041
 30
0
  0
SPLINE
  5
163
100
AcDbEntity
  8
Image
  6
ByLayer
 62
    1
370
   -1
100
AcDbSpline
210
0
220
0
230
0
 70
    8
 71
    3
 72
    8
 73
    4
 74
    0
 42
1e-07
 43
1e-07
 40
0
 40
0
 40
0
 40
0
 40
1
 40
1
 40
1
 40
1
 10
142.458448
 20
48.761041
 30
0
 10
142.488346
 20
48.761041
 30
0
 10
142.512807
 20
48.701637
 30
0
 10
142.512807
 20
48.629033
 30
0
  0
SPLINE
  5
164
100
AcDbEntity
  8
Image
  6
ByLayer
 62
    1
370
   -1
100
AcDbSpline
210
0
220
0
230
0
 70
    8
 71
    3
 72
    8
 73
    4
 74
    0
 42
1e-07
 43
1e-07
 40
0
 40
0
 40
0
 40
0
 40
1
 40
1
 40
1
 40
1
 10
142.512807
 20
48.629033
 30
0
 10
142.512807
 20
48.556426
 30
0
 10
142.549496
 20
48.460332
 30
0
 10
142.594341
 20
48.415488
 30
0
  0
SPLINE
  5
165
100
AcDbEntity
  8
Image
  6
ByLayer
 62
    1
370
   -1
100
AcDbSpline
210
0
220
0
230
0
 70
    8
 71
    3
 72
    8
 73
    4
 74
    0
 42
1e-07
 43
1e-07
 40
0
 40
0
 40
0
 40
0
 40
1
 40
1
 40
1
 40
1
 10
142.594341
 20
48.415488
 30
0
 10
142.639185
 20
48.370643
 30
0
 10
142.675877
 20
48.258823
 30
0
 10
142.675877
 20
48.166999
 30
0
  0
SPLINE
  5
166
100
AcDbEntity
  8
Image
  6
ByLayer
 62
    1
370
   -1
100
AcDbSpline
210
0
220
0
230
0
 70
    8
 71
    3
 72
    8
 73
    4
 74
    0
 42
1e-07
 43
1e-07
 40
0
 40
0
 40
0
 40
0
 40
1
 40
1
 40
1
 40
1
 10
142.675877
 20
48.166999
 30
0
 10
142.675877
 20
48.075175
 30
0
 10
142.700351
 20
48.000044
 30
0
 10
142.730233
 20
48.000044
 30
0
  0
SPLINE
  5
167
100
AcDbEntity
  8
Image
  6
ByLayer
 62
    1
370
   -1
100
AcDbSpline
210
0
220
0
230
0
 70
    8
 71
    3
 72
    8
 73
    4
 74
    0
 42
1e-07
 43
1e-07
 40
0
 40
0
 40
0
 40
0
 40
1
 40
1
 40
1
 40
1
 10
142.730233
 20
48.000044
 30
0
 10
142.760128
 20
48.000044
 30
0
 10
142.784589
 20
47.952567
 30
0
 10
142.784589
 20
47.894539
 30
0
  0
SPLINE
  5
168
100
AcDbEntity
  8
Image
  6
ByLayer
 62
    1
370
   -1
100
AcDbSpline
210
0
220
0
230
0
 70
    8
 71
    3
 72
    8
 73
    4
 74
    0
 42
1e-07
 43
1e-07
 40
0
 40
0
 40
0
 40
0
 40
1
 40
1
 40
1
 40
1
 10
142.784589
 20
47.894539
 30
0
 10
142.784589
 20
47.836511
 30
0
 10
142.809037
 20
47.773915
 30
0
 10
142.838948
 20
47.75544
 30
0
  0
SPLINE
  5
169
100
AcDbEntity
  8
Image
  6
ByLayer
 62
    1
370
   -1
100
AcDbSpline
210
0
220
0
230
0
 70
    8
 71
    3
 72
    8
 73
    4
 74
    0
 42
1e-07
 43
1e-07
 40
0
 40
0
 40
0
 40
0
 40
1
 40
1
 40
1
 40
1
 10
142.838948
 20
47.75544
 30
0
 10
142.918683
 20
47.706161
 30
0
 10
142.905186
 20
47.514952
 30
0
 10
142.815665
 20
47.425417
 30
0
  0
SPLINE
  5
16A
100
AcDbEntity
  8
Image
  6
ByLayer
 62
    1
370
   -1
100
AcDbSpline
210
0
220
0
230
0
 70
    8
 71
    3
 72
    8
 73
    4
 74
    0
 42
1e-07
 43
1e-07
 40
0
 40
0
 40
0
 40
0
 40
1
 40
1
 40
1
 40
1
 10
142.815665
 20
47.425417
 30
0
 10
142.772955
 20
47.382708
 30
0
 10
142.638423
 20
47.347764
 30
0
 10
142.516701
 20
47.347764
 30
0
  0
SPLINE
  5
16B
100
AcDbEntity
  8
Image
  6
ByLayer
 62
    1
370
   -1
100
AcDbSpline
210
0
220
0
230
0
 70
    8
 71
    3
 72
    8
 73
    4
 74
    0
 42
1e-07
 43
1e-07
 40
0
 40
0
 40
0
 40
0
 40
1
 40
1
 40
1
 40
1
 10
142.516701
 20
47.347764
 30
0
 10
142.33163
 20
47.347764
 30
0
 10
142.295391
 20
47.329958
 30
0
 10
142.295391
 20
47.23905
 30
0
  0
SPLINE
  5
16C
100
AcDbEntity
  8
Image
  6
ByLayer
 62
    1
370
   -1
100
AcDbSpline
210
0
220
0
230
0
 70
    8
 71
    3
 72
    8
 73
    4
 74
    0
 42
1e-07
 43
1e-07
 40
0
 40
0
 40
0
 40
0
 40
1
 40
1
 40
1
 40
1
 10
142.295391
 20
47.23905
 30
0
 10
142.295391
 20
47.146443
 30
0
 10
142.33163
 20
47.130335
 30
0
 10
142.539998
 20
47.130335
 30
0
  0
SPLINE
  5
16D
100
AcDbEntity
  8
Image
  6
ByLayer
 62
    1
370
   -1
100
AcDbSpline
210
0
220
0
230
0
 70
    8
 71
    3
 72
    8
 73
    4
 74
    0
 42
1e-07
 43
1e-07
 40
0
 40
0
 40
0
 40
0
 40
1
 40
1
 40
1
 40
1
 10
142.539998
 20
47.130335
 30
0
 10
142.67453
 20
47.130335
 30
0
 10
142.784602
 20
47.154809
 30
0
 10
142.784602
 20
47.184694
 30
0
  0
SPLINE
  5
16E
100
AcDbEntity
  8
Image
  6
ByLayer
 62
    1
370
   -1
100
AcDbSpline
210
0
220
0
230
0
 70
    8
 71
    3
 72
    8
 73
    4
 74
    0
 42
1e-07
 43
1e-07
 40
0
 40
0
 40
0
 40
0
 40
1
 40
1
 40
1
 40
1
 10
142.784602
 20
47.184694
 30
0
 10
142.784602
 20
47.214589
 30
0
 10
142.80905
 20
47.23905
 30
0
 10
142.838961
 20
47.23905
 30
0
  0
SPLINE
  5
16F
100
AcDbEntity
  8
Image
  6
ByLayer
 62
    1
370
   -1
100
AcDbSpline
210
0
220
0
230
0
 70
    8
 71
    3
 72
    8
 73
    4
 74
    0
 42
1e-07
 43
1e-07
 40
0
 40
0
 40
0
 40
0
 40
1
 40
1
 40
1
 40
1
 10
142.838961
 20
47.23905
 30
0
 10
142.868856
 20
47.23905
 30
0
 10
142.893317
 20
47.20236
 30
0
 10
142.893317
 20
47.157516
 30
0
  0
SPLINE
  5
170
100
AcDbEntity
  8
Image
  6
ByLayer
 62
    1
370
   -1
100
AcDbSpline
210
0
220
0
230
0
 70
    8
 71
    3
 72
    8
 73
    4
 74
    0
 42
1e-07
 43
1e-07
 40
0
 40
0
 40
0
 40
0
 40
1
 40
1
 40
1
 40
1
 10
142.893317
 20
47.157516
 30
0
 10
142.893317
 20
47.112669
 30
0
 10
142.86887
 20
47.075979
 30
0
 10
142.838961
 20
47.075979
 30
0
  0
SPLINE
  5
171
100
AcDbEntity
  8
Image
  6
ByLayer
 62
    1
370
   -1
100
AcDbSpline
210
0
220
0
230
0
 70
    8
 71
    3
 72
    8
 73
    4
 74
    0
 42
1e-07
 43
1e-07
 40
0
 40
0
 40
0
 40
0
 40
1
 40
1
 40
1
 40
1
 10
142.838961
 20
47.075979
 30
0
 10
142.809063
 20
47.075979
 30
0
 10
142.784602
 20
46.990368
 30
0
 10
142.784602
 20
46.88573
 30
0
  0
SPLINE
  5
172
100
AcDbEntity
  8
Image
  6
ByLayer
 62
    1
370
   -1
100
AcDbSpline
210
0
220
0
230
0
 70
    8
 71
    3
 72
    8
 73
    4
 74
    0
 42
1e-07
 43
1e-07
 40
0
 40
0
 40
0
 40
0
 40
1
 40
1
 40
1
 40
1
 10
142.784602
 20
46.88573
 30
0
 10
142.784602
 20
46.781093
 30
0
 10
142.760155
 20
46.695482
 30
0
 10
142.730246
 20
46.695482
 30
0
  0
SPLINE
  5
173
100
AcDbEntity
  8
Image
  6
ByLayer
 62
    1
370
   -1
100
AcDbSpline
210
0
220
0
230
0
 70
    8
 71
    3
 72
    8
 73
    4
 74
    0
 42
1e-07
 43
1e-07
 40
0
 40
0
 40
0
 40
0
 40
1
 40
1
 40
1
 40
1
 10
142.730246
 20
46.695482
 30
0
 10
142.700351
 20
46.695482
 30
0
 10
142.67589
 20
46.595893
 30
0
 10
142.67589
 20
46.474171
 30
0
  0
SPLINE
  5
174
100
AcDbEntity
  8
Image
  6
ByLayer
 62
    1
370
   -1
100
AcDbSpline
210
0
220
0
230
0
 70
    8
 71
    3
 72
    8
 73
    4
 74
    0
 42
1e-07
 43
1e-07
 40
0
 40
0
 40
0
 40
0
 40
1
 40
1
 40
1
 40
1
 10
142.67589
 20
46.474171
 30
0
 10
142.67589
 20
46.349928
 30
0
 10
142.640129
 20
46.217099
 30
0
 10
142.594354
 20
46.171326
 30
0
  0
SPLINE
  5
175
100
AcDbEntity
  8
Image
  6
ByLayer
 62
    1
370
   -1
100
AcDbSpline
210
0
220
0
230
0
 70
    8
 71
    3
 72
    8
 73
    4
 74
    0
 42
1e-07
 43
1e-07
 40
0
 40
0
 40
0
 40
0
 40
1
 40
1
 40
1
 40
1
 10
142.594354
 20
46.171326
 30
0
 10
142.54951
 20
46.126482
 30
0
 10
142.51282
 20
46.030385
 30
0
 10
142.51282
 20
45.957781
 30
0
  0
SPLINE
  5
176
100
AcDbEntity
  8
Image
  6
ByLayer
 62
    1
370
   -1
100
AcDbSpline
210
0
220
0
230
0
 70
    8
 71
    3
 72
    8
 73
    4
 74
    0
 42
1e-07
 43
1e-07
 40
0
 40
0
 40
0
 40
0
 40
1
 40
1
 40
1
 40
1
 10
142.51282
 20
45.957781
 30
0
 10
142.51282
 20
45.885177
 30
0
 10
142.488372
 20
45.825772
 30
0
 10
142.458461
 20
45.825772
 30
0
  0
SPLINE
  5
177
100
AcDbEntity
  8
Image
  6
ByLayer
 62
    1
370
   -1
100
AcDbSpline
210
0
220
0
230
0
 70
    8
 71
    3
 72
    8
 73
    4
 74
    0
 42
1e-07
 43
1e-07
 40
0
 40
0
 40
0
 40
0
 40
1
 40
1
 40
1
 40
1
 10
142.458461
 20
45.825772
 30
0
 10
142.428566
 20
45.825772
 30
0
 10
142.404105
 20
45.753835
 30
0
 10
142.404105
 20
45.665909
 30
0
  0
SPLINE
  5
178
100
AcDbEntity
  8
Image
  6
ByLayer
 62
    1
370
   -1
100
AcDbSpline
210
0
220
0
230
0
 70
    8
 71
    3
 72
    8
 73
    4
 74
    0
 42
1e-07
 43
1e-07
 40
0
 40
0
 40
0
 40
0
 40
1
 40
1
 40
1
 40
1
 10
142.404105
 20
45.665909
 30
0
 10
142.404105
 20
45.577985
 30
0
 10
142.428553
 20
45.490929
 30
0
 10
142.458461
 20
45.472453
 30
0
  0
SPLINE
  5
179
100
AcDbEntity
  8
Image
  6
ByLayer
 62
    1
370
   -1
100
AcDbSpline
210
0
220
0
230
0
 70
    8
 71
    3
 72
    8
 73
    4
 74
    0
 42
1e-07
 43
1e-07
 40
0
 40
0
 40
0
 40
0
 40
1
 40
1
 40
1
 40
1
 10
142.458461
 20
45.472453
 30
0
 10
142.488359
 20
45.453985
 30
0
 10
142.51282
 20
45.380897
 30
0
 10
142.51282
 20
45.310057
 30
0
  0
SPLINE
  5
17A
100
AcDbEntity
  8
Image
  6
ByLayer
 62
    1
370
   -1
100
AcDbSpline
210
0
220
0
230
0
 70
    8
 71
    3
 72
    8
 73
    4
 74
    0
 42
1e-07
 43
1e-07
 40
0
 40
0
 40
0
 40
0
 40
1
 40
1
 40
1
 40
1
 10
142.51282
 20
45.310057
 30
0
 10
142.51282
 20
45.239215
 30
0
 10
142.54951
 20
45.144563
 30
0
 10
142.594354
 20
45.099719
 30
0
  0
SPLINE
  5
17B
100
AcDbEntity
  8
Image
  6
ByLayer
 62
    1
370
   -1
100
AcDbSpline
210
0
220
0
230
0
 70
    8
 71
    3
 72
    8
 73
    4
 74
    0
 42
1e-07
 43
1e-07
 40
0
 40
0
 40
0
 40
0
 40
1
 40
1
 40
1
 40
1
 10
142.594354
 20
45.099719
 30
0
 10
142.640129
 20
45.053946
 30
0
 10
142.67589
 20
44.921117
 30
0
 10
142.67589
 20
44.796874
 30
0
  0
SPLINE
  5
17C
100
AcDbEntity
  8
Image
  6
ByLayer
 62
    1
370
   -1
100
AcDbSpline
210
0
220
0
230
0
 70
    8
 71
    3
 72
    8
 73
    4
 74
    0
 42
1e-07
 43
1e-07
 40
0
 40
0
 40
0
 40
0
 40
1
 40
1
 40
1
 40
1
 10
142.67589
 20
44.796874
 30
0
 10
142.67589
 20
44.675152
 30
0
 10
142.700364
 20
44.575563
 30
0
 10
142.730246
 20
44.575563
 30
0
  0
SPLINE
  5
17D
100
AcDbEntity
  8
Image
  6
ByLayer
 62
    1
370
   -1
100
AcDbSpline
210
0
220
0
230
0
 70
    8
 71
    3
 72
    8
 73
    4
 74
    0
 42
1e-07
 43
1e-07
 40
0
 40
0
 40
0
 40
0
 40
1
 40
1
 40
1
 40
1
 10
142.730246
 20
44.575563
 30
0
 10
142.760142
 20
44.575563
 30
0
 10
142.784602
 20
44.465491
 30
0
 10
142.784602
 20
44.330959
 30
0
  0
SPLINE
  5
17E
100
AcDbEntity
  8
Image
  6
ByLayer
 62
    1
370
   -1
100
AcDbSpline
210
0
220
0
230
0
 70
    8
 71
    3
 72
    8
 73
    4
 74
    0
 42
1e-07
 43
1e-07
 40
0
 40
0
 40
0
 40
0
 40
1
 40
1
 40
1
 40
1
 10
142.784602
 20
44.330959
 30
0
 10
142.784602
 20
44.196426
 30
0
 10
142.80905
 20
44.086354
 30
0
 10
142.838961
 20
44.086354
 30
0
  0
SPLINE
  5
17F
100
AcDbEntity
  8
Image
  6
ByLayer
 62
    1
370
   -1
100
AcDbSpline
210
0
220
0
230
0
 70
    8
 71
    3
 72
    8
 73
    4
 74
    0
 42
1e-07
 43
1e-07
 40
0
 40
0
 40
0
 40
0
 40
1
 40
1
 40
1
 40
1
 10
142.838961
 20
44.086354
 30
0
 10
142.868856
 20
44.086354
 30
0
 10
142.893317
 20
44.049662
 30
0
 10
142.893317
 20
44.004817
 30
0
  0
SPLINE
  5
180
100
AcDbEntity
  8
Image
  6
ByLayer
 62
    1
370
   -1
100
AcDbSpline
210
0
220
0
230
0
 70
    8
 71
    3
 72
    8
 73
    4
 74
    0
 42
1e-07
 43
1e-07
 40
0
 40
0
 40
0
 40
0
 40
1
 40
1
 40
1
 40
1
 10
142.893317
 20
44.004817
 30
0
 10
142.893317
 20
43.951131
 30
0
 10
142.839607
 20
43.923283
 30
0
 10
142.736062
 20
43.923283
 30
0
  0
SPLINE
  5
181
100
AcDbEntity
  8
Image
  6
ByLayer
 62
    1
370
   -1
100
AcDbSpline
210
0
220
0
230
0
 70
    8
 71
    3
 72
    8
 73
    4
 74
    0
 42
1e-07
 43
1e-07
 40
0
 40
0
 40
0
 40
0
 40
1
 40
1
 40
1
 40
1
 10
142.736062
 20
43.923283
 30
0
 10
142.649572
 20
43.923283
 30
0
 10
142.565644
 20
43.888983
 30
0
 10
142.549557
 20
43.847062
 30
0
  0
SPLINE
  5
182
100
AcDbEntity
  8
Image
  6
ByLayer
 62
    1
370
   -1
100
AcDbSpline
210
0
220
0
230
0
 70
    8
 71
    3
 72
    8
 73
    4
 74
    0
 42
1e-07
 43
1e-07
 40
0
 40
0
 40
0
 40
0
 40
1
 40
1
 40
1
 40
1
 10
142.549557
 20
43.847062
 30
0
 10
142.509375
 20
43.742345
 30
0
 10
142.558421
 20
43.705854
 30
0
 10
142.739306
 20
43.705854
 30
0
  0
SPLINE
  5
183
100
AcDbEntity
  8
Image
  6
ByLayer
 62
    1
370
   -1
100
AcDbSpline
210
0
220
0
230
0
 70
    8
 71
    3
 72
    8
 73
    4
 74
    0
 42
1e-07
 43
1e-07
 40
0
 40
0
 40
0
 40
0
 40
1
 40
1
 40
1
 40
1
 10
142.739306
 20
43.705854
 30
0
 10
142.839967
 20
43.705854
 30
0
 10
142.893317
 20
43.67761
 30
0
 10
142.893317
 20
43.62432
 30
0
  0
SPLINE
  5
184
100
AcDbEntity
  8
Image
  6
ByLayer
 62
    1
370
   -1
100
AcDbSpline
210
0
220
0
230
0
 70
    8
 71
    3
 72
    8
 73
    4
 74
    0
 42
1e-07
 43
1e-07
 40
0
 40
0
 40
0
 40
0
 40
1
 40
1
 40
1
 40
1
 10
142.893317
 20
43.62432
 30
0
 10
142.893317
 20
43.579476
 30
0
 10
142.86887
 20
43.542783
 30
0
 10
142.838961
 20
43.542783
 30
0
  0
SPLINE
  5
185
100
AcDbEntity
  8
Image
  6
ByLayer
 62
    1
370
   -1
100
AcDbSpline
210
0
220
0
230
0
 70
    8
 71
    3
 72
    8
 73
    4
 74
    0
 42
1e-07
 43
1e-07
 40
0
 40
0
 40
0
 40
0
 40
1
 40
1
 40
1
 40
1
 10
142.838961
 20
43.542783
 30
0
 10
142.809063
 20
43.542783
 30
0
 10
142.784602
 20
43.481633
 30
0
 10
142.784602
 20
43.406893
 30
0
  0
SPLINE
  5
186
100
AcDbEntity
  8
Image
  6
ByLayer
 62
    1
370
   -1
100
AcDbSpline
210
0
220
0
230
0
 70
    8
 71
    3
 72
    8
 73
    4
 74
    0
 42
1e-07
 43
1e-07
 40
0
 40
0
 40
0
 40
0
 40
1
 40
1
 40
1
 40
1
 10
142.784602
 20
43.406893
 30
0
 10
142.784602
 20
43.332151
 30
0
 10
142.760155
 20
43.271001
 30
0
 10
142.730246
 20
43.271001
 30
0
  0
SPLINE
  5
187
100
AcDbEntity
  8
Image
  6
ByLayer
 62
    1
370
   -1
100
AcDbSpline
210
0
220
0
230
0
 70
    8
 71
    3
 72
    8
 73
    4
 74
    0
 42
1e-07
 43
1e-07
 40
0
 40
0
 40
0
 40
0
 40
1
 40
1
 40
1
 40
1
 10
142.730246
 20
43.271001
 30
0
 10
142.700351
 20
43.271001
 30
0
 10
142.67589
 20
43.185387
 30
0
 10
142.67589
 20
43.080752
 30
0
  0
SPLINE
  5
188
100
AcDbEntity
  8
Image
  6
ByLayer
 62
    1
370
   -1
100
AcDbSpline
210
0
220
0
230
0
 70
    8
 71
    3
 72
    8
 73
    4
 74
    0
 42
1e-07
 43
1e-07
 40
0
 40
0
 40
0
 40
0
 40
1
 40
1
 40
1
 40
1
 10
142.67589
 20
43.080752
 30
0
 10
142.67589
 20
42.976115
 30
0
 10
142.653216
 20
42.890501
 30
0
 10
142.625514
 20
42.890501
 30
0
  0
SPLINE
  5
189
100
AcDbEntity
  8
Image
  6
ByLayer
 62
    1
370
   -1
100
AcDbSpline
210
0
220
0
230
0
 70
    8
 71
    3
 72
    8
 73
    4
 74
    0
 42
1e-07
 43
1e-07
 40
0
 40
0
 40
0
 40
0
 40
1
 40
1
 40
1
 40
1
 10
142.625514
 20
42.890501
 30
0
 10
142.554754
 20
42.890501
 30
0
 10
142.404105
 20
42.57263
 30
0
 10
142.404105
 20
42.423326
 30
0
  0
SPLINE
  5
18A
100
AcDbEntity
  8
Image
  6
ByLayer
 62
    1
370
   -1
100
AcDbSpline
210
0
220
0
230
0
 70
    8
 71
    3
 72
    8
 73
    4
 74
    0
 42
1e-07
 43
1e-07
 40
0
 40
0
 40
0
 40
0
 40
1
 40
1
 40
1
 40
1
 10
142.404105
 20
42.423326
 30
0
 10
142.404105
 20
42.354942
 30
0
 10
142.379658
 20
42.283875
 30
0
 10
142.349749
 20
42.265399
 30
0
  0
SPLINE
  5
18B
100
AcDbEntity
  8
Image
  6
ByLayer
 62
    1
370
   -1
100
AcDbSpline
210
0
220
0
230
0
 70
    8
 71
    3
 72
    8
 73
    4
 74
    0
 42
1e-07
 43
1e-07
 40
0
 40
0
 40
0
 40
0
 40
1
 40
1
 40
1
 40
1
 10
142.349749
 20
42.265399
 30
0
 10
142.319851
 20
42.246931
 30
0
 10
142.295391
 20
42.184325
 30
0
 10
142.295391
 20
42.1263
 30
0
  0
SPLINE
  5
18C
100
AcDbEntity
  8
Image
  6
ByLayer
 62
    1
370
   -1
100
AcDbSpline
210
0
220
0
230
0
 70
    8
 71
    3
 72
    8
 73
    4
 74
    0
 42
1e-07
 43
1e-07
 40
0
 40
0
 40
0
 40
0
 40
1
 40
1
 40
1
 40
1
 10
142.295391
 20
42.1263
 30
0
 10
142.295391
 20
42.068271
 30
0
 10
142.272636
 20
42.020792
 30
0
 10
142.244815
 20
42.020792
 30
0
  0
SPLINE
  5
18D
100
AcDbEntity
  8
Image
  6
ByLayer
 62
    1
370
   -1
100
AcDbSpline
210
0
220
0
230
0
 70
    8
 71
    3
 72
    8
 73
    4
 74
    0
 42
1e-07
 43
1e-07
 40
0
 40
0
 40
0
 40
0
 40
1
 40
1
 40
1
 40
1
 10
142.244815
 20
42.020792
 30
0
 10
142.216997
 20
42.020792
 30
0
 10
142.186422
 20
41.965756
 30
0
 10
142.176868
 20
41.898491
 30
0
  0
SPLINE
  5
18E
100
AcDbEntity
  8
Image
  6
ByLayer
 62
    1
370
   -1
100
AcDbSpline
210
0
220
0
230
0
 70
    8
 71
    3
 72
    8
 73
    4
 74
    0
 42
1e-07
 43
1e-07
 40
0
 40
0
 40
0
 40
0
 40
1
 40
1
 40
1
 40
1
 10
142.176868
 20
41.898491
 30
0
 10
142.161548
 20
41.79053
 30
0
 10
142.123639
 20
41.774298
 30
0
 10
141.853727
 20
41.760087
 30
0
  0
SPLINE
  5
18F
100
AcDbEntity
  8
Image
  6
ByLayer
 62
    1
370
   -1
100
AcDbSpline
210
0
220
0
230
0
 70
    8
 71
    3
 72
    8
 73
    4
 74
    0
 42
1e-07
 43
1e-07
 40
0
 40
0
 40
0
 40
0
 40
1
 40
1
 40
1
 40
1
 10
141.853727
 20
41.760087
 30
0
 10
141.617605
 20
41.747652
 30
0
 10
141.540606
 20
41.76313
 30
0
 10
141.515703
 20
41.828035
 30
0
  0
LINE
  5
190
100
AcDbEntity
  8
Image
  6
ByLayer
 62
    1
370
   -1
100
AcDbLine
 10
141.515703
 20
41.828035
 11
141.51569
 21
41.828035
  0
LINE
  5
191
100
AcDbEntity
  8
Guides0
  6
ByLayer
 62
  256
370
   -1
100
AcDbLine
 10
65.50149400000001
 20
68.43821800000001
 11
215.501494
 21
68.43821800000001
  0
LINE
  5
192
100
AcDbEntity
  8
Guides0
  6
ByLayer
 62
  256
370
   -1
100
AcDbLine
 10
67.458461
 20
45.825772
 11
217.458461
 21
45.825772
  0
LINE
  5
193
100
AcDbEntity
  8
Guides0
  6
ByLayer
 62
  256
370
   -1
100
AcDbLine
 10
67.13218499999999
 20
44.022867
 11
217.132185
 21
44.022867
  0
LINE
  5
194
100
AcDbEntity
  8
Guides0
  6
ByLayer
 62
  256
370
   -1
100
AcDbLine
 10
59.79413299999999
 20
56.805854
 11
209.794133
 21
56.805854
  0
LINE
  5
195
100
AcDbEntity
  8
Guides0
  6
ByLayer
 62
  256
370
   -1
100
AcDbLine
 10
59.63094100000001
 20
74.41746999999999
 11
209.630941
 21
74.41746999999999
  0
LINE
  5
196
100
AcDbEntity
  8
Guides0
  6
ByLayer
 62
  256
370
   -1
100
AcDbLine
 10
134.630941
 20
-0.5825300000000055
 11
134.630941
 21
149.41747
  0
LINE
  5
197
100
AcDbEntity
  8
Guides0
  6
ByLayer
 62
  256
370
   -1
100
AcDbLine
 10
139.392514
 20
-0.5825300000000055
 11
139.392514
 21
149.41747
  0
LINE
  5
198
100
AcDbEntity
  8
Guides0
  6
ByLayer
 62
  256
370
   -1
100
AcDbLine
 10
140.990706
 20
-4.985432000000003
 11
140.990706
 21
145.014568
  0
LINE
  5
199
100
AcDbEntity
  8
Guides0
  6
ByLayer
 62
  256
370
   -1
100
AcDbLine
 10
141.262489
 20
-8.654520000000005
 11
141.262489
 21
141.34548
  0
LINE
  5
19A
100
AcDbEntity
  8
Guides0
  6
ByLayer
 62
  256
370
   -1
100
AcDbLine
 10
132.2311180244559
 20
-6.568799428165036
 11
132.2311180244559
 21
143.4312005718349
  0
LINE
  5
19B
100
AcDbEntity
  8
Guides0
  6
ByLayer
 62
  256
370
   -1
100
AcDbLine
 10
140.4969624529896
 20
-6.561781999999994
 11
140.4969624529896
 21
143.438218
  0
LINE
  5
19C
100
AcDbEntity
  8
Guides0
  6
ByLayer
 62
  256
370
   -1
100
AcDbLine
 10
65.98606825597827
 20
70.02249120023646
 11
215.9860682559783
 21
70.02249120023646
  0
LINE
  5
19D
100
AcDbEntity
  8
Guides0
  6
ByLayer
 62
  256
370
   -1
100
AcDbLine
 10
66.26248899999999
 20
66.36585308672892
 11
216.262489
 21
66.36585308672892
  0
LINE
  5
19E
100
AcDbEntity
  8
0
  6
ByLayer
 62
  256
370
   -1
100
AcDbLine
 10
134.630941
 20
74.41746999999999
 11
132.2311180244559
 21
68.43821800000001
  0
LINE
  5
19F
100
AcDbEntity
  8
0
  6
ByLayer
 62
  256
370
   -1
100
AcDbLine
 10
132.2311180244559
 20
68.43821800000001
 11
134.630941
 21
56.805854
  0
LINE
  5
1A0
100
AcDbEntity
  8
0
  6
ByLayer
 62
  256
370
   -1
100
AcDbLine
 10
134.630941
 20
56.805854
 11
139.392514
 21
56.805854
  0
LINE
  5
1A1
100
AcDbEntity
  8
0
  6
ByLayer
 62
  256
370
   -1
100
AcDbLine
 10
139.392514
 20
56.805854
 11
141.262489
 21
66.36585308672892
  0
LINE
  5
1A2
100
AcDbEntity
  8
0
  6
ByLayer
 62
  256
370
   -1
100
AcDbLine
 10
141.262489
 20
66.36585308672892
 11
140.4969624529896
 21
68.43821800000001
  0
LINE
  5
1A3
100
AcDbEntity
  8
0
  6
ByLayer
 62
  256
370
   -1
100
AcDbLine
 10
140.4969624529896
 20
68.43821800000001
 11
140.990706
 21
70.02249120023646
  0
LINE
  5
1A4
100
AcDbEntity
  8
0
  6
ByLayer
 62
  256
370
   -1
100
AcDbLine
 10
140.990706
 20
70.02249120023646
 11
139.392514
 21
74.41746999999999
  0
LINE
  5
1A5
100
AcDbEntity
  8
0
  6
ByLayer
 62
  256
370
   -1
100
AcDbLine
 10
139.392514
 20
74.41746999999999
 11
134.630941
 21
74.41746999999999
  0
LINE
  5
1A6
100
AcDbEntity
  8
Guides0
  6
ByLayer
 62
  256
370
   -1
100
AcDbLine
 10
141.262489
 20
66.36585308672889
 11
139.392514
 21
56.805854
  0
LINE
  5
1A7
100
AcDbEntity
  8
0
  6
ByLayer
 62
  256
370
   -1
100
AcDbLine
 10
132.2311180244559
 20
68.43821800000001
 11
140.4969624529896
 21
68.43821800000001
  0
LINE
  5
1A8
100
AcDbEntity
  8
Guides1
  6
ByLayer
 62
  256
370
   -1
100
AcDbLine
 10
59.90284800000001
 20
53.21830199999999
 11
209.902848
 21
53.21830199999999
  0
LINE
  5
1A9
100
AcDbEntity
  8
Guides1
  6
ByLayer
 62
  256
370
   -1
100
AcDbLine
 10
56.65502599999999
 20
44.048884
 11
206.655026
 21
44.048884
  0
LINE
  5
1AA
100
AcDbEntity
  8
Guides1
  6
ByLayer
 62
  256
370
   -1
100
AcDbLine
 10
67.54955699999999
 20
43.847062
 11
217.549557
 21
43.847062
  0
LINE
  5
1AB
100
AcDbEntity
  8
Guides1
  6
ByLayer
 62
  256
370
   -1
100
AcDbLine
 10
67.40410499999999
 20
45.665909
 11
217.404105
 21
45.665909
  0
LINE
  5
1AC
100
AcDbEntity
  8
Guides1
  6
ByLayer
 62
  256
370
   -1
100
AcDbLine
 10
67.51670100000001
 20
47.347764
 11
217.516701
 21
47.347764
  0
LINE
  5
1AD
100
AcDbEntity
  8
Guides1
  6
ByLayer
 62
  256
370
   -1
100
AcDbLine
 10
66.85372699999999
 20
41.760087
 11
216.853727
 21
41.760087
  0
LINE
  5
1AE
100
AcDbEntity
  8
Guides1
  6
ByLayer
 62
  256
370
   -1
100
AcDbLine
 10
131.655026
 20
-30.951116
 11
131.655026
 21
119.048884
  0
LINE
  5
1AF
100
AcDbEntity
  8
Guides1
  6
ByLayer
 62
  256
370
   -1
100
AcDbLine
 10
141.853727
 20
-33.239913
 11
141.853727
 21
116.760087
  0
LINE
  5
1B0
100
AcDbEntity
  8
Guides1
  6
ByLayer
 62
  256
370
   -1
100
AcDbLine
 10
141.853727
 20
41.760087
 11
142.893317
 21
43.62432
  0
LINE
  5
1B1
100
AcDbEntity
  8
Guides1
  6
ByLayer
 62
  256
370
   -1
100
AcDbLine
 10
142.404105
 20
45.665909
 11
142.893317
 21
44.004817
  0
LINE
  5
1B2
100
AcDbEntity
  8
Guides1
  6
ByLayer
 62
  256
370
   -1
100
AcDbLine
 10
142.404105
 20
45.665909
 11
142.893317
 21
47.157516
  0
LINE
  5
1B3
100
AcDbEntity
  8
Guides1
  6
ByLayer
 62
  256
370
   -1
100
AcDbLine
 10
142.893317
 20
47.157516
 11
140.8821
 21
53.218302
  0
LINE
  5
1B4
100
AcDbEntity
  8
Guides1
  6
ByLayer
 62
  256
370
   -1
100
AcDbLine
 10
134.902848
 20
-21.781698
 11
134.902848
 21
128.218302
  0
LINE
  5
1B5
100
AcDbEntity
  8
0
  6
ByLayer
 62
  256
370
   -1
100
AcDbLine
 10
134.902848
 20
53.21830199999999
 11
131.655026
 21
44.048884
  0
LINE
  5
1B6
100
AcDbEntity
  8
0
  6
ByLayer
 62
  256
370
   -1
100
AcDbLine
 10
131.655026
 20
44.048884
 11
141.931240960836
 21
41.76673537060733
  0
LINE
  5
1B7
100
AcDbEntity
  8
0
  6
ByLayer
 62
  256
370
   -1
100
AcDbLine
 10
141.931240960836
 20
41.76673537060733
 11
143.0175291321637
 21
43.847062
  0
LINE
  5
1B8
100
AcDbEntity
  8
0
  6
ByLayer
 62
  256
370
   -1
100
AcDbLine
 10
143.0175291321637
 20
43.847062
 11
142.404105
 21
45.665909
  0
LINE
  5
1B9
100
AcDbEntity
  8
0
  6
ByLayer
 62
  256
370
   -1
100
AcDbLine
 10
142.404105
 20
45.665909
 11
142.893317
 21
47.15751599999996
  0
LINE
  5
1BA
100
AcDbEntity
  8
0
  6
ByLayer
 62
  256
370
   -1
100
AcDbLine
 10
142.893317
 20
47.15751599999996
 11
140.8821
 21
53.21830199999999
  0
LINE
  5
1BB
100
AcDbEntity
  8
0
  6
ByLayer
 62
  256
370
   -1
100
AcDbLine
 10
140.8821
 20
53.21830199999999
 11
134.902848
 21
53.21830199999999
  0
LINE
  5
1BC
100
AcDbEntity
  8
0
  6
ByLayer
 62
  256
370
   -1
100
AcDbLine
 10
142.404105
 20
45.665909
 11
132.227778749362
 21
45.665909
  0
ENDSEC
  0
SECTION
  2
OBJECTS
  0
DICTIONARY
  5
C
330
0
100
AcDbDictionary
281
    1
  3
ACAD_GROUP
350
D
  0
DICTIONARY
  5
D
330
C
100
AcDbDictionary
281
    1
  0
ENDSEC
  0
EOF
