solid OpenSCAD_Model
  facet normal 0 0 1
    outer loop
      vertex 43.9601 -2 2
      vertex 11.58 -28.86 2
      vertex 34.56 -28.86 2
    endloop
  endfacet
  facet normal 0 -0 1
    outer loop
      vertex 11.58 -28.86 2
      vertex 43.9601 -2 2
      vertex 0.802494 -2 2
    endloop
  endfacet
  facet normal 0 -0 1
    outer loop
      vertex 0.708367 -1.76541 2
      vertex 0.708367 0 2
      vertex 0 0 2
    endloop
  endfacet
  facet normal -0 1.7615e-08 1
    outer loop
      vertex 11.58 56.14 2
      vertex 45.1585 2 2
      vertex 34.56 56.14 2
    endloop
  endfacet
  facet normal 0 1.7615e-08 1
    outer loop
      vertex 11.58 56.14 2
      vertex 0.708367 2 2
      vertex 45.1585 2 2
    endloop
  endfacet
  facet normal 0 0 1
    outer loop
      vertex 0.708367 2 2
      vertex 0 0 2
      vertex 0.708367 0 2
    endloop
  endfacet
  facet normal -1.14847e-07 4.06769e-08 1
    outer loop
      vertex 0 0 2
      vertex 0.708367 2 2
      vertex 11.58 56.14 2
    endloop
  endfacet
  facet normal 0 -3.10672e-08 -1
    outer loop
      vertex 11.58 -28.86 -2
      vertex 43.9601 -2 -2
      vertex 34.56 -28.86 -2
    endloop
  endfacet
  facet normal -0 -3.10672e-08 -1
    outer loop
      vertex 43.9601 -2 -2
      vertex 11.58 -28.86 -2
      vertex 0.802494 -2 -2
    endloop
  endfacet
  facet normal -0 0 -1
    outer loop
      vertex 0.707692 0 -2
      vertex 0.707692 -1.76373 -2
      vertex 0 0 -2
    endloop
  endfacet
  facet normal 0 0 -1
    outer loop
      vertex 0.707692 0 -2
      vertex 0 0 -2
      vertex 0.707692 2 -2
    endloop
  endfacet
  facet normal 0 0 -1
    outer loop
      vertex 40.7425 2 -2
      vertex 34.56 56.14 -2
      vertex 45.1585 2 -2
    endloop
  endfacet
  facet normal 0 0 -1
    outer loop
      vertex 40.7425 2 -2
      vertex 11.58 56.14 -2
      vertex 34.56 56.14 -2
    endloop
  endfacet
  facet normal 0 0 -1
    outer loop
      vertex 0.707692 2 -2
      vertex 11.58 56.14 -2
      vertex 40.7425 2 -2
    endloop
  endfacet
  facet normal 0 0 -1
    outer loop
      vertex 11.58 56.14 -2
      vertex 0.707692 2 -2
      vertex 0 0 -2
    endloop
  endfacet
  facet normal 0.943869 -0.330321 0
    outer loop
      vertex 34.56 -28.86 2
      vertex 43.9601 -2 0
      vertex 43.9601 -2 2
    endloop
  endfacet
  facet normal 0.943869 -0.330321 0
    outer loop
      vertex 34.56 -28.86 -2
      vertex 43.9601 -2 0
      vertex 34.56 -28.86 2
    endloop
  endfacet
  facet normal 0.943869 -0.330321 0
    outer loop
      vertex 43.9601 -2 0
      vertex 34.56 -28.86 -2
      vertex 43.9601 -2 -2
    endloop
  endfacet
  facet normal 0 -1 0
    outer loop
      vertex 11.58 -28.86 -2
      vertex 34.56 -28.86 2
      vertex 11.58 -28.86 2
    endloop
  endfacet
  facet normal 0 -1 -0
    outer loop
      vertex 34.56 -28.86 2
      vertex 11.58 -28.86 -2
      vertex 34.56 -28.86 -2
    endloop
  endfacet
  facet normal -0.928077 -0.372388 0
    outer loop
      vertex 11.58 -28.86 -2
      vertex 0.802494 -2 0
      vertex 0.802494 -2 -2
    endloop
  endfacet
  facet normal -0.928077 -0.372388 -0
    outer loop
      vertex 11.58 -28.86 2
      vertex 0.802494 -2 0
      vertex 11.58 -28.86 -2
    endloop
  endfacet
  facet normal -0.928077 -0.372388 0
    outer loop
      vertex 0.802494 -2 0
      vertex 11.58 -28.86 2
      vertex 0.802494 -2 2
    endloop
  endfacet
  facet normal -0.928077 -0.372388 0
    outer loop
      vertex 0.708367 -1.76541 2
      vertex 0 0 2
      vertex 0 0 0
    endloop
  endfacet
  facet normal -0.928077 -0.372388 0
    outer loop
      vertex 0.707692 -1.76373 -2
      vertex 0 0 0
      vertex 0 0 -2
    endloop
  endfacet
  facet normal -0.979382 0.202017 0
    outer loop
      vertex 11.58 56.14 -2
      vertex 0.41254 2 0
      vertex 11.58 56.14 2
    endloop
  endfacet
  facet normal -0.979382 0.202017 4.37918e-09
    outer loop
      vertex 11.58 56.14 -2
      vertex 0.41254 2 -1.16587
      vertex 0.41254 2 0
    endloop
  endfacet
  facet normal -0.979382 0.202017 -9.84121e-09
    outer loop
      vertex 0 0 -2
      vertex 0.41254 2 -1.16587
      vertex 11.58 56.14 -2
    endloop
  endfacet
  facet normal -0.979382 0.202017 0
    outer loop
      vertex 0.41254 2 -1.16587
      vertex 0 0 -2
      vertex 0 0 0
    endloop
  endfacet
  facet normal -0.979382 0.202017 0
    outer loop
      vertex 0.41254 2 1.16476
      vertex 11.58 56.14 2
      vertex 0.41254 2 0
    endloop
  endfacet
  facet normal -0.979382 0.202017 3.71542e-09
    outer loop
      vertex 0.41254 2 1.16476
      vertex 0 0 2
      vertex 11.58 56.14 2
    endloop
  endfacet
  facet normal -0.979382 0.202017 0
    outer loop
      vertex 0 0 2
      vertex 0.41254 2 1.16476
      vertex 0 0 0
    endloop
  endfacet
  facet normal 0 1 -0
    outer loop
      vertex 34.56 56.14 -2
      vertex 11.58 56.14 2
      vertex 34.56 56.14 2
    endloop
  endfacet
  facet normal 0 1 0
    outer loop
      vertex 11.58 56.14 2
      vertex 34.56 56.14 -2
      vertex 11.58 56.14 -2
    endloop
  endfacet
  facet normal 0.981373 0.192114 -0
    outer loop
      vertex 45.1585 2 0
      vertex 34.56 56.14 2
      vertex 45.1585 2 2
    endloop
  endfacet
  facet normal 0.981373 0.192114 0
    outer loop
      vertex 34.56 56.14 2
      vertex 45.1585 2 0
      vertex 34.56 56.14 -2
    endloop
  endfacet
  facet normal 0.981373 0.192114 -1.72755e-08
    outer loop
      vertex 45.1585 2 -1.32568
      vertex 34.56 56.14 -2
      vertex 45.1585 2 0
    endloop
  endfacet
  facet normal 0.981373 0.192114 -3.39628e-08
    outer loop
      vertex 34.56 56.14 -2
      vertex 45.1585 2 -1.32568
      vertex 45.1585 2 -2
    endloop
  endfacet
  facet normal 0 1 -5.06735e-08
    outer loop
      vertex 53.84 2 0
      vertex 56.66 2 0
      vertex 46.83 2 -18.82
    endloop
  endfacet
  facet normal 0 1 0
    outer loop
      vertex 41.77 2 36.45
      vertex 45.1585 2 2
      vertex 12.91 2 36.45
    endloop
  endfacet
  facet normal 0 1 0
    outer loop
      vertex 53.84 2 0
      vertex 45.1585 2 2
      vertex 41.77 2 36.45
    endloop
  endfacet
  facet normal 0 1 0
    outer loop
      vertex 45.1585 2 2
      vertex 53.84 2 0
      vertex 45.1585 2 0
    endloop
  endfacet
  facet normal 0 1 0
    outer loop
      vertex 12.91 2 36.45
      vertex 45.1585 2 2
      vertex 0.708367 2 2
    endloop
  endfacet
  facet normal 0 1 0
    outer loop
      vertex 0.41254 2 1.16476
      vertex 0.41254 2 0
      vertex 0 2 0
    endloop
  endfacet
  facet normal 0 1 -8.9923e-08
    outer loop
      vertex 53.84 2 0
      vertex 45.1585 2 -1.32568
      vertex 45.1585 2 0
    endloop
  endfacet
  facet normal 0 1 -1.02249e-07
    outer loop
      vertex 0.41254 2 0
      vertex 0.41254 2 -1.16587
      vertex 0 2 0
    endloop
  endfacet
  facet normal 0 1 -1.2332e-07
    outer loop
      vertex 40.7425 2 -2
      vertex 2.75999 2 -7.79999
      vertex 0.707692 2 -2
    endloop
  endfacet
  facet normal 1.32639e-08 1 -1.76785e-07
    outer loop
      vertex 53.84 2 0
      vertex 45.1585 2 -2
      vertex 45.1585 2 -1.32568
    endloop
  endfacet
  facet normal 0 1 -4.25241e-08
    outer loop
      vertex 46.83 2 -18.82
      vertex 40.7425 2 -2
      vertex 45.1585 2 -2
    endloop
  endfacet
  facet normal -1.16915e-08 1 -4.67555e-08
    outer loop
      vertex 40.7425 2 -2
      vertex 46.83 2 -18.82
      vertex 2.75999 2 -7.79999
    endloop
  endfacet
  facet normal -1.72709e-08 1 -4.42405e-08
    outer loop
      vertex 46.83 2 -18.82
      vertex 45.1585 2 -2
      vertex 53.84 2 0
    endloop
  endfacet
  facet normal 0 -1 2.76829e-08
    outer loop
      vertex 43.9601 -2 2
      vertex 12.91 -2 36.45
      vertex 0.802494 -2 2
    endloop
  endfacet
  facet normal -5.55926e-07 -1 2.23064e-07
    outer loop
      vertex 0 -2 0
      vertex 0.802494 -2 2
      vertex 12.91 -2 36.45
    endloop
  endfacet
  facet normal 0 -1 -0
    outer loop
      vertex 0.802494 -2 2
      vertex 0 -2 0
      vertex 0.802494 -2 0
    endloop
  endfacet
  facet normal 0 -1 2.76829e-08
    outer loop
      vertex 12.91 -2 36.45
      vertex 43.9601 -2 2
      vertex 41.77 -2 36.45
    endloop
  endfacet
  facet normal 5.67691e-09 -1 2.80438e-08
    outer loop
      vertex 43.9601 -2 2
      vertex 53.84 -2 0
      vertex 41.77 -2 36.45
    endloop
  endfacet
  facet normal 0 -1 0
    outer loop
      vertex 53.84 -2 0
      vertex 43.9601 -2 2
      vertex 43.9601 -2 0
    endloop
  endfacet
  facet normal 0 -1 0
    outer loop
      vertex 0 -2 0
      vertex 0.802494 -2 -2
      vertex 0.802494 -2 0
    endloop
  endfacet
  facet normal 0 -1 0
    outer loop
      vertex 0.802494 -2 -2
      vertex 2.75999 -2 -7.79999
      vertex 43.9601 -2 -2
    endloop
  endfacet
  facet normal 0 -1 0
    outer loop
      vertex 2.75999 -2 -7.79999
      vertex 0.802494 -2 -2
      vertex 0 -2 0
    endloop
  endfacet
  facet normal 0 -1 0
    outer loop
      vertex 43.9601 -2 -2
      vertex 53.84 -2 0
      vertex 43.9601 -2 0
    endloop
  endfacet
  facet normal 0 -1 0
    outer loop
      vertex 46.83 -2 -18.82
      vertex 53.84 -2 0
      vertex 43.9601 -2 -2
    endloop
  endfacet
  facet normal 0 -1 -0
    outer loop
      vertex 53.84 -2 0
      vertex 46.83 -2 -18.82
      vertex 56.66 -2 0
    endloop
  endfacet
  facet normal 0 -1 0
    outer loop
      vertex 46.83 -2 -18.82
      vertex 43.9601 -2 -2
      vertex 2.75999 -2 -7.79999
    endloop
  endfacet
  facet normal -0 0 1
    outer loop
      vertex 53.84 2 0
      vertex 56.66 -2 0
      vertex 56.66 2 0
    endloop
  endfacet
  facet normal 0 0 1
    outer loop
      vertex 56.66 -2 0
      vertex 53.84 2 0
      vertex 53.84 -2 0
    endloop
  endfacet
  facet normal 0.949306 -0 0.314352
    outer loop
      vertex 41.77 -2 36.45
      vertex 53.84 2 0
      vertex 41.77 2 36.45
    endloop
  endfacet
  facet normal 0.949306 0 0.314352
    outer loop
      vertex 53.84 2 0
      vertex 41.77 -2 36.45
      vertex 53.84 -2 0
    endloop
  endfacet
  facet normal -0 0 1
    outer loop
      vertex 12.91 2 36.45
      vertex 41.77 -2 36.45
      vertex 41.77 2 36.45
    endloop
  endfacet
  facet normal 0 0 1
    outer loop
      vertex 41.77 -2 36.45
      vertex 12.91 2 36.45
      vertex 12.91 -2 36.45
    endloop
  endfacet
  facet normal -0.942622 -7.77934e-10 0.333861
    outer loop
      vertex 0.708367 -1.76541 2
      vertex 0 -2 0
      vertex 12.91 -2 36.45
    endloop
  endfacet
  facet normal -0.942622 0 0.333861
    outer loop
      vertex 0 -2 0
      vertex 0.708367 -1.76541 2
      vertex 0 0 0
    endloop
  endfacet
  facet normal -0.942622 0 0.333861
    outer loop
      vertex 0.708367 0 2
      vertex 12.91 2 36.45
      vertex 0.708367 2 2
    endloop
  endfacet
  facet normal -0.942622 0 0.333861
    outer loop
      vertex 12.91 -2 36.45
      vertex 0.708367 0 2
      vertex 0.708367 -1.76541 2
    endloop
  endfacet
  facet normal -0.942622 0 0.333861
    outer loop
      vertex 0.708367 0 2
      vertex 12.91 -2 36.45
      vertex 12.91 2 36.45
    endloop
  endfacet
  facet normal -0.942622 0 0.333861
    outer loop
      vertex 0.41254 2 1.16476
      vertex 0 2 0
      vertex 0 0 0
    endloop
  endfacet
  facet normal -0.942722 -0 -0.333579
    outer loop
      vertex 0 2 0
      vertex 0.41254 2 -1.16587
      vertex 0 0 0
    endloop
  endfacet
  facet normal -0.942722 0 -0.333579
    outer loop
      vertex 2.75999 2 -7.79999
      vertex 0.707692 0 -2
      vertex 0.707692 2 -2
    endloop
  endfacet
  facet normal -0.942722 0 -0.333579
    outer loop
      vertex 2.75999 -2 -7.79999
      vertex 0.707692 0 -2
      vertex 2.75999 2 -7.79999
    endloop
  endfacet
  facet normal -0.942722 3.1859e-08 -0.333579
    outer loop
      vertex 0.707692 0 -2
      vertex 2.75999 -2 -7.79999
      vertex 0.707692 -1.76373 -2
    endloop
  endfacet
  facet normal -0.942722 0 -0.333579
    outer loop
      vertex 0.707692 -1.76373 -2
      vertex 0 -2 0
      vertex 0 0 0
    endloop
  endfacet
  facet normal -0.942722 -1.56578e-07 -0.333579
    outer loop
      vertex 0 -2 0
      vertex 0.707692 -1.76373 -2
      vertex 2.75999 -2 -7.79999
    endloop
  endfacet
  facet normal -0.242588 0 -0.97013
    outer loop
      vertex 2.75999 -2 -7.79999
      vertex 46.83 2 -18.82
      vertex 46.83 -2 -18.82
    endloop
  endfacet
  facet normal -0.242588 0 -0.97013
    outer loop
      vertex 46.83 2 -18.82
      vertex 2.75999 -2 -7.79999
      vertex 2.75999 2 -7.79999
    endloop
  endfacet
  facet normal 0.886375 0 -0.462969
    outer loop
      vertex 56.66 -2 0
      vertex 46.83 2 -18.82
      vertex 56.66 2 0
    endloop
  endfacet
  facet normal 0.886375 0 -0.462969
    outer loop
      vertex 46.83 2 -18.82
      vertex 56.66 -2 0
      vertex 46.83 -2 -18.82
    endloop
  endfacet
endsolid OpenSCAD_Model
